<svg width="32" height="32" viewBox="0 0 32 32" fill="none" xmlns="http://www.w3.org/2000/svg">
<path d="M6.98558 8.02992L3.50781 11.5078L11.4891 19.4888L14.9668 16.0109L6.98558 8.02992Z" fill="#FB7452"/>
<path d="M11.5098 3.50578L8.03125 6.98438L11.5098 10.463L14.9884 6.98438L11.5098 3.50578Z" fill="#DD1D94"/>
<path d="M6.96297 17.0566L3.48438 20.5352L6.96297 24.0138L10.4416 20.5352L6.96297 17.0566Z" fill="#FB7452"/>
<path d="M20.5354 3.48413L12.5312 11.4883L16.0114 14.9684L24.0155 6.96426L20.5354 3.48413Z" fill="#DD1D94"/>
<path d="M15.9905 17.0388L7.98633 25.043L11.4642 28.5208L19.4683 20.5166L15.9905 17.0388Z" fill="#E1517D"/>
<path d="M20.511 12.5104L17.0332 15.9883L25.0143 23.9694L28.4922 20.4916L20.511 12.5104Z" fill="#5F3A9F"/>
<path d="M25.0372 7.98624L21.5586 11.4648L25.0372 14.9434L28.5158 11.4648L25.0372 7.98624Z" fill="#5F3A9F"/>
<path d="M20.4903 21.5331L17.0117 25.0117L20.4903 28.4903L23.9689 25.0117L20.4903 21.5331Z" fill="#E1517D"/>
<path d="M2.45974 18.4898C3.81822 18.4898 4.91948 17.3885 4.91948 16.0301C4.91948 14.6716 3.81822 13.5703 2.45974 13.5703C1.10126 13.5703 0 14.6716 0 16.0301C0 17.3885 1.10126 18.4898 2.45974 18.4898Z" fill="#FB7452"/>
<path d="M16.032 4.91948C17.3905 4.91948 18.4917 3.81822 18.4917 2.45974C18.4917 1.10126 17.3905 0 16.032 0C14.6735 0 13.5723 1.10126 13.5723 2.45974C13.5723 3.81822 14.6735 4.91948 16.032 4.91948Z" fill="#DD1D94"/>
<path d="M15.9656 32.0015C17.3241 32.0015 18.4253 30.9002 18.4253 29.5418C18.4253 28.1833 17.3241 27.082 15.9656 27.082C14.6071 27.082 13.5059 28.1833 13.5059 29.5418C13.5059 30.9002 14.6071 32.0015 15.9656 32.0015Z" fill="#E1517D"/>
<path d="M29.5398 18.4234C30.8983 18.4234 31.9996 17.3221 31.9996 15.9636C31.9996 14.6052 30.8983 13.5039 29.5398 13.5039C28.1813 13.5039 27.0801 14.6052 27.0801 15.9636C27.0801 17.3221 28.1813 18.4234 29.5398 18.4234Z" fill="#5F3A9F"/>
</svg>
