<svg width="110" height="24" viewBox="0 0 110 24" fill="none" xmlns="http://www.w3.org/2000/svg">
<path d="M39.3702 13.6178C39.1209 14.3625 38.646 15.0042 38.0157 15.4477C37.3854 15.8912 36.6334 16.1127 35.8716 16.0795C34.8381 16.0593 33.8536 15.6209 33.1296 14.8586C32.4056 14.0962 32 13.0708 32 12.0027C32 10.9345 32.4056 9.90908 33.1296 9.14673C33.8536 8.38437 34.8381 7.946 35.8716 7.92585C36.3673 7.92287 36.8586 8.02278 37.3163 8.21965C37.7739 8.41651 38.1887 8.70631 38.5359 9.07189C38.8831 9.43747 39.1558 9.87137 39.3377 10.3479C39.5197 10.8244 39.6072 11.3338 39.595 11.8458C39.5915 12.0313 39.5765 12.2163 39.5501 12.3997L39.5205 12.6175H33.8631C33.9164 13.1282 34.1518 13.6 34.5233 13.9413C34.8948 14.2825 35.376 14.4687 35.8731 14.4635C36.183 14.4798 36.4914 14.4099 36.7663 14.2612C37.0412 14.1125 37.2725 13.8903 37.4362 13.6178H39.3702ZM37.7326 11.3101C37.6941 10.8276 37.4813 10.3777 37.1365 10.0499C36.7917 9.72217 36.3401 9.54048 35.8716 9.54102C35.3858 9.53348 34.914 9.70885 34.5442 10.0344C34.1743 10.3599 33.9318 10.8133 33.8617 11.3101H37.7326Z" fill="#5F3A9F"/>
<path d="M42.0481 12.538C42.0481 13.4767 42.9411 14.2302 44.356 14.2302C45.8446 14.2302 46.4404 13.6305 46.4404 12.8458C46.4404 12.215 46.068 11.7076 44.7283 11.4607L42.9418 11.1529C41.1406 10.8452 40.336 9.7686 40.336 8.23036C40.336 6.44603 41.7502 5 44.2069 5C46.8864 5 48.2262 6.52444 48.2262 8.53816H46.2907C46.2907 7.61551 45.5607 6.84603 44.2062 6.84603C42.8518 6.84603 42.2709 7.44636 42.2709 8.23036C42.2709 8.84595 42.5687 9.26119 43.685 9.46445L45.3226 9.77225C47.4218 10.157 48.3744 11.0644 48.3744 12.8494C48.3744 14.6955 47.0347 16.0798 44.3546 16.0798C41.6745 16.0798 40.1113 14.5554 40.1113 12.5417L42.0481 12.538Z" fill="#5F3A9F"/>
<path d="M54.0334 15.1567H53.959C53.8097 15.3376 53.6341 15.4934 53.4385 15.6184C52.9472 15.9325 52.3784 16.0929 51.8008 16.0801C50.074 16.0801 49.047 14.9912 49.047 13.6955C49.047 12.1572 50.0895 11.0821 52.1732 11.0821H53.8853V10.9282C53.9025 10.7384 53.8803 10.547 53.8201 10.3668C53.7599 10.1866 53.6633 10.0218 53.5364 9.88342C53.4095 9.74504 53.2553 9.63627 53.0845 9.56443C52.9136 9.4926 52.7299 9.45935 52.5456 9.46691C52.2436 9.44115 51.9427 9.52774 51.6971 9.71102C51.4514 9.89431 51.2772 10.1622 51.2059 10.4665H49.342C49.5057 9.17438 50.5181 7.92578 52.5428 7.92578C54.4783 7.92578 55.7434 9.24914 55.7434 10.9253V15.9248H54.1796L54.0334 15.1567ZM53.8846 12.5434H52.3214C51.3533 12.5434 50.9072 12.9282 50.9072 13.5437C50.9072 14.1593 51.3393 14.5441 52.1015 14.5441C52.3361 14.5715 52.5738 14.5452 52.7975 14.4672C53.0212 14.3891 53.2256 14.2611 53.3961 14.0923C53.5666 13.9234 53.699 13.7179 53.7841 13.4902C53.8691 13.2626 53.9045 13.0184 53.888 12.775L53.8846 12.5434Z" fill="#5F3A9F"/>
<path d="M57.0105 8.08012H58.7226L58.8714 8.84963H58.9459C59.0714 8.67355 59.2218 8.51791 59.392 8.38792C59.7775 8.08639 60.2482 7.92417 60.7317 7.92624C61.3064 7.91512 61.8679 8.10493 62.325 8.46489C62.5114 8.62105 62.6768 8.80218 62.8168 9.0035H62.8912C63.0472 8.80131 63.2274 8.62034 63.4274 8.46489C63.9236 8.10405 64.518 7.91543 65.1247 7.92624C65.5113 7.93969 65.8914 8.03213 66.2433 8.19822C66.5952 8.36432 66.9118 8.60077 67.1748 8.89395C67.4378 9.18714 67.6419 9.53123 67.7754 9.90637C67.909 10.2815 67.9693 10.6803 67.953 11.0797V15.9252H66.092V11.2328C66.092 10.2332 65.5862 9.69458 64.8274 9.69458C64.6353 9.6942 64.445 9.73434 64.2683 9.81251C64.0916 9.89067 63.9323 10.0052 63.7999 10.1492C63.6675 10.2932 63.565 10.4635 63.4986 10.6498C63.4321 10.8362 63.4031 11.0345 63.4133 11.2328V15.9252H61.5515V11.2328C61.5515 10.2332 61.0458 9.69458 60.2871 9.69458C60.0949 9.69411 59.9046 9.73416 59.7278 9.81229C59.5511 9.89041 59.3915 10.005 59.2591 10.149C59.1266 10.2929 59.0241 10.4633 58.9575 10.6497C58.891 10.836 58.8619 11.0345 58.8721 11.2328V15.9252H57.0112L57.0105 8.08012Z" fill="#5F3A9F"/>
<path d="M69.2183 8.07812H71.0793V12.6166C71.0793 13.0654 71.2517 13.4958 71.5588 13.8131C71.8659 14.1305 72.2826 14.3087 72.7169 14.3087C73.1512 14.3087 73.5677 14.1305 73.8748 13.8131C74.1819 13.4958 74.3543 13.0654 74.3543 12.6166V8.07812H76.2154V15.9239H74.5034L74.3543 15.1545H74.2799C74.1326 15.3316 73.9624 15.487 73.7741 15.6162C73.3026 15.9248 72.7543 16.0852 72.1962 16.0778C71.7847 16.0823 71.3769 15.998 70.9988 15.8303C70.6207 15.6626 70.2807 15.4151 70.0004 15.1038C69.7202 14.7925 69.5059 14.4242 69.3713 14.0224C69.2367 13.6206 69.185 13.1942 69.219 12.7705L69.2183 8.07812Z" fill="#5F3A9F"/>
<path d="M82.99 15.0782H82.9156C82.7667 15.2784 82.5854 15.4504 82.3796 15.5864C81.8735 15.9205 81.2827 16.0918 80.6823 16.0785C78.7468 16.0785 77.1837 14.4634 77.1837 12.0017C77.1837 9.54012 78.7468 7.92493 80.6823 7.92493C81.2656 7.91696 81.8371 8.09433 82.3197 8.43307C82.5202 8.56406 82.6968 8.73069 82.8411 8.92525H82.9156V5.15625H84.7765V15.9246H83.1375L82.99 15.0782ZM82.9156 12.0017C82.9156 10.5245 82.1118 9.694 80.98 9.694C79.8483 9.694 79.0446 10.5245 79.0446 12.0017C79.0446 13.479 79.8483 14.3095 80.98 14.3095C82.1118 14.3095 82.9156 13.4783 82.9156 12.0017Z" fill="#5F3A9F"/>
<path d="M90.8033 15.1567H90.7289C90.5794 15.3376 90.4036 15.4934 90.2077 15.6184C89.7165 15.9326 89.1476 16.093 88.5701 16.0801C86.8432 16.0801 85.816 14.9912 85.816 13.6954C85.816 12.1572 86.858 11.0821 88.9424 11.0821H90.6545V10.9282C90.6717 10.7384 90.6495 10.547 90.5893 10.3668C90.5291 10.1866 90.4323 10.0218 90.3054 9.88342C90.1786 9.74504 90.0245 9.63627 89.8537 9.56443C89.6828 9.4926 89.4991 9.45935 89.3148 9.46691C89.0128 9.44131 88.7119 9.52794 88.4663 9.7112C88.2207 9.89446 88.0465 10.1623 87.9751 10.4665H86.114C86.2776 9.17438 87.2901 7.92578 89.3148 7.92578C91.2502 7.92578 92.5154 9.24914 92.5154 10.9253V15.9248H90.9522L90.8033 15.1567ZM90.6545 12.5434H89.0913C88.1246 12.5434 87.6771 12.9282 87.6771 13.5437C87.6771 14.1593 88.1092 14.5441 88.8714 14.5441C89.106 14.5714 89.3436 14.5451 89.5672 14.4669C89.7909 14.3888 89.9951 14.2608 90.1655 14.092C90.3359 13.9231 90.4683 13.7176 90.5533 13.49C90.6383 13.2624 90.6737 13.0183 90.6572 12.775L90.6545 12.5434Z" fill="#5F3A9F"/>
<path d="M98.3981 15.1567H98.3237C98.1742 15.3376 97.9982 15.4934 97.8023 15.6184C97.3108 15.9326 96.742 16.093 96.1642 16.0801C94.4374 16.0801 93.4102 14.9912 93.4102 13.6954C93.4102 12.1572 94.452 11.0821 96.5364 11.0821H98.2484V10.9282C98.2657 10.7384 98.2436 10.547 98.1834 10.3668C98.1232 10.1866 98.0264 10.0218 97.8996 9.88342C97.7727 9.74504 97.6187 9.63627 97.4478 9.56443C97.2769 9.4926 97.093 9.45935 96.9087 9.46691C96.6067 9.44115 96.3059 9.52774 96.0602 9.71102C95.8146 9.89431 95.6403 10.1622 95.569 10.4665H93.7081C93.8725 9.17438 94.884 7.92578 96.9094 7.92578C98.8449 7.92578 100.11 9.24914 100.11 10.9253V15.9248H98.5443L98.3981 15.1567ZM98.2491 12.5434H96.6861C95.7187 12.5434 95.2713 12.9282 95.2713 13.5437C95.2713 14.1593 95.7033 14.5441 96.4655 14.5441C96.7002 14.5715 96.9378 14.5452 97.1615 14.4672C97.3853 14.3891 97.5896 14.2611 97.7601 14.0923C97.9306 13.9234 98.0631 13.7179 98.1481 13.4902C98.2331 13.2626 98.2686 13.0184 98.252 12.775L98.2491 12.5434Z" fill="#5F3A9F"/>
<path d="M101.003 17.2313H102.491C102.864 17.2313 102.983 17.0774 103.057 16.8466L103.191 16.4618L100.109 8.07812H102.045L103.98 13.3854H104.278L106.064 8.07812H108L104.799 17.4622C104.442 18.5387 103.965 19.0004 102.567 19.0004H101.003L101.003 17.2313Z" fill="#5F3A9F"/>
<path d="M11.4926 8.01506L9.75378 9.75391L13.7442 13.7442L15.483 12.0053L11.4926 8.01506Z" fill="#FB7452"/>
<path d="M13.7546 5.75299L12.0154 7.49219L13.7546 9.23139L15.4938 7.49219L13.7546 5.75299Z" fill="#DD1D94"/>
<path d="M11.4809 12.5264L9.7417 14.2656L11.4809 16.0048L13.2201 14.2656L11.4809 12.5264Z" fill="#FB7452"/>
<path d="M18.2669 5.74034L14.265 9.74219L16.005 11.4822L20.0068 7.48031L18.2669 5.74034Z" fill="#DD1D94"/>
<path d="M15.995 12.5177L11.9932 16.5195L13.732 18.2583L17.7338 14.2565L15.995 12.5177Z" fill="#E1517D"/>
<path d="M18.2553 10.2534L16.5165 11.9922L20.5068 15.9825L22.2456 14.2437L18.2553 10.2534Z" fill="#5F3A9F"/>
<path d="M20.5184 7.99127L18.7792 9.73047L20.5184 11.4697L22.2576 9.73047L20.5184 7.99127Z" fill="#5F3A9F"/>
<path d="M18.2446 14.7686L16.5054 16.5078L18.2446 18.247L19.9838 16.5078L18.2446 14.7686Z" fill="#E1517D"/>
<path d="M9.2298 13.2448C9.909 13.2448 10.4596 12.6942 10.4596 12.015C10.4596 11.3358 9.909 10.7852 9.2298 10.7852C8.5506 10.7852 8 11.3358 8 12.015C8 12.6942 8.5506 13.2448 9.2298 13.2448Z" fill="#FB7452"/>
<path d="M16.0158 6.4596C16.695 6.4596 17.2456 5.909 17.2456 5.2298C17.2456 4.5506 16.695 4 16.0158 4C15.3366 4 14.786 4.5506 14.786 5.2298C14.786 5.909 15.3366 6.4596 16.0158 6.4596Z" fill="#DD1D94"/>
<path d="M15.9824 19.9987C16.6616 19.9987 17.2122 19.4481 17.2122 18.7689C17.2122 18.0897 16.6616 17.5391 15.9824 17.5391C15.3032 17.5391 14.7526 18.0897 14.7526 18.7689C14.7526 19.4481 15.3032 19.9987 15.9824 19.9987Z" fill="#E1517D"/>
<path d="M22.7692 13.2096C23.4484 13.2096 23.999 12.659 23.999 11.9798C23.999 11.3006 23.4484 10.75 22.7692 10.75C22.09 10.75 21.5394 11.3006 21.5394 11.9798C21.5394 12.659 22.09 13.2096 22.7692 13.2096Z" fill="#5F3A9F"/>
</svg>
