<svg xmlns="http://www.w3.org/2000/svg" xmlns:xlink="http://www.w3.org/1999/xlink" width="3646" height="704" viewBox="0 0 3646 704">
  <defs>
    <clipPath id="clip-HackOn_SVG">
      <rect width="3646" height="704"/>
    </clipPath>
  </defs>
  <g id="HackOn_SVG" data-name="HackOn SVG" clip-path="url(#clip-HackOn_SVG)">
    <rect width="3646" height="704" fill="#0c0d21"/>
    <path id="Path_4228" data-name="Path 4228" d="M355.975-343.7V0H276.433V-140.917H120.3V0H40.753V-343.7H120.3v135.516H276.433V-343.7ZM678.562-73.65H518.987L488.545,0H407.039L560.231-343.7h78.56L792.474,0H709Zm-25.041-60.393-54.5-131.588-54.5,131.588Zm349.1,139.935q-52.537,0-95.009-22.832T840.838-80.279q-24.3-40.507-24.3-91.572t24.3-91.572q24.3-40.507,66.776-63.339t95.5-22.831q44.681,0,80.77,15.712a161.778,161.778,0,0,1,60.638,45.172l-51.064,47.136q-34.861-40.262-86.416-40.262-31.915,0-56.956,13.993a99.478,99.478,0,0,0-39.034,39.035q-13.994,25.041-13.994,56.956t13.994,56.956A99.479,99.479,0,0,0,950.085-75.86q25.041,13.994,56.956,13.994,51.555,0,86.416-40.753l51.064,47.136A159.168,159.168,0,0,1,1083.637-9.82Q1047.3,5.892,1002.622,5.892Zm335.353-140.917-46.154,48.118V0H1212.77V-343.7h79.051v160.557L1444.031-343.7h88.38l-142.39,153.192L1540.758,0h-92.8ZM1745.014,5.892q-53.519,0-96.482-23.077T1581.266-80.77q-24.3-40.507-24.3-91.08t24.3-91.081q24.3-40.507,67.267-63.585t96.482-23.077q53.519,0,96.236,23.077t67.267,63.585q24.55,40.508,24.55,91.081t-24.55,91.08q-24.55,40.508-67.267,63.585T1745.014,5.892Zm0-67.758q30.442,0,54.992-13.994a100.419,100.419,0,0,0,38.544-39.035q13.993-25.041,13.994-56.956t-13.994-56.956a100.419,100.419,0,0,0-38.544-39.035q-24.55-13.993-54.992-13.993t-54.992,13.993a100.42,100.42,0,0,0-38.543,39.035q-13.993,25.041-13.994,56.956t13.994,56.956a100.42,100.42,0,0,0,38.543,39.035Q1714.572-61.866,1745.014-61.866ZM2322.921-343.7V0h-65.3L2086.259-208.675V0H2007.7V-343.7h65.794l170.868,208.675V-343.7ZM2808.029-64.812V0H2548.29V-51.555L2680.86-176.76q21.113-20.131,28.478-34.616T2716.7-240.1q0-20.622-13.993-31.669t-41-11.048q-22.586,0-40.753,8.592a78.042,78.042,0,0,0-30.442,25.777l-57.938-37.316q20.131-29.951,55.483-46.891t81.015-16.94q38.3,0,67.021,12.521t44.681,35.352q15.958,22.832,15.958,53.765a119.847,119.847,0,0,1-11.784,52.537q-11.784,24.55-45.663,55.974l-79.051,74.632Zm97.709,68.74q-20.131,0-33.879-13.748t-13.748-34.37q0-21.113,13.748-34.124t33.879-13.012q20.131,0,33.879,13.012t13.748,34.124q0,20.622-13.748,34.37T2905.739,3.928Zm239.117,1.964q-42.717,0-76.1-21.113t-52.292-61.13q-18.9-40.017-18.9-95.5t18.9-95.5q18.9-40.016,52.292-61.129t76.1-21.113q42.717,0,76.1,21.113t52.292,61.129q18.9,40.017,18.9,95.5t-18.9,95.5q-18.9,40.017-52.292,61.13T3144.855,5.892Zm0-67.267q31.424,0,49.345-27.005t17.922-83.47q0-56.465-17.922-83.47t-49.345-27q-30.933,0-48.854,27t-17.921,83.47q0,56.465,17.921,83.47T3144.855-61.375Z" transform="translate(156.546 523.85)" fill="#fff"/>
    <path id="Path_4229" data-name="Path 4229" d="M207.2,5.892q-53.519,0-96.482-23.077T43.453-80.77q-24.3-40.507-24.3-91.08t24.3-91.081q24.3-40.507,67.267-63.585T207.2-349.592q53.519,0,96.236,23.077t67.267,63.585q24.55,40.508,24.55,91.081t-24.55,91.08q-24.55,40.508-67.267,63.585T207.2,5.892Zm0-67.758q30.442,0,54.992-13.994a100.419,100.419,0,0,0,38.543-39.035q13.994-25.041,13.993-56.956t-13.993-56.956a100.419,100.419,0,0,0-38.543-39.035q-24.55-13.993-54.992-13.993T152.21-267.841a100.419,100.419,0,0,0-38.544,39.035Q99.673-203.765,99.673-171.85t13.993,56.956A100.419,100.419,0,0,0,152.21-75.86Q176.76-61.866,207.2-61.866Z" transform="translate(1694.49 523.85)" fill="#e58ab2"/>
  </g>
</svg>
