<svg width="17" height="17" viewBox="0 0 17 17" fill="none" xmlns="http://www.w3.org/2000/svg">
<path d="M1.77764 9.4029H7.36524V14.9905C7.36524 15.5584 7.8324 16.0347 8.40948 16.0347C8.98656 16.0347 9.45371 15.5584 9.45371 14.9905V9.4029H15.0413C15.6092 9.4029 16.0856 8.93574 16.0856 8.35866C16.0856 7.78158 15.6092 7.31442 15.0413 7.31442H9.45371V1.72683C9.45371 1.15891 8.98656 0.682587 8.40948 0.682587C7.8324 0.682587 7.36524 1.15891 7.36524 1.72683V7.31442H1.77764C1.20972 7.31442 0.733398 7.78158 0.733398 8.35866C0.733398 8.93574 1.20972 9.4029 1.77764 9.4029Z" fill="white"/>
</svg>
