<svg width="15" height="16" viewBox="0 0 15 16" fill="none" xmlns="http://www.w3.org/2000/svg">
<path d="M0.3099 13.6854C-0.0748201 14.0701 -0.0931401 14.7571 0.31906 15.1602C0.7221 15.5632 1.4091 15.554 1.79382 15.1693L7.39974 9.55425L13.0148 15.1693C13.4087 15.5632 14.0865 15.5632 14.4896 15.1602C14.8835 14.748 14.8926 14.0793 14.4896 13.6854L8.88366 8.07033L14.4896 2.46441C14.8926 2.07053 14.8926 1.39269 14.4896 0.989653C14.0774 0.595773 13.4087 0.586613 13.0148 0.980493L7.39974 6.59557L1.79382 0.980493C1.4091 0.595773 0.71294 0.577453 0.31906 0.989653C-0.0839801 1.39269 -0.0748201 2.07969 0.3099 2.46441L5.92498 8.07033L0.3099 13.6854Z" fill="white"/>
</svg>
