<svg xmlns="http://www.w3.org/2000/svg" width="24.666" height="18.518" viewBox="0 0 24.666 18.518"><g id="Discord" transform="translate(-4 -10.961)"><path id="Path_9" fill="#fff" d="M37.734,30a2,2,0,1,0,1.734,1.982A1.871,1.871,0,0,0,37.734,30Zm0,0" data-name="Path 9" transform="translate(-17.904 -10.652)"/><path id="Path_10" fill="#fff" d="M25.259,13.153c-2.122-1.705-5.737-2.17-5.89-2.189a.439.439,0,0,0-.456.258,5.2,5.2,0,0,0-.342,1.225,17.439,17.439,0,0,0-2.244-.148,17.224,17.224,0,0,0-2.33.158,5.162,5.162,0,0,0-.346-1.237.441.441,0,0,0-.458-.256,13.45,13.45,0,0,0-5.809,2.208C6.256,14.217,4,20.284,4,25.514a.447.447,0,0,0,.059.219c1.509,2.652,5.971,3.713,6.976,3.746h.014a.44.44,0,0,0,.344-.165l1.54-1.924a17.463,17.463,0,0,0,3.412.327,17.314,17.314,0,0,0,3.395-.325l1.537,1.922a.44.44,0,0,0,.344.165h.014c1-.033,5.458-1.1,6.976-3.765a.436.436,0,0,0,.057-.219C28.668,20.275,26.412,14.215,25.259,13.153ZM21.818,28.582,20.69,27.171a10.782,10.782,0,0,0,3.853-1.757.441.441,0,0,0-.559-.681c-.026.021-2.645,2.1-7.64,2.1s-7.629-2.079-7.662-2.1a.441.441,0,0,0-.556.685,10.909,10.909,0,0,0,3.854,1.752l-1.13,1.414c-1.28-.143-4.73-1.172-5.967-3.188.034-4.98,2.209-10.749,3.078-11.554a12.133,12.133,0,0,1,5-1.948,4.572,4.572,0,0,1,.165.711,12.077,12.077,0,0,0-4.073,1.524.44.44,0,1,0,.463.749,13.428,13.428,0,0,1,6.809-1.695,13.453,13.453,0,0,1,6.822,1.7.44.44,0,1,0,.465-.749,12.146,12.146,0,0,0-4.173-1.543,4.586,4.586,0,0,1,.162-.693,12.236,12.236,0,0,1,5.081,1.929c.893.824,3.066,6.585,3.1,11.556C26.541,27.405,23.1,28.44,21.818,28.582Zm0,0" data-name="Path 10"/><path id="Path_11" fill="#fff" d="M21.762,30a2,2,0,0,0,0,3.964,2,2,0,0,0,0-3.964Zm0,0" data-name="Path 11" transform="translate(-8.952 -10.652)"/></g></svg>