<svg xmlns="http://www.w3.org/2000/svg" width="20.79" height="20.79" viewBox="0 0 20.79 20.79">
  <g id="_014-instagram" data-name="014-instagram" transform="translate(0.001 0)">
    <path id="Path_4" data-name="Path 4" d="M15.162,0H5.627A5.634,5.634,0,0,0,0,5.628v9.535A5.634,5.634,0,0,0,5.627,20.79h9.535a5.634,5.634,0,0,0,5.628-5.628V5.628A5.634,5.634,0,0,0,15.162,0Zm4.409,15.163a4.414,4.414,0,0,1-4.409,4.409H5.627a4.414,4.414,0,0,1-4.409-4.409V5.628A4.414,4.414,0,0,1,5.627,1.219h9.535a4.414,4.414,0,0,1,4.409,4.409Zm0,0" transform="translate(0)" fill="#fff"/>
    <path id="Path_5" data-name="Path 5" d="M121.689,116a5.685,5.685,0,1,0,5.685,5.685A5.691,5.691,0,0,0,121.689,116Zm0,10.151a4.466,4.466,0,1,1,4.466-4.466A4.471,4.471,0,0,1,121.689,126.155Zm0,0" transform="translate(-111.294 -111.294)" fill="#fff"/>
    <path id="Path_6" data-name="Path 6" d="M359.657,66.285a1.68,1.68,0,1,0,1.68,1.68A1.682,1.682,0,0,0,359.657,66.285Zm0,2.141a.461.461,0,1,1,.461-.461A.462.462,0,0,1,359.657,68.426Zm0,0" transform="translate(-343.442 -63.594)" fill="#fff"/>
  </g>
</svg>
