<svg xmlns="http://www.w3.org/2000/svg" id="_015-linkedin" width="16.54" height="18.567" data-name="015-linkedin" viewBox="0 0 16.54 18.567"><path id="Path_1" fill="#fff" d="M4.266,151.625H1.136a.637.637,0,0,0-.636.636v11.8a.637.637,0,0,0,.636.636h3.13a.637.637,0,0,0,.636-.636v-11.8A.637.637,0,0,0,4.266,151.625ZM3.813,163.6H1.589V152.714H3.813Zm0,0" data-name="Path 1" transform="translate(-0.481 -146.127)"/><path id="Path_2" fill="#fff" d="M2.219,0A2.219,2.219,0,1,0,4.439,2.219,2.222,2.222,0,0,0,2.219,0Zm0,3.349a1.13,1.13,0,1,1,1.13-1.13A1.131,1.131,0,0,1,2.219,3.349Zm0,0" data-name="Path 2"/><path id="Path_3" fill="#fff" d="M166.686,153.012a4.061,4.061,0,0,0-2.677-.94,4.1,4.1,0,0,0-1.739.423v-.258a.608.608,0,0,0-.608-.608h-3.187a.608.608,0,0,0-.608.608V164.09a.608.608,0,0,0,.608.608h3.25a.545.545,0,0,0,.545-.545v-7.067a1.127,1.127,0,0,1,1.078-1.135,1.113,1.113,0,0,1,1.145,1.111v7.1a.533.533,0,0,0,.533.533h3.123a.533.533,0,0,0,.533-.533v-6.886a5.543,5.543,0,0,0-2-4.266Zm.908,10.6h-2.011v-6.546a2.2,2.2,0,0,0-4.4,0v6.546h-2.223V152.719h2.223v.792h0a.544.544,0,0,0,.905.408,3.018,3.018,0,0,1,1.942-.757,2.968,2.968,0,0,1,1.959.688,4.456,4.456,0,0,1,1.606,3.43Zm0,0" data-name="Path 3" transform="translate(-152.143 -146.131)"/></svg>