<svg xmlns="http://www.w3.org/2000/svg" width="22.07" height="16.716" viewBox="0 0 22.07 16.716">
  <g id="_018-youtube" data-name="018-youtube" transform="translate(0.001 0)">
    <path id="Path_7" data-name="Path 7" d="M197.147,109.3l-4.876-2.668a.9.9,0,0,0-1.325.786v5.29a.894.894,0,0,0,1.32.789l4.876-2.622a.9.9,0,0,0,.006-1.574Zm-4.908,2.742v-3.953l3.644,1.994Zm0,0" transform="translate(-182.716 -101.932)" fill="#fff"/>
    <path id="Path_8" data-name="Path 8" d="M21.906,3.945v-.01a5.047,5.047,0,0,0-.973-2.561A3.591,3.591,0,0,0,18.554.259l-.11-.013-.039,0C15.488.029,11.082,0,11.038,0H11.03c-.044,0-4.45.029-7.394.241L3.6.245l-.1.012a3.5,3.5,0,0,0-2.365,1.15A5.289,5.289,0,0,0,.164,3.923l0,.023C.155,4.019,0,5.779,0,7.545V9.2c0,1.767.156,3.526.162,3.6v.011a5,5,0,0,0,.969,2.53,3.665,3.665,0,0,0,2.458,1.1c.09.01.167.019.22.028l.051.007c1.685.16,6.966.239,7.19.242h.013c.044,0,4.45-.029,7.368-.241l.039,0,.124-.014a3.42,3.42,0,0,0,2.344-1.122A5.289,5.289,0,0,0,21.9,12.82l0-.023c.007-.074.162-1.834.162-3.6V7.545c0-1.767-.156-3.526-.162-3.6ZM20.775,9.2c0,1.635-.143,3.319-.156,3.474a4.106,4.106,0,0,1-.634,1.792,2.127,2.127,0,0,1-1.526.708l-.138.015c-2.822.2-7.062.235-7.257.237-.219,0-5.424-.083-7.057-.235-.084-.014-.174-.024-.269-.035a2.418,2.418,0,0,1-1.654-.691l-.012-.013a3.725,3.725,0,0,1-.622-1.774c-.01-.117-.157-1.821-.157-3.479V7.545c0-1.633.142-3.315.156-3.473A4.022,4.022,0,0,1,2.083,2.28a2.231,2.231,0,0,1,1.559-.738l.105-.013c2.863-.205,7.133-.236,7.287-.237s4.422.032,7.26.237l.114.013a2.316,2.316,0,0,1,1.584.717L20,2.266a3.785,3.785,0,0,1,.622,1.8c.01.11.157,1.818.157,3.479Zm0,0" transform="translate(0 0)" fill="#fff"/>
  </g>
</svg>
