<svg id="Illustration" xmlns="http://www.w3.org/2000/svg" width="608.295" height="373.86" viewBox="0 0 608.295 373.86">
  <g id="Layer_1" data-name="Layer 1">
    <rect id="Rectangle_71" data-name="Rectangle 71" width="132.017" height="88.392" transform="translate(0.233 43.136)" fill="#fff"/>
    <path id="Path_8050" data-name="Path 8050" d="M132.25,143.853v-6.269c0-4.086,0-10.1-.047-17.773,0-15.357-.062-37.434-.1-64.342l.186.186L.249,55.694h0l.241-.233v88.392L.233,143.6l95.111.109,27.188.054h.093l-27.126.062L.233,144.07H0V55.22H.249l132,.047h.194v.194c-.047,26.955-.078,49.07-.1,64.474,0,7.667-.039,13.656-.047,17.734v4.661C132.3,143.418,132.25,143.853,132.25,143.853Z" transform="translate(0 -12.325)" fill="#e1e1e1"/>
    <path id="Path_8051" data-name="Path 8051" d="M.3,65.613c0-.132,29.518-.233,65.95-.233s65.958.1,65.958.233-29.526.249-65.958.249S.3,65.745.3,65.613Z" transform="translate(-0.067 -14.593)" fill="#e1e1e1"/>
    <g id="Group_406" data-name="Group 406" transform="translate(3.325 45.986)" opacity="0.3">
      <path id="Path_8052" data-name="Path 8052" d="M6.393,60.256A1.056,1.056,0,1,1,5.344,59.2a1.056,1.056,0,0,1,1.049,1.056Z" transform="translate(-4.28 -59.2)" fill="#e1e1e1"/>
    </g>
    <g id="Group_407" data-name="Group 407" transform="translate(6.945 45.986)" opacity="0.3">
      <path id="Path_8053" data-name="Path 8053" d="M11.068,60.256a1.056,1.056,0,1,1-.312-.75,1.064,1.064,0,0,1,.312.75Z" transform="translate(-8.94 -59.2)" fill="#e1e1e1"/>
    </g>
    <g id="Group_408" data-name="Group 408" transform="translate(10.518 45.986)" opacity="0.3">
      <path id="Path_8054" data-name="Path 8054" d="M15.668,60.256A1.064,1.064,0,1,1,14.612,59.2,1.064,1.064,0,0,1,15.668,60.256Z" transform="translate(-13.54 -59.2)" fill="#e1e1e1"/>
    </g>
    <rect id="Rectangle_72" data-name="Rectangle 72" width="35.212" height="35.212" transform="translate(11.59 60.241)" fill="#e1e1e1"/>
    <path id="Path_8055" data-name="Path 8055" d="M129.367,90.293c0,.132-13.734.241-30.676.241S68,90.425,68,90.293s13.734-.233,30.676-.233S129.367,90.161,129.367,90.293Z" transform="translate(-15.178 -20.102)" fill="#e1e1e1"/>
    <path id="Path_8056" data-name="Path 8056" d="M129.367,98.721c0,.124-13.734.233-30.676.233S68,98.884,68,98.721s13.734-.241,30.676-.241S129.367,98.589,129.367,98.721Z" transform="translate(-15.178 -21.981)" fill="#e1e1e1"/>
    <path id="Path_8057" data-name="Path 8057" d="M129.367,107.143c0,.132-13.734.241-30.676.241S68,107.275,68,107.143s13.734-.233,30.676-.233S129.367,106.98,129.367,107.143Z" transform="translate(-15.178 -23.863)" fill="#e1e1e1"/>
    <path id="Path_8058" data-name="Path 8058" d="M104.231,115.563a7.037,7.037,0,0,1-1.429.093l-3.884.078c-3.278.047-7.815.07-12.817.07s-9.539,0-12.817-.07l-3.884-.078a6.991,6.991,0,0,1-1.429-.093,8.343,8.343,0,0,1,1.429-.085l3.884-.078c3.278-.047,7.815-.07,12.817-.07s9.539,0,12.817.07l3.884.078a8.451,8.451,0,0,1,1.429.085Z" transform="translate(-15.171 -25.742)" fill="#e1e1e1"/>
    <rect id="Rectangle_73" data-name="Rectangle 73" width="16.546" height="16.546" transform="translate(13.788 107.33)" fill="#e1e1e1"/>
    <rect id="Rectangle_74" data-name="Rectangle 74" width="16.546" height="16.546" transform="translate(43.804 107.33)" fill="#e1e1e1"/>
    <rect id="Rectangle_75" data-name="Rectangle 75" width="16.546" height="16.546" transform="translate(73.819 107.33)" fill="#e1e1e1"/>
    <rect id="Rectangle_76" data-name="Rectangle 76" width="16.546" height="16.546" transform="translate(103.827 107.33)" fill="#e1e1e1"/>
    <rect id="Rectangle_77" data-name="Rectangle 77" width="113.715" height="46.188" transform="translate(151.732 0.179)" fill="#fff"/>
    <path id="Path_8059" data-name="Path 8059" d="M309,46.375V33.954c0-7.97,0-19.5-.07-33.775l.132.124L195.289.357h0l.179-.179V46.367L195.3,46.2l81.564.085,23.654.047h.031l-23.615.047-81.649.085h-.171V0h.186L309,.054h.124V.179c0,14.309-.054,25.867-.07,33.853V45.575A4.329,4.329,0,0,1,309,46.375Z" transform="translate(-43.549)" fill="#e1e1e1"/>
    <path id="Path_8060" data-name="Path 8060" d="M195.48,8.2c0-.1,25.417-.179,56.761-.179s56.776.078,56.776.179-25.417.179-56.776.179S195.48,8.3,195.48,8.2Z" transform="translate(-43.632 -1.79)" fill="#e1e1e1"/>
    <g id="Group_409" data-name="Group 409" transform="translate(154.948 2.796)" opacity="0.3">
      <path id="Path_8061" data-name="Path 8061" d="M201.132,4.423A.831.831,0,1,1,200.3,3.6a.831.831,0,0,1,.831.823Z" transform="translate(-199.47 -3.6)" fill="#ececec"/>
    </g>
    <g id="Group_410" data-name="Group 410" transform="translate(157.775 2.796)" opacity="0.3">
      <path id="Path_8062" data-name="Path 8062" d="M204.772,4.423a.831.831,0,1,1-.831-.823.831.831,0,0,1,.831.823Z" transform="translate(-203.11 -3.6)" fill="#ececec"/>
    </g>
    <g id="Group_411" data-name="Group 411" transform="translate(160.572 2.796)" opacity="0.3">
      <circle id="Ellipse_10" data-name="Ellipse 10" cx="0.823" cy="0.823" r="0.823" fill="#ececec"/>
    </g>
    <rect id="Rectangle_78" data-name="Rectangle 78" width="27.468" height="27.468" transform="translate(161.395 13.92)" fill="#e1e1e1"/>
    <path id="Path_8063" data-name="Path 8063" d="M313.458,27.339c0,.1-14.138.179-31.569.179s-31.569-.078-31.569-.179,14.13-.179,31.569-.179S313.458,27.238,313.458,27.339Z" transform="translate(-55.872 -6.062)" fill="#e1e1e1"/>
    <path id="Path_8064" data-name="Path 8064" d="M313.458,34.546c0,.093-14.138.179-31.569.179s-31.569-.085-31.569-.179,14.13-.186,31.569-.186S313.458,34.445,313.458,34.546Z" transform="translate(-55.872 -7.669)" fill="#e1e1e1"/>
    <path id="Path_8065" data-name="Path 8065" d="M290.967,41.787a2.431,2.431,0,0,1-.412.039h-1.181l-4.342.117L270.661,42l-14.371-.054-4.35-.054h-1.188a2.431,2.431,0,0,1-.412-.039,1.7,1.7,0,0,1,.412,0h1.188l4.35-.062,14.371-.047,14.371.047,4.358.062h1.181a1.7,1.7,0,0,1,.4-.062Z" transform="translate(-55.877 -9.316)" fill="#e1e1e1"/>
    <path id="Path_8066" data-name="Path 8066" d="M736.72,74.724a4.128,4.128,0,0,1,.637-.73l1.911-1.88c1.554-1.554,3.814-3.721,6.277-6.075l.062-.054V66.3c-2.486-2.33-4.723-4.42-6.323-5.958L737.4,58.5a4.372,4.372,0,0,1-.645-.715,4.177,4.177,0,0,1,.777.59l1.973,1.74c1.655,1.484,3.884,3.55,6.409,5.865l.171.155-.171.163-.054.047c-2.47,2.33-4.723,4.474-6.37,5.989l-1.965,1.779a4.229,4.229,0,0,1-.808.606Z" transform="translate(-164.438 -12.899)" fill="#e1e1e1"/>
    <path id="Path_8067" data-name="Path 8067" d="M709.319,57.79a4.365,4.365,0,0,1-.645.73L706.8,60.392c-1.554,1.554-3.806,3.729-6.277,6.082l-.054.054V66.21c2.486,2.33,4.715,4.412,6.315,5.958.777.722,1.375,1.336,1.88,1.841a3.991,3.991,0,0,1,.653.715,3.887,3.887,0,0,1-.777-.6l-1.973-1.732c-1.655-1.484-3.923-3.558-6.409-5.865l-.171-.155.163-.163.062-.054c2.462-2.33,4.715-4.467,6.362-5.981l1.965-1.779a3.8,3.8,0,0,1,.777-.606Z" transform="translate(-156.24 -12.899)" fill="#e1e1e1"/>
    <path id="Path_8068" data-name="Path 8068" d="M718.339,77.5c-.109-.047,1.9-5.709,4.505-12.654s4.793-12.545,4.9-12.5-1.9,5.7-4.5,12.654S718.455,77.541,718.339,77.5Z" transform="translate(-160.334 -11.685)" fill="#e1e1e1"/>
    <path id="Path_8069" data-name="Path 8069" d="M746.819,85.619V81.944c0-2.393,0-5.88-.047-10.324,0-8.879-.054-21.579-.093-36.89l.179.179-62.447.039h0l.218-.218V85.619l-.194-.194,45.1.093,12.778.054h.086l-12.74.047-45.225.1h-.194V34.42h62.734V34.6c0,15.357-.078,28.1-.093,37.007,0,4.428,0,7.9-.047,10.285v2.688C746.834,85.2,746.819,85.619,746.819,85.619Z" transform="translate(-152.724 -7.683)" fill="#e1e1e1"/>
    <path id="Path_8070" data-name="Path 8070" d="M747.337,44.478c0,.117-14.1.217-31.484.217s-31.484-.1-31.484-.217,14.091-.218,31.484-.218S747.337,44.353,747.337,44.478Z" transform="translate(-152.753 -9.879)" fill="#e1e1e1"/>
    <path id="Path_8071" data-name="Path 8071" d="M690.518,39.517a.839.839,0,1,1-.243-.6.839.839,0,0,1,.243.6Z" transform="translate(-153.751 -8.631)" fill="#e1e1e1"/>
    <path id="Path_8072" data-name="Path 8072" d="M694.428,39.517a.839.839,0,1,1-.243-.6A.839.839,0,0,1,694.428,39.517Z" transform="translate(-154.624 -8.631)" fill="#e1e1e1"/>
    <path id="Path_8073" data-name="Path 8073" d="M698.373,39.517a.839.839,0,1,1-.246-.6.847.847,0,0,1,.246.6Z" transform="translate(-155.501 -8.631)" fill="#e1e1e1"/>
    <path id="Path_8074" data-name="Path 8074" d="M745.032,387.9a19.114,19.114,0,0,1,11.862-1.445c2.152.357,4.4,1,5.865,2.618s1.74,4.459.062,5.849a5.6,5.6,0,0,1-3.7.94c-3.107-.039-6.618-.59-9.12,1.3-1.429,1.08-2.385,2.866-4.094,3.395a4.031,4.031,0,0,1-4.443-1.973,6.906,6.906,0,0,1-.505-5.1A7.768,7.768,0,0,1,745.032,387.9Z" transform="translate(-165.324 -86.183)" fill="#ececec"/>
    <path id="Path_8075" data-name="Path 8075" d="M735.043,358.464c2.214,3.154,6.5,2.105,8.49.186s2.828-4.715,3.589-7.372c1.748-6.075,3.511-12.429,2.214-18.643a10.348,10.348,0,0,0-2.354-5.057,5.438,5.438,0,0,0-5.127-1.709c-2.167.575-3.511,2.688-4.482,4.707A44.472,44.472,0,0,0,733,349.639c0,3.068.357,6.292,2.082,8.824" transform="translate(-163.608 -72.711)" fill="#ececec"/>
    <path id="Path_8076" data-name="Path 8076" d="M720.54,365.9a11.456,11.456,0,0,0,1.787-10.549,20.586,20.586,0,0,0-6.214-9.073,33.644,33.644,0,0,0-11.194-6.6,11.955,11.955,0,0,0-5.034-.854,5.267,5.267,0,0,0-4.218,2.556c-1.181,2.245-.054,4.972,1.173,7.193a84.671,84.671,0,0,0,7.349,11.194c2.206,2.843,4.731,5.647,8.086,6.929s6.844,1.134,8.63-1.2" transform="translate(-155.163 -75.622)" fill="#ececec"/>
    <path id="Path_8077" data-name="Path 8077" d="M735.422,420.74a6.588,6.588,0,0,0,.2-1.437c.1-1.041.225-2.33.381-3.884a54.832,54.832,0,0,1,.878-5.733,45.294,45.294,0,0,1,2.082-6.789,24.857,24.857,0,0,1,3.457-6.121,12.864,12.864,0,0,1,4.373-3.635A12.18,12.18,0,0,1,750.468,392a6.82,6.82,0,0,0,1.429-.21,6.993,6.993,0,0,0-1.453,0,11.186,11.186,0,0,0-3.837,1A12.9,12.9,0,0,0,742,396.45a24.291,24.291,0,0,0-3.581,6.214,41.241,41.241,0,0,0-2.074,6.882,50.293,50.293,0,0,0-.777,5.8c-.124,1.662-.171,3.006-.194,3.931a7.357,7.357,0,0,0,.047,1.46Z" transform="translate(-164.134 -87.44)" fill="#e1e1e1"/>
    <path id="Path_8078" data-name="Path 8078" d="M735.707,406.626a2.708,2.708,0,0,0,.039-.66v-1.9c0-1.647,0-4.032.085-6.991.148-5.9.652-12.235,1.631-21.176.932-8.413,2.175-18.2,3.5-24.562.28-1.445.559-2.75.831-3.884s.474-2.128.684-2.921l.443-1.849a3.367,3.367,0,0,0,.117-.66,2.648,2.648,0,0,0-.233.629c-.147.474-.326,1.08-.551,1.818s-.5,1.771-.777,2.905-.606,2.439-.917,3.884a213.639,213.639,0,0,0-3.666,22.783c-.987,8.964-1.429,17.128-1.468,23.032,0,2.96,0,5.344.109,6.991.047.777.085,1.4.117,1.9a2.615,2.615,0,0,0,.062.668Z" transform="translate(-164.148 -76.34)" fill="#e1e1e1"/>
    <path id="Path_8079" data-name="Path 8079" d="M729.795,392.272a13.311,13.311,0,0,0,0-1.981c-.07-1.282-.249-3.107-.606-5.383a71.831,71.831,0,0,0-1.748-7.83,64.347,64.347,0,0,0-3.278-9.275,49.31,49.31,0,0,0-9.624-14.984,24.532,24.532,0,0,0-2.26-2.105c-.35-.3-.653-.583-.971-.816l-.878-.606a13.276,13.276,0,0,0-1.67-1.072,57.986,57.986,0,0,1,5.438,4.886,52,52,0,0,1,9.384,14.93,72.088,72.088,0,0,1,3.294,9.189,79.345,79.345,0,0,1,1.864,7.768c.412,2.229.645,4.055.777,5.321a13.117,13.117,0,0,0,.28,1.958Z" transform="translate(-158.196 -77.724)" fill="#e1e1e1"/>
    <path id="Path_8080" data-name="Path 8080" d="M716.26,440.67l1.577,21.61h27.755l1.577-21.61Z" transform="translate(-159.871 -98.359)" fill="#e1e1e1"/>
    <rect id="Rectangle_79" data-name="Rectangle 79" width="36.906" height="8.514" transform="translate(553.709 333.798)" fill="#e1e1e1"/>
    <path id="Path_8081" data-name="Path 8081" d="M712.81,467.42v2.361H749.1V467.42Z" transform="translate(-159.101 -104.329)" fill="#ececec"/>
    <path id="Path_8082" data-name="Path 8082" d="M716.741,474.616l-1.7-4.156h33.239l-1.989,4.156Z" transform="translate(-159.599 -105.008)" fill="#e1e1e1"/>
    <path id="Path_8083" data-name="Path 8083" d="M746.8,448.892a1.069,1.069,0,0,1-.132.2l-.412.552-1.624,2.066-.07.093-.07-.1c-1.018-1.4-2.33-3.278-3.969-5.492h.225l-3.884,5.539-.124.171-.14-.163-4.661-5.515h.272l-.256.318-4.148,5.2-.14.179-.124-.186c-1.414-1.989-2.727-3.884-3.884-5.531h.225l-4.816,5.492-.085.093-.07-.109-1.507-2.532c-.155-.28-.287-.5-.388-.676a.931.931,0,0,1-.117-.241,2.39,2.39,0,0,1,.163.218l.427.645,1.554,2.494H718.9l4.738-5.554.117-.148.109.155,3.946,5.507h-.264l4.14-5.212.256-.318.132-.163.132.155c1.623,1.942,3.185,3.814,4.661,5.531H736.6l3.954-5.515.117-.163.109.163,3.884,5.554h-.14l1.678-2.02.451-.52a.935.935,0,0,1,.148-.163Z" transform="translate(-160.014 -99.519)" fill="#f5f5f5"/>
    <path id="Path_8084" data-name="Path 8084" d="M747.622,440.441c0,.093-6.991.171-15.536.171s-15.536-.078-15.536-.171,6.991-.171,15.536-.171S747.622,440.348,747.622,440.441Z" transform="translate(-159.936 -98.269)" fill="#f5f5f5"/>
    <path id="Path_8085" data-name="Path 8085" d="M748.65,470.711c0,.093-7.558.171-16.88.171s-16.88-.078-16.88-.171,7.558-.171,16.88-.171S748.65,470.618,748.65,470.711Z" transform="translate(-159.565 -105.026)" fill="#f5f5f5"/>
    <path id="Path_8086" data-name="Path 8086" d="M92.58,82.87H536.737a5.236,5.236,0,0,1,5.236,5.236V372.716a11.318,11.318,0,0,1-11.318,11.318H97.878A11.318,11.318,0,0,1,86.56,372.716V88.89a6.02,6.02,0,0,1,6.02-6.02Z" transform="translate(-19.32 -18.497)" fill="#375a64"/>
    <path id="Path_8087" data-name="Path 8087" d="M62,441.89H555.437v15.691a10.658,10.658,0,0,1-10.658,10.658H72.689A10.658,10.658,0,0,1,62,457.581V441.89Z" transform="translate(-13.839 -98.631)" fill="#375a64"/>
    <rect id="Rectangle_80" data-name="Rectangle 80" width="429.693" height="254.323" transform="translate(79.466 76.336)" fill="#e1e1e1"/>
    <path id="Path_8088" data-name="Path 8088" d="M321.9,441.89l6.121,9.733h86.155l5.686-9.733Z" transform="translate(-71.849 -98.631)" fill="#1a2e35"/>
    <rect id="Rectangle_81" data-name="Rectangle 81" width="405.232" height="239.588" transform="translate(92.214 91.072)" fill="#1a2e35"/>
    <path id="Path_8089" data-name="Path 8089" d="M158.621,351.128c-.21,0-.381-51.028-.381-113.964s.171-113.964.381-113.964S159,174.212,159,237.164,158.83,351.128,158.621,351.128Z" transform="translate(-35.32 -27.499)" fill="#e1e1e1"/>
    <path id="Path_8090" data-name="Path 8090" d="M144.427,149.681c0,.21-2.944.381-6.579.381s-6.587-.171-6.587-.381,2.952-.381,6.587-.381S144.427,149.471,144.427,149.681Z" transform="translate(-29.298 -33.324)" fill="#e1e1e1"/>
    <path id="Path_8091" data-name="Path 8091" d="M145.077,133.031c0,.21-2.944.381-6.579.381s-6.587-.171-6.587-.381,2.952-.381,6.587-.381S145.077,132.821,145.077,133.031Z" transform="translate(-29.443 -29.608)" fill="#e1e1e1"/>
    <path id="Path_8092" data-name="Path 8092" d="M144.427,167.631c0,.21-2.944.381-6.579.381s-6.587-.171-6.587-.381,2.952-.381,6.587-.381S144.427,167.421,144.427,167.631Z" transform="translate(-29.298 -37.331)" fill="#e1e1e1"/>
    <path id="Path_8093" data-name="Path 8093" d="M144.427,185.573c0,.217-2.944.381-6.579.381s-6.587-.163-6.587-.381,2.952-.373,6.587-.373S144.427,185.363,144.427,185.573Z" transform="translate(-29.298 -41.337)" fill="#e1e1e1"/>
    <path id="Path_8094" data-name="Path 8094" d="M144.427,203.521c0,.21-2.944.381-6.579.381s-6.587-.171-6.587-.381,2.952-.381,6.587-.381S144.427,203.311,144.427,203.521Z" transform="translate(-29.298 -45.341)" fill="#e1e1e1"/>
    <path id="Path_8095" data-name="Path 8095" d="M144.427,221.471c0,.21-2.944.381-6.579.381s-6.587-.171-6.587-.381,2.952-.381,6.587-.381S144.427,221.261,144.427,221.471Z" transform="translate(-29.298 -49.348)" fill="#e1e1e1"/>
    <path id="Path_8096" data-name="Path 8096" d="M144.427,239.413c0,.21-2.944.381-6.579.381s-6.587-.171-6.587-.381,2.952-.373,6.587-.373S144.427,239.2,144.427,239.413Z" transform="translate(-29.298 -53.354)" fill="#e1e1e1"/>
    <path id="Path_8097" data-name="Path 8097" d="M144.427,257.361c0,.21-2.944.381-6.579.381s-6.587-.171-6.587-.381,2.952-.381,6.587-.381S144.427,257.151,144.427,257.361Z" transform="translate(-29.298 -57.359)" fill="#e1e1e1"/>
    <path id="Path_8098" data-name="Path 8098" d="M144.427,275.311c0,.21-2.944.381-6.579.381s-6.587-.171-6.587-.381,2.952-.381,6.587-.381S144.427,275.1,144.427,275.311Z" transform="translate(-29.298 -61.365)" fill="#e1e1e1"/>
    <path id="Path_8099" data-name="Path 8099" d="M144.427,293.251c0,.21-2.944.381-6.579.381s-6.587-.171-6.587-.381,2.952-.381,6.587-.381S144.427,293.041,144.427,293.251Z" transform="translate(-29.298 -65.369)" fill="#e1e1e1"/>
    <path id="Path_8100" data-name="Path 8100" d="M144.427,311.2c0,.21-2.944.381-6.579.381s-6.587-.171-6.587-.381,2.952-.381,6.587-.381S144.427,310.96,144.427,311.2Z" transform="translate(-29.298 -69.376)" fill="#e1e1e1"/>
    <path id="Path_8101" data-name="Path 8101" d="M144.427,329.151c0,.21-2.944.381-6.579.381s-6.587-.171-6.587-.381,2.952-.381,6.587-.381S144.427,328.949,144.427,329.151Z" transform="translate(-29.298 -73.382)" fill="#e1e1e1"/>
    <path id="Path_8102" data-name="Path 8102" d="M144.427,347.091c0,.21-2.944.381-6.579.381s-6.587-.171-6.587-.381,2.952-.381,6.587-.381S144.427,346.881,144.427,347.091Z" transform="translate(-29.298 -77.387)" fill="#e1e1e1"/>
    <path id="Path_8103" data-name="Path 8103" d="M144.427,365.041c0,.21-2.944.381-6.579.381s-6.587-.171-6.587-.381,2.952-.381,6.587-.381S144.427,364.831,144.427,365.041Z" transform="translate(-29.298 -81.393)" fill="#e1e1e1"/>
    <path id="Path_8104" data-name="Path 8104" d="M144.427,382.991c0,.21-2.944.381-6.579.381s-6.587-.171-6.587-.381,2.952-.381,6.587-.381S144.427,382.781,144.427,382.991Z" transform="translate(-29.298 -85.4)" fill="#e1e1e1"/>
    <path id="Path_8105" data-name="Path 8105" d="M144.427,400.891c0,.21-2.944.381-6.579.381s-6.587-.171-6.587-.381,2.952-.381,6.587-.381S144.427,400.712,144.427,400.891Z" transform="translate(-29.298 -89.395)" fill="#e1e1e1"/>
    <path id="Path_8106" data-name="Path 8106" d="M206.319,148.621c0,.21-7.651.381-17.09.381s-17.09-.171-17.09-.381,7.644-.381,17.09-.381S206.319,148.411,206.319,148.621Z" transform="translate(-38.422 -33.088)" fill="#df4b26"/>
    <path id="Path_8107" data-name="Path 8107" d="M206.319,400.891c0,.21-7.651.381-17.09.381s-17.09-.171-17.09-.381,7.644-.381,17.09-.381S206.319,400.712,206.319,400.891Z" transform="translate(-38.422 -89.395)" fill="#df4b26"/>
    <path id="Path_8108" data-name="Path 8108" d="M259.023,185.573c0,.217-14.309.381-31.957.381s-31.965-.163-31.965-.381,14.309-.373,31.965-.373S259.023,185.363,259.023,185.573Z" transform="translate(-43.547 -41.337)" fill="#df4b26"/>
    <path id="Path_8109" data-name="Path 8109" d="M354.18,185.573c0,.217-14.316.381-31.965.381s-31.965-.163-31.965-.381,14.309-.373,31.965-.373S354.18,185.363,354.18,185.573Z" transform="translate(-64.785 -41.337)" fill="#e1e1e1"/>
    <path id="Path_8110" data-name="Path 8110" d="M309.11,203.521c0,.21-21.09.381-47.105.381s-47.105-.171-47.105-.381,21.09-.381,47.105-.381S309.11,203.311,309.11,203.521Z" transform="translate(-47.966 -45.341)" fill="#e1e1e1"/>
    <path id="Path_8111" data-name="Path 8111" d="M309.11,221.471c0,.21-21.09.381-47.105.381s-47.105-.171-47.105-.381,21.09-.381,47.105-.381S309.11,221.261,309.11,221.471Z" transform="translate(-47.966 -49.348)" fill="#e1e1e1"/>
    <path id="Path_8112" data-name="Path 8112" d="M392.59,275.311c0,.21-21.09.381-47.1.381s-47.105-.171-47.105-.381,21.09-.381,47.105-.381S392.59,275.1,392.59,275.311Z" transform="translate(-66.599 -61.365)" fill="#e1e1e1"/>
    <path id="Path_8113" data-name="Path 8113" d="M356.57,239.4c0,.21-21.09.381-47.105.381s-47.105-.171-47.105-.381,21.082-.4,47.105-.4S356.57,239.194,356.57,239.4Z" transform="translate(-58.559 -53.345)" fill="#e1e1e1"/>
    <path id="Path_8114" data-name="Path 8114" d="M504.77,239.413c0,.21-21.09.381-47.105.381s-47.105-.171-47.105-.381,21.09-.373,47.105-.373S504.77,239.2,504.77,239.413Z" transform="translate(-91.638 -53.354)" fill="#e1e1e1"/>
    <path id="Path_8115" data-name="Path 8115" d="M453.226,203.521c0,.21-21.09.381-47.105.381S359,203.73,359,203.521s21.09-.381,47.1-.381S453.226,203.311,453.226,203.521Z" transform="translate(-80.13 -45.341)" fill="#fafafa"/>
    <path id="Path_8116" data-name="Path 8116" d="M537,275.311c0,.21-21.09.381-47.1.381s-47.1-.171-47.1-.381,21.082-.381,47.1-.381S537,275.1,537,275.311Z" transform="translate(-98.834 -61.365)" fill="#fafafa"/>
    <path id="Path_8117" data-name="Path 8117" d="M505.306,221.471c0,.21-32.75.381-73.135.381s-73.151-.171-73.151-.381,32.742-.381,73.151-.381S505.306,221.261,505.306,221.471Z" transform="translate(-80.134 -49.348)" fill="#375a64"/>
    <path id="Path_8118" data-name="Path 8118" d="M206.319,167.631c0,.21-7.651.381-17.09.381s-17.09-.171-17.09-.381,7.644-.381,17.09-.381S206.319,167.421,206.319,167.631Z" transform="translate(-38.422 -37.331)" fill="#fafafa"/>
    <path id="Path_8119" data-name="Path 8119" d="M206.319,382.991c0,.21-7.651.381-17.09.381s-17.09-.171-17.09-.381,7.644-.381,17.09-.381S206.319,382.781,206.319,382.991Z" transform="translate(-38.422 -85.4)" fill="#fafafa"/>
    <path id="Path_8120" data-name="Path 8120" d="M228.109,239.413c0,.21-7.651.381-17.09.381s-17.09-.171-17.09-.381,7.644-.373,17.09-.373S228.109,239.2,228.109,239.413Z" transform="translate(-43.286 -53.354)" fill="#fafafa"/>
    <path id="Path_8121" data-name="Path 8121" d="M580.619,239.413c0,.21-7.651.381-17.09.381s-17.09-.171-17.09-.381,7.651-.373,17.09-.373S580.619,239.2,580.619,239.413Z" transform="translate(-121.967 -53.354)" fill="#df4b26"/>
    <path id="Path_8122" data-name="Path 8122" d="M259.023,311.093c0,.21-14.309.381-31.957.381s-31.965-.171-31.965-.381,14.309-.373,31.965-.373S259.023,310.883,259.023,311.093Z" transform="translate(-43.547 -69.354)" fill="#df4b26"/>
    <path id="Path_8123" data-name="Path 8123" d="M354.18,311.093c0,.21-14.316.381-31.965.381s-31.965-.171-31.965-.381,14.309-.373,31.965-.373S354.18,310.883,354.18,311.093Z" transform="translate(-64.785 -69.354)" fill="#e1e1e1"/>
    <path id="Path_8124" data-name="Path 8124" d="M309.11,329.041c0,.21-21.09.381-47.105.381s-47.105-.171-47.105-.381,21.09-.381,47.105-.381S309.11,328.831,309.11,329.041Z" transform="translate(-47.966 -73.358)" fill="#e1e1e1"/>
    <path id="Path_8125" data-name="Path 8125" d="M309.11,346.991c0,.21-21.09.381-47.105.381s-47.105-.171-47.105-.381,21.09-.381,47.105-.381S309.11,346.781,309.11,346.991Z" transform="translate(-47.966 -77.364)" fill="#e1e1e1"/>
    <path id="Path_8126" data-name="Path 8126" d="M356.57,364.891c0,.21-21.09.381-47.105.381s-47.105-.171-47.105-.381,21.082-.381,47.105-.381S356.57,364.712,356.57,364.891Z" transform="translate(-58.559 -81.36)" fill="#e1e1e1"/>
    <path id="Path_8127" data-name="Path 8127" d="M504.77,364.891c0,.21-21.09.381-47.105.381s-47.105-.171-47.105-.381,21.09-.381,47.105-.381S504.77,364.712,504.77,364.891Z" transform="translate(-91.638 -81.36)" fill="#e1e1e1"/>
    <path id="Path_8128" data-name="Path 8128" d="M453.23,329.041c0,.21-21.09.381-47.105.381s-47.1-.171-47.1-.381,21.09-.381,47.1-.381S453.23,328.831,453.23,329.041Z" transform="translate(-80.134 -73.358)" fill="#fafafa"/>
    <path id="Path_8129" data-name="Path 8129" d="M505.3,346.991c0,.21-32.75.381-73.135.381S359,347.2,359,346.991s32.742-.381,73.151-.381S505.3,346.781,505.3,346.991Z" transform="translate(-80.13 -77.364)" fill="#375a64"/>
    <path id="Path_8130" data-name="Path 8130" d="M228.109,364.891c0,.21-7.651.381-17.09.381s-17.09-.171-17.09-.381,7.644-.381,17.09-.381S228.109,364.712,228.109,364.891Z" transform="translate(-43.286 -81.36)" fill="#fafafa"/>
    <path id="Path_8131" data-name="Path 8131" d="M580.619,364.891c0,.21-7.651.381-17.09.381s-17.09-.171-17.09-.381,7.651-.381,17.09-.381S580.619,364.712,580.619,364.891Z" transform="translate(-121.967 -81.36)" fill="#df4b26"/>
    <path id="Path_8132" data-name="Path 8132" d="M490.193,453.155c0,.124-87.242.225-194.829.225s-194.844-.1-194.844-.225,87.219-.225,194.844-.225S490.193,453.031,490.193,453.155Z" transform="translate(-22.436 -101.095)" fill="#1a2e35"/>
    <path id="Path_8133" data-name="Path 8133" d="M68.183,350.687A49.474,49.474,0,0,0,21,337.73a85.906,85.906,0,0,0,47.757,14.922" transform="translate(-4.687 -75.041)" fill="#df4b26"/>
    <path id="Path_8134" data-name="Path 8134" d="M57.146,270.473c1.965-13.881-3.441-29.557-13.85-39.663-.342,13.78,5.476,29.293,13.85,39.663" transform="translate(-9.661 -51.517)" fill="#df4b26"/>
    <path id="Path_8135" data-name="Path 8135" d="M62.049,306.315A74.215,74.215,0,0,0,27.94,273.69a46.875,46.875,0,0,0,34.233,32.742" transform="translate(-6.236 -61.088)" fill="#df4b26"/>
    <path id="Path_8136" data-name="Path 8136" d="M60.756,317.93c-8.4.233-16.9-.062-25.028-2.214S19.827,309.44,14.42,303a83.677,83.677,0,0,1,46.212,14.107" transform="translate(-3.219 -67.63)" fill="#df4b26"/>
    <path id="Path_8137" data-name="Path 8137" d="M68.58,290.379c4.265-15.979,11.3-27.033,23.863-35.989A33.239,33.239,0,0,1,68.58,290.379" transform="translate(-15.307 -56.781)" fill="#df4b26"/>
    <path id="Path_8138" data-name="Path 8138" d="M105.271,329.906A23.661,23.661,0,0,0,90.9,308c.7,8.257,7.185,17.8,14.371,21.913" transform="translate(-20.289 -68.746)" fill="#df4b26"/>
    <path id="Path_8139" data-name="Path 8139" d="M114.57,310.212a35.247,35.247,0,0,1,23.094-30.062c-2.905,13.353-10.627,24.469-23.094,30.062" transform="translate(-25.572 -62.53)" fill="#df4b26"/>
    <path id="Path_8140" data-name="Path 8140" d="M106.78,346.841c2.967-4.241,7.768-6.875,12.8-8.187s10.23-1.422,15.4-1.554a36.012,36.012,0,0,1-27.8,11.574" transform="translate(-23.834 -75.242)" fill="#df4b26"/>
    <path id="Path_8141" data-name="Path 8141" d="M99.05,392.984A39.446,39.446,0,0,1,147.211,415.8c-17.5-3.317-34.762-11.093-48.161-22.815" transform="translate(-22.108 -87.322)" fill="#df4b26"/>
    <path id="Path_8142" data-name="Path 8142" d="M72.787,378.25c2.905,8.591,2.33,18.977-4.109,26.411a31.5,31.5,0,0,1,4.109-26.411" transform="translate(-15.048 -84.426)" fill="#df4b26"/>
    <path id="Path_8143" data-name="Path 8143" d="M53.909,372.11a32.323,32.323,0,0,1-17.866,26.225,2.02,2.02,0,0,1-1.554.256c-.777-.318-.862-1.39-.777-2.237,1.266-11.007,9.423-21.657,20.2-24.244" transform="translate(-7.519 -83.056)" fill="#df4b26"/>
    <path id="Path_8144" data-name="Path 8144" d="M39.049,370.323a26.854,26.854,0,0,1-19.319,8.5,26.861,26.861,0,0,1-19.419-8.3c12.312-1.344,26.512-2.245,38.723-.195" transform="translate(-0.069 -82.387)" fill="#df4b26"/>
    <path id="Path_8145" data-name="Path 8145" d="M47.81,244a2.4,2.4,0,0,0,.109.365c.093.249.217.6.373,1.041l1.491,3.985c.66,1.724,1.422,3.845,2.33,6.315q.676,1.857,1.429,3.954t1.554,4.451c2.175,6.214,4.6,13.71,7.216,22.046s5.259,17.556,7.908,27.273,4.94,19.047,6.913,27.553,3.565,16.2,4.762,22.7c.3,1.616.59,3.162.87,4.622s.482,2.851.707,4.14c.443,2.587.823,4.816,1.08,6.642s.5,3.216.645,4.2c.078.466.14.823.179,1.1a2.525,2.525,0,0,0,.078.365,1.935,1.935,0,0,0,0-.373,10.364,10.364,0,0,0-.132-1.1l-.559-4.218c-.225-1.833-.583-4.07-1-6.657q-.318-1.95-.668-4.148t-.839-4.661c-1.15-6.51-2.773-14.208-4.661-22.737s-4.257-17.866-6.875-27.576-5.445-18.915-8-27.258-5.1-15.8-7.317-22.022l-1.554-4.443q-.777-2.1-1.46-3.938c-.909-2.462-1.7-4.583-2.385-6.3s-1.2-3.022-1.554-3.954q-.268-.653-.419-1.025A.784.784,0,0,0,47.81,244Z" transform="translate(-10.671 -54.461)" fill="#1a2e35"/>
    <path id="Path_8146" data-name="Path 8146" d="M125.152,289.32a1.787,1.787,0,0,0-.218.2l-.583.621c-.513.544-1.258,1.367-2.191,2.447a86.076,86.076,0,0,0-7.248,9.687,64.879,64.879,0,0,0-7.574,16.212c-2.035,6.455-3.294,13.788-4.544,21.455-2.509,15.342-5.577,29.091-7.768,39.034l-2.664,11.768-.746,3.193c-.07.342-.124.621-.171.831a1,1,0,0,0,0,.287,2.278,2.278,0,0,0,.085-.272c.054-.218.132-.489.217-.831.194-.777.458-1.825.777-3.185.668-2.8,1.631-6.8,2.812-11.737,2.33-9.92,5.438-23.669,7.931-39.026,1.258-7.667,2.5-14.984,4.5-21.409a65.686,65.686,0,0,1,7.411-16.165,93.4,93.4,0,0,1,7.108-9.725c.909-1.1,1.631-1.934,2.121-2.5l.552-.652a1.118,1.118,0,0,0,.194-.233Z" transform="translate(-20.409 -64.577)" fill="#1a2e35"/>
    <path id="Path_8147" data-name="Path 8147" d="M45.44,370a1.977,1.977,0,0,0,.451.078l1.274.14.917.093,1.088.163c.777.117,1.67.225,2.641.443l1.554.3,1.639.419c1.134.256,2.33.676,3.573,1.049a53.6,53.6,0,0,1,7.768,3.433,44.67,44.67,0,0,1,6.991,4.855,34.265,34.265,0,0,1,2.68,2.571A27.489,27.489,0,0,1,78.143,386c.653.777,1.1,1.554,1.554,2.159a15.686,15.686,0,0,1,1.072,1.717c.264.435.474.777.652,1.1a1.554,1.554,0,0,0,.256.373,1.647,1.647,0,0,0-.171-.412l-.575-1.15a13.576,13.576,0,0,0-1.018-1.763,23.162,23.162,0,0,0-1.554-2.229,26.99,26.99,0,0,0-2.1-2.509,34.581,34.581,0,0,0-2.68-2.633,43.026,43.026,0,0,0-7.046-4.94,50.616,50.616,0,0,0-7.884-3.433c-1.266-.365-2.462-.777-3.612-1.018l-1.655-.388-1.554-.28c-.979-.194-1.88-.287-2.672-.381l-1.1-.124-.924-.047L45.875,370Z" transform="translate(-10.142 -82.585)" fill="#1a2e35"/>
    <path id="Path_8148" data-name="Path 8148" d="M40.93,289.7a5.74,5.74,0,0,0,.886.854l2.532,2.2c2.159,1.841,5.15,4.358,8.475,7.115s6.354,5.236,8.545,6.991l2.626,2.082a5.391,5.391,0,0,0,1,.715,6.215,6.215,0,0,0-.886-.854l-2.54-2.2c-2.152-1.841-5.142-4.358-8.467-7.115s-6.354-5.228-8.545-6.991l-2.626-2.09a6.361,6.361,0,0,0-1-.707Z" transform="translate(-9.136 -64.662)" fill="#1a2e35"/>
    <path id="Path_8149" data-name="Path 8149" d="M37,310.658c0,.124,6.424,2.144,14.433,4.513S65.959,319.351,66,319.226s-6.424-2.144-14.433-4.505S37.062,310.534,37,310.658Z" transform="translate(-8.258 -69.338)" fill="#1a2e35"/>
    <path id="Path_8150" data-name="Path 8150" d="M67.76,295.709a5.925,5.925,0,0,0,.668-.932l1.7-2.595c1.445-2.183,3.5-5.166,5.919-8.343s4.77-5.935,6.494-7.916l2.043-2.33a5.258,5.258,0,0,0,.715-.893,4.933,4.933,0,0,0-.847.777c-.528.513-1.266,1.274-2.159,2.237-1.794,1.919-4.179,4.661-6.618,7.846s-4.451,6.214-5.826,8.452c-.691,1.119-1.227,2.035-1.554,2.68a5.293,5.293,0,0,0-.536,1.018Z" transform="translate(-15.124 -60.867)" fill="#1a2e35"/>
    <path id="Path_8151" data-name="Path 8151" d="M96.65,314a21.659,21.659,0,0,0,1.515,2.493c.963,1.554,2.276,3.628,3.635,6.012s2.5,4.591,3.309,6.214a20.752,20.752,0,0,0,1.367,2.571,15.334,15.334,0,0,0-1.064-2.719c-.777-1.647-1.841-3.884-3.208-6.284s-2.719-4.49-3.76-5.966A16,16,0,0,0,96.65,314Z" transform="translate(-21.573 -70.086)" fill="#1a2e35"/>
    <path id="Path_8152" data-name="Path 8152" d="M106.53,347.893c0,.062,1.266-.536,3.286-1.445s4.839-2.1,8.017-3.216,6.129-1.942,8.273-2.486,3.488-.847,3.472-.917a3.2,3.2,0,0,0-.932.132c-.614.085-1.5.256-2.579.489a72.039,72.039,0,0,0-8.358,2.369,73.168,73.168,0,0,0-8,3.356c-.994.5-1.787.917-2.33,1.227a3.977,3.977,0,0,0-.847.489Z" transform="translate(-23.778 -75.851)" fill="#1a2e35"/>
    <path id="Path_8153" data-name="Path 8153" d="M98.75,393.56a1.406,1.406,0,0,0,.4.132l1.165.3,4.3.994a141.244,141.244,0,0,1,14.037,3.705,62.1,62.1,0,0,1,13.1,6.152c1.554.994,2.789,1.88,3.6,2.509a13.1,13.1,0,0,0,1.305.963,1.905,1.905,0,0,0-.287-.3,10.609,10.609,0,0,0-.9-.777,37.7,37.7,0,0,0-3.542-2.649,57.188,57.188,0,0,0-13.12-6.315,117.782,117.782,0,0,0-14.122-3.589l-4.335-.847a9.079,9.079,0,0,0-1.6-.272Z" transform="translate(-22.041 -87.844)" fill="#1a2e35"/>
    <path id="Path_8154" data-name="Path 8154" d="M70.6,398.41c.132,0,.9-4.513,1.717-10.1S73.7,378.135,73.58,378.12s-.9,4.513-1.724,10.1S70.472,398.394,70.6,398.41Z" transform="translate(-15.755 -84.397)" fill="#df4b26"/>
    <path id="Path_8155" data-name="Path 8155" d="M41.31,388.826a23.106,23.106,0,0,0,2.09-2.431c1.235-1.554,2.936-3.643,4.863-5.935s3.713-4.335,5.01-5.81a22.427,22.427,0,0,0,2.043-2.439,5.353,5.353,0,0,0-.653.551c-.4.381-.955.948-1.639,1.662-1.359,1.422-3.193,3.433-5.119,5.733s-3.6,4.443-4.77,6.028c-.583.777-1.041,1.445-1.344,1.9a3.255,3.255,0,0,0-.482.738Z" transform="translate(-9.221 -83.078)" fill="#1a2e35"/>
    <path id="Path_8156" data-name="Path 8156" d="M104.94,420.77v11.248h-2.812l-10,31.553H69.961l-9.679-31.243-3.752-.311V420.77Z" transform="translate(-12.618 -93.917)" fill="#ff735d"/>
    <g id="Group_412" data-name="Group 412" transform="translate(43.912 326.853)" opacity="0.3">
      <path id="Path_8157" data-name="Path 8157" d="M104.94,420.77v11.248h-2.812l-10,31.553H69.961l-9.679-31.243-3.752-.311V420.77Z" transform="translate(-56.53 -420.77)"/>
    </g>
    <path id="Path_8158" data-name="Path 8158" d="M58.94,435.583c0,.132,9.788.241,21.859.241s21.867-.109,21.867-.241-9.788-.233-21.867-.233S58.94,435.459,58.94,435.583Z" transform="translate(-13.156 -97.171)" fill="#1a2e35"/>
    <path id="Path_8159" data-name="Path 8159" d="M38.42,342.53a8.447,8.447,0,0,0,1.422.388l3.884.932c3.278.777,7.768,2.051,12.662,3.69s9.221,3.387,12.328,4.715l3.666,1.608a8.756,8.756,0,0,0,1.359.552,7.9,7.9,0,0,0-1.282-.715c-.839-.443-2.074-1.041-3.612-1.748A127.222,127.222,0,0,0,43.8,343.532c-1.655-.373-3-.637-3.931-.777A9.329,9.329,0,0,0,38.42,342.53Z" transform="translate(-8.575 -76.454)" fill="#1a2e35"/>
    <path id="Path_8160" data-name="Path 8160" d="M68.42,458.143c0,.132,6.867.233,15.334.233s15.342-.1,15.342-.233-6.867-.233-15.342-.233S68.42,457.98,68.42,458.143Z" transform="translate(-15.272 -102.207)" fill="#fafafa"/>
    <path id="Path_8161" data-name="Path 8161" d="M67.31,454.783c0,.132,7.279.233,16.251.233s16.258-.1,16.258-.233-7.279-.233-16.258-.233S67.31,454.651,67.31,454.783Z" transform="translate(-15.024 -101.457)" fill="#fafafa"/>
    <path id="Path_8162" data-name="Path 8162" d="M595.5,476.035c0,.124-132.141.225-295.105.225S5.27,476.16,5.27,476.035s132.11-.225,295.129-.225S595.5,475.911,595.5,476.035Z" transform="translate(-1.176 -106.202)" fill="#1a2e35"/>
    <path id="Path_8163" data-name="Path 8163" d="M594.1,51.66H361.81V195.523H557.361l12.11,27.848,10.735-27.848h13.9Z" transform="translate(-80.757 -11.531)" fill="#fafafa"/>
    <path id="Path_8164" data-name="Path 8164" d="M594.039,51.6c0,1.39.07,55.44.179,143.863v.171H580.173l.163-.117c-3.356,8.731-6.991,18.146-10.72,27.856l-.171.443-.186-.435-12.141-27.809.179.124H361.52V51.4h.21l232.262.21-232.262.2.2-.2V195.473l-.225-.225H557.389l.054.117,12.1,27.864h-.357c3.744-9.718,7.38-19.125,10.743-27.856l.047-.109H594l-.171.179C593.977,107.019,594.039,52.992,594.039,51.6Z" transform="translate(-80.692 -11.473)" fill="#1a2e35"/>
    <path id="Path_8165" data-name="Path 8165" d="M594.087,69.638c0,.171-51.906.318-115.914.318s-115.914-.109-115.914-.318,51.89-.318,115.914-.318S594.087,69.46,594.087,69.638Z" transform="translate(-80.857 -15.472)" fill="#1a2e35"/>
    <path id="Path_8166" data-name="Path 8166" d="M376.606,61a1.9,1.9,0,1,1-1.9-1.9A1.9,1.9,0,0,1,376.606,61Z" transform="translate(-83.21 -13.191)" fill="#1a2e35"/>
    <path id="Path_8167" data-name="Path 8167" d="M385.476,61a1.9,1.9,0,1,1-1.9-1.9,1.9,1.9,0,0,1,1.9,1.9Z" transform="translate(-85.19 -13.191)" fill="#1a2e35"/>
    <path id="Path_8168" data-name="Path 8168" d="M394.346,61a1.9,1.9,0,1,1-1.9-1.9,1.9,1.9,0,0,1,1.9,1.9Z" transform="translate(-87.17 -13.191)" fill="#1a2e35"/>
    <path id="Path_8169" data-name="Path 8169" d="M392.411,102.489l-5.515,2.128,5.515,2.128v1.289l-6.991-2.75V103.95l6.991-2.75Z" transform="translate(-86.027 -22.588)" fill="#1a2e35"/>
    <path id="Path_8170" data-name="Path 8170" d="M400.348,95.76H401.7l-5.088,14.635H395.26Z" transform="translate(-88.223 -21.374)" fill="#1a2e35"/>
    <path id="Path_8171" data-name="Path 8171" d="M411.111,103.95v1.336l-6.991,2.75v-1.289l5.531-2.128-5.531-2.128V101.2Z" transform="translate(-90.201 -22.588)" fill="#1a2e35"/>
    <path id="Path_8172" data-name="Path 8172" d="M415.38,111.036a1.041,1.041,0,0,1,1.056-1.056,1.025,1.025,0,0,1,1.033,1.056,1.041,1.041,0,0,1-1.033,1.072,1.057,1.057,0,0,1-1.056-1.072Z" transform="translate(-92.714 -24.548)" fill="#1a2e35"/>
    <path id="Path_8173" data-name="Path 8173" d="M419.93,111.036a1.041,1.041,0,0,1,1.056-1.056,1.064,1.064,0,0,1,0,2.128,1.049,1.049,0,0,1-1.056-1.072Z" transform="translate(-93.729 -24.548)" fill="#1a2e35"/>
    <path id="Path_8174" data-name="Path 8174" d="M424.47,111.036a1.041,1.041,0,0,1,1.056-1.056,1.064,1.064,0,0,1,0,2.128,1.049,1.049,0,0,1-1.056-1.072Z" transform="translate(-94.743 -24.548)" fill="#1a2e35"/>
    <path id="Path_8175" data-name="Path 8175" d="M539.186,129.208c0,.179-34.342.318-76.685.318s-76.7-.14-76.7-.318,34.334-.318,76.7-.318S539.186,129.038,539.186,129.208Z" transform="translate(-86.112 -28.769)" fill="#375a64"/>
    <path id="Path_8176" data-name="Path 8176" d="M611.276,129.8c0,.171-3.3.311-7.372.311s-7.364-.14-7.364-.311,3.294-.318,7.364-.318S611.276,129.62,611.276,129.8Z" transform="translate(-133.149 -28.9)" fill="#1a2e35"/>
    <path id="Path_8177" data-name="Path 8177" d="M638.613,129.8c0,.171-3.6.311-8.048.311s-8.055-.14-8.055-.311,3.6-.318,8.055-.318S638.613,129.62,638.613,129.8Z" transform="translate(-138.946 -28.9)" fill="#1a2e35"/>
    <path id="Path_8178" data-name="Path 8178" d="M483.526,145.848c0,.171-21.828.318-48.752.318s-48.744-.148-48.744-.318,21.82-.318,48.744-.318S483.526,145.67,483.526,145.848Z" transform="translate(-86.163 -32.483)" fill="#375a64"/>
    <path id="Path_8179" data-name="Path 8179" d="M482.626,207.908c0,.179-21.828.318-48.744.318s-48.752-.14-48.752-.318,21.82-.318,48.752-.318S482.626,207.745,482.626,207.908Z" transform="translate(-85.962 -46.335)" fill="#375a64"/>
    <path id="Path_8180" data-name="Path 8180" d="M549.508,145.848c0,.171-5.935.318-13.26.318s-13.268-.148-13.268-.318,5.943-.318,13.268-.318S549.508,145.67,549.508,145.848Z" transform="translate(-116.731 -32.483)" fill="#1a2e35"/>
    <path id="Path_8181" data-name="Path 8181" d="M549.158,207.908c0,.179-5.943.318-13.268.318s-13.26-.14-13.26-.318,5.935-.318,13.26-.318S549.158,207.745,549.158,207.908Z" transform="translate(-116.652 -46.335)" fill="#1a2e35"/>
    <path id="Path_8182" data-name="Path 8182" d="M392.372,154.311c0,.179-1.468.318-3.286.318s-3.286-.14-3.286-.318,1.468-.311,3.286-.311S392.372,154.14,392.372,154.311Z" transform="translate(-86.112 -34.373)" fill="#ff735d"/>
    <path id="Path_8183" data-name="Path 8183" d="M419.345,154.488c0,.171-3.2.318-7.139.318s-7.147-.148-7.147-.318,3.2-.318,7.147-.318S419.345,154.31,419.345,154.488Z" transform="translate(-90.41 -34.411)" fill="#1a2e35"/>
    <path id="Path_8184" data-name="Path 8184" d="M438.612,154.488c0,.171-2.742.318-6.121.318s-6.121-.148-6.121-.318,2.742-.318,6.121-.318S438.612,154.31,438.612,154.488Z" transform="translate(-95.167 -34.411)" fill="#1a2e35"/>
    <path id="Path_8185" data-name="Path 8185" d="M462.2,154.488c0,.171-2.789.318-6.214.318s-6.214-.148-6.214-.318,2.789-.318,6.214-.318S462.2,154.31,462.2,154.488Z" transform="translate(-100.39 -34.411)" fill="#1a2e35"/>
    <path id="Path_8186" data-name="Path 8186" d="M483.241,154.488c0,.171-2.54.318-5.671.318s-5.671-.148-5.671-.318,2.54-.318,5.671-.318S483.241,154.31,483.241,154.488Z" transform="translate(-105.329 -34.411)" fill="#1a2e35"/>
    <path id="Path_8187" data-name="Path 8187" d="M540.758,154.488c0,.171-11.17.318-24.943.318s-24.935-.148-24.935-.318,11.163-.318,24.935-.318S540.758,154.31,540.758,154.488Z" transform="translate(-109.566 -34.411)" fill="#1a2e35"/>
    <path id="Path_8188" data-name="Path 8188" d="M391.471,165.111c0,.179-1.274.318-2.835.318s-2.835-.14-2.835-.318,1.266-.311,2.835-.311A7.048,7.048,0,0,1,391.471,165.111Z" transform="translate(-86.112 -36.784)" fill="#ff735d"/>
    <path id="Path_8189" data-name="Path 8189" d="M391.7,176.208a14.14,14.14,0,0,1-5.9,0,7.188,7.188,0,0,1,2.944-.318C390.368,175.89,391.7,176.03,391.7,176.208Z" transform="translate(-86.112 -39.259)" fill="#ff735d"/>
    <path id="Path_8190" data-name="Path 8190" d="M391.7,188.758a14.14,14.14,0,0,1-5.9,0,7.188,7.188,0,0,1,2.944-.318C390.368,188.44,391.7,188.58,391.7,188.758Z" transform="translate(-86.112 -42.06)" fill="#ff735d"/>
    <path id="Path_8191" data-name="Path 8191" d="M449.922,188.168c0,.179-9.842.318-21.991.318s-21.991-.14-21.991-.318,9.842-.319,21.991-.319S449.922,187.967,449.922,188.168Z" transform="translate(-90.607 -41.929)" fill="#1a2e35"/>
    <path id="Path_8192" data-name="Path 8192" d="M445.547,176.208c0,.171-9.391.311-20.974.311s-20.974-.14-20.974-.311,9.391-.318,20.974-.318S445.547,176.03,445.547,176.208Z" transform="translate(-90.085 -39.259)" fill="#1a2e35"/>
    <path id="Path_8193" data-name="Path 8193" d="M547.027,164.528c0,.179-31.973.318-71.419.318s-71.419-.14-71.419-.318,31.973-.318,71.419-.318S547.027,164.35,547.027,164.528Z" transform="translate(-90.216 -36.652)" fill="#1a2e35"/>
    <path id="Path_8194" data-name="Path 8194" d="M673.768,127.39V249.65L654.76,265.512h99.414V127.39Z" transform="translate(-146.144 -28.434)" fill="#fafafa"/>
    <path id="Path_8195" data-name="Path 8195" d="M673.6,127.35h5.562l16.01-.047L754,127.21h.2v.171c0,36.906,0,85.1.062,138.122v.225H654l.443-.373L673.459,249.5l-.07.155c.047-36.509.078-67.139.1-88.555,0-10.7,0-19.117.054-24.858v.078c0,5.772,0,14.208.047,24.927,0,21.424.062,51.96.1,88.462v.093l-.07.062-19,15.87-.132-.373h99.43l-.225.225c0-53.024,0-101.217.054-138.122l.171.171-58.734-.085-16.049-.047H674.95Z" transform="translate(-145.975 -28.394)" fill="#1a2e35"/>
    <path id="Path_8196" data-name="Path 8196" d="M687.693,134.753a1.631,1.631,0,1,1-1.631-1.624,1.631,1.631,0,0,1,1.631,1.624Z" transform="translate(-152.767 -29.715)" fill="#1a2e35"/>
    <path id="Path_8197" data-name="Path 8197" d="M695.283,134.753a1.631,1.631,0,1,1-1.631-1.624A1.631,1.631,0,0,1,695.283,134.753Z" transform="translate(-154.461 -29.715)" fill="#1a2e35"/>
    <path id="Path_8198" data-name="Path 8198" d="M702.873,134.753a1.631,1.631,0,1,1-1.631-1.624A1.631,1.631,0,0,1,702.873,134.753Z" transform="translate(-156.155 -29.715)" fill="#1a2e35"/>
    <path id="Path_8199" data-name="Path 8199" d="M741.2,183.644c0,.14-10.192.256-22.76.256s-22.768-.117-22.768-.256,10.192-.264,22.768-.264S741.2,183.5,741.2,183.644Z" transform="translate(-155.275 -40.931)" fill="#ff735d"/>
    <path id="Path_8200" data-name="Path 8200" d="M750.587,197.926c0,.148-12.429.264-27.708.264s-27.708-.117-27.708-.264,12.429-.256,27.708-.256S750.587,197.748,750.587,197.926Z" transform="translate(-155.164 -44.12)" fill="#ff735d"/>
    <path id="Path_8201" data-name="Path 8201" d="M752.447,251c0,.14-13.206.256-29.518.256s-29.518-.117-29.518-.256,13.206-.264,29.518-.264S752.447,250.857,752.447,251Z" transform="translate(-154.771 -55.966)" fill="#ff735d"/>
    <path id="Path_8202" data-name="Path 8202" d="M699.552,205.124a15.594,15.594,0,0,1-5.632,0,7.932,7.932,0,0,1,2.82-.264A7.475,7.475,0,0,1,699.552,205.124Z" transform="translate(-154.885 -45.725)" fill="#ff735d"/>
    <path id="Path_8203" data-name="Path 8203" d="M722.629,205.274a72.932,72.932,0,0,1-12.219,0,36.331,36.331,0,0,1,6.113-.264A35.245,35.245,0,0,1,722.629,205.274Z" transform="translate(-158.565 -45.759)" fill="#ff735d"/>
    <path id="Path_8204" data-name="Path 8204" d="M739.119,205.274a53.673,53.673,0,0,1-10.479,0,26.661,26.661,0,0,1,5.243-.264A25.853,25.853,0,0,1,739.119,205.274Z" transform="translate(-162.634 -45.759)" fill="#ff735d"/>
    <path id="Path_8205" data-name="Path 8205" d="M698.775,214.364a11.622,11.622,0,0,1-4.855,0,5.94,5.94,0,0,1,2.431-.264A5.736,5.736,0,0,1,698.775,214.364Z" transform="translate(-154.885 -47.788)" fill="#ff735d"/>
    <path id="Path_8206" data-name="Path 8206" d="M698.969,223.854a12.56,12.56,0,0,1-5.049,0,6.406,6.406,0,0,1,2.525-.264A6.242,6.242,0,0,1,698.969,223.854Z" transform="translate(-154.885 -49.906)" fill="#ff735d"/>
    <path id="Path_8207" data-name="Path 8207" d="M698.969,234.594a12.56,12.56,0,0,1-5.049,0,6.406,6.406,0,0,1,2.525-.264A6.242,6.242,0,0,1,698.969,234.594Z" transform="translate(-154.885 -52.303)" fill="#ff735d"/>
    <path id="Path_8208" data-name="Path 8208" d="M748.8,234.094c0,.14-8.428.256-18.814.256s-18.822-.117-18.822-.256,8.42-.264,18.822-.264S748.8,233.962,748.8,234.094Z" transform="translate(-158.733 -52.191)" fill="#ff735d"/>
    <path id="Path_8209" data-name="Path 8209" d="M745.056,223.854c0,.14-8.04.256-17.952.256s-17.944-.117-17.944-.256,8.032-.264,17.944-.264S745.056,223.707,745.056,223.854Z" transform="translate(-158.286 -49.906)" fill="#ff735d"/>
    <path id="Path_8210" data-name="Path 8210" d="M703.7,265.184a12.561,12.561,0,0,1-5.049,0,6.407,6.407,0,0,1,2.525-.264A6.242,6.242,0,0,1,703.7,265.184Z" transform="translate(-155.941 -59.131)" fill="#ff735d"/>
    <path id="Path_8211" data-name="Path 8211" d="M703.7,275.924a12.56,12.56,0,0,1-5.049,0,6.407,6.407,0,0,1,2.525-.264A6.242,6.242,0,0,1,703.7,275.924Z" transform="translate(-155.941 -61.528)" fill="#ff735d"/>
    <path id="Path_8212" data-name="Path 8212" d="M753.526,275.424c0,.14-8.428.256-18.814.256s-18.822-.117-18.822-.256,8.421-.264,18.822-.264S753.526,275.277,753.526,275.424Z" transform="translate(-159.788 -61.416)" fill="#ff735d"/>
    <path id="Path_8213" data-name="Path 8213" d="M749.786,265.184c0,.14-8.04.256-17.952.256s-17.944-.117-17.944-.256,8.032-.264,17.944-.264S749.786,265.037,749.786,265.184Z" transform="translate(-159.342 -59.131)" fill="#ff735d"/>
    <path id="Path_8214" data-name="Path 8214" d="M758.513,213.864c0,.14-10.937.256-24.43.256s-24.423-.117-24.423-.256,10.937-.264,24.423-.264S758.513,213.717,758.513,213.864Z" transform="translate(-158.398 -47.676)" fill="#ff735d"/>
    <path id="Path_8215" data-name="Path 8215" d="M759.1,143.366c0,.148-17.657.264-39.43.264s-39.43-.117-39.43-.264,17.649-.256,39.43-.256S759.1,143.227,759.1,143.366Z" transform="translate(-151.831 -31.943)" fill="#1a2e35"/>
    <path id="Path_8216" data-name="Path 8216" d="M712.295,175.056a131.414,131.414,0,0,1-16.654,0,66.446,66.446,0,0,1,8.327-.256A79.175,79.175,0,0,1,712.295,175.056Z" transform="translate(-155.269 -39.016)" fill="#ff735d"/>
    <path id="Path_8217" data-name="Path 8217" d="M702.741,155.636a29.382,29.382,0,0,1-7.861,0,15,15,0,0,1,3.931-.256A15.407,15.407,0,0,1,702.741,155.636Z" transform="translate(-155.099 -34.681)" fill="#ff735d"/>
    <path id="Path_8218" data-name="Path 8218" d="M589.346,359.6l17.462-17.26-31.134-53.35a30.178,30.178,0,0,0-11.955-8.312l-10.961-4.117-27.258-5-19.358,7.62a11.567,11.567,0,0,0-7.247,12.141l5.065,42.615,2.975,55.487,70.331-12.2L570.191,356.7l.233-31.981Z" transform="translate(-111.336 -60.613)" fill="#df4b26"/>
    <path id="Path_8219" data-name="Path 8219" d="M591.369,365.163c.163,0,.21-11.093.093-24.757s-.334-24.757-.5-24.757-.21,11.085-.093,24.757S591.205,365.163,591.369,365.163Z" transform="translate(-131.87 -70.454)" fill="#df4b26"/>
    <path id="Path_8220" data-name="Path 8220" d="M565.974,365.645l-42.491-17.09a9.741,9.741,0,0,1-6.059-8.273l-3.107-40.743s.365-17.323-10.456-18.169l-6.152,2.424c-7.962,4.226-9.935,15.816-8.848,24.757,1.554,12.716,2.183,30.7,3.884,41.73,1.414,9.026,6.828,16.165,15.412,19.288L560.5,380.893Z" transform="translate(-109.054 -62.803)" fill="#df4b26"/>
    <path id="Path_8221" data-name="Path 8221" d="M522.5,312.74a7.28,7.28,0,0,1,.132.94c.062.66.155,1.554.272,2.68.218,2.393.52,5.748.9,9.881s.777,9.151,1.258,14.658c.117,1.383.233,2.8.357,4.241a32.092,32.092,0,0,0,.536,4.358,7.318,7.318,0,0,0,2.113,3.814,14.324,14.324,0,0,0,3.923,2.439c11.722,5.073,22.527,9.259,30.357,12.2l9.322,3.426,2.532.932a4.893,4.893,0,0,1,.87.365,6.249,6.249,0,0,1-.909-.256l-2.563-.831c-2.229-.738-5.438-1.841-9.376-3.263-7.885-2.843-18.7-6.991-30.45-12.048a15,15,0,0,1-4.078-2.548,7.767,7.767,0,0,1-2.26-4.1,32.132,32.132,0,0,1-.544-4.435c-.117-1.445-.225-2.859-.334-4.241-.427-5.508-.777-10.479-1.142-14.674s-.544-7.5-.715-9.9c-.07-1.126-.132-2.027-.171-2.688a5.183,5.183,0,0,1-.031-.948Z" transform="translate(-116.621 -69.804)" fill="#1a2e35"/>
    <path id="Path_8222" data-name="Path 8222" d="M491.147,341.26a1.944,1.944,0,0,1,.085.544c.039.427.085.948.14,1.554.132,1.453.3,3.41.5,5.787s.528,5.337.955,8.545a80.611,80.611,0,0,0,1.919,10.324,15.311,15.311,0,0,0,2.074,4.917,28.032,28.032,0,0,0,3.169,3.884,27.186,27.186,0,0,0,6.8,5.1,25.2,25.2,0,0,0,7.465,2.439,1.941,1.941,0,0,1-.559,0,13.7,13.7,0,0,1-1.554-.2,21.069,21.069,0,0,1-5.523-1.872,26.809,26.809,0,0,1-6.991-5.1,27.712,27.712,0,0,1-3.263-3.954,16.033,16.033,0,0,1-2.159-5.08,77.313,77.313,0,0,1-1.888-10.4c-.4-3.224-.653-6.137-.831-8.545s-.28-4.428-.326-5.8V341.85a2,2,0,0,1-.023-.59Z" transform="translate(-109.623 -76.17)" fill="#1a2e35"/>
    <path id="Path_8223" data-name="Path 8223" d="M514.55,375.116a6.05,6.05,0,0,1,.777-2.268,14.6,14.6,0,0,1,8.622-7.364,6.066,6.066,0,0,1,2.33-.4c0,.093-.878.272-2.229.777a16.523,16.523,0,0,0-8.374,7.154C514.954,374.261,514.635,375.116,514.55,375.116Z" transform="translate(-114.849 -81.486)" fill="#1a2e35"/>
    <g id="Group_413" data-name="Group 413" transform="translate(407.259 255.054)" opacity="0.3">
      <path id="Path_8224" data-name="Path 8224" d="M561.729,371.266c-4.544-2.563-8.988-4.536-13.742-6.7s-9.4-4.925-12.514-9.12c-5.857-7.908-5.189-19.311-11.194-27.11q.583,7.869,1.173,15.73c.357,4.808-.373,9.562,2.719,12.833,2.61,2.75,7.7,4.863,11.295,6.044,7.24,2.393,15.031,5.935,22.263,8.319" transform="translate(-524.28 -328.34)"/>
    </g>
    <path id="Path_8225" data-name="Path 8225" d="M591.02,319.51l3.674,22.675-3.48-6.424Z" transform="translate(-131.917 -71.315)" opacity="0.3"/>
    <path id="Path_8226" data-name="Path 8226" d="M513.685,301.45a3.5,3.5,0,0,1-.987.078l-2.68.07c-2.26.054-5.383.171-8.824.419s-6.556.575-8.8.847l-2.664.311a4.407,4.407,0,0,1-.979.07,3.936,3.936,0,0,1,.955-.241c.621-.132,1.554-.287,2.649-.458,2.237-.35,5.352-.73,8.8-.979s6.6-.311,8.856-.287c1.134,0,2.059.039,2.688.078A4.227,4.227,0,0,1,513.685,301.45Z" transform="translate(-109.09 -67.245)"/>
    <path id="Path_8227" data-name="Path 8227" d="M515.244,329.432c0,.124-5.562.684-12.429,1.251s-12.468.932-12.475.777,5.554-.684,12.429-1.258S515.236,329.308,515.244,329.432Z" transform="translate(-109.445 -73.524)"/>
    <path id="Path_8228" data-name="Path 8228" d="M517.846,358.8a4.017,4.017,0,0,1-.886.5c-.575.3-1.429.7-2.509,1.157a52.5,52.5,0,0,1-17.727,3.969,24.767,24.767,0,0,1-2.765,0,4.563,4.563,0,0,1-1.01-.078,4.411,4.411,0,0,1,1.01-.093c.645,0,1.554-.085,2.742-.171a62.036,62.036,0,0,0,17.633-3.946c1.08-.419,1.958-.777,2.556-1.018a4.876,4.876,0,0,1,.955-.326Z" transform="translate(-110.028 -80.085)"/>
    <path id="Path_8229" data-name="Path 8229" d="M542.437,373.86a23.207,23.207,0,0,0-4.21,3.387,25.772,25.772,0,0,0-2.936,4.536,4.094,4.094,0,0,1,.466-1.554,12.429,12.429,0,0,1,5.181-5.741,4.3,4.3,0,0,1,1.5-.629Z" transform="translate(-119.478 -83.447)"/>
    <path id="Path_8230" data-name="Path 8230" d="M564.27,390.818a16.611,16.611,0,0,1,4.544-8.288c.085.07-1.235,1.74-2.478,4.032S564.4,390.857,564.27,390.818Z" transform="translate(-125.947 -85.381)"/>
    <path id="Path_8231" data-name="Path 8231" d="M529.615,285.08a42.178,42.178,0,0,1-6,1.313,41.306,41.306,0,0,1-6.09.87,43.457,43.457,0,0,1,6.012-1.313A41.42,41.42,0,0,1,529.615,285.08Z" transform="translate(-115.512 -63.631)"/>
    <path id="Path_8232" data-name="Path 8232" d="M580.688,286.893a154.509,154.509,0,0,1-16.608-1.973,154.518,154.518,0,0,1,16.608,1.973Z" transform="translate(-125.904 -63.595)"/>
    <path id="Path_8233" data-name="Path 8233" d="M574.888,311.713a2.5,2.5,0,0,1-.528,0H567.2c-4.738,0-11.271,0-18.5.217s-13.749.482-18.48.73l-5.593.3-1.554.07a2.577,2.577,0,0,1-.536,0,2.224,2.224,0,0,1,.528-.085l1.554-.155c1.321-.117,3.231-.272,5.593-.435,4.723-.326,11.264-.676,18.488-.862s13.773-.171,18.5-.085c2.33.039,4.288.093,5.608.148l1.554.07a2.167,2.167,0,0,1,.52.093Z" transform="translate(-116.632 -69.492)"/>
    <path id="Path_8234" data-name="Path 8234" d="M576.262,342.656c0,.124-11.147.963-24.9,1.864s-24.92,1.554-24.927,1.414,11.139-.955,24.9-1.864S576.246,342.531,576.262,342.656Z" transform="translate(-117.501 -76.478)"/>
    <path id="Path_8235" data-name="Path 8235" d="M581.836,369.83a4.522,4.522,0,0,1-.94.4c-.614.233-1.507.544-2.618.9-2.229.73-5.337,1.647-8.809,2.478s-6.665,1.437-8.98,1.8c-1.157.179-2.1.311-2.75.381a4.117,4.117,0,0,1-1.01.07,4.118,4.118,0,0,1,.987-.241l2.719-.528c2.33-.443,5.438-1.088,8.925-1.919s6.579-1.693,8.824-2.33l2.657-.777A4.31,4.31,0,0,1,581.836,369.83Z" transform="translate(-124.264 -82.547)"/>
    <path id="Path_8236" data-name="Path 8236" d="M607.317,320.577a80.575,80.575,0,0,1-8.094,2.33,76.838,76.838,0,0,1-8.2,1.888,80.571,80.571,0,0,1,8.094-2.33A78.8,78.8,0,0,1,607.317,320.577Z" transform="translate(-131.917 -71.551)"/>
    <path id="Path_8237" data-name="Path 8237" d="M598.975,299.73a30.854,30.854,0,0,1-7.255,1.305A29.828,29.828,0,0,1,598.975,299.73Z" transform="translate(-132.073 -66.901)"/>
    <path id="Path_8238" data-name="Path 8238" d="M517.6,301.647c-.085,0-.225-1.437-1.018-3.62a18.255,18.255,0,0,0-12.879-11.574c-2.253-.559-3.713-.536-3.705-.621a4.2,4.2,0,0,1,1.018,0,15.631,15.631,0,0,1,2.758.35,17.665,17.665,0,0,1,13.112,11.784,15.432,15.432,0,0,1,.645,2.7A4.177,4.177,0,0,1,517.6,301.647Z" transform="translate(-111.601 -63.791)" fill="#1a2e35"/>
    <path id="Path_8239" data-name="Path 8239" d="M587.84,291.32a73.8,73.8,0,0,1,1.491,7.923,74.173,74.173,0,0,1,1.056,8,70.409,70.409,0,0,1-1.5-7.923A70.438,70.438,0,0,1,587.84,291.32Z" transform="translate(-131.207 -65.023)" fill="#1a2e35"/>
    <path id="Path_8240" data-name="Path 8240" d="M646.647,455.79s32.625,9.042,33.969,9.5c1.965.691,1.639,7.9-1.429,7.768-1.445-.054-25.083.878-28.073.691s-11.994-3.736-11.994-3.736Z" transform="translate(-142.653 -101.733)" fill="#df4b26"/>
    <path id="Path_8241" data-name="Path 8241" d="M666.3,469.964a29.586,29.586,0,0,1,1.437-3.511,32.048,32.048,0,0,1,2.33-3.006c-.085-.132-1.686.777-2.789,2.734A6.056,6.056,0,0,0,666.3,469.964Z" transform="translate(-148.707 -103.44)" fill="#1a2e35"/>
    <path id="Path_8242" data-name="Path 8242" d="M661.925,468.055c.155,0,.489-1.554,1.359-3.224s1.9-2.9,1.779-3.014-1.367.963-2.268,2.765A6.3,6.3,0,0,0,661.925,468.055Z" transform="translate(-147.732 -103.077)" fill="#1a2e35"/>
    <path id="Path_8243" data-name="Path 8243" d="M657.763,466.877a17.423,17.423,0,0,1,.777-3.457c.777-1.81,1.9-2.929,1.779-3.053s-1.554.886-2.33,2.859A4.834,4.834,0,0,0,657.763,466.877Z" transform="translate(-146.762 -102.753)" fill="#1a2e35"/>
    <path id="Path_8244" data-name="Path 8244" d="M657.834,461.145a5.726,5.726,0,0,0,.35-2.431,11.29,11.29,0,0,0-.326-2.664,12.231,12.231,0,0,0-.49-1.515,1.818,1.818,0,0,0-.52-.777.87.87,0,0,0-1.126.054,1.483,1.483,0,0,0-.435.924,6.462,6.462,0,0,0,0,.862,7.107,7.107,0,0,0,.2,1.6,9.739,9.739,0,0,0,1,2.493,6.461,6.461,0,0,0,1.468,1.965c.078-.054-.474-.816-1.126-2.144a10.916,10.916,0,0,1-.855-2.431,7.088,7.088,0,0,1-.155-1.491c0-.5,0-1.126.3-1.367a.311.311,0,0,1,.427-.039,1.328,1.328,0,0,1,.357.575,12.664,12.664,0,0,1,.5,1.437,13.562,13.562,0,0,1,.435,2.548C657.9,460.205,657.748,461.13,657.834,461.145Z" transform="translate(-146.258 -101.24)" fill="#1a2e35"/>
    <path id="Path_8245" data-name="Path 8245" d="M656.634,462.788a4.5,4.5,0,0,0-2.105-.342,9.5,9.5,0,0,0-2.33.287,4.707,4.707,0,0,0-1.328.489,1.367,1.367,0,0,0-.777,1.491,1.631,1.631,0,0,0,1.173,1.165,3.022,3.022,0,0,0,1.468,0,5.7,5.7,0,0,0,2.121-1.049,5.562,5.562,0,0,0,1.554-1.491,14.641,14.641,0,0,0-1.74,1.173,5.8,5.8,0,0,1-2,.87,2.556,2.556,0,0,1-1.212,0,1.111,1.111,0,0,1-.777-.777.839.839,0,0,1,.489-.909,5.057,5.057,0,0,1,1.181-.466,10.721,10.721,0,0,1,2.2-.381C655.818,462.741,656.619,462.873,656.634,462.788Z" transform="translate(-145.097 -103.216)" fill="#1a2e35"/>
    <path id="Path_8246" data-name="Path 8246" d="M672.71,470.7a17.856,17.856,0,0,1,.645-2.952,22.444,22.444,0,0,1,1.6-2.556c-.1-.124-1.422.645-2.105,2.33A3.961,3.961,0,0,0,672.71,470.7Z" transform="translate(-150.096 -103.83)" fill="#1a2e35"/>
    <path id="Path_8247" data-name="Path 8247" d="M643.44,474.228a7.226,7.226,0,0,0,1.266.59,27.615,27.615,0,0,0,3.635,1.126,51.43,51.43,0,0,0,12.429,1.181c4.894-.054,9.322-.272,12.506-.4l3.783-.2a6.214,6.214,0,0,0,1.383-.148,6.989,6.989,0,0,0-1.39-.062h-3.791l-12.491.249a58.6,58.6,0,0,1-12.382-1.01C645.3,474.927,643.479,474.127,643.44,474.228Z" transform="translate(-143.618 -105.847)" fill="#1a2e35"/>
    <path id="Path_8248" data-name="Path 8248" d="M642.2,474.389a26.2,26.2,0,0,0,2.447-1.1,11.4,11.4,0,0,1,6.214-1.033,9.778,9.778,0,0,1,5.337,3.185,18.753,18.753,0,0,0,1.888,1.919,10.472,10.472,0,0,0-1.6-2.183,12.925,12.925,0,0,0-2.167-2.027,7.806,7.806,0,0,0-3.371-1.429,10.758,10.758,0,0,0-6.432,1.22,8.839,8.839,0,0,0-2.315,1.453Z" transform="translate(-143.341 -105.271)" fill="#1a2e35"/>
    <path id="Path_8249" data-name="Path 8249" d="M589.624,446s-30.9,20.236-32.012,21.074c-1.662,1.258.241,7.248,3.107,6.214,1.367-.489,27.3-7.706,30.093-8.786s10.293-7.209,10.293-7.209Z" transform="translate(-124.322 -99.548)" fill="#df4b26"/>
    <path id="Path_8250" data-name="Path 8250" d="M585.634,465.176a5.965,5.965,0,0,0-2.074-3.309,6.082,6.082,0,0,0-3.48-1.763,30,30,0,0,1,3.107,2.167C584.741,463.661,585.455,465.246,585.634,465.176Z" transform="translate(-129.475 -102.691)" fill="#1a2e35"/>
    <path id="Path_8251" data-name="Path 8251" d="M589.4,461.972a6.153,6.153,0,0,0-1.888-3.037,6.312,6.312,0,0,0-3-1.95c-.054.132,1.274.955,2.61,2.33S589.248,462.05,589.4,461.972Z" transform="translate(-130.464 -101.997)" fill="#1a2e35"/>
    <path id="Path_8252" data-name="Path 8252" d="M593.117,459.546a4.874,4.874,0,0,0-1.352-3.395,5.136,5.136,0,0,0-3.045-2.027,18.243,18.243,0,0,1,2.626,2.369A25.49,25.49,0,0,1,593.117,459.546Z" transform="translate(-131.404 -101.357)" fill="#1a2e35"/>
    <path id="Path_8253" data-name="Path 8253" d="M591.536,453.939c.085-.047-.342-.878-.7-2.33a14.106,14.106,0,0,1-.365-2.563,12.63,12.63,0,0,1,.039-1.554,1.39,1.39,0,0,1,.163-.652.326.326,0,0,1,.427-.1c.35.148.536.777.7,1.22a6.67,6.67,0,0,1,.3,1.468,10.173,10.173,0,0,1-.078,2.571c-.218,1.468-.5,2.33-.419,2.385a6.465,6.465,0,0,0,.777-2.33,9.861,9.861,0,0,0,.2-2.688,7.537,7.537,0,0,0-.3-1.554,6.064,6.064,0,0,0-.3-.777,1.422,1.422,0,0,0-.691-.777.878.878,0,0,0-1.088.287,1.833,1.833,0,0,0-.256.924,10.885,10.885,0,0,0,0,1.592,11.718,11.718,0,0,0,.49,2.633A6.029,6.029,0,0,0,591.536,453.939Z" transform="translate(-131.672 -99.587)" fill="#1a2e35"/>
    <path id="Path_8254" data-name="Path 8254" d="M591.94,455.332c0,.078.777-.287,2.012-.59a10.877,10.877,0,0,1,2.214-.3,5.267,5.267,0,0,1,1.266.078.938.938,0,0,1,.777.722,1.1,1.1,0,0,1-.52.986,2.587,2.587,0,0,1-1.15.381,5.8,5.8,0,0,1-2.167-.217,15.218,15.218,0,0,0-2.02-.6,5.437,5.437,0,0,0,1.9.963,5.577,5.577,0,0,0,2.33.35,2.96,2.96,0,0,0,1.4-.435,1.623,1.623,0,0,0,.777-1.468,1.383,1.383,0,0,0-1.15-1.2,5.274,5.274,0,0,0-1.422-.062,9.537,9.537,0,0,0-2.33.435,4.537,4.537,0,0,0-1.919.963Z" transform="translate(-132.123 -101.314)" fill="#1a2e35"/>
    <path id="Path_8255" data-name="Path 8255" d="M565.983,477.5c.039.047.52-.311.777-1.2a4.583,4.583,0,0,0-.583-3.356,11.867,11.867,0,0,0-1.033-1.554,5.918,5.918,0,0,0-1.049-1.126,1.865,1.865,0,0,0-.987-.412c-.264,0-.388.054-.388.085a3.022,3.022,0,0,1,1.126.621,7.6,7.6,0,0,1,.893,1.134c.311.458.66.955.963,1.507a4.8,4.8,0,0,1,.676,3.014,11.34,11.34,0,0,1-.4,1.282Z" transform="translate(-125.601 -104.874)" fill="#1a2e35"/>
    <path id="Path_8256" data-name="Path 8256" d="M580.116,467.681a3.774,3.774,0,0,0-1.088-2.96,3.856,3.856,0,0,0-2.719-1.6,15.158,15.158,0,0,1,2.33,1.95A17.517,17.517,0,0,1,580.116,467.681Z" transform="translate(-128.634 -103.363)" fill="#1a2e35"/>
    <path id="Path_8257" data-name="Path 8257" d="M598.525,462a10.924,10.924,0,0,0-1.359.932,38.661,38.661,0,0,1-3.806,2.33,50.544,50.544,0,0,1-6.059,2.7c-2.33.87-4.964,1.693-7.768,2.5-5.562,1.6-10.6,3.061-14.231,4.156l-4.288,1.321a9.638,9.638,0,0,0-1.554.551,8.7,8.7,0,0,0,1.608-.35l4.342-1.15c3.659-.994,8.708-2.4,14.278-4,2.781-.777,5.438-1.655,7.768-2.556a45.055,45.055,0,0,0,6.067-2.828,31.3,31.3,0,0,0,3.744-2.5A8.494,8.494,0,0,0,598.525,462Z" transform="translate(-124.873 -103.12)" fill="#1a2e35"/>
    <path id="Path_8258" data-name="Path 8258" d="M607.148,462.246a8.669,8.669,0,0,0-2.626-.691,10.759,10.759,0,0,0-6.494.777,7.768,7.768,0,0,0-2.781,2.385A13.07,13.07,0,0,0,593.8,467.3a10.308,10.308,0,0,0-.862,2.571,19.563,19.563,0,0,0,1.212-2.408,9.855,9.855,0,0,1,4.125-4.661,11.341,11.341,0,0,1,6.214-.9A23.476,23.476,0,0,0,607.148,462.246Z" transform="translate(-132.346 -102.977)" fill="#1a2e35"/>
    <path id="Path_8259" data-name="Path 8259" d="M656.486,380.4s9.275,3.309,9.322,13.711c.07,19.917-40.238,41.862-40.238,41.862l-53.646-35.538-3.364-1.367S640.973,371.875,656.486,380.4Z" transform="translate(-126.904 -84.538)" fill="#1a2e35"/>
    <path id="Path_8260" data-name="Path 8260" d="M607.86,421.756a9.963,9.963,0,0,0,1.4-.948c.878-.637,2.136-1.554,3.666-2.773,3.107-2.377,7.255-5.741,11.753-9.593s8.452-7.488,11.256-10.161c1.406-1.344,2.532-2.439,3.294-3.208a10.617,10.617,0,0,0,1.15-1.243,10.223,10.223,0,0,0-1.3,1.088l-3.41,3.107c-2.874,2.6-6.867,6.176-11.357,10.029s-8.622,7.263-11.652,9.71l-3.566,2.905A10.37,10.37,0,0,0,607.86,421.756Z" transform="translate(-135.676 -87.904)" fill="#375a64"/>
    <path id="Path_8261" data-name="Path 8261" d="M659.454,390.43a10.478,10.478,0,0,0-5.173.466,11.267,11.267,0,0,0-4.591,2.416,43.155,43.155,0,0,1,4.746-1.9C657.139,390.632,659.454,390.593,659.454,390.43Z" transform="translate(-145.012 -87.114)" fill="#375a64"/>
    <path id="Path_8262" data-name="Path 8262" d="M654.91,386.416a8.114,8.114,0,0,0-4.847,6.012,34.691,34.691,0,0,1,2.09-3.27C653.5,387.512,654.995,386.564,654.91,386.416Z" transform="translate(-145.09 -86.246)" fill="#375a64"/>
    <path id="Path_8263" data-name="Path 8263" d="M684.688,467.584c0-.062-.637-.194-1.383.419a5.018,5.018,0,0,0-1.554,3.107,6.167,6.167,0,0,0,.489,3.433c.381.816.777,1.2.847,1.157a10.368,10.368,0,0,0-.482-1.305,6.828,6.828,0,0,1-.311-3.208,5.438,5.438,0,0,1,1.266-2.905C684.137,467.693,684.7,467.669,684.688,467.584Z" transform="translate(-152.155 -104.353)" fill="#1a2e35"/>
    <path id="Path_8264" data-name="Path 8264" d="M646.677,343.111l-15.264,41.108a5.927,5.927,0,0,1-5.632,3.884l-84.011-1.111v-6.385l31.173,1.142,13.206-41.038a3.364,3.364,0,0,1,3.2-2.33l54.189.163a3.348,3.348,0,0,1,3.138,4.568Z" transform="translate(-120.924 -75.527)" fill="#e1e1e1"/>
    <path id="Path_8265" data-name="Path 8265" d="M646.641,343.069v-.132a3.188,3.188,0,0,0,.109-.381,3.34,3.34,0,0,0-3.037-4.016H589.841a3.7,3.7,0,0,0-2.237.489,3.255,3.255,0,0,0-1.39,1.825l-13.206,40.968v.093h-.093l-31.173-1.134.14-.14v6.385l-.14-.132,52.822.707,22.962.311,5.3.078,2.571.039a6.33,6.33,0,0,0,2.447-.357,5.818,5.818,0,0,0,3.364-3.247l1.639-4.381,10.1-27.017,2.742-7.325c.629-1.67.979-2.54.979-2.54s-.311.886-.924,2.563l-2.7,7.341c-2.33,6.385-5.772,15.614-9.99,27.048l-1.639,4.389a5.989,5.989,0,0,1-3.472,3.356,6.447,6.447,0,0,1-2.517.381l-2.579-.039-5.29-.062-22.986-.381-52.822-.684h-.132v-6.657h.14l31.165,1.126-.132.093,13.206-40.961a3.519,3.519,0,0,1,1.484-1.95,3.977,3.977,0,0,1,2.33-.52h4.661l8.894.039,15.839.062,22.613.1h1.872a3.317,3.317,0,0,1,1.554.5,3.4,3.4,0,0,1,1.484,2.035,3.276,3.276,0,0,1,0,1.554,4.3,4.3,0,0,1-.078.567Z" transform="translate(-120.889 -75.485)" fill="#1a2e35"/>
    <path id="Path_8266" data-name="Path 8266" d="M628.406,364.363a3.783,3.783,0,0,1,4.086.435,3.309,3.309,0,0,1,.777,3.62,3.581,3.581,0,0,1-3.068,2.144,3.231,3.231,0,0,1-3.239-2.144c-.388-1.344.047-3.348,1.429-4.055" transform="translate(-139.909 -81.236)" fill="#fff"/>
    <path id="Path_8267" data-name="Path 8267" d="M619.7,439.463s-75.707-48.5-79.047-50.4c-2.843-1.624-10.448-6.3-17.952-4.234s-14.223,8.793-17.587,18.643c-1.919,5.616-2.828,15.194-3.255,22.38a33.216,33.216,0,0,0,7.768,23.669,21.171,21.171,0,0,0,9.454,6.712c.777.249,1.608.458,2.447.645,14.332,3.107,29.06-3.332,37.108-15.583l1.771-2.7s49.583,18.216,50.36,17.96Z" transform="translate(-111.999 -85.78)" fill="#1a2e35"/>
    <path id="Path_8268" data-name="Path 8268" d="M544.448,391.692l-.186-.117-.536-.357c-.458-.326-1.142-.777-2.043-1.375a40.174,40.174,0,0,0-8.04-4.086,21.689,21.689,0,0,0-6.059-1.274,17.385,17.385,0,0,0-6.991,1.134,22.435,22.435,0,0,0-6.7,4.063,30.972,30.972,0,0,0-2.975,2.921,22.167,22.167,0,0,0-2.455,3.5,35.731,35.731,0,0,0-3.263,7.768c-.715,2.641-1.289,5.251-1.833,7.714a70.345,70.345,0,0,0-1.74,13.283,48.028,48.028,0,0,0,.684,9c.171,1.056.357,1.864.474,2.416l.124.629a.775.775,0,0,1,0,.217.534.534,0,0,0-.07-.2l-.171-.621c-.14-.544-.357-1.352-.552-2.408a44.956,44.956,0,0,1-.831-9.042,68.488,68.488,0,0,1,1.655-13.361c.536-2.486,1.088-5.072,1.81-7.768a35.326,35.326,0,0,1,3.3-7.9,22,22,0,0,1,2.509-3.573,31.883,31.883,0,0,1,3.022-2.96,22.782,22.782,0,0,1,6.836-4.109,17.625,17.625,0,0,1,7.131-1.119,21.441,21.441,0,0,1,6.144,1.352,37.76,37.76,0,0,1,8.024,4.234c.893.606,1.554,1.1,2,1.445l.5.4C544.394,391.629,544.456,391.684,544.448,391.692Z" transform="translate(-111.889 -85.719)" fill="#375a64"/>
    <path id="Path_8269" data-name="Path 8269" d="M532.87,426.724l.419.186,1.235.489,4.808,1.849,17.866,6.727c7.582,2.835,16.67,6.214,26.862,9.9s21.494,7.768,33.565,11.862l.218.078.109-.21,5.9-11.31,3.022-5.764.117-.225-.21-.132-57.817-36.7-17.354-10.953-4.715-2.944-1.235-.777-.427-.241s.132.109.4.287l1.2.777,4.661,3.029,17.276,11.093L626.5,440.59l-.093-.357L623.39,446l-5.919,11.31.326-.132c-12.064-4.078-23.366-8.125-33.565-11.8l-26.908-9.8-17.913-6.572-4.839-1.756-1.258-.451Z" transform="translate(-118.938 -86.728)" fill="#375a64"/>
    <path id="Path_8270" data-name="Path 8270" d="M536.806,220.045A38.775,38.775,0,0,1,533.443,212a13.1,13.1,0,0,1,.443-8.545c.707-1.554,1.818-2.905,2.369-4.521.777-2.222.451-4.832,1.825-6.735,2.144-2.975,6.735-2.276,10.052-3.837,2.587-1.212,4.4-3.822,7.108-4.661,2.377-.777,4.964,0,7.263.948s4.521,2.229,6.991,2.556a48.773,48.773,0,0,0,5.329,0,7.027,7.027,0,0,1,4.917,1.693c1.251,1.266,1.507,3.6.155,4.746,3.107-.528,6.036,2.579,6,5.733s-2.416,5.927-5.282,7.24a18.817,18.817,0,0,1-9.322,1.15c-8.9-.691-17.866-4.078-23.9-10.634" transform="translate(-118.951 -40.931)" fill="#ff735d"/>
    <path id="Path_8271" data-name="Path 8271" d="M538.611,210.737l-6.067,44.091A13.206,13.206,0,0,0,544.522,269.8h0a13.206,13.206,0,0,0,14.27-11.4c.451-3.317.839-6.082.909-6.424,0,0,11.365.489,13.7-10.5,1.134-5.313,2.563-16.445,3.752-26.535a20.973,20.973,0,0,0-16.7-22.954l-1.064-.21C547.769,190.152,539.908,199.1,538.611,210.737Z" transform="translate(-118.837 -42.762)" fill="#ffbf9d"/>
    <path id="Path_8272" data-name="Path 8272" d="M563.677,267.132a26.108,26.108,0,0,1-13.547-6.952s1.81,8.615,13,9.819Z" transform="translate(-122.79 -58.073)" fill="#ff9a6c"/>
    <path id="Path_8273" data-name="Path 8273" d="M582.7,233.212a1.608,1.608,0,0,1-1.833,1.282,1.554,1.554,0,0,1-1.336-1.74,1.6,1.6,0,0,1,1.833-1.289,1.554,1.554,0,0,1,1.336,1.748Z" transform="translate(-129.349 -51.659)" fill="#1a2e35"/>
    <path id="Path_8274" data-name="Path 8274" d="M583.756,227.315c-.241.163-1.251-.955-2.952-1.289s-3.107.264-3.247,0c-.07-.109.2-.443.823-.73a4.436,4.436,0,0,1,2.649-.272,4.272,4.272,0,0,1,2.33,1.282C583.763,226.842,583.872,227.253,583.756,227.315Z" transform="translate(-128.91 -50.206)" fill="#1a2e35"/>
    <path id="Path_8275" data-name="Path 8275" d="M562.363,229.7a1.608,1.608,0,0,1-1.833,1.282,1.554,1.554,0,0,1-1.344-1.74,1.616,1.616,0,0,1,1.833-1.289,1.554,1.554,0,0,1,1.344,1.748Z" transform="translate(-124.809 -50.876)" fill="#1a2e35"/>
    <path id="Path_8276" data-name="Path 8276" d="M562.218,223.447c-.233.171-1.251-.955-2.944-1.289s-3.107.272-3.247,0c-.07-.109.2-.443.823-.722a4.366,4.366,0,0,1,2.649-.272,4.2,4.2,0,0,1,2.33,1.282C562.218,222.973,562.35,223.346,562.218,223.447Z" transform="translate(-124.104 -49.343)" fill="#1a2e35"/>
    <path id="Path_8277" data-name="Path 8277" d="M568.71,237.782a11.652,11.652,0,0,1,2.851.054c.435.047.862.039.994-.241a2.245,2.245,0,0,0,0-1.336c-.194-1.134-.4-2.33-.621-3.55-.839-5.049-1.352-9.158-1.15-9.19s1.049,4.032,1.888,9.073c.194,1.243.388,2.424.559,3.558a2.525,2.525,0,0,1-.109,1.74,1.1,1.1,0,0,1-.839.489,3.248,3.248,0,0,1-.777-.039,11.055,11.055,0,0,1-2.8-.559Z" transform="translate(-126.938 -49.89)" fill="#1a2e35"/>
    <path id="Path_8278" data-name="Path 8278" d="M561.851,242.109c.28,0-.085,1.88,1.227,3.5s3.309,1.81,3.27,2.066c0,.124-.5.272-1.336.132a4.661,4.661,0,0,1-2.758-1.623,4.079,4.079,0,0,1-.909-2.905C561.424,242.49,561.719,242.07,561.851,242.109Z" transform="translate(-125.291 -54.039)" fill="#1a2e35"/>
    <path id="Path_8279" data-name="Path 8279" d="M564.026,215.108c-.256.427-1.9-.132-3.938-.287s-3.752.062-3.931-.4c-.078-.217.287-.6,1.025-.909a6.836,6.836,0,0,1,6,.52C563.847,214.471,564.143,214.906,564.026,215.108Z" transform="translate(-124.133 -47.553)" fill="#ff735d"/>
    <path id="Path_8280" data-name="Path 8280" d="M584.358,220.84c-.381.326-1.46-.311-2.866-.606s-2.641-.264-2.835-.715c-.078-.225.186-.567.777-.831a3.985,3.985,0,0,1,2.455-.163,4.071,4.071,0,0,1,2.136,1.227C584.443,220.25,584.521,220.677,584.358,220.84Z" transform="translate(-129.155 -48.748)" fill="#ff735d"/>
    <path id="Path_8281" data-name="Path 8281" d="M537,226.721c-.171-.117-7.131-3.752-8.389,3.83s6.6,7.286,6.657,7.077S537,226.721,537,226.721Z" transform="translate(-117.957 -50.388)" fill="#ffbf9d"/>
    <path id="Path_8282" data-name="Path 8282" d="M534,235.023a2.39,2.39,0,0,1-.388.132,1.313,1.313,0,0,1-.987-.14c-.777-.427-1.22-1.81-1.025-3.185a4.437,4.437,0,0,1,.684-1.833,1.554,1.554,0,0,1,1.165-.847.676.676,0,0,1,.715.5.627.627,0,0,1,0,.388c0,.023.186-.1.179-.427a.831.831,0,0,0-.218-.52,1,1,0,0,0-.7-.318,1.888,1.888,0,0,0-1.554.948,4.538,4.538,0,0,0-.777,2.035c-.21,1.554.334,3.107,1.375,3.6a1.4,1.4,0,0,0,1.243,0C533.964,235.2,534.026,235.039,534,235.023Z" transform="translate(-118.532 -51.062)" fill="#ff9a6c"/>
    <path id="Path_8283" data-name="Path 8283" d="M580.631,204.258c-1.305,2.8-7.993,3.884-12.9,2.4-4.521-1.367-6.16-4.234-9.034-6.735-1.818-1.554-1.818-1.554-4.793-1.9-2.4-.241-4.327,2.144-6.144,3.736,1.018,6.028-1.662,11.994-4.28,17.517a3.006,3.006,0,0,1-1.22,1.554c-1.033.513-2.26-.3-2.874-1.258a9.587,9.587,0,0,1-1.064-5.321,31.74,31.74,0,0,1,2.517-12.211,21.548,21.548,0,0,1,7.931-9.492,20.4,20.4,0,0,1,15.078-2.494,25.005,25.005,0,0,1,13.206,7.931,14.675,14.675,0,0,1,3.566,6.261" transform="translate(-120.153 -42.312)" fill="#ff735d"/>
    <path id="Path_8284" data-name="Path 8284" d="M572.922,229.9c.062,0,.039-.652.342-1.763a7.341,7.341,0,0,1,2.688-3.884,7.069,7.069,0,1,1,0,11.318,7.357,7.357,0,0,1-2.688-3.884c-.3-1.1-.28-1.763-.342-1.763s0,.163,0,.474a5.924,5.924,0,0,0,.148,1.352,7.341,7.341,0,0,0,2.657,4.179,7.589,7.589,0,1,0,0-12.009,7.357,7.357,0,0,0-2.657,4.187,5.889,5.889,0,0,0-.148,1.352C572.883,229.741,572.9,229.9,572.922,229.9Z" transform="translate(-127.872 -49.625)" fill="#1a2e35"/>
    <path id="Path_8285" data-name="Path 8285" d="M549.765,225.828c.07,0,.047-.653.35-1.763a7.287,7.287,0,0,1,2.68-3.884,7.146,7.146,0,0,1,6.711-.963,7.065,7.065,0,0,1,0,13.252,7.146,7.146,0,0,1-6.711-.963,7.286,7.286,0,0,1-2.68-3.884c-.3-1.111-.28-1.763-.35-1.763a1.75,1.75,0,0,0,0,.474,5.929,5.929,0,0,0,.155,1.344,7.333,7.333,0,0,0,2.649,4.187,7.59,7.59,0,1,0,0-12.009,7.333,7.333,0,0,0-2.649,4.187,5.926,5.926,0,0,0-.155,1.344,1.745,1.745,0,0,0,0,.443Z" transform="translate(-122.705 -48.718)" fill="#1a2e35"/>
    <path id="Path_8286" data-name="Path 8286" d="M568.848,228.171c.078.155,1.041-.3,2.159.047s1.686,1.227,1.841,1.15,0-.318-.218-.7a2.7,2.7,0,0,0-3.208-.963C568.965,227.891,568.809,228.1,568.848,228.171Z" transform="translate(-126.967 -50.782)" fill="#1a2e35"/>
    <path id="Path_8287" data-name="Path 8287" d="M536.65,225.417c0,.171,2.424.272,5.438.233s5.391-.217,5.391-.388-2.424-.272-5.4-.225S536.65,225.246,536.65,225.417Z" transform="translate(-119.782 -50.226)" fill="#1a2e35"/>
    <path id="Path_8288" data-name="Path 8288" d="M592.567,199.16a2.332,2.332,0,0,1-.124.722,3.557,3.557,0,0,1-1.134,1.631,5.033,5.033,0,0,1-2.727,1.119,13.826,13.826,0,0,1-3.62-.194,61.005,61.005,0,0,1-6.432-1.3c-.777-.21-1.468-.4-1.919-.536l-.513-.163-.179-.07a.776.776,0,0,1,.186,0l.528.132,1.927.482c1.631.4,3.884.87,6.432,1.243a13.532,13.532,0,0,0,3.573.2,4.94,4.94,0,0,0,2.664-1.049,3.566,3.566,0,0,0,1.15-1.554C592.536,199.424,592.543,199.152,592.567,199.16Z" transform="translate(-128.547 -44.453)" fill="#fff"/>
    <path id="Path_8289" data-name="Path 8289" d="M596.253,201.37a6.928,6.928,0,0,1-.653,2.074,9.011,9.011,0,0,1-3.488,3.884,9.127,9.127,0,0,1-5.057,1.243,6.882,6.882,0,0,1-2.136-.412,3.722,3.722,0,0,1,.567.109,10.43,10.43,0,0,0,1.554.171,9,9,0,0,0,8.452-5.026,8.88,8.88,0,0,0,.583-1.46A4.484,4.484,0,0,1,596.253,201.37Z" transform="translate(-130.556 -44.946)" fill="#fff"/>
  </g>
</svg>
