<svg xmlns="http://www.w3.org/2000/svg" width="642.69" height="366.831" viewBox="0 0 642.69 366.831"><g id="Illustration" transform="translate(-0.02 -0.009)"><g id="Layer_1" data-name="Layer 1" transform="translate(0.02 0.009)"><path id="Path_8290" fill="#ed7d2b" d="M30.272,369.558s-47.04-52.816-23.806-154.824c14.652-64.16,76.753-103.682,158.511-92.916,75.7,9.971,74.424-30.075,140.643-68.232C447.273-28.126,652.177,6.576,603.131,190.334c-23.728,88.914,74.648,90.341,25.757,179.224Z" data-name="Path 8290" opacity=".15" transform="translate(-0.02 -2.727)"/><path id="Path_8291" fill="#df4b26" d="M543.169,69.254,536.9,69h-.146a1.5,1.5,0,0,0-1.542,1.257l-.771,5.174a1.292,1.292,0,0,1-.062.247,1.465,1.465,0,0,1-1.272.995,26.142,26.142,0,0,0-9.925,2.861,1.905,1.905,0,0,1-.4.139,1.542,1.542,0,0,1-1.411-.478L518.492,75.9a1.488,1.488,0,0,0-2.028-.27L511.213,79.3a1.542,1.542,0,0,0-.44,2.02l2.923,5.028a1.465,1.465,0,0,1-.069,1.542c-.463.686-.895,1.388-1.3,2.121a26.212,26.212,0,0,0-1.858,4.234h0a1.542,1.542,0,0,1-1.373,1.033l-5.9.239h-.3a1.481,1.481,0,0,0-1.419,1.4l-.293,6.408a1.542,1.542,0,0,0,1.3,1.542l5.76.9a1.481,1.481,0,0,1,1.288,1.319,26.127,26.127,0,0,0,2.614,7.65,1.488,1.488,0,0,1-.347,1.812l-3.856,3.416A1.542,1.542,0,0,0,507.7,122l3.678,5.267a1.45,1.45,0,0,0,1.928.424l5.915-3.424a1.542,1.542,0,0,1,1.612.054c.594.393,1.211.771,1.851,1.118a26.392,26.392,0,0,0,3.671,1.666,1.465,1.465,0,0,1,.972,1.326l.278,7.095a1.542,1.542,0,0,0,1.427,1.434l6.431.3a1.542,1.542,0,0,0,1.488-1.056A.824.824,0,0,0,537,136l.995-6.385a1.481,1.481,0,0,1,1.1-1.226h.154a4.457,4.457,0,0,0,.463-.085,26.627,26.627,0,0,0,5.4-1.542,1.442,1.442,0,0,1,1.658.4l3.609,4.11a1.542,1.542,0,0,0,2.02.239l1.087-.817,4.064-2.853a1.5,1.5,0,0,0,.44-1.982l-2.876-4.951a1.458,1.458,0,0,1,.147-1.666A25.988,25.988,0,0,0,558,115.184a25.441,25.441,0,0,0,1.542-3.339l1.234-.046,5.082-.208a1.457,1.457,0,0,0,1.342-1.026,1.248,1.248,0,0,0,.062-.378l.308-6.447A1.542,1.542,0,0,0,566.3,102.2l-3.933-.609a1.488,1.488,0,0,1-1.257-1.326,26.428,26.428,0,0,0-2.059-8.028,1.45,1.45,0,0,1,.378-1.7l4.92-4.318a1.45,1.45,0,0,0,.231-1.9l-3.732-5.321a1.465,1.465,0,0,0-1.943-.432l-6.169,3.563a1.5,1.5,0,0,1-1.673-.116,25.448,25.448,0,0,0-3.347-2.213c-.648-.355-1.3-.679-1.959-.972a1.542,1.542,0,0,1-.887-1.3l-.262-6.8A1.542,1.542,0,0,0,543.169,69.254ZM523.713,94.448a16.024,16.024,0,0,1,3.9-3.856,9.354,9.354,0,0,1,1.18-.7,14.213,14.213,0,0,1,6.323-1.481c14.128.725,19.163,17.5,8.02,25.9l-.555.4a13.8,13.8,0,0,1-7.195,2.09,17.737,17.737,0,0,1-3.223-.44,14.089,14.089,0,0,1-8.452-21.908Z" data-name="Path 8291" transform="translate(-114.709 -15.797)"/><path id="Path_8292" fill="#df4b26" d="M644.752,126.648l-9.539-1.658h-.224a2.313,2.313,0,0,0-2.607,1.635l-2.221,7.773a2.633,2.633,0,0,1-.139.37,2.267,2.267,0,0,1-2.144,1.272,40.308,40.308,0,0,0-15.755,2.483,2.335,2.335,0,0,1-2.707-.871l-3.771-5.6a2.36,2.36,0,0,0-2.229-.987,2.428,2.428,0,0,0-.771.247l-8.745,4.627a2.367,2.367,0,0,0-1.064,3.007l3.493,8.236a2.313,2.313,0,0,1-.4,2.414c-.841.964-1.643,1.951-2.406,3a40.23,40.23,0,0,0-3.655,6.123h0a2.314,2.314,0,0,1-2.313,1.319l-9.084-.771-.463-.039a2.313,2.313,0,0,0-2.437,1.882l-1.681,9.755a2.383,2.383,0,0,0,1.689,2.676l8.645,2.483a2.314,2.314,0,0,1,1.681,2.121,40.225,40.225,0,0,0,2.537,12.215,2.313,2.313,0,0,1-.879,2.714l-6.624,4.488a2.36,2.36,0,0,0-.771,3.085l4.627,8.776a2.252,2.252,0,0,0,2.876,1.018l9.716-4.11a2.352,2.352,0,0,1,2.452.386q1.265,1.08,2.622,2.067a41.591,41.591,0,0,0,5.306,3.262,2.313,2.313,0,0,1,1.242,2.221l-.941,10.912a2.314,2.314,0,0,0,1.912,2.475l9.794,1.689a2.313,2.313,0,0,0,2.483-1.319,1.543,1.543,0,0,0,.116-.316l2.753-9.6a2.314,2.314,0,0,1,1.92-1.666,1.258,1.258,0,0,1,.239,0,4.57,4.57,0,0,0,.725-.039,40.339,40.339,0,0,0,8.483-1.319,2.244,2.244,0,0,1,2.468.941l4.735,6.987a2.36,2.36,0,0,0,3.085.771l1.943-1.026,6.778-3.594a2.313,2.313,0,0,0,1.057-2.954l-3.455-8.143a2.244,2.244,0,0,1,.532-2.514,41.387,41.387,0,0,0,5-5.691,40.536,40.536,0,0,0,2.992-4.82l1.912.162,7.812.655a2.252,2.252,0,0,0,2.26-1.311,1.958,1.958,0,0,0,.17-.571l1.7-9.817a2.313,2.313,0,0,0-1.643-2.606l-5.915-1.681a2.314,2.314,0,0,1-1.666-2.313,40.639,40.639,0,0,0-1.612-12.685,2.236,2.236,0,0,1,.894-2.537l8.375-5.668a2.221,2.221,0,0,0,.709-2.876l-4.7-8.868a2.26,2.26,0,0,0-2.884-1.033l-10.11,4.28a2.313,2.313,0,0,1-2.545-.5,39.038,39.038,0,0,0-4.719-4c-.925-.663-1.858-1.288-2.815-1.866a2.313,2.313,0,0,1-1.1-2.159l.887-10.472a2.313,2.313,0,0,0-1.889-2.522Zm-34.632,34.895a24.676,24.676,0,0,1,6.717-5.167,14.506,14.506,0,0,1,1.951-.856,21.947,21.947,0,0,1,9.932-1.049c21.5,3.856,26,30.484,7.326,41.2-.308.177-.617.347-.941.509A21.107,21.107,0,0,1,623.7,198a26.341,26.341,0,0,1-4.858-1.28,21.762,21.762,0,0,1-8.722-35.18Z" data-name="Path 8292" transform="translate(-131.341 -28.603)"/><path id="Path_8293" fill="#df4b26" d="M117.056,186.89l-4.627.208h-.108a1.118,1.118,0,0,1-1.149-.941l-.594-3.856a.81.81,0,0,0-.046-.185,1.08,1.08,0,0,0-.949-.733,19.51,19.51,0,0,1-7.426-2.128,1.242,1.242,0,0,0-.293-.108,1.149,1.149,0,0,0-1.056.362l-2.136,2.445a1.118,1.118,0,0,1-1.141.386,1.21,1.21,0,0,1-.355-.162l-3.9-2.73a1.134,1.134,0,0,1-.324-1.542l2.167-3.74a1.08,1.08,0,0,0-.046-1.172c-.339-.509-.671-1.033-.972-1.542a19.5,19.5,0,0,1-1.38-3.146h0a1.126,1.126,0,0,0-1.026-.771l-4.388-.177h-.216a1.1,1.1,0,0,1-1.056-1.049l-.193-4.789a1.134,1.134,0,0,1,.964-1.18l4.28-.671a1.1,1.1,0,0,0,.933-.91,19.356,19.356,0,0,1,1.943-5.722,1.11,1.11,0,0,0-.262-1.349l-2.892-2.506a1.134,1.134,0,0,1-.216-1.542l2.776-3.856a1.072,1.072,0,0,1,1.427-.316l4.4,2.545a1.134,1.134,0,0,0,1.2-.039c.44-.293.9-.571,1.373-.833a20.628,20.628,0,0,1,2.707-1.28,1.08,1.08,0,0,0,.725-.979l.2-5.275a1.118,1.118,0,0,1,1.064-1.072l4.781-.224a1.126,1.126,0,0,1,1.11.771.9.9,0,0,1,0,.154l.771,4.75a1.087,1.087,0,0,0,.817.91h.116a2.617,2.617,0,0,1,.339.062,19.048,19.048,0,0,1,3.995,1.141,1.087,1.087,0,0,0,1.234-.3l2.684-3.085a1.134,1.134,0,0,1,1.5-.177l.864.609,3.031,2.121a1.126,1.126,0,0,1,.324,1.473l-2.136,3.686a1.08,1.08,0,0,0,.1,1.234,19.333,19.333,0,0,1,3.193,5.506h.918l3.779.154a1.087,1.087,0,0,1,1,.771,1.165,1.165,0,0,1,.046.285l.231,4.789a1.126,1.126,0,0,1-.949,1.149l-2.923.455a1.11,1.11,0,0,0-.933.987,19.464,19.464,0,0,1-1.542,5.969,1.087,1.087,0,0,0,.278,1.265l3.663,3.208a1.072,1.072,0,0,1,.17,1.419l-2.776,3.956a1.087,1.087,0,0,1-1.442.324l-4.573-2.653a1.118,1.118,0,0,0-1.249.085,19.28,19.28,0,0,1-2.491,1.635c-.486.262-.964.5-1.457.725a1.126,1.126,0,0,0-.663.964l-.193,5.059a1.134,1.134,0,0,1-1.026,1.18Zm-14.475-18.754a11.992,11.992,0,0,0,2.907,2.876,7.565,7.565,0,0,0,.879.524,10.573,10.573,0,0,0,4.7,1.1c10.511-.54,14.251-13.017,5.969-19.279l-.416-.3a10.164,10.164,0,0,0-5.344-1.542,12.338,12.338,0,0,0-2.4.324,10.48,10.48,0,0,0-6.293,16.3Z" data-name="Path 8293" transform="translate(-19.659 -31.201)"/><path id="Path_8294" fill="#df4b26" d="M238.508,115.967l-7.056,1.218h-.17a1.72,1.72,0,0,1-1.936-1.218l-1.658-5.784a1.612,1.612,0,0,0-.1-.27,1.689,1.689,0,0,0-1.6-.956,29.852,29.852,0,0,1-11.714-1.843,2.112,2.112,0,0,0-.478-.1,1.758,1.758,0,0,0-1.542.771l-2.8,4.157a1.766,1.766,0,0,1-1.658.771,2.1,2.1,0,0,1-.578-.185l-6.5-3.439a1.751,1.751,0,0,1-.771-2.236l2.607-6.169a1.7,1.7,0,0,0-.3-1.789c-.625-.717-1.218-1.45-1.781-2.236a29.3,29.3,0,0,1-2.722-4.55h0a1.727,1.727,0,0,0-1.712-.979l-6.755.571h-.339a1.681,1.681,0,0,1-1.812-1.4l-1.311-7.2a1.766,1.766,0,0,1,1.249-1.99l6.431-1.866a1.72,1.72,0,0,0,1.249-1.542,30.075,30.075,0,0,1,1.889-9.084,1.72,1.72,0,0,0-.656-2.02l-4.928-3.339a1.75,1.75,0,0,1-.563-2.275l3.447-6.532a1.673,1.673,0,0,1,2.136-.771l7.226,3.085a1.758,1.758,0,0,0,1.828-.278c.625-.54,1.272-1.049,1.951-1.542a30.129,30.129,0,0,1,3.941-2.429,1.673,1.673,0,0,0,.925-1.643l-.694-8.12a1.72,1.72,0,0,1,1.419-1.843l7.28-1.257a1.735,1.735,0,0,1,1.851.987,1.025,1.025,0,0,1,.085.231l2.051,7.141a1.7,1.7,0,0,0,1.427,1.157h.177a4.226,4.226,0,0,1,.54,0,29.473,29.473,0,0,1,6.331.979,1.658,1.658,0,0,0,1.828-.7l3.532-5.2a1.735,1.735,0,0,1,2.267-.555l1.434.848,5.043,2.676a1.72,1.72,0,0,1,.771,2.2l-2.568,6.054a1.658,1.658,0,0,0,.393,1.874,29.4,29.4,0,0,1,3.717,4.234,30.074,30.074,0,0,1,2.229,3.586l1.419-.123,5.814-.494a1.673,1.673,0,0,1,1.689.956,1.81,1.81,0,0,1,.131.424l1.265,7.3a1.727,1.727,0,0,1-1.218,1.943l-4.4,1.249a1.727,1.727,0,0,0-1.242,1.689,30.143,30.143,0,0,1-1.2,9.439,1.666,1.666,0,0,0,.671,1.889l6.223,4.21a1.658,1.658,0,0,1,.532,2.144l-3.486,6.593a1.673,1.673,0,0,1-2.152.771l-7.519-3.185a1.712,1.712,0,0,0-1.889.37,28.819,28.819,0,0,1-3.516,2.984,20.344,20.344,0,0,1-2.082,1.388,1.712,1.712,0,0,0-.825,1.6l.663,7.781a1.743,1.743,0,0,1-1.434,1.874ZM212.744,90.041a18.569,18.569,0,0,0,5,3.856,10.621,10.621,0,0,0,1.45.632,16.279,16.279,0,0,0,7.411.771c15.994-2.846,19.341-22.672,5.452-30.646-.231-.131-.463-.262-.7-.386a15.8,15.8,0,0,0-8.483-1.35,19.865,19.865,0,0,0-3.617.9,16.194,16.194,0,0,0-6.509,26.219Z" data-name="Path 8294" transform="translate(-42.535 -9.076)"/><path id="Path_8295" fill="#df4b26" d="M239.624,209.065c-.54-13.31,10.619-19.225,22.024-19.225s23.821,2.954,24.9,20.651c.694,11.39-5.4,18.4-22.857,18.4-5.9,0-10.48-.933-13.989-2.591l-8.737,7.766,4.3-10.734C241.452,219.8,239.856,214.81,239.624,209.065Z" data-name="Path 8295" transform="translate(-54.848 -43.451)"/><path id="Path_8296" d="M95.521,472.771a22.966,22.966,0,0,0-1.542-5.884c-1.1-2.19-8.082-.771-8.082-.771s-1.4,1.2-1.7,6.778Z" data-name="Path 8296" transform="translate(-19.284 -106.573)"/><path id="Path_8297" d="M129.431,471.355c-1.643-1-.709-8.483-.709-8.483s7.642-6.108,8.7-1.434,7.257,6.786,10.8,7.357c2.437.4,3.193,1.751,3.424,2.553Z" data-name="Path 8297" transform="translate(-29.412 -105.202)"/><path id="Path_8298" fill="#375a64" d="M105.869,387.459a34.471,34.471,0,0,1,.563,4.126c.709,13.881,11.668,45.544,13.626,46.269,3.031,1.141,7.8-1.288,10.3-2.082a2.152,2.152,0,0,0,1.542-2.437c-5.4-24.939-7.418-60.852-8.143-82.112a96.763,96.763,0,0,0-2.205-18.107S94.833,325.982,94.679,335C94.494,343,103.486,374.3,105.869,387.459Z" data-name="Path 8298" transform="translate(-21.682 -75.627)"/><path id="Path_8299" fill="#1a2e35" d="M105.857,387.457l17.852-36.244a96.766,96.766,0,0,0-2.206-18.107s-26.72-7.133-26.875,1.889C94.483,343,103.475,374.293,105.857,387.457Z" data-name="Path 8299" transform="translate(-21.671 -75.625)"/><path id="Path_8300" fill="#375a64" d="M108.007,335.454,93.887,437.825s-6.169,1.5-11.027.293c0,0-4.141-54.443-3.794-67.6s-2.969-35.226.771-37.655S108.007,335.454,108.007,335.454Z" data-name="Path 8300" transform="translate(-17.875 -76.03)"/><path id="Path_8301" fill="#f99746" d="M78.544,291.037l-1.766,24.577a1.951,1.951,0,0,0,1.419,2.02c1.966.571,4.241.972,8.621,1.882a83.231,83.231,0,0,0,16.449,1.65c10.8.069,14.922-3.655,14.922-3.655.463,0-.247-2.259-.895-13.025-.216-3.648-.424-8.267-.578-14.112-.131-5.259-.224-11.506-.231-18.916,0-8.907-13.811-18.508-14.066-18.508h0c0,1.28-2.028,3.648-5.136,3.856-3.7.239-8.236-1.6-8.236-3.732,0,0-6.686,10.7-9.061,22.109-.3,1.45-.532,2.977-.717,4.581v.077a8.918,8.918,0,0,1-.1.887v.154c0,.27-.054.548-.077.817v.239c0,.254-.046.5-.062.771v.069l-.046.571v.4a3.275,3.275,0,0,1-.046.671v1.272l-.046.941v2.221c0,.717-.062,1.442-.085,2.182a.131.131,0,0,0,0,.054Z" data-name="Path 8301" transform="translate(-17.585 -57.894)"/><path id="Path_8302" fill="#f99746" d="M110,253s12.832-.108,15.917,4.226,9.855,27.623,6.323,35.373-10.118-3.239-13.757-7.981S110,253,110,253Z" data-name="Path 8302" transform="translate(-25.188 -57.905)"/><path id="Path_8303" fill="#ffb27d" d="M106.194,248.154v1.326s.362,4.149-4.743,4.758-8.891-.771-8.753-3.995a46,46,0,0,0,.9-7.041,14.4,14.4,0,0,0-.177-2.483l9.894-.2,2.915.478Z" data-name="Path 8303" transform="translate(-21.228 -55.049)"/><path id="Path_8304" fill="#e2915a" d="M106.46,240.974v7.172a8.282,8.282,0,0,1-3.563.771c-4.55,0-7.488-3.331-9.03-5.753a14.4,14.4,0,0,0-.177-2.483l9.894-.2Z" data-name="Path 8304" transform="translate(-21.456 -55.04)"/><path id="Path_8305" fill="#ffb27d" d="M92.166,234.073c1.149,6.169,9.123,5.976,12.57,5.591.972-.108,1.542-.231,1.542-.231,1.1-.293,1.7-2.013,1.99-4.272.563-4.465-.154-11.012-.9-12.693-1.141-2.522-3.277-5.252-11.305-3.277S90.693,226.16,92.166,234.073Z" data-name="Path 8305" transform="translate(-20.734 -50.013)"/><path id="Path_8306" fill="#ed7d2b" d="M126.491,275.47s4.966,10.958,4.82,14.243a17.158,17.158,0,0,0-4.82.617C122.636,291.487,126.491,275.47,126.491,275.47Z" data-name="Path 8306" transform="translate(-28.57 -63.047)"/><path id="Path_8307" fill="#343334" d="M108.829,215.2a26.735,26.735,0,0,1-7.712-2.09c-3.378-1.473-7.65.154-9.038.879a2.151,2.151,0,0,1,.339-.833,1.82,1.82,0,0,0-.709,1.056c-.069.046-.093.085-.077.093a2.368,2.368,0,0,0-1.164.077s.324-.046.432.154l.054.062c-5.282,2.545-5.768,10.889-4.064,12.817,2.036,2.313,4.488,7.55,4.488,7.55a4.48,4.48,0,0,0,.524-3.277c-.37-2.044,1.4-2.044,3.624-2.969s.37-3.532,2.313-5.113,9.1-.648,9.007-1.851C109.515,220.8,108.829,215.488,108.829,215.2Z" data-name="Path 8307" transform="translate(-19.699 -48.641)"/><path id="Path_8308" fill="#ed7d2b" d="M90.56,301.95c2.09,8.413,24.746,12.755,29.89,13.642-.216-3.648-.424-8.267-.578-14.112Z" data-name="Path 8308" transform="translate(-20.74 -69)"/><path id="Path_8309" fill="#ffb27d" d="M94.331,303.008a40.007,40.007,0,0,1-5.9-1.157c-.864-.432-4.812-6.038-2.229-7.48s9.531,4.288,9.531,4.288Z" data-name="Path 8309" transform="translate(-19.545 -67.32)"/><path id="Path_8310" fill="#f99746" d="M125.754,304.811s-18.639,1.01-31.155-1.666a5.4,5.4,0,0,1,3.617-5.221s19.5-4.133,24.183-2.984S125.754,304.811,125.754,304.811Z" data-name="Path 8310" transform="translate(-21.664 -67.457)"/><path id="Path_8311" fill="#f99746" d="M77.242,280.66c3.856,4.665,8.922,8.483,14.5,9.362h0a10.372,10.372,0,0,0,1.38-6.223,12.4,12.4,0,0,0-2.028-5.714,12.861,12.861,0,0,1-1.1-2.213c-3.085-7.766-2.591-22.741-2.591-22.741s-12.932,1.357-16.965,7.11C67.981,263.764,71.127,273.28,77.242,280.66Z" data-name="Path 8311" transform="translate(-15.943 -57.935)"/><path id="Path_8312" fill="#e2915a" d="M108.989,244.6c.972-.108,1.542-.231,1.542-.231,1.1-.293,1.7-2.013,1.99-4.272a5.4,5.4,0,0,0-3.385,2.768A4.01,4.01,0,0,0,108.989,244.6Z" data-name="Path 8312" transform="translate(-24.949 -54.953)"/><path id="Path_8313" fill="#ffb27d" d="M114.344,248.169s4.465-7.365.987-7.712a5.267,5.267,0,0,0-5.4,2.892c-.5.864.131,4.758.131,4.758Z" data-name="Path 8313" transform="translate(-25.129 -55.025)"/><path id="Path_8314" fill="#f99746" d="M93.634,282.562a9.863,9.863,0,0,0,.771,2.553,12.339,12.339,0,0,0,2.83,3.941h0c11.567-5.236,13.942-23.212,14.336-33.082.162-3.971,0-6.632,0-6.632-5.228-1.735-6.7,1.28-6.7,1.28S98.7,265.272,95.492,274.9C94.266,278.552,93.472,281.482,93.634,282.562Z" data-name="Path 8314" transform="translate(-21.438 -56.945)"/><path id="Path_8315" fill="#ed7d2b" d="M79.51,281.791c3.856,4.665,8.922,8.483,14.5,9.362h0c11.567-5.236,13.942-23.212,14.336-33.082,0,0-5.483,19.9-12.955,26.859a8.121,8.121,0,0,1-4.226,2.313s-9.416-2.66-11.39-5.167C79.633,281.922,79.549,281.8,79.51,281.791Z" data-name="Path 8315" transform="translate(-18.211 -59.065)"/><path id="Path_8316" fill="#df4b26" d="M547.454,366.713s7.372-8.645.416-14.1c0,0-5.074-3.046-9.208-2.792,0,0,5.884,9.8,3.995,10.8s-5.768-11.39-5.768-11.39-11.529-1.087-15.238.709c0,0,9.878,8.035,7.8,8.521s-12.74-7.4-12.74-7.4-10.727,1.858-10.133,8.406,4.288,8.552,5.915,8.375,11.12-3.856,11.328-2.506-5.5,5.7-9.5,5.915c0,0,7.588,8.321,12.608,5.9s5.4-6.239,8.568-7.711,5.807-1.442,4.519,0-6.94,2.9-8.745,6.077-3.385,5.313,1.812,4.519,13.649-4.627,14-8.984Z" data-name="Path 8316" transform="translate(-115.94 -79.851)"/><path id="Path_8317" fill="#f99746" d="M513.42,362.752s29.142-1.2,35.6,7.11a21.006,21.006,0,0,0,5.83,8.128l.686,1.858s-5.067-5.306-6.879-5.622C548.662,374.227,551.461,363.886,513.42,362.752Z" data-name="Path 8317" transform="translate(-117.51 -83.008)"/><path id="Path_8318" fill="#f99746" d="M566.661,382.315a18.33,18.33,0,0,1,6.724,12.878l-1.134.1s-2.028-8.537-5.645-11.868S566.661,382.315,566.661,382.315Z" data-name="Path 8318" transform="translate(-129.317 -87.332)"/><path id="Path_8319" fill="#df4b26" d="M607.976,333.372s-11.783-6.555-6.316-15.508c0,0,4.372-5.5,9.076-6.94,0,0-2.475,13.333,0,13.642s1.689-15.053,1.689-15.053,12.339-5.992,17.228-5.537c0,0-7.642,13.033-5.136,12.716s11.089-13.518,11.089-13.518,12.693-2.383,14.752,5.136-1.218,11.29-3.085,11.768-13.95.347-13.634,1.92,8.483,4.049,13.017,2.63c0,0-4.982,12.392-11.567,11.783s-8.637-4.673-12.716-4.982-7.048.81-5.013,1.9,8.938.339,12.238,3.123,5.976,4.511-.139,5.784-17.089.517-19.279-4.18Z" data-name="Path 8319" transform="translate(-137.372 -69.305)"/><path id="Path_8320" fill="#f99746" d="M645.987,313s-32.9,10.8-36.622,22.7a25.009,25.009,0,0,1-3.085,11.452v2.313s3.424-8,5.306-9.107C611.57,340.4,604.175,330.073,645.987,313Z" data-name="Path 8320" transform="translate(-138.76 -71.636)"/><path id="Path_8321" fill="#f99746" d="M605.346,356.854a21.677,21.677,0,0,0-2.136,17.1l1.3-.347s-1.3-10.341,1.35-15.546S605.346,356.854,605.346,356.854Z" data-name="Path 8321" transform="translate(-137.85 -81.335)"/><path id="Path_8322" fill="#df4b26" d="M569.109,318.849s15.469-8.722,8.205-20.482c0,0-5.807-7.218-12.007-9.061,0,0,3.354,17.551.046,17.976s-2.313-19.834-2.313-19.834-16.348-7.8-22.749-7.172c0,0,10.172,17.127,6.863,16.726s-14.721-17.737-14.721-17.737-16.749-3.085-19.41,6.879,1.7,14.876,4.18,15.485,18.392.362,17.983,2.429-11.143,5.4-17.143,3.563c0,0,6.655,16.31,15.338,15.423s11.344-6.231,16.719-6.655,9.3,1.01,6.624,2.46-11.783.509-16.109,4.21-7.835,5.984.224,7.611,22.533.563,25.448-5.645Z" data-name="Path 8322" transform="translate(-117.229 -63.813)"/><path id="Path_8323" fill="#f99746" d="M523.17,292.31s43.439,13.935,48.452,29.628a32.912,32.912,0,0,0,4.172,15.076V340.1s-4.573-10.526-7.056-11.961C568.737,328.145,578.408,314.473,523.17,292.31Z" data-name="Path 8323" transform="translate(-119.741 -66.901)"/><path id="Path_8324" fill="#f99746" d="M590.783,349.707s6.717,10.141,2.938,22.525L592,371.77s1.635-13.626-1.889-20.474S590.783,349.707,590.783,349.707Z" data-name="Path 8324" transform="translate(-134.738 -79.595)"/><path id="Path_8325" fill="#f99746" d="M674.973,438.8l-127.24.347c-18.924-21.669-20.821-50.966,4.3-75.635,3.162-3.085,9.254-5.306,15.762-6.856,12.053-2.853,25.718-3.509,25.826-3.563a95.782,95.782,0,0,0,11.567-11.066c13.433-16.248,24.854-14.852,24.854-14.852,13.68-2.653,25.356-3.432,34.008,1.388h0c8.012,4.473,13.441,13.75,15.462,30.8q.578,4.835.771,10.526c.494,13.881,3.216,26.15,4.827,36.576h0C687.427,421.531,687.443,432.674,674.973,438.8Z" data-name="Path 8325" transform="translate(-122.071 -74.396)"/><path id="Path_8326" fill="#ed7d2b" d="M667.045,345.51c-8.305,4.519-9.254,19.418-22.232,23.258s-35.064,3.486-47.58,17.073c-12.076,13.11-25.379-20.227-19.641-29.6,12.053-2.861,25.718-3.509,25.826-3.57a95.775,95.775,0,0,0,11.567-11.066c13.433-16.248,24.854-14.845,24.854-14.845,13.68-2.653,25.356-3.432,34.008,1.388h0C678.212,332.924,675.343,340.991,667.045,345.51Z" data-name="Path 8326" transform="translate(-131.88 -74.302)"/><path id="Path_8327" fill="#1a2e35" d="M613.419,357.221s-41.642-.548-47.218,3,5.722,59.98,5.722,59.98,10.8.316,11.629-2.537c0,0-2.013-26.451-.332-31.023s.625-10.912.625-10.912,21.083,3.162,27.762,1.542S613.419,357.221,613.419,357.221Z" data-name="Path 8327" transform="translate(-129.235 -81.749)"/><path id="Path_8328" fill="#ffb27d" d="M633.051,319.4c0,.039-5.861,13.673-8.722,15.122s-13.2,13.341-15.423,13.11,2.6,1.8,2.6,1.8,18.084-8.336,19.132-8.853,6.593-9.639,7.357-14.259S633.051,319.4,633.051,319.4Z" data-name="Path 8328" transform="translate(-139.228 -73.101)"/><path id="Path_8329" fill="#ffb27d" d="M587.577,440.749c-1.388,2.676-1.7,7.6-2.113,9.254s-7.712,7.349-8.321,7.064c-1.6-.717-.077-3.493.9-5.521.039-.077.077-.162.108-.239.964-2.044.139-6.609.632-8.969s-1.912-8.675-1.912-8.675l4.018-5.082s2.83,5.4,4.851,6.362a4.463,4.463,0,0,1,.987.625A3.914,3.914,0,0,1,587.577,440.749Z" data-name="Path 8329" transform="translate(-131.934 -98.086)"/><path id="Path_8330" fill="#ffb27d" d="M567.011,460.671c-2.784,1.149-6.169,4.712-7.6,5.722s-10.626.655-10.919,0c-.771-1.635,2.445-2.8,4.5-3.748l.085-.039h0c2.028-1.018,4.3-4.935,6.169-6.393s4.164-7.866,4.164-7.866l6.347-1.288s-1.3,5.93-.393,7.981a6.073,6.073,0,0,1,.224.586A3.937,3.937,0,0,1,567.011,460.671Z" data-name="Path 8330" transform="translate(-125.51 -102.315)"/><path id="Path_8331" fill="#b5453c" d="M652.945,301.558c-.848-.979,12.547-5.012,15.423,5.984,0,0,24.677-6.563,9.5-17.551-5.252-3.8-5.776-7.858-6.539-11.567s-5.992-14.382-15.084-9.092c0,0-4.149,0-6.778,2.313C643.475,276.8,636.943,309.709,652.945,301.558Z" data-name="Path 8331" transform="translate(-147.145 -61.312)"/><path id="Path_8332" fill="#375a64" d="M630.952,359.74s-43.185,4.388-47.04,8.8S565.18,430.3,565.18,430.3s4.411,2.46,8.421.162c0,0,11.429-19.456,16.487-25.564s6.94-24.97,7.789-25.155,27.916,3.779,37.239-3.378S630.952,359.74,630.952,359.74Z" data-name="Path 8332" transform="translate(-129.355 -82.332)"/><path id="Path_8333" fill="#f9ddbf" d="M668.445,307.983a45.012,45.012,0,0,0-23.374-2.5,8.968,8.968,0,0,0-6.987,4.45c-2.7,4.45-3.964,6.832-3.964,6.832s.262,2.059,3.948,3.7c-1.01,3.686.918,10.118-.856,12.616s-12.755,8.691-13.295,12.13c-1,6.331,18.762,17.806,24.677,16.58C665.538,358.27,677.059,312.833,668.445,307.983Z" data-name="Path 8333" transform="translate(-142.789 -69.788)"/><path id="Path_8334" fill="#b5453c" d="M669.667,287.154a24.15,24.15,0,0,0,2.313-7.272c.193-2.313-1.789-10.8-10.249-8.737a11.83,11.83,0,0,0-4.627,2.313c-1.743,1.434-4.172,4.4-.47,11.567l1.018,2.445Z" data-name="Path 8334" transform="translate(-149.84 -61.985)"/><path id="Path_8335" fill="#ffb27d" d="M658.946,305.873c-.856.9-.517,3.9,3.486,3.678,2.63-.147,8.267-3.393,7.712-5.645-.255-1.064-2.313-3.817-2.745-10.156l-.478.131-8.02,2.259s.386,2.553.578,4.966C659.671,303.135,659.3,305.51,658.946,305.873Z" data-name="Path 8335" transform="translate(-150.725 -67.231)"/><path id="Path_8336" fill="#f4a269" d="M659,296.18s.386,2.552.578,4.966c4.557-.486,6.64-4.835,7.449-7.226Z" data-name="Path 8336" transform="translate(-150.825 -67.27)"/><path id="Path_8337" fill="#ffb27d" d="M656.747,295.949s10.5-2.645,8.753-9.154-1.542-11.251-8.344-9.84-7.411,4.249-7.357,6.563S653.963,296.466,656.747,295.949Z" data-name="Path 8337" transform="translate(-148.719 -63.33)"/><path id="Path_8338" fill="#b5453c" d="M653.11,277.8s3.524,6.717,10.179,7.442c3.894.424,4.959,2.992,4.959,2.992s-1.164-7.334-3.085-11.822C665.125,276.412,654.29,273.567,653.11,277.8Z" data-name="Path 8338" transform="translate(-149.477 -63.049)"/><path id="Path_8339" fill="#b5453c" d="M653.259,279.315a17,17,0,0,0-3.008,4c-1.056,2.452.995,7.611,1.843,8.729,0,0-4.889-8.3-3.254-11.883C650.576,276.353,653.259,279.315,653.259,279.315Z" data-name="Path 8339" transform="translate(-148.424 -63.676)"/><path id="Path_8340" fill="#ffb27d" d="M609.024,357.571s-2.09,2.213-2.313,2.313c-1.388.648-3.131.27-3.979.486s-.694-.316-.077-.771,2.159-.262,1.542-.416-4-.771-5.275-.447a4.723,4.723,0,0,1-3.732-.3c-.123-.208,4.627-2.514,5.953-2.437s5.228-.108,5.228-.108Z" data-name="Path 8340" transform="translate(-136.222 -81.451)"/><path id="Path_8341" fill="#ffb27d" d="M677.513,314.19s1.257,30.808-2.367,35.126-25.633-.478-25.633-.478l-1.542-2.252s19.564-2.869,20.875-3.239c1.889-.532.578-21.747.578-21.747Z" data-name="Path 8341" transform="translate(-148.301 -71.908)"/><path id="Path_8342" fill="#f9ddbf" d="M677.632,308.26c.316,0,4.211,1.288,7,6.825s3.748,8.082,3.748,8.082-12.184,9.439-17.035,5.961S673.144,308.144,677.632,308.26Z" data-name="Path 8342" transform="translate(-153.263 -70.551)"/><path id="Path_8343" fill="#ffb27d" d="M647.667,358.69a35.155,35.155,0,0,0-2.421,2.684c-.671.9-5.329,2.553-5.437,2.067s2.09-1.966,2.313-2.522,2.591-3.324,4.049-3.64S647.667,358.69,647.667,358.69Z" data-name="Path 8343" transform="translate(-146.433 -81.76)"/><path id="Path_8344" fill="#ffb27d" d="M644.609,356.2s-7.187,1.658-8.413,2.159-3.8,4.157-2.776,4.712c.648.347,3.486-1.157,4.928-1.465s5.514.393,7.38-3.293C645.936,357.9,644.609,356.2,644.609,356.2Z" data-name="Path 8344" transform="translate(-144.917 -81.522)"/><path id="Path_8345" d="M567.011,463.213c-2.784,1.149-6.169,4.712-7.6,5.722s-10.626.656-10.919,0c-.771-1.635,2.445-2.8,4.5-3.748l.085-.039h0l.293-.093s3.979,1.419,7.287,0c2.583-1.11,6.408-5.213,8.938-6.886A3.948,3.948,0,0,1,567.011,463.213Z" data-name="Path 8345" transform="translate(-125.51 -104.858)"/><path id="Path_8346" d="M587.577,442.818c-1.388,2.676-1.7,7.6-2.113,9.254s-7.712,7.349-8.321,7.064c-1.6-.717-.077-3.493.9-5.521a4.48,4.48,0,0,0,2.221-.825c1.82-1.211,4.9-5.791,5.182-8.483.224-2.2.085-5.352,1.3-6.686A3.96,3.96,0,0,1,587.577,442.818Z" data-name="Path 8346" transform="translate(-131.934 -100.155)"/><path id="Path_8347" fill="#f99746" d="M623.882,359.36H592.573l-9.423-23.42h31.263Z" data-name="Path 8347" transform="translate(-133.467 -76.886)"/><path id="Path_8348" fill="#ed7d2b" d="M594.89,365.13h41.349v.91H595.26Z" data-name="Path 8348" transform="translate(-136.154 -83.566)"/><path id="Path_8349" fill="#fff" d="M605.6,350.686a1.087,1.087,0,0,1,1.056-1.5,2.136,2.136,0,0,1,1.92,1.5,1.08,1.08,0,0,1-1.064,1.488A2.136,2.136,0,0,1,605.6,350.686Z" data-name="Path 8349" transform="translate(-138.586 -79.918)"/><path id="Path_8350" fill="#f99746" d="M664.375,366.12s-4.095,3.856-21.23,4.38-39.468,19.433-39.676,24.831,34.486,13.48,35.026,12.716,22.009-19.2,22.009-19.2Z" data-name="Path 8350" transform="translate(-138.117 -83.792)"/><path id="Path_8351" fill="#ed7d2b" d="M719.211,416.2c-9.254-16.6-30.283,6.3-35.512-1.45s7.4-17.582,18.793-26.057c11.166-8.3,11.12-19.148,11.112-19.587.386,3.223.648,6.724.771,10.526C714.877,393.478,717.583,405.786,719.211,416.2Z" data-name="Path 8351" transform="translate(-156.199 -84.477)"/><path id="Path_8352" fill="#ffb93e" d="M492.894,73.979a74.154,74.154,0,0,1-16.881,47.657,62.263,62.263,0,0,0-14.32,39.491v20.821a24.206,24.206,0,0,1-22.425,24.014c-.54.039-1.041,0-1.589,0H397.664a24.1,24.1,0,0,1-22.425-24.014V161.173a62.009,62.009,0,0,0-14.266-39.452A74.432,74.432,0,1,1,492.894,73.979Z" data-name="Path 8352" transform="translate(-78.746 -0.009)"/><path id="Path_8353" fill="#ed7d2b" d="M455.2,267.06c-.193,1.488-3.439,26.366-3.47,26.6-.532,4.1-5.228,7.241-10.8,7.241H428.282c-5.56,0-10.241-3.085-10.835-7.172-.609-4.288-2.969-20.736-3.817-26.674Z" data-name="Path 8353" transform="translate(-94.673 -61.123)"/><path id="Path_8354" fill="#f99746" d="M450.489,267.06H443.34c-11.567,3.331-22.973,6.632-28.27,8.128l.278,1.943v.039l.278,1.974c4.3-1.2,14.6-4.141,39.792-11.444l.077-.64Z" data-name="Path 8354" transform="translate(-95.003 -61.123)"/><path id="Path_8355" fill="#f99746" d="M417.485,291.2h0l.285,1.982c4.966-1.4,15.2-4.334,36.53-10.519l.285-2.144h0l.278-2.136c-13.48,3.9-29.79,8.614-37.663,10.85Z" data-name="Path 8355" transform="translate(-95.49 -63.713)"/><path id="Path_8356" fill="#f99746" d="M423.16,305.4l.069.046a12.263,12.263,0,0,0,2.946,1.218h0c5.853-1.673,14.536-4.18,27.445-7.92l.278-2.152h0l.278-2.136c-11.567,3.339-24.769,7.164-32.936,9.5a9.338,9.338,0,0,0,1.92,1.442Z" data-name="Path 8356" transform="translate(-96.415 -67.393)"/><path id="Path_8357" fill="#ffeac5" d="M416.266,238.72,400.18,143.783l3.324-.563,16.171,95.5Z" data-name="Path 8357" transform="translate(-91.595 -32.782)"/><path id="Path_8358" fill="#ffeac5" d="M457.119,239.159H453.68L470.9,145.14l3.316.6Z" data-name="Path 8358" transform="translate(-103.838 -33.222)"/><path id="Path_8359" fill="#ffeac5" d="M440.68,160.314a6.5,6.5,0,0,1-1.45-.177,2.082,2.082,0,0,1-1.65-1.8c-.386-2.105,1.265-5.961,3.586-9.254-1.211-2.113-2.83-3.856-4.519-4.372-2.5-.771-6.331,1.542-9.007,4.5a18.841,18.841,0,0,1,1.319,2.144c1.365,2.583,2.352,5.884,1,7.411-.5.563-1.542,1.08-3.532.316-2.522-.949-3.432-3.085-2.491-5.861a13.619,13.619,0,0,1,2.391-4.087c-2.067-2.691-4.835-4.743-7.557-4.4a8.4,8.4,0,0,0-3.74,1.411c1.743,3.247,2.144,7.357.933,9.562a3.026,3.026,0,0,1-4.049,1.342c-1.28-.455-1.951-2.221-1.7-4.5a10.356,10.356,0,0,1,3.493-6.663,8.892,8.892,0,0,0-1.936-2.167,6.424,6.424,0,0,0-8.737.432l-.733-.709c.046-.046,4.689-4.719,10.094-.524a9.562,9.562,0,0,1,2.121,2.313,9.469,9.469,0,0,1,4.133-1.542c3.085-.386,6.1,1.774,8.359,4.627,2.907-3.154,7.048-5.491,9.932-4.627,1.828.548,3.547,2.313,4.866,4.48a17.351,17.351,0,0,1,3.91-3.856c2.128-1.411,3.516-1.087,4.3-.563a7.713,7.713,0,0,1,2.067,2.059,11.393,11.393,0,0,1,1.974-1.272c2.46-1.226,4.727-1.134,6.37.254l-.663.771c-1.766-1.5-4.049-.717-5.252-.123a10.609,10.609,0,0,0-1.9,1.226c1.643,2.961,1.959,6.817,1.018,8.683a2.152,2.152,0,0,1-2.884,1.126,3.759,3.759,0,0,1-2.83-3.486c-.123-2.19,1.4-4.673,3.37-6.509a6.61,6.61,0,0,0-1.835-1.889c-.964-.632-2.26-.039-3.177.563a17.265,17.265,0,0,0-3.933,3.964c1.542,2.907,2.313,6.293,1.735,8.483a3.293,3.293,0,0,1-3.4,2.73Zm1.01-10.218c-2.013,2.946-3.432,6.269-3.085,8.051a1.08,1.08,0,0,0,.871.995c2,.455,3.223-.131,3.648-1.727.463-1.866-.185-4.758-1.434-7.334Zm-14.729-.069a12.038,12.038,0,0,0-2.059,3.54c-.771,2.313-.139,3.856,1.882,4.581.817.3,1.9.548,2.414,0,.771-.91.332-3.486-1.141-6.269a19.172,19.172,0,0,0-1.1-1.866ZM414.222,146.8a9.408,9.408,0,0,0-3,5.876c-.193,1.735.239,3.146,1.041,3.432a2.06,2.06,0,0,0,2.815-.871c1.033-1.912.656-5.545-.856-8.452Zm37.594.648c-1.766,1.7-2.969,3.856-2.876,5.56a2.869,2.869,0,0,0,2.167,2.591,1.149,1.149,0,0,0,1.619-.632c.787-1.589.455-4.928-.91-7.534Z" data-name="Path 8359" transform="translate(-92.08 -32.31)"/><path id="Path_8360" fill="#ffeac5" d="M483.232,34.886c6.123,5.768,5.352,16.372-2.514,18.731-5.938,1.781-14.783-.594-19.155-8.167s-2.36-13.8,3.007-16.9S476.87,28.894,483.232,34.886Z" data-name="Path 8360" transform="translate(-105.096 -6.276)"/><path id="Path_8361" fill="#343334" d="M189.864,262.764c-.717-1.38,15.593-6.347,15.855,7.264,0,0,30.561-.771,15.971-17.79-5.051-5.892-4.534-10.8-4.38-15.307s-3.146-17.737-14.459-16.4a8.483,8.483,0,0,0-6.663.709C187.79,225.6,168.951,267.776,189.864,262.764Z" data-name="Path 8361" transform="translate(-41.286 -50.387)"/><path id="Path_8362" fill="#ffb27d" d="M257.47,294.064s1.99-3.023,3.594-3.085,4.573-.887,4.334-.293-2.074.648-2.252,1,2.73.895,3.563.956,2.792,0,2.73.416-3.532,2.136-5.984,1.9a16.612,16.612,0,0,0-5.475.71Z" data-name="Path 8362" transform="translate(-58.936 -66.481)"/><path id="Path_8363" fill="#f9ddbf" d="M220.17,289.233a29.921,29.921,0,0,0,3.038,4.627c2.367,2.961,6.015,6.385,10.588,7.056a11.344,11.344,0,0,0,6.293-1.049h0c5.56-2.468,9.74-8.143,9.74-8.143a4.573,4.573,0,0,0-.625-4.488s-11.22,2.529-12.292,2-7.3-18.508-8.783-20.759-6.547-3.424-6.547-3.424Z" data-name="Path 8363" transform="translate(-50.4 -60.663)"/><path id="Path_8364" fill="#f2ccaa" d="M224.006,300.607c2.367,2.961,6.015,6.385,10.588,7.056a11.343,11.343,0,0,0,6.293-1.018c-.216,0-5.768.709-7.974-3.247s-4.7-10.449-8.051-8.313C223.4,296.01,223.466,298.3,224.006,300.607Z" data-name="Path 8364" transform="translate(-51.198 -67.44)"/><path id="Path_8365" fill="#343334" d="M165.035,453.041s-3.424,3.123-2.761,5.344,3.763,3.7,4.18,6.416,2.09,4.2,3.586,4.2h7.172s1.1-1.912-1.542-2.483-3.678-3.763-3.516-6.724a52.016,52.016,0,0,0-.247-6.94l-5.683-1.319Z" data-name="Path 8365" transform="translate(-37.132 -103.338)"/><path id="Path_8366" fill="#343334" d="M203.319,455.21s-1.234,13.241.27,13.981h19.24s0-2.221-3.085-2.714-8.483-2.313-9.431-6.331S203.319,455.21,203.319,455.21Z" data-name="Path 8366" transform="translate(-46.435 -104.18)"/><path id="Path_8367" fill="#ffb27d" d="M185.654,313.044c3.964-8.884,6.385-11.428,5.922-14.182-.347-2.051,1.049-38.241,1.049-38.241.47-.147,1.411-.278,1.92-.393a4.843,4.843,0,0,0,3.532-3.085,24.677,24.677,0,0,0,1.2-8.143l.509.1,8.529,1.689s-.193,2.684-.2,5.213v.062a4.9,4.9,0,0,0,3.54,4.743l2.013.578a78.288,78.288,0,0,1,3.732,18.122c.594,9.184-5.7,13.171.046,31.525C223.3,329.771,183.472,317.949,185.654,313.044Z" data-name="Path 8367" transform="translate(-42.482 -56.99)"/><path id="Path_8368" fill="#e8945b" d="M212.529,250.809s-.193,2.684-.2,5.213c-4.773-.139-7.3-4.488-8.328-6.9Z" data-name="Path 8368" transform="translate(-46.7 -57.017)"/><path id="Path_8369" fill="#ffb27d" d="M213.73,248.766s-11.29.185-11.3-6.848-1.465-11.745,5.737-12.161,8.614,2.259,9.184,4.627S216.668,248.535,213.73,248.766Z" data-name="Path 8369" transform="translate(-46.313 -52.576)"/><path id="Path_8370" fill="#343334" d="M212.236,229.116s-3.085,8.251-7.835,9.47-6.8-.046-6.8-.046A13.441,13.441,0,0,0,202,230.6S209.908,225.191,212.236,229.116Z" data-name="Path 8370" transform="translate(-45.235 -52.113)"/><path id="Path_8371" fill="#343334" d="M215.59,230.011a6.869,6.869,0,0,1,3.231,2.529,11.328,11.328,0,0,1,1.542,6.455s2.313-5.606-.285-8.776C217.287,226.849,215.59,230.011,215.59,230.011Z" data-name="Path 8371" transform="translate(-49.352 -52.336)"/><path id="Path_8372" fill="#ebf3fa" d="M213.94,248.645a2.83,2.83,0,0,0,2.313.949A2.082,2.082,0,0,0,218,248.445a7.565,7.565,0,0,0-4.056.2Z" data-name="Path 8372" transform="translate(-48.975 -56.82)"/><path id="Path_8373" fill="#f9ddbf" d="M184.232,280.075a76.968,76.968,0,0,0,0,8.891c.193,3.216,3.439,7.519,3.9,8.583,1.157,2.676,2.468,3.085,2.468,3.085l10.1,2.475,3.547.871,11.2-3.347s5.1-14.236,3.085-22.255a61.691,61.691,0,0,0-5.213-13.557s-9.138,8.945-21.037-.771Z" data-name="Path 8373" transform="translate(-42.147 -60.434)"/><path id="Path_8374" fill="#f2ccaa" d="M188.1,297.087c.193,3.216.486,6.208.949,7.272,1.157,2.676,2.468,3.085,2.468,3.085l10.1,2.475,4.388-1.288s-14.652-2.221-13.025-14.822Z" data-name="Path 8374" transform="translate(-43.061 -67.244)"/><path id="Path_8375" fill="#ed7d2b" d="M218.315,314.315s5.552,17.266,5.907,23.135-10.6,83.5-11.043,86.215c-.416,2.552-3.586,4.18-3.586,4.18a4.812,4.812,0,0,1-3.54.27c-2.892-.817-3.8-1.789-3.8-1.789s-4.318-55.369-1.65-75.141a312.751,312.751,0,0,0,2.707-36.884Z" data-name="Path 8375" transform="translate(-45.723 -71.933)"/><path id="Path_8376" fill="#f99746" d="M187.417,313.66s-8.483,11.351-9.254,19.024-1.234,34.632-2.915,42.113-7.858,21.878-7.858,45.213a4.627,4.627,0,0,0,2.622,2.051,22.154,22.154,0,0,0,2.313.64,3.632,3.632,0,0,0,4.056-1.928c4.172-8.406,17.467-35.512,18.153-41.141.478-3.979,4.681-30.337,13.834-45.8,2.2-3.709-1.35-18.508-1.35-18.508Z" data-name="Path 8376" transform="translate(-38.322 -71.787)"/><path id="Path_8377" fill="#fff" d="M214.26,248.841s.2.833,2.259.7c0,0,1.735-.108,1.681-1.018a5.591,5.591,0,0,0-3.941.316Z" data-name="Path 8377" transform="translate(-49.048 -56.831)"/><path id="Path_8378" fill="#343334" d="M217.407,310.87s-2.229,1.758-6.647,1.851c-5.282.108-18.377-1.35-18.377-1.35a10.8,10.8,0,0,0-.563,3.339s15.994,4.033,25.255.594a5.869,5.869,0,0,0,.332-4.434Z" data-name="Path 8378" transform="translate(-43.913 -71.149)"/><path id="Path_8379" fill="#fff" d="M214.879,315a2.429,2.429,0,1,1,2.406,2.73,2.591,2.591,0,0,1-2.406-2.73Zm.771,0a1.635,1.635,0,1,0,1.612-1.928A1.8,1.8,0,0,0,215.673,315Z" data-name="Path 8379" transform="translate(-49.189 -71.606)"/><rect id="Rectangle_82" width="21.723" height="29.736" fill="#b5453c" data-name="Rectangle 82" transform="translate(147.634 257.111) rotate(-138.95)"/><path id="Path_8380" fill="#ffb27d" d="M196.981,315s6,.7,5.984,2.121-1.5,4.357-2.236,4.488-4.889-3.964-4.889-3.964Z" data-name="Path 8380" transform="translate(-44.833 -72.094)"/><path id="Path_8381" fill="#f9ddbf" d="M188.788,264.06s-8.02.563-11.089,8.035-8.9,20-8.9,22.117,3.254,8.606,20.744,12.338c0,0,1.8-1.9,1.7-3.409,0,0-10.92-9.37-10.889-10.465.054-2.074,1.789-4.812,11.375-14.4C194.333,275.681,188.788,264.06,188.788,264.06Z" data-name="Path 8381" transform="translate(-38.645 -60.436)"/><path id="Path_8382" fill="#ed7d2b" d="M284.32,457.722h-.069a.771.771,0,0,1-.771-.817l1.211-52.438,3.563-.416L285.215,456.9a.856.856,0,0,1-.895.825Z" data-name="Path 8382" transform="translate(-64.888 -92.472)"/><path id="Path_8383" fill="#f99746" d="M357.712,457.722h.1a.771.771,0,0,0,.771-.817l-1.211-52.438-3.563-.416,3.038,52.847A.856.856,0,0,0,357.712,457.722Z" data-name="Path 8383" transform="translate(-80.984 -92.472)"/><path id="Path_8384" fill="#f99746" d="M281.51,386.349V350.421A11.452,11.452,0,0,1,292.954,339h25.888a11.452,11.452,0,0,1,11.444,11.444v37.3Z" data-name="Path 8384" transform="translate(-64.438 -77.586)"/><path id="Path_8385" fill="#ed7d2b" d="M281.51,400.4h53.41v5.668H287.186a5.668,5.668,0,0,1-5.668-5.668h-.008Z" data-name="Path 8385" transform="translate(-64.438 -91.637)"/><rect id="Rectangle_83" width="42.884" height="5.668" fill="#f99746" data-name="Rectangle 83" rx="2.834" transform="translate(236.127 308.763)"/><path id="Path_8386" fill="#233862" d="M348.389,388.477a24.093,24.093,0,0,1-8.367,8.945h-19.4S351.219,383.557,348.389,388.477Z" data-name="Path 8386" transform="translate(-73.388 -88.667)"/><path id="Path_8387" fill="#ffb27d" d="M337.171,448.759a1.789,1.789,0,0,0-.324,1.912h0c.463,1.272,1.99,2.707,3.771,4.126l.6.509.139.123.1.093c1.658,1.542,1.033,1.874,4.01,4.974,3.393,3.524,5.73,3.594,6.393,3.27s-.578-2.144-1.851-4.249l-.177-.308-.509-.841c-1.481-2.537-1.1-3.725-.771-7.5.285-3.085,4.766-17.1,4.766-17.1l-6.5-1.118s-1.959,11.182-4.118,12.9c-1.149.925-2.445.933-3.555,1.612l-.224.147A8.359,8.359,0,0,0,337.171,448.759Z" data-name="Path 8387" transform="translate(-77.069 -99.017)"/><path id="Path_8388" d="M337.171,453.066a1.789,1.789,0,0,0-.324,1.912h0a14.034,14.034,0,0,0,3.771,4.118c.231.185.424.355.6.517l.139.123.1.093c1.658,1.542,1.033,1.874,4.01,4.974,3.393,3.524,5.73,3.594,6.393,3.27s-.578-2.144-1.851-4.249a14.544,14.544,0,0,1-6.046-4.457c-2.044-2.607-3.4-5.953-4.8-7.9l-.224.147A8.36,8.36,0,0,0,337.171,453.066Z" data-name="Path 8388" transform="translate(-77.069 -103.324)"/><path id="Path_8389" fill="#ffb27d" d="M403.738,444.11c.4,2.005,3.262,1.673,6.455.895s2.437.147,6.987-.362,5.922-2.2,6.061-2.869-2.121-.817-4.527-1.1l-.918-.108c-2.722-.339-4.712-2.1-7.187-3.54-2.313-1.365-5.83-6.94-5.83-6.94l-6.239.494s3.27,4.974,4.534,7.133a7.32,7.32,0,0,1,.617,4.249,8.26,8.26,0,0,0,.046,2.144Z" data-name="Path 8389" transform="translate(-91.22 -98.432)"/><path id="Path_8390" d="M411.713,448.146c3.2-.771,2.437.146,6.987-.362s5.922-2.2,6.061-2.869-2.121-.817-4.527-1.1v.046a12.84,12.84,0,0,1-6.516,2.028c-3.085.077-6.354-.81-8.483-.771a8.261,8.261,0,0,0,.046,2.136C405.66,449.257,408.521,448.925,411.713,448.146Z" data-name="Path 8390" transform="translate(-92.741 -101.574)"/><path id="Path_8391" fill="#1a2e35" d="M367.94,393.584,362.1,409.277l-7.611,20.482a12.276,12.276,0,0,1-4.041-.37,17.56,17.56,0,0,1-3.91-1.9s2.113-22,6.054-34.625a22.585,22.585,0,0,1,3.393-7.341C362.1,378.307,367.94,393.584,367.94,393.584Z" data-name="Path 8391" transform="translate(-79.32 -87.79)"/><path id="Path_8392" fill="#375a64" d="M349.859,363.311c-3.856-1.226-14.714.355-25.656,2.5l-2.313-3.786-23.636-1.843s-7.8,17.3-3.532,28.317a4.01,4.01,0,0,0,4,2.7H317.71c11.752,0,24.877-8.082,26.574-8.421,2.784-.555,3.894,5,6.67,10.8s26.134,25.849,26.134,25.849a20.572,20.572,0,0,0,5.074-.517,5.067,5.067,0,0,0,2.175-1.373S358.473,366.095,349.859,363.311Z" data-name="Path 8392" transform="translate(-67.17 -82.433)"/><path id="Path_8393" fill="#b5453c" d="M317.264,272.732c-3.031-1.589-7.634-1.8-8.382-1.9-8.961-1.2-14.351,11.806-14.652,15.755-.586,7.272-4.434,8.375-9.848,12.932-10.85,9.123-7.665,19.734-1.735,23.674,3.563,2.367,9.84,0,9.84,0s17.166-9.547,25.579-14.181C330.674,307.187,324.983,276.78,317.264,272.732Z" data-name="Path 8393" transform="translate(-63.454 -61.967)"/><path id="Path_8394" fill="#ffb27d" d="M317.581,311.313s-4.149,1.457-6.94.216c-2.63-1.164-4.627-5.483-4.581-5.491,1.2-.054,2.506-1.1,3.524-7.958l.509.185,8.56,3.085s-.625,2.753-1.026,5.4C317.311,308.9,317.134,311,317.581,311.313Z" data-name="Path 8394" transform="translate(-70.056 -68.222)"/><path id="Path_8395" fill="#ed975d" d="M319.88,301.406s-.625,2.753-1.026,5.4c-4.912-.887-6.848-5.784-7.534-8.444Z" data-name="Path 8395" transform="translate(-71.26 -68.286)"/><path id="Path_8396" fill="#ffb27d" d="M320.9,299.735s-11.714-1.542-10.619-8.853.308-12.385,7.835-11.691,8.56,3.694,8.783,6.216S323.974,299.958,320.9,299.735Z" data-name="Path 8396" transform="translate(-71.005 -63.884)"/><path id="Path_8397" fill="#b5453c" d="M325.476,281.222s-7.5,6.462-12.6,6.987-7.025-1.118-7.025-1.118a20.049,20.049,0,0,0,4.812-6.524,3.57,3.57,0,0,1,2.953-2.113C317.263,278.138,324.165,277.991,325.476,281.222Z" data-name="Path 8397" transform="translate(-70.008 -63.694)"/><path id="Path_8398" fill="#b5453c" d="M325.22,280.924a18.653,18.653,0,0,1,3.3,4.226,13.937,13.937,0,0,1,.386,7.534s3.91-7.6,1.7-11.29C328.251,277.477,325.22,280.924,325.22,280.924Z" data-name="Path 8398" transform="translate(-74.441 -63.975)"/><path id="Path_8399" fill="#f9ddbf" d="M324.49,330.851c-.355,23.713-.1,18.754-2.691,21.006-.625.54-2.383.864-4.7,1.018-7.272.478-20.05-.717-20.536-2.059-1.681-4.627-.494-6.092-1.9-13.21-.139-.771-.324-1.581-.532-2.468-1.172-4.889-2.313-6.555,1.835-14.405,3.748-7.118,7.65-12.894,8-12.685,9.9,5.884,10.7.941,10.7.941S324.629,319.284,324.49,330.851Z" data-name="Path 8399" transform="translate(-67.079 -70.502)"/><path id="Path_8400" fill="#375a64" d="M362.1,412.03l-7.611,20.482a12.276,12.276,0,0,1-4.041-.37,17.56,17.56,0,0,1-3.91-1.9s2.113-22,6.054-34.625Z" data-name="Path 8400" transform="translate(-79.32 -90.543)"/><path id="Path_8401" fill="#f9ddbf" d="M321.09,309.27s10.195,1.727,11.39,6.115l8.236,30.175s-5.182.925-7.573-1.465-8.328-22.2-8.328-22.2Z" data-name="Path 8401" transform="translate(-73.496 -70.782)"/><path id="Path_8402" fill="#f2ccaa" d="M317.583,358.717c-7.272.478-20.05-.717-20.536-2.059-1.681-4.627-.494-6.092-1.9-13.21l3.509-9.878s-.578,11,2.66,13.881,13.279,5.583,14.86,8A8.984,8.984,0,0,1,317.583,358.717Z" data-name="Path 8402" transform="translate(-67.559 -76.343)"/><path id="Path_8403" fill="#ffb27d" d="M313.44,359.851s7.172-1.6,8.328-.956,3.987,2.953,4.342,3.755-2.576-.609-3.532-.864a8.7,8.7,0,0,0-3.085.663,10.059,10.059,0,0,1-5.46.548Z" data-name="Path 8403" transform="translate(-71.745 -82.104)"/><path id="Path_8404" fill="#f9ddbf" d="M300.315,308.05s-9.632.594-12.963,5.244c-4.7,6.539-14,34.44-8.668,38.157,6.007,4.2,27.345,1.1,27.345,1.1s.709-3.324-.278-4.928-17.043-4.2-17.783-4.943,9.254-14.451,9.254-16.672S300.315,308.05,300.315,308.05Z" data-name="Path 8404" transform="translate(-63.424 -70.503)"/><path id="Path_8405" fill="#ffb27d" d="M324.69,361.52a13.879,13.879,0,0,0,2,2.175,1.434,1.434,0,0,0,.81.17l-1.026-1.82Z" data-name="Path 8405" transform="translate(-74.32 -82.74)"/><path id="Path_8406" fill="#ffb27d" d="M324.24,358.94l4.372,2.121a.771.771,0,0,1-.725.278,10.224,10.224,0,0,1-1.9-.524Z" data-name="Path 8406" transform="translate(-74.217 -82.149)"/><path id="Path_8407" fill="#f99746" d="M327.28,360.517h34.563l10.4-25.857H337.729Z" data-name="Path 8407" transform="translate(-74.912 -76.593)"/><path id="Path_8408" fill="#ed7d2b" d="M359.077,366.88H313.44v1.01h45.236Z" data-name="Path 8408" transform="translate(-71.745 -83.966)"/><path id="Path_8409" fill="#fff" d="M359.778,350.932a1.2,1.2,0,0,0-1.172-1.643,2.314,2.314,0,0,0-2.113,1.643,1.2,1.2,0,0,0,1.172,1.65A2.314,2.314,0,0,0,359.778,350.932Z" data-name="Path 8409" transform="translate(-81.577 -79.94)"/><path id="Path_8410" fill="#343334" d="M467.769,451.357h.1a1.118,1.118,0,0,0,1.049-1.2l-1.6-76.491-4.712-.6,4.018,77.115a1.2,1.2,0,0,0,1.141,1.172Z" data-name="Path 8410" transform="translate(-105.882 -85.383)"/><path id="Path_8411" fill="#343334" d="M314.576,451.357h-.1a1.126,1.126,0,0,1-1.056-1.2l1.6-76.491,4.712-.6-4.018,77.115a1.2,1.2,0,0,1-1.141,1.172Z" data-name="Path 8411" transform="translate(-71.74 -85.383)"/><rect id="Rectangle_84" width="136.564" height="5.475" fill="#343334" data-name="Rectangle 84" rx="2.738" transform="translate(234.963 283.924)"/><rect id="Rectangle_85" width="629.115" height="2.337" data-name="Rectangle 85" rx="1.168" transform="translate(6.779 364.494)"/></g></g></svg>