<svg xmlns="http://www.w3.org/2000/svg" viewBox="0 0 833.44 475.7"><defs><style>.cls-1,.cls-8{fill:#ed7d2b}.cls-1{opacity:.15}.cls-2{fill:#df4b26}.cls-3{fill:#375a64}.cls-4{fill:#1a2e35}.cls-5{fill:#f99746}.cls-6{fill:#ffb27d}.cls-7{fill:#e2915a}.cls-9{fill:#343334}.cls-10{fill:#b5453c}.cls-11{fill:#f9ddbf}.cls-12{fill:#f4a269}.cls-13{fill:#fff}.cls-14{fill:#ffb93e}.cls-15{fill:#ffeac5}.cls-16{fill:#f2ccaa}.cls-17{fill:#e8945b}.cls-18{fill:#ebf3fa}.cls-19{fill:#233862}.cls-20{fill:#ed975d}</style></defs><g id="Layer_2" data-name="Layer 2"><g id="Layer_1-2" data-name="Layer 1"><path d="M39.25,475.7s-61-68.49-30.87-200.77c19-83.2,99.53-134.45,205.55-120.49,98.16,12.93,96.51-39,182.38-88.48C580-40,845.71,5,782.11,243.29c-30.77,115.3,96.8,117.15,33.4,232.41Z" class="cls-1"/><path d="M555.63,69.33,547.5,69h-.19a1.94,1.94,0,0,0-2,1.63l-1,6.71a1.67,1.67,0,0,1-.08.32,1.9,1.9,0,0,1-1.65,1.29,33.9,33.9,0,0,0-12.87,3.71,2.47,2.47,0,0,1-.52.18,2,2,0,0,1-1.83-.62l-3.73-4.27A1.93,1.93,0,0,0,521,77.6l-6.81,4.76a2,2,0,0,0-.57,2.62l3.79,6.52a1.9,1.9,0,0,1-.09,2c-.6.89-1.16,1.8-1.69,2.75a34,34,0,0,0-2.41,5.49h0a2,2,0,0,1-1.78,1.34l-7.65.31-.39,0a1.92,1.92,0,0,0-1.84,1.82l-.38,8.31a2,2,0,0,0,1.68,2l7.47,1.17A1.92,1.92,0,0,1,512,118.4a33.88,33.88,0,0,0,3.39,9.92,1.93,1.93,0,0,1-.45,2.35l-5,4.43a2,2,0,0,0-.31,2.63l4.77,6.83a1.88,1.88,0,0,0,2.5.55l7.67-4.44a2,2,0,0,1,2.09.07c.77.51,1.57,1,2.4,1.45a34.22,34.22,0,0,0,4.76,2.16,1.9,1.9,0,0,1,1.26,1.72l.36,9.2a2,2,0,0,0,1.85,1.86l8.34.39a2,2,0,0,0,1.93-1.37,1.07,1.07,0,0,0,.07-.27l1.29-8.28a1.92,1.92,0,0,1,1.42-1.59l.2,0a5.78,5.78,0,0,0,.6-.11,34.53,34.53,0,0,0,7-2,1.87,1.87,0,0,1,2.15.52l4.68,5.33a2,2,0,0,0,2.62.31L569,149l5.27-3.7a1.94,1.94,0,0,0,.57-2.57l-3.73-6.42a1.89,1.89,0,0,1,.19-2.16,33.69,33.69,0,0,0,3.56-5.26,33,33,0,0,0,2-4.33l1.6-.06,6.59-.27a1.89,1.89,0,0,0,1.74-1.33,1.62,1.62,0,0,0,.08-.49l.4-8.36a2,2,0,0,0-1.64-2l-5.1-.79a1.93,1.93,0,0,1-1.63-1.72,34.27,34.27,0,0,0-2.67-10.41,1.88,1.88,0,0,1,.49-2.2l6.38-5.6a1.88,1.88,0,0,0,.3-2.47l-4.84-6.9a1.9,1.9,0,0,0-2.52-.56l-8,4.62a1.94,1.94,0,0,1-2.17-.15A33,33,0,0,0,561.53,83c-.84-.46-1.68-.88-2.54-1.26a2,2,0,0,1-1.15-1.68l-.34-8.82A2,2,0,0,0,555.63,69.33ZM530.4,102a20.78,20.78,0,0,1,5.06-5,12.12,12.12,0,0,1,1.53-.91,18.43,18.43,0,0,1,8.2-1.92c18.32.94,24.85,22.69,10.4,33.58l-.72.52a17.9,17.9,0,0,1-9.33,2.71,23,23,0,0,1-4.18-.57A18.27,18.27,0,0,1,530.4,102Z" class="cls-2"/><path d="M665.79,127.15,653.42,125l-.29,0a3,3,0,0,0-3.38,2.12l-2.88,10.08a3.41,3.41,0,0,1-.18.48,2.94,2.94,0,0,1-2.78,1.65,52.27,52.27,0,0,0-20.43,3.22,3,3,0,0,1-.82.17,3,3,0,0,1-2.69-1.3l-4.89-7.26a3.06,3.06,0,0,0-2.89-1.28,3.15,3.15,0,0,0-1,.32l-11.34,6a3.07,3.07,0,0,0-1.38,3.9L603,153.78a3,3,0,0,1-.52,3.13c-1.09,1.25-2.13,2.53-3.12,3.89a52.17,52.17,0,0,0-4.74,7.94h0a3,3,0,0,1-3,1.71l-11.78-1-.6-.05a3,3,0,0,0-3.16,2.44l-2.18,12.65a3.09,3.09,0,0,0,2.19,3.47l11.21,3.22a3,3,0,0,1,2.18,2.75,52.16,52.16,0,0,0,3.29,15.84,3,3,0,0,1-1.14,3.52l-8.59,5.82a3.06,3.06,0,0,0-1,4l6,11.38a2.92,2.92,0,0,0,3.73,1.32l12.6-5.33a3.05,3.05,0,0,1,3.18.5q1.64,1.4,3.4,2.68a53.94,53.94,0,0,0,6.88,4.23,3,3,0,0,1,1.61,2.88l-1.22,14.15a3,3,0,0,0,2.48,3.21l12.7,2.19a3,3,0,0,0,3.22-1.71,2,2,0,0,0,.15-.41l3.57-12.45a3,3,0,0,1,2.49-2.16,1.63,1.63,0,0,1,.31,0c.32,0,.62,0,.94-.05a52.31,52.31,0,0,0,11-1.71,2.91,2.91,0,0,1,3.2,1.22l6.14,9.06a3.06,3.06,0,0,0,4,1l2.52-1.33,8.79-4.66a3,3,0,0,0,1.37-3.83l-4.48-10.56a2.91,2.91,0,0,1,.69-3.26,53.66,53.66,0,0,0,6.48-7.38,52.55,52.55,0,0,0,3.88-6.25l2.48.21,10.13.85a2.92,2.92,0,0,0,2.93-1.7,2.54,2.54,0,0,0,.22-.74l2.21-12.73a3,3,0,0,0-2.13-3.38l-7.67-2.18a3,3,0,0,1-2.16-3,52.7,52.7,0,0,0-2.09-16.45,2.9,2.9,0,0,1,1.16-3.29l10.86-7.35a2.88,2.88,0,0,0,.92-3.73l-6.09-11.5a2.93,2.93,0,0,0-3.74-1.34l-13.11,5.55a3,3,0,0,1-3.3-.65,50.62,50.62,0,0,0-6.12-5.19c-1.2-.86-2.41-1.67-3.65-2.42a3,3,0,0,1-1.43-2.8l1.15-13.58A3,3,0,0,0,665.79,127.15ZM620.88,172.4a32,32,0,0,1,8.71-6.7,18.8,18.8,0,0,1,2.53-1.11A28.46,28.46,0,0,1,645,163.23c27.88,5,33.71,39.53,9.5,53.43-.4.23-.8.45-1.22.66a27.37,27.37,0,0,1-14.79,2.36,34.16,34.16,0,0,1-6.3-1.66A28.22,28.22,0,0,1,620.88,172.4Z" class="cls-2"/><path d="M126.32,201.9l-6,.27h-.14a1.45,1.45,0,0,1-1.49-1.22l-.77-5a1.05,1.05,0,0,0-.06-.24,1.4,1.4,0,0,0-1.23-.95A25.3,25.3,0,0,1,107,192a1.61,1.61,0,0,0-.38-.14,1.49,1.49,0,0,0-1.37.47l-2.77,3.17A1.45,1.45,0,0,1,101,196a1.57,1.57,0,0,1-.46-.21l-5.06-3.54a1.47,1.47,0,0,1-.42-2l2.81-4.85a1.4,1.4,0,0,0-.06-1.52c-.44-.66-.87-1.34-1.26-2a25.28,25.28,0,0,1-1.79-4.08h0a1.46,1.46,0,0,0-1.33-1l-5.69-.23h-.28a1.43,1.43,0,0,1-1.37-1.36L85.84,169a1.47,1.47,0,0,1,1.25-1.53l5.55-.87a1.43,1.43,0,0,0,1.21-1.18A25.1,25.1,0,0,1,96.37,158a1.44,1.44,0,0,0-.34-1.75L92.28,153A1.47,1.47,0,0,1,92,151L95.6,146a1.39,1.39,0,0,1,1.85-.41l5.71,3.3a1.47,1.47,0,0,0,1.55-.05c.57-.38,1.17-.74,1.78-1.08A26.75,26.75,0,0,1,110,146.1a1.4,1.4,0,0,0,.94-1.27l.26-6.84a1.45,1.45,0,0,1,1.38-1.39l6.2-.29a1.46,1.46,0,0,1,1.44,1,1.17,1.17,0,0,1,0,.2l1,6.16a1.41,1.41,0,0,0,1.06,1.18l.15,0a3.39,3.39,0,0,1,.44.08,24.7,24.7,0,0,1,5.18,1.48,1.41,1.41,0,0,0,1.6-.39l3.48-4a1.47,1.47,0,0,1,1.95-.23l1.12.79,3.93,2.75a1.46,1.46,0,0,1,.42,1.91l-2.77,4.78a1.4,1.4,0,0,0,.13,1.6,25.07,25.07,0,0,1,4.14,7.14l1.19,0,4.9.2a1.41,1.41,0,0,1,1.3,1,1.51,1.51,0,0,1,.06.37l.3,6.21a1.46,1.46,0,0,1-1.23,1.49l-3.79.59a1.44,1.44,0,0,0-1.21,1.28,25.24,25.24,0,0,1-2,7.74,1.41,1.41,0,0,0,.36,1.64l4.75,4.16a1.39,1.39,0,0,1,.22,1.84l-3.6,5.13a1.41,1.41,0,0,1-1.87.42l-5.93-3.44a1.45,1.45,0,0,0-1.62.11,25,25,0,0,1-3.23,2.12c-.63.34-1.25.65-1.89.94a1.46,1.46,0,0,0-.86,1.25l-.25,6.56A1.47,1.47,0,0,1,126.32,201.9Zm-18.77-24.32a15.55,15.55,0,0,0,3.77,3.73,9.81,9.81,0,0,0,1.14.68,13.71,13.71,0,0,0,6.09,1.42c13.63-.7,18.48-16.88,7.74-25l-.54-.39a13.18,13.18,0,0,0-6.93-2,16,16,0,0,0-3.11.42A13.59,13.59,0,0,0,107.55,177.58Z" class="cls-2"/><path d="M254.15,138.62,245,140.2l-.22,0a2.23,2.23,0,0,1-2.51-1.58l-2.15-7.5a2.09,2.09,0,0,0-.13-.35,2.19,2.19,0,0,0-2.07-1.24,38.71,38.71,0,0,1-15.19-2.39,2.74,2.74,0,0,0-.62-.13,2.28,2.28,0,0,0-2,1l-3.63,5.39a2.29,2.29,0,0,1-2.15,1,2.73,2.73,0,0,1-.75-.24l-8.43-4.46a2.27,2.27,0,0,1-1-2.9l3.38-8a2.2,2.2,0,0,0-.39-2.32c-.81-.93-1.58-1.88-2.31-2.9a38,38,0,0,1-3.53-5.9h0a2.24,2.24,0,0,0-2.22-1.27l-8.76.74-.44,0a2.18,2.18,0,0,1-2.35-1.81L185.83,96a2.29,2.29,0,0,1,1.62-2.58L195.79,91a2.23,2.23,0,0,0,1.62-2,39,39,0,0,1,2.45-11.78,2.23,2.23,0,0,0-.85-2.62l-6.39-4.33a2.27,2.27,0,0,1-.73-2.95l4.47-8.47a2.17,2.17,0,0,1,2.77-1l9.37,4a2.28,2.28,0,0,0,2.37-.36c.81-.7,1.65-1.36,2.53-2a39.07,39.07,0,0,1,5.11-3.15,2.17,2.17,0,0,0,1.2-2.13l-.9-10.53a2.23,2.23,0,0,1,1.84-2.39l9.44-1.63a2.25,2.25,0,0,1,2.4,1.28,1.33,1.33,0,0,1,.11.3l2.66,9.26A2.21,2.21,0,0,0,237.11,52l.23,0a5.48,5.48,0,0,1,.7,0,38.22,38.22,0,0,1,8.21,1.27,2.15,2.15,0,0,0,2.37-.91l4.58-6.74a2.25,2.25,0,0,1,2.94-.72L258,46l6.54,3.47a2.23,2.23,0,0,1,1,2.85l-3.33,7.85a2.15,2.15,0,0,0,.51,2.43,38.12,38.12,0,0,1,4.82,5.49,39,39,0,0,1,2.89,4.65l1.84-.16,7.54-.64A2.17,2.17,0,0,1,282,73.18a2.35,2.35,0,0,1,.17.55l1.64,9.46a2.24,2.24,0,0,1-1.58,2.52l-5.71,1.62a2.24,2.24,0,0,0-1.61,2.19,39.09,39.09,0,0,1-1.55,12.24,2.16,2.16,0,0,0,.87,2.45l8.07,5.46a2.15,2.15,0,0,1,.69,2.78L278.47,121a2.17,2.17,0,0,1-2.79,1l-9.75-4.13a2.22,2.22,0,0,0-2.45.48,37.37,37.37,0,0,1-4.56,3.87q-1.32,1-2.7,1.8a2.22,2.22,0,0,0-1.07,2.08l.86,10.09A2.26,2.26,0,0,1,254.15,138.62ZM220.74,105a24.08,24.08,0,0,0,6.48,5,13.77,13.77,0,0,0,1.88.82,21.11,21.11,0,0,0,9.61,1c20.74-3.69,25.08-29.4,7.07-39.74-.3-.17-.6-.34-.91-.5a20.49,20.49,0,0,0-11-1.75A25.76,25.76,0,0,0,229.18,71,21,21,0,0,0,220.74,105Z" class="cls-2"/><path d="M239.63,214.77c-.7-17.26,13.77-24.93,28.56-24.93s30.89,3.83,32.29,26.78c.9,14.77-7,23.86-29.64,23.86-7.65,0-13.59-1.21-18.14-3.36l-11.33,10.07,5.57-13.92C242,228.69,239.93,222.22,239.63,214.77Z" class="cls-2"/><path d="M98.88,474.88a29.78,29.78,0,0,0-2-7.63c-1.43-2.84-10.48-1-10.48-1s-1.81,1.55-2.2,8.79Z"/><path d="M129.72,474.82c-2.13-1.3-.92-11-.92-11s9.91-7.92,11.28-1.86,9.41,8.8,14,9.54c3.16.52,4.14,2.27,4.44,3.31Z"/><path d="M109.19,404.38a44.7,44.7,0,0,1,.73,5.35c.92,18,15.13,59.06,17.67,60,3.93,1.48,10.12-1.67,13.36-2.7a2.79,2.79,0,0,0,2-3.16c-7-32.34-9.62-78.91-10.56-106.48a125.48,125.48,0,0,0-2.86-23.48s-34.65-9.25-34.85,2.45C94.44,346.73,106.1,387.31,109.19,404.38Z" class="cls-3"/><path d="M109.19,404.38l23.15-47a125.48,125.48,0,0,0-2.86-23.48s-34.65-9.25-34.85,2.45C94.44,346.73,106.1,387.31,109.19,404.38Z" class="cls-4"/><path d="M116.9,336.42,98.59,469.17s-8,1.94-14.3.38c0,0-5.37-70.6-4.92-87.66s-3.85-45.68,1-48.83S116.9,336.42,116.9,336.42Z" class="cls-3"/><path d="M79.07,302.34l-2.29,31.87a2.53,2.53,0,0,0,1.84,2.62c2.55.74,5.5,1.26,11.18,2.44a107.93,107.93,0,0,0,21.33,2.14c14,.09,19.35-4.74,19.35-4.74.6,0-.32-2.93-1.16-16.89-.28-4.73-.55-10.72-.75-18.3-.17-6.82-.29-14.92-.3-24.53,0-11.55-17.91-24-18.24-24h0c0,1.66-2.63,4.73-6.66,5-4.8.31-10.68-2.08-10.68-4.84,0,0-8.67,13.87-11.75,28.67-.39,1.88-.69,3.86-.93,5.94v.1c0,.38-.09.76-.13,1.15,0,.07,0,.13,0,.2,0,.35-.07.71-.1,1.06l0,.31c0,.33-.06.65-.08,1,0,0,0,.06,0,.09l-.06.74,0,.52c0,.29,0,.58-.06.87l0,.44c0,.28,0,.55,0,.84l0,.37-.06,1.22v.1c0,.39,0,.79,0,1.19,0,.1,0,.19,0,.29,0,.38,0,.76,0,1.14v.16c0,.93-.08,1.87-.11,2.83a.17.17,0,0,0,0,.07Z" class="cls-5"/><path d="M110,253s16.64-.14,20.64,5.48,12.78,35.82,8.2,45.87S125.72,300.15,121,294,110,253,110,253Z" class="cls-5"/><path d="M110.2,250.42v1.72s.47,5.38-6.15,6.17-11.53-1-11.35-5.18A59.65,59.65,0,0,0,93.87,244a18.67,18.67,0,0,0-.23-3.22l12.83-.26,3.78.62Z" class="cls-6"/><path d="M110.25,241.12l0,9.3a10.74,10.74,0,0,1-4.62,1c-5.9,0-9.71-4.32-11.71-7.46a18.67,18.67,0,0,0-.23-3.22l12.83-.26Z" class="cls-7"/><path d="M92.65,238.69c1.49,8,11.83,7.75,16.3,7.25,1.26-.14,2-.3,2-.3,1.42-.38,2.21-2.61,2.58-5.54.73-5.79-.2-14.28-1.17-16.46-1.48-3.27-4.25-6.81-14.66-4.25S90.74,228.43,92.65,238.69Z" class="cls-6"/><path d="M127,275.47s6.44,14.21,6.25,18.47a22.25,22.25,0,0,0-6.25.8C122,296.24,127,275.47,127,275.47Z" class="cls-8"/><path d="M115.6,216a34.67,34.67,0,0,1-10-2.71c-4.38-1.91-9.92.2-11.72,1.14a2.79,2.79,0,0,1,.44-1.08,2.36,2.36,0,0,0-.92,1.37c-.09.06-.12.11-.1.12a3.07,3.07,0,0,0-1.51.1s.42-.06.56.2l.07.08c-6.85,3.3-7.48,14.12-5.27,16.62,2.64,3,5.82,9.79,5.82,9.79a5.81,5.81,0,0,0,.68-4.25c-.48-2.65,1.81-2.65,4.7-3.85s.48-4.58,3-6.63,11.8-.84,11.68-2.4C116.49,223.26,115.6,216.37,115.6,216Z" class="cls-9"/><path d="M90.56,302.09c2.71,10.91,32.09,16.54,38.76,17.69-.28-4.73-.55-10.72-.75-18.3Z" class="cls-8"/><path d="M97,305.64c-.28,0-6.53-.94-7.65-1.5s-6.24-7.83-2.89-9.7S98.82,300,98.82,300Z" class="cls-6"/><path d="M135,307.8s-24.17,1.31-40.4-2.16a7,7,0,0,1,4.69-6.77s25.29-5.36,31.36-3.87S135,307.8,135,307.8Z" class="cls-5"/><path d="M79.51,288.83c5,6.05,11.57,11,18.8,12.14h0a13.45,13.45,0,0,0,1.79-8.07,16.08,16.08,0,0,0-2.63-7.41,16.68,16.68,0,0,1-1.42-2.87c-4-10.07-3.36-29.49-3.36-29.49s-16.77,1.76-22,9.22C67.5,266.92,71.58,279.26,79.51,288.83Z" class="cls-5"/><path d="M109,245.94c1.26-.14,2-.3,2-.3,1.42-.38,2.21-2.61,2.58-5.54a7,7,0,0,0-4.39,3.59A5.2,5.2,0,0,0,109,245.94Z" class="cls-7"/><path d="M115.71,250.47s5.79-9.55,1.28-10a6.83,6.83,0,0,0-7,3.75c-.65,1.12.17,6.17.17,6.17Z" class="cls-6"/><path d="M93.64,292.58a12.79,12.79,0,0,0,1,3.31A16,16,0,0,0,98.31,301h0c15-6.79,18.08-30.1,18.59-42.9.21-5.15,0-8.6,0-8.6-6.78-2.25-8.69,1.66-8.69,1.66s-8,19-12.16,31.49C94.46,287.38,93.43,291.18,93.64,292.58Z" class="cls-5"/><path d="M79.51,288.83c5,6.05,11.57,11,18.8,12.14h0c15-6.79,18.08-30.1,18.59-42.9,0,0-7.11,25.81-16.8,34.83a10.53,10.53,0,0,1-5.48,3s-12.21-3.45-14.77-6.7C79.67,289,79.56,288.84,79.51,288.83Z" class="cls-8"/><path d="M559.59,372s9.56-11.21.54-18.29c0,0-6.58-3.95-11.94-3.62,0,0,7.63,12.71,5.18,14s-7.48-14.77-7.48-14.77-14.95-1.41-19.76.92c0,0,12.81,10.42,10.12,11.05s-16.52-9.6-16.52-9.6-13.91,2.41-13.14,10.9,5.56,11.09,7.67,10.86,14.42-5,14.69-3.25-7.13,7.39-12.32,7.67c0,0,9.84,10.79,16.35,7.65s7-8.09,11.11-10,7.53-1.87,5.86,0-9,3.76-11.34,7.88-4.39,6.89,2.35,5.86,17.7-6,18.16-11.65Z" class="cls-2"/><path d="M513.42,362.77s37.79-1.56,46.17,9.22a27.24,27.24,0,0,0,7.56,10.54l.89,2.41s-6.57-6.88-8.92-7.29C559.12,377.65,562.75,364.24,513.42,362.77Z" class="cls-5"/><path d="M567.15,382.53a23.77,23.77,0,0,1,8.72,16.7l-1.47.13s-2.63-11.07-7.32-15.39S567.15,382.53,567.15,382.53Z" class="cls-5"/><path d="M610.28,342.44s-15.28-8.5-8.19-20.11c0,0,5.67-7.13,11.77-9,0,0-3.21,17.29,0,17.69s2.19-19.52,2.19-19.52,16-7.77,22.34-7.18c0,0-9.91,16.9-6.66,16.49s14.38-17.53,14.38-17.53,16.46-3.09,19.13,6.66-1.58,14.64-4,15.26-18.09.45-17.68,2.49,11,5.25,16.88,3.41c0,0-6.46,16.07-15,15.28s-11.2-6.06-16.49-6.46-9.14,1.05-6.5,2.46,11.59.44,15.87,4.05,7.75,5.85-.18,7.5-22.16.67-25-5.42Z" class="cls-2"/><path d="M657.77,313S615.11,327,610.28,342.44a32.43,32.43,0,0,1-4,14.85v3s4.44-10.38,6.88-11.81C613.14,348.53,603.55,335.14,657.77,313Z" class="cls-5"/><path d="M606.25,357.29s-6.56,10-2.77,22.17l1.69-.45s-1.68-13.41,1.75-20.16S606.25,357.29,606.25,357.29Z" class="cls-5"/><path d="M586,330.73s20.06-11.31,10.64-26.56c0,0-7.53-9.36-15.57-11.75,0,0,4.35,22.76.06,23.31s-3-25.72-3-25.72-21.2-10.12-29.5-9.3c0,0,13.19,22.21,8.9,21.69s-19.09-23-19.09-23-21.72-4-25.17,8.92,2.2,19.29,5.42,20.08,23.85.47,23.32,3.15-14.45,7-22.23,4.62c0,0,8.63,21.15,19.89,20s14.71-8.08,21.68-8.63,12.06,1.31,8.59,3.19-15.28.66-20.89,5.46-10.16,7.76.29,9.87,29.22.73,33-7.32Z" class="cls-2"/><path d="M523.17,292.31S579.5,310.38,586,330.73a42.68,42.68,0,0,0,5.41,19.55v4s-5.93-13.65-9.15-15.51C582.26,338.78,594.8,321.05,523.17,292.31Z" class="cls-5"/><path d="M591.4,350.28s8.71,13.15,3.81,29.21l-2.23-.6s2.12-17.67-2.45-26.55S591.4,350.28,591.4,350.28Z" class="cls-5"/><path d="M717,472.55,552,473c-24.54-28.1-27-66.09,5.57-98.08,4.1-4,12-6.88,20.44-8.89,15.63-3.7,33.35-4.55,33.49-4.62s9.36-7.57,15-14.35c17.42-21.07,32.23-19.26,32.23-19.26,17.74-3.44,32.88-4.45,44.1,1.8h0c10.39,5.8,17.43,17.83,20.05,39.94q.75,6.27,1,13.65c.64,18,4.17,33.91,6.26,47.43h0C733.15,450.16,733.17,464.61,717,472.55Z" class="cls-5"/><path d="M694,351.7c-10.77,5.86-12,25.18-28.83,30.16S619.7,386.38,603.47,404c-15.66,17-32.91-26.23-25.47-38.38,15.63-3.71,33.35-4.55,33.49-4.63s9.36-7.56,15-14.35c17.42-21.07,32.23-19.25,32.23-19.25,17.74-3.44,32.88-4.45,44.1,1.8h0C708.48,335.38,704.76,345.84,694,351.7Z" class="cls-8"/><path d="M627.89,357.23s-54-.71-61.23,3.89,7.42,77.78,7.42,77.78,14,.41,15.08-3.29c0,0-2.61-34.3-.43-40.23s.81-14.15.81-14.15,27.34,4.1,36,2S627.89,357.23,627.89,357.23Z" class="cls-4"/><path d="M640.39,319.4c0,.05-7.6,17.73-11.31,19.61s-17.12,17.3-20,17,3.37,2.34,3.37,2.34,23.45-10.81,24.81-11.48,8.55-12.5,9.54-18.49S640.39,319.4,640.39,319.4Z" class="cls-6"/><path d="M590.88,444.36c-1.8,3.47-2.21,9.86-2.74,12s-10,9.53-10.79,9.16c-2.07-.93-.1-4.53,1.17-7.16.05-.1.1-.21.14-.31,1.25-2.65.18-8.57.82-11.63S577,435.17,577,435.17l5.21-6.59s3.67,7,6.29,8.25a5.79,5.79,0,0,1,1.28.81C591.59,439.11,592.36,441.5,590.88,444.36Z" class="cls-6"/><path d="M572.54,464.71c-3.61,1.49-8,6.11-9.85,7.42s-13.78.85-14.16,0c-1-2.12,3.17-3.63,5.83-4.86l.11-.05h0c2.63-1.32,5.58-6.4,8-8.29s5.4-10.2,5.4-10.2l8.23-1.67s-1.69,7.69-.51,10.35a7.87,7.87,0,0,1,.29.76C576.65,460.67,575.82,463.36,572.54,464.71Z" class="cls-6"/><path d="M655.92,311.55c-1.1-1.27,16.27-6.5,20,7.76,0,0,32-8.51,12.32-22.76-6.81-4.93-7.49-10.19-8.48-15s-7.77-18.65-19.56-11.79c0,0-5.38,0-8.79,3C643.64,279.44,635.17,322.12,655.92,311.55Z" class="cls-10"/><path d="M650.47,359.74s-56,5.69-61,11.41-24.29,80.09-24.29,80.09,5.72,3.19,10.92.21c0,0,14.82-25.23,21.38-33.15s9-32.38,10.1-32.62,36.2,4.9,48.29-4.38S650.47,359.74,650.47,359.74Z" class="cls-3"/><path d="M681.67,308.89a58.37,58.37,0,0,0-30.31-3.24c-3.46.56-6.58,1.7-9.06,5.77-3.5,5.77-5.14,8.86-5.14,8.86s.34,2.67,5.12,4.8c-1.31,4.78,1.19,13.12-1.11,16.36s-16.54,11.27-17.24,15.73c-1.3,8.21,24.33,23.09,32,21.5C677.9,374.1,692.84,315.18,681.67,308.89Z" class="cls-11"/><path d="M674.11,292s2.64-5.18,3-9.43c.25-3-2.32-14-13.29-11.33a15.34,15.34,0,0,0-6,3c-2.26,1.86-5.41,5.71-.61,15l1.32,3.17Z" class="cls-10"/><path d="M659.06,309.47c-1.11,1.17-.67,5.06,4.52,4.77,3.41-.19,10.72-4.4,10-7.32-.33-1.38-3-4.95-3.56-13.17l-.62.17L659,296.85s.5,3.31.75,6.44C660,305.92,659.52,309,659.06,309.47Z" class="cls-6"/><path d="M659,296.85s.5,3.31.75,6.44c5.91-.63,8.61-6.27,9.66-9.37Z" class="cls-12"/><path d="M658.81,301.66s13.62-3.43,11.35-11.87-2-14.59-10.82-12.76-9.61,5.51-9.54,8.51S655.2,302.33,658.81,301.66Z" class="cls-6"/><path d="M653.11,278.49s4.57,8.71,13.2,9.65c5.05.55,6.43,3.88,6.43,3.88s-1.51-9.51-4-15.33C668.69,276.69,654.64,273,653.11,278.49Z" class="cls-10"/><path d="M654.67,279.64s-3,3-3.9,5.19c-1.37,3.18,1.29,9.87,2.39,11.32,0,0-6.34-10.76-4.22-15.41C651.19,275.8,654.67,279.64,654.67,279.64Z" class="cls-10"/><path d="M613.13,358.07s-2.71,2.87-3,3c-1.8.84-4.06.35-5.16.63s-.9-.41-.1-1,2.8-.34,2-.54-5.19-1-6.84-.58c-2.62.7-4.68-.12-4.84-.39s6-3.26,7.72-3.16,6.78-.14,6.78-.14Z" class="cls-6"/><path d="M686.28,314.19s1.63,39.95-3.07,45.55-33.24-.62-33.24-.62l-2-2.92s25.37-3.72,27.07-4.2c2.45-.69.75-28.2.75-28.2Z" class="cls-6"/><path d="M680,308.26c.41,0,5.46,1.67,9.08,8.85s4.86,10.48,4.86,10.48-15.8,12.24-22.09,7.73S674.18,308.11,680,308.26Z" class="cls-11"/><path d="M650,359.12a45.61,45.61,0,0,0-3.14,3.48c-.87,1.17-6.91,3.31-7.05,2.68s2.71-2.55,3-3.27,3.36-4.31,5.25-4.72S650,359.12,650,359.12Z" class="cls-6"/><path d="M648,356.2s-9.32,2.15-10.91,2.8-4.93,5.39-3.6,6.11c.84.45,4.52-1.5,6.39-1.9s7.15.51,9.57-4.27C649.72,358.4,648,356.2,648,356.2Z" class="cls-6"/><path d="M572.54,464.71c-3.61,1.49-8,6.11-9.85,7.42s-13.78.85-14.16,0c-1-2.12,3.17-3.63,5.83-4.86l.11-.05h0l.38-.12s5.16,1.84,9.45,0c3.35-1.44,8.31-6.76,11.59-8.93C576.65,460.67,575.82,463.36,572.54,464.71Z"/><path d="M590.88,444.36c-1.8,3.47-2.21,9.86-2.74,12s-10,9.53-10.79,9.16c-2.07-.93-.1-4.53,1.17-7.16a5.81,5.81,0,0,0,2.88-1.07c2.36-1.57,6.36-7.51,6.72-11,.29-2.85.11-6.94,1.69-8.67C591.59,439.11,592.36,441.5,590.88,444.36Z"/><polygon points="635.97 366.31 595.37 366.31 583.15 335.94 623.69 335.94 635.97 366.31" class="cls-5"/><polygon points="594.89 365.13 648.51 365.13 648.51 366.31 595.37 366.31 594.89 365.13" class="cls-8"/><path d="M605.62,351.13a1.41,1.41,0,0,1,1.37-1.94,2.77,2.77,0,0,1,2.49,1.94,1.4,1.4,0,0,1-1.38,1.93A2.77,2.77,0,0,1,605.62,351.13Z" class="cls-13"/><path d="M682.45,366.12s-5.31,5-27.53,5.68S603.74,397,603.47,404s44.72,17.48,45.42,16.49,28.54-24.9,28.54-24.9Z" class="cls-5"/><path d="M730.11,430.18c-12-21.53-39.27,8.17-46.05-1.88s9.59-22.8,24.37-33.79c14.48-10.76,14.42-24.83,14.41-25.4.5,4.18.84,8.72,1,13.65C724.49,400.71,728,416.67,730.11,430.18Z" class="cls-8"/><path d="M537.07,95.93a96.16,96.16,0,0,1-21.89,61.8,80.74,80.74,0,0,0-18.57,51.21v27a31,31,0,0,1-7.4,20.08,31.31,31.31,0,0,1-21.68,11.06c-.7.05-1.35,0-2.06,0H415.64c-.67,0-1.4,0-2.06,0a31.25,31.25,0,0,1-29.08-31.14V209A80.41,80.41,0,0,0,366,157.84,96.52,96.52,0,1,1,537.07,95.93Z" class="cls-14"/><path d="M467.53,267.06c-.25,1.93-4.46,34.19-4.5,34.5-.69,5.32-6.78,9.39-14,9.39h-16.4c-7.21,0-13.28-4-14.05-9.3-.79-5.56-3.85-26.89-4.95-34.59Z" class="cls-8"/><path d="M461,267.06h-9.27c-15,4.32-29.79,8.6-36.66,10.54l.36,2.52v.05l.36,2.56c5.57-1.55,18.93-5.37,51.6-14.84l.1-.83Z" class="cls-5"/><path d="M417.57,295h0V295h0l.37,2.57c6.44-1.81,19.71-5.62,47.37-13.64l.37-2.78v0l.36-2.77c-17.48,5.06-38.63,11.17-48.84,14.07Z" class="cls-5"/><path d="M423.73,308.65l.09.06a15.9,15.9,0,0,0,3.82,1.58h0c7.59-2.17,18.85-5.42,35.59-10.27l.36-2.79v0l.36-2.77c-15,4.33-32.12,9.29-42.71,12.32A12.11,12.11,0,0,0,423.73,308.65Z" class="cls-5"/><polygon points="421.04 267.06 400.18 143.95 404.49 143.22 425.46 267.06 421.04 267.06" class="cls-15"/><polygon points="458.14 267.06 453.68 267.06 476.01 145.14 480.31 145.92 458.14 267.06" class="cls-15"/><path d="M452.07,166a8.43,8.43,0,0,1-1.88-.23,2.7,2.7,0,0,1-2.14-2.34c-.5-2.73,1.64-7.73,4.65-12-1.57-2.74-3.67-5-5.86-5.67-3.24-1-8.21,2-11.68,5.83a24.44,24.44,0,0,1,1.71,2.78c1.77,3.35,3.05,7.63,1.3,9.61-.65.73-2,1.4-4.58.41-3.27-1.23-4.45-4-3.23-7.6a17.66,17.66,0,0,1,3.1-5.3c-2.68-3.49-6.27-6.15-9.8-5.71a10.9,10.9,0,0,0-4.85,1.83c2.26,4.21,2.78,9.54,1.21,12.4-1.06,1.95-2.93,2.57-5.25,1.74-1.66-.59-2.53-2.88-2.21-5.84a13.43,13.43,0,0,1,4.53-8.64,11.53,11.53,0,0,0-2.51-2.81,8.33,8.33,0,0,0-11.33.56l-.95-.92c.06-.06,6.08-6.12,13.09-.68a12.4,12.4,0,0,1,2.75,3,12.28,12.28,0,0,1,5.36-2c4-.5,7.91,2.3,10.84,6,3.77-4.09,9.14-7.12,12.88-6,2.37.71,4.6,3,6.31,5.81a22.5,22.5,0,0,1,5.07-5c2.76-1.83,4.56-1.41,5.58-.73a10,10,0,0,1,2.68,2.67,14.78,14.78,0,0,1,2.56-1.65c3.19-1.59,6.13-1.47,8.26.33l-.86,1c-2.29-1.95-5.25-.93-6.81-.16a13.76,13.76,0,0,0-2.46,1.59c2.13,3.84,2.54,8.84,1.32,11.26a2.79,2.79,0,0,1-3.74,1.46c-2.88-1-3.59-3-3.67-4.52-.16-2.84,1.81-6.06,4.37-8.44a8.57,8.57,0,0,0-2.38-2.45c-1.25-.82-2.93-.05-4.12.73a22.39,22.39,0,0,0-5.1,5.14c2,3.77,3,8.16,2.25,11A4.27,4.27,0,0,1,452.07,166Zm1.31-13.25c-2.61,3.82-4.45,8.13-4,10.44a1.4,1.4,0,0,0,1.13,1.29c2.59.59,4.18-.17,4.73-2.24C455.84,159.82,455,156.07,453.38,152.73Zm-19.1-.09a15.61,15.61,0,0,0-2.67,4.59c-1,3-.18,5,2.44,5.94,1.06.39,2.46.71,3.13,0,1-1.18.43-4.52-1.48-8.13A24.87,24.87,0,0,0,434.28,152.64Zm-16.52-4.19a12.2,12.2,0,0,0-3.89,7.62c-.25,2.25.31,4.08,1.35,4.45,1.67.6,2.91.22,3.65-1.13C420.21,156.93,419.72,152.22,417.76,148.45Zm48.75.84c-2.29,2.21-3.85,5-3.73,7.21a3.72,3.72,0,0,0,2.81,3.36,1.49,1.49,0,0,0,2.1-.82C468.71,157,468.28,152.67,466.51,149.29Z" class="cls-15"/><path d="M490.37,37.11c7.94,7.48,6.94,21.23-3.26,24.29-7.7,2.31-19.17-.77-24.84-10.59s-3.06-17.89,3.9-21.91S482.12,29.34,490.37,37.11Z" class="cls-15"/><path d="M192.69,275.41c-.93-1.79,20.22-8.23,20.56,9.42,0,0,39.63-1,20.71-23.07-6.55-7.64-5.88-14-5.68-19.85s-4.08-23-18.75-21.27a11,11,0,0,0-8.64.92C190,227.22,165.57,281.91,192.69,275.41Z" class="cls-9"/><path d="M257.47,295.13s2.58-3.92,4.66-4,5.93-1.15,5.62-.38-2.69.84-2.92,1.3,3.54,1.16,4.62,1.24,3.62,0,3.54.54-4.58,2.77-7.76,2.46a21.54,21.54,0,0,0-7.1.92Z" class="cls-6"/><path d="M220.17,296.41a38.8,38.8,0,0,0,3.94,6c3.07,3.84,7.8,8.28,13.73,9.15A14.71,14.71,0,0,0,246,310.2h0c7.21-3.2,12.63-10.56,12.63-10.56a5.93,5.93,0,0,0-.81-5.82s-14.55,3.28-15.94,2.59-9.47-24-11.39-26.92-8.49-4.44-8.49-4.44Z" class="cls-11"/><path d="M224.11,302.37c3.07,3.84,7.8,8.28,13.73,9.15A14.71,14.71,0,0,0,246,310.2c-.28,0-7.48.92-10.34-4.21s-6.1-13.55-10.44-10.78C223.33,296.41,223.41,299.38,224.11,302.37Z" class="cls-16"/><path d="M165.88,453.49s-4.44,4.05-3.58,6.93,4.88,4.8,5.42,8.32,2.71,5.44,4.65,5.44h9.3s1.43-2.48-2-3.22-4.77-4.88-4.56-8.72a67.45,67.45,0,0,0-.32-9l-7.37-1.71Z" class="cls-9"/><path d="M203.46,455.21s-1.6,17.17.35,18.13l24.95,0s0-2.88-4-3.52-11-3-12.23-8.21S203.46,455.21,203.46,455.21Z" class="cls-9"/><path d="M185.68,332.05c5.14-11.52,8.28-14.82,7.68-18.39-.45-2.66,1.36-49.59,1.36-49.59.61-.19,1.83-.36,2.49-.51a6.28,6.28,0,0,0,4.58-4A32,32,0,0,0,203.34,249l.66.13,11.06,2.19s-.25,3.48-.26,6.76v.08a6.35,6.35,0,0,0,4.59,6.15l2.61.75a101.52,101.52,0,0,1,4.84,23.5c.77,11.91-7.39,17.08.06,40.88C234.5,353.74,182.85,338.41,185.68,332.05Z" class="cls-6"/><path d="M215.06,251.31s-.25,3.48-.26,6.76c-6.19-.18-9.46-5.82-10.8-8.95Z" class="cls-17"/><path d="M217.12,254.42s-14.64.24-14.65-8.88-1.9-15.23,7.44-15.77,11.17,2.93,11.91,6S220.93,254.12,217.12,254.42Z" class="cls-6"/><path d="M216.58,229.54s-4,10.7-10.16,12.28-8.82-.06-8.82-.06a17.43,17.43,0,0,0,5.7-10.29S213.56,224.45,216.58,229.54Z" class="cls-9"/><path d="M215.59,230.41s3,1.11,4.19,3.28a14.69,14.69,0,0,1,2,8.37s3-7.27-.37-11.38C217.79,226.31,215.59,230.41,215.59,230.41Z" class="cls-9"/><path d="M213.94,248.76a3.67,3.67,0,0,0,3,1.23,2.7,2.7,0,0,0,2.26-1.49A9.81,9.81,0,0,0,213.94,248.76Z" class="cls-18"/><path d="M184.27,284.83a99.81,99.81,0,0,0,0,11.53c.25,4.17,4.46,9.75,5.06,11.13,1.5,3.47,3.2,4,3.2,4l13.1,3.21,4.6,1.13,14.53-4.34s6.61-18.46,4-28.86A80,80,0,0,0,222,265.05s-11.85,11.6-27.28-1Z" class="cls-11"/><path d="M188.1,298.06c.25,4.17.63,8.05,1.23,9.43,1.5,3.47,3.2,4,3.2,4l13.1,3.21,5.69-1.67s-19-2.88-16.89-19.22Z" class="cls-16"/><path d="M223.83,314.32s7.2,22.39,7.66,30-13.75,108.28-14.32,111.8c-.54,3.31-4.65,5.42-4.65,5.42a6.24,6.24,0,0,1-4.59.35c-3.75-1.06-4.93-2.32-4.93-2.32s-5.6-71.8-2.14-97.44a405.57,405.57,0,0,0,3.51-47.83Z" class="cls-8"/><path d="M193.36,313.66s-11,14.72-12,24.67-1.6,44.91-3.78,54.61-10.19,28.37-10.19,58.63a6,6,0,0,0,3.4,2.66,28.73,28.73,0,0,0,3,.83,4.71,4.71,0,0,0,5.26-2.5c5.41-10.9,22.65-46.05,23.54-53.35.62-5.16,6.07-39.34,17.94-59.39,2.85-4.81-1.75-24-1.75-24Z" class="cls-5"/><path d="M214.26,249s.26,1.08,2.93.91c0,0,2.25-.14,2.18-1.32A7.25,7.25,0,0,0,214.26,249Z" class="cls-13"/><path d="M225,310.87s-2.89,2.28-8.62,2.4c-6.85.14-23.83-1.75-23.83-1.75a14,14,0,0,0-.73,4.33s20.74,5.23,32.75.77A7.61,7.61,0,0,0,225,310.87Z" class="cls-9"/><path d="M214.88,315.63a3.15,3.15,0,1,1,3.12,3.54A3.36,3.36,0,0,1,214.88,315.63Zm1,0a2.12,2.12,0,1,0,2.09-2.5A2.34,2.34,0,0,0,215.91,315.63Z" class="cls-13"/><rect width="28.17" height="38.56" x="179.4" y="290.35" class="cls-10" transform="translate(136.08 670.2) rotate(-138.95)"/><path d="M197.32,315s7.78.91,7.76,2.75-1.94,5.65-2.9,5.82-6.34-5.14-6.34-5.14Z" class="cls-6"/><path d="M194.72,264.06s-10.4.73-14.38,10.42-11.54,25.94-11.54,28.68,4.22,11.16,26.9,16c0,0,2.34-2.46,2.2-4.42,0,0-14.16-12.15-14.12-13.57.07-2.69,2.32-6.24,14.75-18.67C201.91,279.13,194.72,264.06,194.72,264.06Z" class="cls-11"/><path d="M284.57,473.65h-.09a1,1,0,0,1-1-1.06l1.57-68,4.62-.54-3.94,68.53A1.11,1.11,0,0,1,284.57,473.65Z" class="cls-8"/><path d="M358.87,473.65H359a1,1,0,0,0,1-1.06l-1.57-68-4.62-.54,3.94,68.53A1.11,1.11,0,0,0,358.87,473.65Z" class="cls-5"/><path d="M281.51,400.4V353.81A14.85,14.85,0,0,1,296.35,339h33.57a14.85,14.85,0,0,1,14.84,14.84v48.37Z" class="cls-5"/><path d="M281.51,400.4h69.26a0,0,0,0,1,0,0v7.35a0,0,0,0,1,0,0h-61.9a7.35,7.35,0,0,1-7.35-7.35v0A0,0,0,0,1,281.51,400.4Z" class="cls-8"/><rect width="55.61" height="7.35" x="306.22" y="400.4" class="cls-5" rx="3.68"/><path d="M356.63,388.79c-4.81,8.37-10.85,11.6-10.85,11.6H320.62S360.3,382.41,356.63,388.79Z" class="cls-19"/><path d="M337.31,453.54a2.32,2.32,0,0,0-.42,2.48s0,0,0,0c.6,1.65,2.58,3.51,4.89,5.35l.78.66.18.16.13.12c2.15,2,1.34,2.43,5.2,6.45,4.4,4.57,7.43,4.66,8.29,4.24s-.75-2.78-2.4-5.51l-.23-.4-.66-1.09c-1.92-3.29-1.43-4.83-1-9.72.37-4,6.18-22.18,6.18-22.18l-8.43-1.45s-2.54,14.5-5.34,16.73c-1.49,1.2-3.17,1.21-4.61,2.09l-.29.19A10.84,10.84,0,0,0,337.31,453.54Z" class="cls-6"/><path d="M337.31,453.54a2.32,2.32,0,0,0-.42,2.48s0,0,0,0c.74,1.65,2.67,3.49,4.89,5.34.3.24.55.46.78.67l.18.16.13.12c2.15,2,1.34,2.43,5.2,6.45,4.4,4.57,7.43,4.66,8.29,4.24s-.75-2.78-2.4-5.51a18.86,18.86,0,0,1-7.84-5.78c-2.65-3.38-4.41-7.72-6.22-10.24l-.29.19A10.84,10.84,0,0,0,337.31,453.54Z"/><path d="M405.28,448.27c.52,2.6,4.23,2.17,8.37,1.16s3.16.19,9.06-.47,7.68-2.85,7.86-3.72-2.75-1.06-5.87-1.42l-1.19-.14c-3.53-.44-6.11-2.72-9.32-4.59-3-1.77-7.56-9-7.56-9l-8.09.64s4.24,6.45,5.88,9.25c1,1.65.92,3.83.8,5.51A10.71,10.71,0,0,0,405.28,448.27Z" class="cls-6"/><path d="M413.65,449.43c4.15-1,3.16.19,9.06-.47s7.68-2.85,7.86-3.72-2.75-1.06-5.87-1.42l0,.06a16.65,16.65,0,0,1-8.45,2.63c-4,.1-8.24-1.05-11-1a10.71,10.71,0,0,0,.06,2.77C405.8,450.87,409.51,450.44,413.65,449.43Z"/><path d="M374.29,396.55l-7.57,20.35-9.87,26.56a15.92,15.92,0,0,1-5.24-.48,22.77,22.77,0,0,1-5.07-2.46s2.74-28.53,7.85-44.9c1.31-4.2,2.78-7.6,4.4-9.52C366.72,376.74,374.29,396.55,374.29,396.55Z" class="cls-4"/><path d="M366.6,364.24c-5-1.59-19.08.46-33.27,3.24l-3-4.91-30.65-2.39s-10.11,22.43-4.58,36.72a5.2,5.2,0,0,0,5.19,3.5h24.62c15.24,0,32.26-10.48,34.46-10.92,3.61-.72,5.05,6.48,8.65,14S401.91,437,401.91,437s4.65.05,6.58-.67a6.57,6.57,0,0,0,2.82-1.78S377.77,367.85,366.6,364.24Z" class="cls-3"/><path d="M329.15,273.32c-3.93-2.06-9.9-2.34-10.87-2.47-11.62-1.56-18.61,15.31-19,20.43-.76,9.43-5.75,10.86-12.77,16.77-14.07,11.83-9.94,25.59-2.25,30.7,4.62,3.07,12.76,0,12.76,0s22.26-12.38,33.17-18.39C346.54,318,339.16,278.57,329.15,273.32Z" class="cls-10"/><path d="M321,315.24s-5.38,1.89-9,.28c-3.41-1.51-6-7.11-5.94-7.12,1.55-.07,3.25-1.42,4.57-10.32l.66.24,11.1,4s-.81,3.57-1.33,7C320.65,312.11,320.42,314.84,321,315.24Z" class="cls-6"/><path d="M322.42,302.31s-.81,3.57-1.33,7c-6.37-1.15-8.88-7.5-9.77-10.95Z" class="cls-20"/><path d="M324.07,305.85s-15.19-2-13.77-11.48.4-16.06,10.16-15.16,11.1,4.79,11.39,8.06S328.06,306.14,324.07,305.85Z" class="cls-6"/><path d="M331.3,282.09s-9.72,8.38-16.34,9.06-9.11-1.45-9.11-1.45a26,26,0,0,0,6.24-8.46,4.63,4.63,0,0,1,3.83-2.74C320.65,278.09,329.6,277.9,331.3,282.09Z" class="cls-10"/><path d="M325.22,281.34s3.25,3.15,4.28,5.48,1.28,7.63.5,9.77c0,0,5.07-9.85,2.2-14.64C329.15,276.87,325.22,281.34,325.22,281.34Z" class="cls-10"/><path d="M333.82,337.62c-.46,30.75-.13,24.32-3.49,27.24-.81.7-3.09,1.12-6.09,1.32-9.43.62-26-.93-26.63-2.67-2.18-6-.64-7.9-2.46-17.13-.18-1-.42-2.05-.69-3.2-1.52-6.34-3-8.5,2.38-18.68,4.86-9.23,9.92-16.72,10.38-16.45,12.84,7.63,13.87,1.22,13.87,1.22S334,322.62,333.82,337.62Z" class="cls-11"/><path d="M366.72,416.9l-9.87,26.56a15.92,15.92,0,0,1-5.24-.48,22.77,22.77,0,0,1-5.07-2.46s2.74-28.53,7.85-44.9Z" class="cls-3"/><path d="M321.09,309.27s13.22,2.24,14.77,7.93l10.68,39.13s-6.72,1.2-9.82-1.9-10.8-28.79-10.8-28.79Z" class="cls-11"/><path d="M324.24,366.18c-9.43.62-26-.93-26.63-2.67-2.18-6-.64-7.9-2.46-17.13l4.55-12.81s-.75,14.26,3.45,18,17.22,7.24,19.27,10.37A11.65,11.65,0,0,1,324.24,366.18Z" class="cls-16"/><path d="M313.44,360.18s9.3-2.07,10.8-1.24,5.17,3.83,5.63,4.87-3.34-.79-4.58-1.12c-.8-.22-2.91.51-4,.86-4.39,1.47-7.08.71-7.08.71Z" class="cls-6"/><path d="M307.21,308.05s-12.49.77-16.81,6.8c-6.09,8.48-18.16,44.66-11.24,49.48,7.79,5.44,35.46,1.43,35.46,1.43s.92-4.31-.36-6.39-22.1-5.45-23.06-6.41,12-18.74,12-21.62S307.21,308.05,307.21,308.05Z" class="cls-11"/><path d="M324.69,361.52a18,18,0,0,0,2.59,2.82,1.86,1.86,0,0,0,1.05.22L327,362.2Z" class="cls-6"/><path d="M324.24,358.94l5.67,2.75a1,1,0,0,1-.94.36,13.26,13.26,0,0,1-2.46-.68Z" class="cls-6"/><polygon points="327.28 368.19 372.1 368.19 385.58 334.66 340.83 334.66 327.28 368.19" class="cls-5"/><polygon points="372.62 366.88 313.44 366.88 313.44 368.19 372.1 368.19 372.62 366.88" class="cls-8"/><path d="M360.78,351.42a1.55,1.55,0,0,0-1.52-2.13,3,3,0,0,0-2.74,2.13,1.55,1.55,0,0,0,1.52,2.14A3,3,0,0,0,360.78,351.42Z" class="cls-13"/><path d="M469.3,474.59h.13a1.45,1.45,0,0,0,1.36-1.55l-2.07-99.19-6.11-.78,5.21,100A1.56,1.56,0,0,0,469.3,474.59Z" class="cls-9"/><path d="M314.92,474.59h-.13a1.46,1.46,0,0,1-1.37-1.55l2.08-99.19,6.11-.78-5.21,100A1.56,1.56,0,0,1,314.92,474.59Z" class="cls-9"/><rect width="177.09" height="7.1" x="304.71" y="368.19" class="cls-9" rx="3.55"/><rect width="815.81" height="3.03" x="8.81" y="472.67" rx="1.52"/></g></g></svg>