<svg xmlns="http://www.w3.org/2000/svg" width="46" height="46" viewBox="0 0 46 46"><g id="earth" transform="translate(0.5 0.5)"><rect id="Rectangle" width="45" height="45" fill="none" stroke="#fff" stroke-width="1"/><g id="full" transform="translate(2 2)"><path id="Shape" fill="#ff5100" stroke="#fff" stroke-width="1" d="M25.637,36.079A16.417,16.417,0,0,0,36.773,22.55h-6.1a26.34,26.34,0,0,1-5.035,13.529Zm.921-13.529H14.441A23.133,23.133,0,0,0,20.5,35.957,23.133,23.133,0,0,0,26.559,22.55ZM25.637,4.921A26.34,26.34,0,0,1,30.673,18.45h6.1A16.418,16.418,0,0,0,25.637,4.921Zm.921,13.529A23.133,23.133,0,0,0,20.5,5.043,23.133,23.133,0,0,0,14.441,18.45Zm-11.2,17.629A26.341,26.341,0,0,1,10.327,22.55h-6.1A16.417,16.417,0,0,0,15.363,36.079Zm0-31.158A16.418,16.418,0,0,0,4.227,18.45h6.1A26.342,26.342,0,0,1,15.363,4.921ZM20.5,41A20.5,20.5,0,1,1,41,20.5,20.5,20.5,0,0,1,20.5,41Z"/></g></g></svg>