<svg xmlns="http://www.w3.org/2000/svg" width="46" height="46" viewBox="0 0 46 46"><g id="calendar" transform="translate(0.683 0.683)"><rect id="Rectangle" width="44.183" height="45" fill="none" stroke="#fff" stroke-width="1" transform="translate(-0.183 -0.183)"/><g id="full" transform="translate(5 2)"><path id="Shape" fill="#ff5100" stroke="#fff" stroke-width="1" d="M35.835,12.19a4.023,4.023,0,0,0-3.982-4.063H7.963A4.023,4.023,0,0,0,3.982,12.19Zm0,4.063H3.982V32.507A4.023,4.023,0,0,0,7.963,36.57h23.89a4.023,4.023,0,0,0,3.982-4.063ZM27.872,4.063V2.032a1.991,1.991,0,1,1,3.982,0V4.063a8.046,8.046,0,0,1,7.963,8.127V32.507a8.046,8.046,0,0,1-7.963,8.127H7.963A8.046,8.046,0,0,1,0,32.507V12.19A8.046,8.046,0,0,1,7.963,4.063V2.032a1.991,1.991,0,1,1,3.982,0V4.063ZM11.945,24.38a2.032,2.032,0,1,1,1.991-2.032A2.012,2.012,0,0,1,11.945,24.38Zm7.963,0A2.032,2.032,0,1,1,21.9,22.349,2.012,2.012,0,0,1,19.908,24.38Zm7.963,0a2.032,2.032,0,1,1,1.991-2.032A2.012,2.012,0,0,1,27.872,24.38Zm0,8.127a2.032,2.032,0,1,1,1.991-2.032A2.012,2.012,0,0,1,27.872,32.507Zm-7.963,0A2.032,2.032,0,1,1,21.9,30.475,2.012,2.012,0,0,1,19.908,32.507Zm-7.963,0a2.032,2.032,0,1,1,1.991-2.032A2.012,2.012,0,0,1,11.945,32.507Z" transform="translate(0)"/></g></g></svg>