<svg xmlns="http://www.w3.org/2000/svg" xmlns:xlink="http://www.w3.org/1999/xlink" viewBox="0 0 850.85 621.47"><defs><style>.cls-1{mask:url(#mask);filter:url(#luminosity-noclip-6);}.cls-10,.cls-2,.cls-4,.cls-6,.cls-8{mix-blend-mode:multiply;}.cls-2{fill:url(#linear-gradient);}.cls-3{mask:url(#mask-2);filter:url(#luminosity-noclip-7);}.cls-4{fill:url(#linear-gradient-2);}.cls-5{mask:url(#mask-3);filter:url(#luminosity-noclip-8);}.cls-6{fill:url(#linear-gradient-3);}.cls-7{mask:url(#mask-4);filter:url(#luminosity-noclip-9);}.cls-8{fill:url(#linear-gradient-4);}.cls-9{mask:url(#mask-5);filter:url(#luminosity-noclip-10);}.cls-10{fill:url(#linear-gradient-5);}.cls-11{mask:url(#mask-6);}.cls-12,.cls-26{opacity:0.72;}.cls-12{fill:url(#linear-gradient-6);}.cls-13{fill:#4a3e46;}.cls-14{fill:#b07042;}.cls-15{fill:#eea886;}.cls-16{fill:#cf8c6c;}.cls-17{fill:#d88a51;}.cls-18{fill:#eb4747;}.cls-19{fill:#db9c7c;}.cls-20{fill:#bd7947;}.cls-21{fill:#eddad3;}.cls-22{fill:#b5453c;}.cls-23{fill:#a77860;}.cls-24{fill:#1a2e35;}.cls-25{mask:url(#mask-7);}.cls-26{fill:url(#linear-gradient-7);}.cls-27{fill:#df4b26;}.cls-28{fill:#fff;}.cls-29{fill:#ffb93e;}.cls-30{mask:url(#mask-8);}.cls-31{fill:url(#linear-gradient-8);}.cls-32{mask:url(#mask-9);}.cls-33{fill:url(#linear-gradient-9);}.cls-34{mask:url(#mask-10);}.cls-35{fill:url(#linear-gradient-10);}.cls-36{fill:#d46946;}.cls-37{fill:#375a64;}.cls-38{fill:url(#linear-gradient-11);}.cls-39{fill:url(#linear-gradient-12);}.cls-40{fill:#706865;}.cls-41{fill:#bdafaa;}.cls-42{fill:#b5deff;}.cls-43{fill:#4da8f2;}.cls-44{fill:#efaa88;}.cls-45{fill:#424773;}.cls-46{fill:#292c47;}.cls-47{fill:#e2d2ca;}.cls-48{fill:#dfe1e8;}.cls-49{fill:#202338;}.cls-50{fill:#323657;}.cls-51{fill:#e2e3ed;}.cls-52{fill:#aab1e0;}.cls-53{fill:#81807e;}.cls-54{fill:#dbd8e3;}.cls-55{fill:#1d2033;}.cls-56{fill:#434343;}.cls-57{fill:#eea987;}.cls-58{fill:#5282fc;}.cls-59{fill:#c4c1cc;}.cls-60{fill:#5c5049;}.cls-61{fill:#fab46c;}.cls-62{fill:#fccca2;}.cls-63{fill:#d4c3bd;}.cls-64{fill:#de9673;}.cls-65{fill:#e6d3cc;}.cls-66{fill:#ded1c5;}.cls-67{fill:#bc8551;}.cls-68{fill:#23344a;}.cls-69{fill:#807066;}.cls-70{fill:#5f8cc9;}.cls-71{fill:#3a3f47;}.cls-72{opacity:0.25;}.cls-73{opacity:0.35;}.cls-74{fill:#5e5853;}.cls-75{fill:#91887f;}.cls-76{fill:#6e6760;}.cls-77{filter:url(#luminosity-noclip-5);}.cls-78{filter:url(#luminosity-noclip-4);}.cls-79{filter:url(#luminosity-noclip-3);}.cls-80{filter:url(#luminosity-noclip-2);}.cls-81{filter:url(#luminosity-noclip);}</style><filter id="luminosity-noclip" x="528.13" y="-6876.76" width="322.72" height="32766" filterUnits="userSpaceOnUse" color-interpolation-filters="sRGB"><feFlood flood-color="#fff" result="bg"/><feBlend in="SourceGraphic" in2="bg"/></filter><mask id="mask" x="528.13" y="-6876.76" width="322.72" height="32766" maskUnits="userSpaceOnUse"><g class="cls-81"/></mask><linearGradient id="linear-gradient" x1="721.25" y1="666.32" x2="659.3" y2="559.87" gradientUnits="userSpaceOnUse"><stop offset="0"/><stop offset="0.69" stop-color="#fff"/></linearGradient><filter id="luminosity-noclip-2" x="0" y="-6876.76" width="337.38" height="32766" filterUnits="userSpaceOnUse" color-interpolation-filters="sRGB"><feFlood flood-color="#fff" result="bg"/><feBlend in="SourceGraphic" in2="bg"/></filter><mask id="mask-2" x="0" y="-6876.76" width="337.38" height="32766" maskUnits="userSpaceOnUse"><g class="cls-80"/></mask><linearGradient id="linear-gradient-2" x1="201.88" y1="668.78" x2="137.15" y2="557.54" xlink:href="#linear-gradient"/><filter id="luminosity-noclip-3" x="374.86" y="-6876.76" width="25.95" height="32766" filterUnits="userSpaceOnUse" color-interpolation-filters="sRGB"><feFlood flood-color="#fff" result="bg"/><feBlend in="SourceGraphic" in2="bg"/></filter><mask id="mask-3" x="374.86" y="-6876.76" width="25.95" height="32766" maskUnits="userSpaceOnUse"><g class="cls-79"/></mask><linearGradient id="linear-gradient-3" x1="387.83" y1="238.2" x2="387.83" y2="423.21" gradientTransform="translate(51.85 -45.58) rotate(7.21)" gradientUnits="userSpaceOnUse"><stop offset="0.01"/><stop offset="1" stop-color="#fff"/></linearGradient><filter id="luminosity-noclip-4" x="463.81" y="-6876.76" width="24.26" height="32766" filterUnits="userSpaceOnUse" color-interpolation-filters="sRGB"><feFlood flood-color="#fff" result="bg"/><feBlend in="SourceGraphic" in2="bg"/></filter><mask id="mask-4" x="463.81" y="-6876.76" width="24.26" height="32766" maskUnits="userSpaceOnUse"><g class="cls-78"/></mask><linearGradient id="linear-gradient-4" x1="475.94" y1="238.2" x2="475.94" y2="423.21" gradientTransform="translate(993.53 719.37) rotate(173.37)" xlink:href="#linear-gradient-3"/><filter id="luminosity-noclip-5" x="377.18" y="-6876.76" width="109.09" height="32766" filterUnits="userSpaceOnUse" color-interpolation-filters="sRGB"><feFlood flood-color="#fff" result="bg"/><feBlend in="SourceGraphic" in2="bg"/></filter><mask id="mask-5" x="377.18" y="-6876.76" width="109.09" height="32766" maskUnits="userSpaceOnUse"><g class="cls-77"/></mask><linearGradient id="linear-gradient-5" x1="431.72" y1="238.2" x2="431.72" y2="423.21" gradientTransform="matrix(1, 0, 0, 1, 0, 0)" xlink:href="#linear-gradient-3"/><filter id="luminosity-noclip-6" x="528.13" y="602.02" width="322.72" height="19.45" filterUnits="userSpaceOnUse" color-interpolation-filters="sRGB"><feFlood flood-color="#fff" result="bg"/><feBlend in="SourceGraphic" in2="bg"/></filter><mask id="mask-6" x="528.13" y="602.02" width="322.72" height="19.45" maskUnits="userSpaceOnUse"><g class="cls-1"><path class="cls-2" d="M850.85,611.74c0,5.37-72.24,9.73-161.36,9.73s-161.36-4.36-161.36-9.73S600.37,602,689.49,602,850.85,606.37,850.85,611.74Z"/></g></mask><linearGradient id="linear-gradient-6" x1="721.25" y1="666.32" x2="659.3" y2="559.87" gradientUnits="userSpaceOnUse"><stop offset="0" stop-color="#97cbec"/><stop offset="0.69" stop-color="#ccc2f5"/></linearGradient><filter id="luminosity-noclip-7" x="0" y="602.02" width="337.38" height="19.45" filterUnits="userSpaceOnUse" color-interpolation-filters="sRGB"><feFlood flood-color="#fff" result="bg"/><feBlend in="SourceGraphic" in2="bg"/></filter><mask id="mask-7" x="0" y="602.02" width="337.38" height="19.45" maskUnits="userSpaceOnUse"><g class="cls-3"><path class="cls-4" d="M337.38,611.74c0,5.37-75.52,9.73-168.69,9.73S0,617.11,0,611.74,75.53,602,168.69,602,337.38,606.37,337.38,611.74Z"/></g></mask><linearGradient id="linear-gradient-7" x1="201.88" y1="668.78" x2="137.15" y2="557.54" xlink:href="#linear-gradient-6"/><filter id="luminosity-noclip-8" x="374.86" y="305.09" width="25.95" height="167.62" filterUnits="userSpaceOnUse" color-interpolation-filters="sRGB"><feFlood flood-color="#fff" result="bg"/><feBlend in="SourceGraphic" in2="bg"/></filter><mask id="mask-8" x="374.86" y="305.09" width="25.95" height="167.62" maskUnits="userSpaceOnUse"><g class="cls-5"><rect class="cls-6" x="385.41" y="304.73" width="4.85" height="168.34" transform="translate(-45.72 51.72) rotate(-7.21)"/></g></mask><linearGradient id="linear-gradient-8" x1="387.83" y1="238.2" x2="387.83" y2="423.21" gradientTransform="translate(51.85 -45.58) rotate(7.21)" gradientUnits="userSpaceOnUse"><stop offset="0.01" stop-color="#ffdd91"/><stop offset="1" stop-color="#fff"/></linearGradient><filter id="luminosity-noclip-9" x="463.81" y="304.57" width="24.26" height="167.78" filterUnits="userSpaceOnUse" color-interpolation-filters="sRGB"><feFlood flood-color="#fff" result="bg"/><feBlend in="SourceGraphic" in2="bg"/></filter><mask id="mask-9" x="463.81" y="304.57" width="24.26" height="167.78" maskUnits="userSpaceOnUse"><g class="cls-7"><rect class="cls-8" x="473.51" y="304.28" width="4.84" height="168.34" transform="translate(903.84 829.26) rotate(-173.37)"/></g></mask><linearGradient id="linear-gradient-9" x1="475.94" y1="238.2" x2="475.94" y2="423.21" gradientTransform="translate(993.53 719.37) rotate(173.37)" xlink:href="#linear-gradient-8"/><filter id="luminosity-noclip-10" x="377.18" y="308.12" width="109.09" height="22.79" filterUnits="userSpaceOnUse" color-interpolation-filters="sRGB"><feFlood flood-color="#fff" result="bg"/><feBlend in="SourceGraphic" in2="bg"/></filter><mask id="mask-10" x="377.18" y="308.12" width="109.09" height="22.79" maskUnits="userSpaceOnUse"><g class="cls-9"><polygon class="cls-10" points="467.17 330.9 448.91 312.83 431.14 330.78 413.49 313.31 396.32 330.66 377.18 311.71 379.52 309.35 396.29 325.95 413.46 308.6 431.11 326.07 448.88 308.12 467.15 326.19 483.9 309.27 486.26 311.61 467.17 330.9"/></g></mask><linearGradient id="linear-gradient-10" x1="431.72" y1="238.2" x2="431.72" y2="423.21" gradientTransform="matrix(1, 0, 0, 1, 0, 0)" xlink:href="#linear-gradient-8"/><linearGradient id="linear-gradient-11" x1="-343.38" y1="507.44" x2="-869.61" y2="507.44" gradientTransform="matrix(-1, 0, 0, 1, -161.43, 0)" gradientUnits="userSpaceOnUse"><stop offset="0" stop-color="#ff9f55"/><stop offset="1" stop-color="#ffd255"/></linearGradient><linearGradient id="linear-gradient-12" x1="-536.93" y1="507.44" x2="-691.24" y2="507.44" xlink:href="#linear-gradient-11"/></defs><g id="Layer_2" data-name="Layer 2"><g id="Layer_1-2" data-name="Layer 1"><g class="cls-11"><path class="cls-12" d="M850.85,611.74c0,5.37-72.24,9.73-161.36,9.73s-161.36-4.36-161.36-9.73S600.37,602,689.49,602,850.85,606.37,850.85,611.74Z"/></g><path class="cls-13" d="M734.12,596.23a3.45,3.45,0,1,0,3.44-3.45A3.45,3.45,0,0,0,734.12,596.23Z"/><polygon class="cls-13" points="811.76 592.81 810.89 595.27 773.99 583.84 775.76 578.86 811.76 592.81"/><rect class="cls-13" x="772.73" y="537.54" width="4.19" height="44.54" transform="translate(1549.65 1119.63) rotate(180)"/><polygon class="cls-13" points="737.56 592.81 738.43 595.27 775.33 583.84 773.71 578.55 737.56 592.81"/><polygon class="cls-13" points="763.56 595 763.56 597.86 775.33 583.84 773.71 578.55 763.56 595"/><path class="cls-13" d="M763.26,596.23a3.45,3.45,0,1,0,3.45-3.45A3.46,3.46,0,0,0,763.26,596.23Z"/><path class="cls-14" d="M722.18,584.24a22.47,22.47,0,0,1-.8,5.06c-.55,2-1.67,9.73-3.1,10.82s-6,4-5.36,6.89,1.25,5,6.23,3.26,8.29-2.74,9.25-7.11a27.39,27.39,0,0,1,3.67-8.34l3.6,8.94,1.89-.76s-2.86-9.65-2.62-10.51-1.31-8.54-7.32-10.44S722.18,584.24,722.18,584.24Z"/><path class="cls-14" d="M689,587.05a22.35,22.35,0,0,1-2.63,4.4c-1.27,1.65-5.19,8.41-6.92,8.88s-7.07,1.42-7.54,4.4-.71,5.11,4.56,5.34,8.72.55,11.23-3.14a27.29,27.29,0,0,1,6.52-6.36v9.63h2s.94-10,1.49-10.73,2-8.41-2.91-12.42S689,587.05,689,587.05Z"/><path class="cls-15" d="M742.5,456.13s-1.17-4.15-1.29-4.69-1.22-1.61-2.6-2.74a10.13,10.13,0,0,0-4-1.93,1.55,1.55,0,0,0-1.11.67,3,3,0,0,0-.55,1.41,1.85,1.85,0,0,0-1,1.47,1.59,1.59,0,0,0-.7,1.61,1.33,1.33,0,0,0-.65,1.31,11.65,11.65,0,0,1,1.4,1.6,25.59,25.59,0,0,0,5.42,4.24S740.81,461.59,742.5,456.13Z"/><path class="cls-16" d="M737.4,452.84a8.85,8.85,0,0,0-.39,2.31c.1.56-4,.64-4,.64S735.26,452.29,737.4,452.84Z"/><path class="cls-17" d="M783.51,463.27c-1.65-2.68-3.86-3.89-10.87,1s-5.36,3.89-7,5.43-9,5.38-9,5.38a65.89,65.89,0,0,1-6.36-7.3c-2.32-3.42-7.16-12.55-7.16-12.55l-6.8,5.06s13.2,23.93,16,25.69,11.06-1.19,15.39-3,8.9-4.18,10.87-4.67S787.82,470.25,783.51,463.27Z"/><rect class="cls-18" x="734.11" y="435.41" width="1.3" height="15.35" transform="translate(-78.36 169.17) rotate(-12.47)"/><path class="cls-19" d="M735,447.05s3.42,2.93,3,3.54a1.15,1.15,0,0,1-.92.59l.86,1.85s-.12,1.54-1.77,1c0,0,0,1.46-1.48.71,0,0-.41,1-1.18.74a15.11,15.11,0,0,1-2.89-2.2s-.31-.63.61-1.32a1.58,1.58,0,0,1,.71-1.62,1.67,1.67,0,0,1,.94-1.49s.1-1.92,1.72-2Z"/><path class="cls-15" d="M741.16,451.49a15.18,15.18,0,0,0-4-2.66c-.4-.13-.81-.19-1.08.13s-.15,1.11.8,2.06a11.45,11.45,0,0,1,1.73,2.61S739.83,454.32,741.16,451.49Z"/><path class="cls-20" d="M750.85,477.8s-1.38-5,.25-8.87c0,0-.63,4,1.13,6.86C753.5,477.85,750.85,477.8,750.85,477.8Z"/><path class="cls-21" d="M725.82,478.58s-3.7-27.41-10.15-39.36h9.48s10.62,18.72,8.63,37.62Z"/><path class="cls-15" d="M723.55,458.06s-1.08-2-1.35-2.68-1.32.49-1.16,1.33S723.55,458.06,723.55,458.06Z"/><path class="cls-15" d="M715.14,462.64a4.54,4.54,0,0,0,.62,1.36s.66.63,1.11,1.1a3.57,3.57,0,0,1,.32.38,8.63,8.63,0,0,0,1.74,2.12c.94.76,4.56,3.11,4.56,3.11L726,468l2.05-2.12s-1.73-6.49-2.53-7.3a2.4,2.4,0,0,0-.24-.22,10.94,10.94,0,0,0-2-1c-.16-.11-1.79-1-2.32-.82a1.83,1.83,0,0,0-1.22,1.29,4.32,4.32,0,0,0-1.86,1.53,2.7,2.7,0,0,0-1.56,1.82S715.1,461.79,715.14,462.64Z"/><path class="cls-15" d="M698.35,533.41l10.74,24.16,2.06,4.65,1.73,3.87c2.84,6.41,9.85,20.37,9.85,20.37s5.26.2,5.57-4.27c0,0-5.06-9.69-5.06-16.5s-.91-26.88-7.42-31.22C707.89,529.18,702.74,528.18,698.35,533.41Z"/><path class="cls-15" d="M756.29,506.61a7.33,7.33,0,0,1-2.44,1.63c-1.12.31-19.82,1.73-28.47,4.58s-20.13,4.67-22.26,7.11-5.7,15.86-5.6,18.4-7.59,45.38-8.55,48.72c-.51,1.78,7,1.1,7,1.1s10.61-25.31,12.88-30c4.16-8.59,4.37-19.11,5.9-20.74s18.5-5.29,28.26-5.29,31.62.82,34-.51,17-11,10.88-23.89S756.29,506.61,756.29,506.61Z"/><path class="cls-22" d="M714.12,515.93l15.43,29.73s4.67-11.06,12.81-13,40.61-.89,40.61-.89,14.91-18.85,2.14-28.74-27.66,1.56-27.66,1.56-3.08,3.34-4.57,3.41S739.46,507.81,714.12,515.93Z"/><path class="cls-15" d="M679.42,600.33s4.72,1.18,6.52,0,8-11.56,10-12.18c0,0-2-4-7-1.1C689,587.05,680.76,598.6,679.42,600.33Z"/><path class="cls-15" d="M718.28,600.12s4.82-.67,6.05-2.44,3.06-13.69,4.72-15c0,0-3.32-3-6.87,1.59C722.18,584.24,718.87,598,718.28,600.12Z"/><path class="cls-13" d="M808.31,596.23a3.45,3.45,0,1,0,3.45-3.45A3.46,3.46,0,0,0,808.31,596.23Z"/><path class="cls-15" d="M767.47,413c-3.73-.18-12,1.7-13.25,11.55a30.53,30.53,0,0,0,.95,4.75c.64,2.09-1.23,8.24-.74,8.54a13,13,0,0,0,2.5.69s2.17,6.73,4.53,6.67,11.3-1.9,15.51-10.27S782.48,413.76,767.47,413Z"/><path class="cls-15" d="M764.65,442.17s.29.94.62,2.34c.17.71.35,1.54.51,2.43.43,2.46.68,5.32,0,7.23,0,0,5.22,1.81,9.35-5.57,0,0-1.77-7.94.53-12.76S764.65,442.17,764.65,442.17Z"/><path class="cls-22" d="M754.22,424.58s5.71,5.13,11.74,4.72,10.11,7.25,10.11,7.25,9.13-11.45,1.77-20.71S752.92,413.09,754.22,424.58Z"/><path class="cls-15" d="M768.74,429.25c0-1.16,1.33-2.9,3.23-1.31s-.66,7.1-2.21,6.56S768.71,430.45,768.74,429.25Z"/><path class="cls-23" d="M765.27,444.51c.17.71.35,1.54.51,2.43a25.93,25.93,0,0,0,7.28-6.82C770.29,442.63,765.27,444.51,765.27,444.51Z"/><path class="cls-17" d="M751.12,472.7c1.1,5.09,4,5.36,3.82,9.12s-1.3,4.08.65,10a28.29,28.29,0,0,1,.88,3.52l.09.43c.12.69.23,1.38.32,2.06.18,1.26.3,2.49.39,3.61a7.47,7.47,0,0,1-1.93,5.18s19,11.41,32.1,9.8c0,0-3.38-14.21-5.25-19.1s-1.3-27.45.07-32.29c2-7.15-2-17.86-7.54-19.26l-8.57,4s-8.62,10.3-10.56,11.86S750,467.54,751.12,472.7Z"/><path class="cls-17" d="M779.43,451.84c-2.41-2-5.91-5.47-11,1.36s-8.82,11.21-9.92,13.2-10.7,15.84-10.7,15.84-5.1-4.73-8-6.95c-3.29-2.51-12.25-11.84-12.25-11.84L721.61,470s20.54,22.79,23.71,23.59,12.07-7.2,15.59-10.29,13.41-14.4,15.12-15.49S785.74,457.09,779.43,451.84Z"/><path class="cls-23" d="M709.09,557.57l2.06,4.65c2.31-7.41,2.12-19.8,2.12-19.8A70.86,70.86,0,0,1,709.09,557.57Z"/><rect class="cls-24" x="742.36" y="531.81" width="65.96" height="7.26" transform="translate(1550.67 1070.89) rotate(180)"/><path class="cls-24" d="M774,508.66s1.67,6.73-6.16,8.25-17.46,3.48-17.46,15.56h27.15Z"/><polygon class="cls-15" points="733.74 435.45 732.61 433.39 732.47 435.73 733.74 435.45"/><path class="cls-24" d="M808.31,539.07l23.06-96.91s-41.68-6.51-46.65,12.21-13.13,74.32-23.07,77.76S808.31,539.07,808.31,539.07Z"/><path class="cls-20" d="M754.7,488.6s.42,1.78.87,3.25l10.15-13.16Z"/><path class="cls-22" d="M780.12,428.32s-4,10.59-2.92,13.48c0,0-6.26-2.67-5.11-9.61S780.12,428.32,780.12,428.32Z"/><polygon class="cls-17" points="765.66 450.34 765.66 448.24 774.56 443.91 777.64 447.47 765.66 450.34"/><g class="cls-25"><path class="cls-26" d="M337.38,611.74c0,5.37-75.52,9.73-168.69,9.73S0,617.11,0,611.74,75.53,602,168.69,602,337.38,606.37,337.38,611.74Z"/></g><path class="cls-27" d="M174.73,153.3a11.31,11.31,0,0,1-5.88-3.93,8.52,8.52,0,0,1-1.72-7,51.21,51.21,0,0,0-.31-13.61,22.82,22.82,0,1,1,26.61,6.4,49.26,49.26,0,0,0-5.57,11.71c-1.08,4.9-6.59,7.89-12.29,6.65Zm15.51-59.23a21,21,0,0,0-21.82,33.68l.18.2,0,.27a53.68,53.68,0,0,1,.34,14.43v.07a6.68,6.68,0,0,0,1.37,5.51,9.58,9.58,0,0,0,5.63,3.46c4.72,1,9.24-1.34,10.09-5.26v-.07A51.46,51.46,0,0,1,192,133.91l.16-.25.27-.12a21,21,0,0,0-2.19-39.47Z"/><polygon class="cls-27" points="172.19 144.81 174.36 119.86 178.56 125.12 182.44 122.29 184.47 126.14 190.05 123.11 182.06 146.89 180.29 146.29 186.78 127.01 183.7 128.68 181.79 125.07 178.21 127.69 175.82 124.68 174.05 144.98 172.19 144.81"/><rect class="cls-27" x="167.25" y="151.21" width="16.19" height="6.52" transform="translate(36.69 -33.63) rotate(12.23)"/><rect class="cls-27" x="165.64" y="144.65" width="21.39" height="10.5" transform="translate(35.74 -33.94) rotate(12.23)"/><polygon class="cls-27" points="668.28 287.21 666.46 286.58 681.75 242.07 715.91 232.61 727.67 183.81 753.98 171.84 759.46 133.94 761.37 134.21 755.73 173.16 729.32 185.18 717.52 234.17 683.24 243.66 668.28 287.21"/><path class="cls-28" d="M720.66,230.09a5.14,5.14,0,1,1-7.24-.64A5.13,5.13,0,0,1,720.66,230.09Z"/><path class="cls-27" d="M720.64,238.07a6.1,6.1,0,1,1,.76-8.6A6.12,6.12,0,0,1,720.64,238.07Zm-6.6-7.88a4.18,4.18,0,1,0,5.88.52A4.16,4.16,0,0,0,714,230.19Z"/><path class="cls-28" d="M732.58,181.49a5.14,5.14,0,1,1-7.24-.64A5.14,5.14,0,0,1,732.58,181.49Z"/><path class="cls-27" d="M732.55,189.47a6.1,6.1,0,1,1,.77-8.6A6.11,6.11,0,0,1,732.55,189.47ZM726,181.59a4.17,4.17,0,1,0,5.88.52A4.17,4.17,0,0,0,726,181.59Z"/><path class="cls-28" d="M758.48,169.19a5.14,5.14,0,1,1-7.25-.65A5.14,5.14,0,0,1,758.48,169.19Z"/><path class="cls-27" d="M758.45,177.17a6.11,6.11,0,1,1,.77-8.6A6.11,6.11,0,0,1,758.45,177.17Zm-6.6-7.89a4.18,4.18,0,1,0,5.89.52A4.19,4.19,0,0,0,751.85,169.28Z"/><path class="cls-28" d="M686.64,240a5.14,5.14,0,1,1-7.25-.64A5.15,5.15,0,0,1,686.64,240Z"/><path class="cls-27" d="M686.61,248a6.1,6.1,0,1,1,.77-8.6A6.11,6.11,0,0,1,686.61,248ZM680,240.1a4.17,4.17,0,1,0,5.89.52A4.17,4.17,0,0,0,680,240.1Z"/><path class="cls-29" d="M578.91,184.81c-.35-71.23-68.7-128.64-152.67-128.23S274.5,115.08,274.85,186.31a112.25,112.25,0,0,0,13.47,52.58c0,.09,46.87,90.53,53.86,176.5.2,40.21,38.79,72.62,86.19,72.39s85.67-33,85.48-73.24c6.14-86.08,52.12-177,52.12-177h0A112.33,112.33,0,0,0,578.91,184.81Z"/><polygon class="cls-27" points="604.92 10.8 621.94 10.8 616.73 0 599.71 0 604.92 10.8"/><polygon class="cls-27" points="596.96 10.8 601.01 10.8 595.81 0 591.75 0 596.96 10.8"/><rect class="cls-27" x="246.15" y="20.73" width="43.72" height="3.06" transform="translate(536.01 44.52) rotate(180)"/><rect class="cls-27" x="246.15" y="26.51" width="43.72" height="12.88" transform="translate(536.01 65.9) rotate(180)"/><rect class="cls-27" x="225.61" y="43.72" width="25.79" height="1.93" transform="translate(477.02 89.37) rotate(180)"/><rect class="cls-27" x="225.61" y="46.49" width="25.79" height="5.21" transform="translate(477.02 98.2) rotate(180)"/><rect class="cls-27" x="297.05" y="4.21" width="1.92" height="36.1" transform="translate(596.02 44.53) rotate(180)"/><rect class="cls-27" x="176.97" y="223.63" width="34.44" height="6.24" transform="translate(388.38 453.49) rotate(180)"/><rect class="cls-27" x="176.97" y="220.71" width="34.44" height="1.17" transform="translate(388.38 442.6) rotate(180)"/><path class="cls-27" d="M622.53,216.48l-5.37-1.06c12.8-64.35,2-116.43-31.39-150.6-25.21-25.85-54.7-32.65-55-32.71L532,26.76c1.26.28,31.17,7.13,57.53,34C613.76,85.57,639.2,132.69,622.53,216.48Z"/><path class="cls-27" d="M259.87,297.57C208.43,200,240.59,147.06,242,144.85l4.63,2.92c-.32.52-31.74,52.74,18.1,147.24Z"/><path class="cls-28" d="M494.37,204.3A42.24,42.24,0,0,0,497,192.74l7.8-3-1.51-8.95-1.5-8.95-8.35-.26a42.63,42.63,0,0,0-6.29-10l3.4-7.62-7.39-5.26-7.39-5.26-6.08,5.71a42.61,42.61,0,0,0-11.56-2.65l-3-7.8-8.94,1.51-9,1.51L437,150A42.63,42.63,0,0,0,427,156.32l-7.62-3.4-5.26,7.39-5.26,7.39,5.71,6.09a42.46,42.46,0,0,0-2.65,11.55l-7.8,3,1.51,8.94,1.51,8.95,8.34.26a42.23,42.23,0,0,0,6.29,10.05l-3.4,7.62,7.39,5.26,7.39,5.26L439.2,229a42.54,42.54,0,0,0,11.55,2.65l3,7.8,8.94-1.51,8.95-1.5.26-8.35a42.23,42.23,0,0,0,10.05-6.29l7.62,3.4,5.26-7.39,5.26-7.39Zm-52.82,2.86a22.24,22.24,0,1,1,31-5.22A22.22,22.22,0,0,1,441.55,207.16Z"/><path class="cls-28" d="M412.41,252.79a26.73,26.73,0,0,0,1.67-7.31l4.93-1.89-.95-5.65-.95-5.66-5.28-.17a26.53,26.53,0,0,0-4-6.35l2.15-4.82-4.67-3.33-4.68-3.33-3.85,3.61a27,27,0,0,0-7.3-1.67l-1.89-4.93-5.66,1-5.66.95-.16,5.28a26.79,26.79,0,0,0-6.36,4L365,220.3,361.62,225l-3.32,4.68,3.61,3.84a27.2,27.2,0,0,0-1.68,7.31l-4.93,1.89,1,5.66.95,5.66,5.28.17a27.22,27.22,0,0,0,4,6.35l-2.15,4.82,4.68,3.33,4.67,3.32,3.85-3.61a27.2,27.2,0,0,0,7.31,1.68l1.89,4.93,5.65-.95,5.66-1,.17-5.28a27.28,27.28,0,0,0,6.36-4l4.82,2.15,3.32-4.68,3.33-4.67ZM379,254.61a14.07,14.07,0,1,1,19.62-3.31A14.08,14.08,0,0,1,379,254.61Z"/><g class="cls-30"><rect class="cls-31" x="385.41" y="304.73" width="4.85" height="168.34" transform="translate(-45.72 51.72) rotate(-7.21)"/></g><g class="cls-32"><rect class="cls-33" x="473.51" y="304.28" width="4.84" height="168.34" transform="translate(903.84 829.26) rotate(-173.37)"/></g><g class="cls-34"><polygon class="cls-35" points="467.17 330.9 448.91 312.83 431.14 330.78 413.49 313.31 396.32 330.66 377.18 311.71 379.52 309.35 396.29 325.95 413.46 308.6 431.11 326.07 448.88 308.12 467.15 326.19 483.9 309.27 486.26 311.61 467.17 330.9"/></g><path class="cls-36" d="M477.13,533.49l-97.32.48a19.56,19.56,0,0,1-19.66-19.46l-.19-38.3,136.44-.68.19,38.3A19.58,19.58,0,0,1,477.13,533.49Z"/><path class="cls-37" d="M488.9,509.9H367.34A29.38,29.38,0,0,1,338,480.52V416.76H518.27v63.77A29.36,29.36,0,0,1,488.9,509.9Z"/><rect class="cls-38" x="265.44" y="456.58" width="325.21" height="101.72"/><polygon class="cls-39" points="590.65 558.3 590.65 456.57 472.3 456.57 408.69 557.15 590.65 558.3"/><rect class="cls-40" x="271.82" y="410.01" width="3.96" height="179.81"/><path class="cls-41" d="M170.12,334.88h116a7.08,7.08,0,0,1,7.08,7.08V553.06a7.07,7.07,0,0,1-7.07,7.07h-116a7.08,7.08,0,0,1-7.08-7.08V342a7.08,7.08,0,0,1,7.08-7.08Z"/><rect class="cls-28" x="166.62" y="338.51" width="123.02" height="212.83" rx="6.99"/><rect class="cls-40" x="208.73" y="333.18" width="38.79" height="8.76"/><path class="cls-42" d="M192.31,384.06a33.28,33.28,0,0,1,33.24-33.24v1.49A31.72,31.72,0,1,0,257,379.4l1.47-.22a33.24,33.24,0,1,1-66.12,4.88Z"/><path class="cls-15" d="M150.1,488.83a7.72,7.72,0,0,1,1,2.65,12.52,12.52,0,0,0,1.23,3.14,30.22,30.22,0,0,1,1.49,5.23c0,.37-.82,2.74-.71,3.5s.56,2.25-.12,2.35-1.45-1.13-1.45-1.13a1,1,0,0,1-.51,1,1.72,1.72,0,0,1-1.72.06s-.41.76-.93.87a2.09,2.09,0,0,1-1.7-.23,2,2,0,0,1-1.29.41,1.69,1.69,0,0,1-1.43-.89s-1.28.26-1.65-.34a5.59,5.59,0,0,1-.46-1.77,20.48,20.48,0,0,1,1.62-8.93,7.93,7.93,0,0,0-.42-7Z"/><path class="cls-19" d="M151.72,504.12s.11-4.38-1-5.31-1.29.64-1.29.64.16-1.56-1.1-1.77-1.31,1.64-1.31,1.64a1.22,1.22,0,0,0-1.53-.95c-1.32.24-1,1.78-1,1.78s-1.26-1.51-2.08-.06a6.7,6.7,0,0,0-.13,5.36s.45.69,1.71.37a1.77,1.77,0,0,0,2.75.5s1.95,1.07,2.65-.63C149.34,505.69,151.63,506.58,151.72,504.12Z"/><path class="cls-27" d="M165,425.75s-7.5,25-10,34.2c-.79,2.89-2.72,30.49-3,31.6s-9.85,2.64-9.85,2.64,1.15-34.53,1.26-36.42,10.49-40.44,13.51-41.81c2.26-1,3.45-.18,6.31,1.94C167.1,420.87,165,425.75,165,425.75Z"/><rect class="cls-43" x="236.79" y="385.02" width="20.5" height="1.52" transform="translate(-170.84 198.07) rotate(-33.18)"/><path class="cls-44" d="M257.87,386a4.6,4.6,0,0,1-.44,1.35s-.57.67-.94,1.18a4.33,4.33,0,0,0-.26.39,8.28,8.28,0,0,1-1.42,2.21c-.82.82-4,3.46-4,3.46l-2.73-2.31L245.25,391s1.58-6.89,2.26-7.75a1.59,1.59,0,0,1,.2-.24,10.76,10.76,0,0,1,1.78-1.22c.13-.11,1.59-1.16,2.11-1a1.76,1.76,0,0,1,1.31,1.09,4.23,4.23,0,0,1,1.94,1.25,2.61,2.61,0,0,1,1.68,1.57S257.81,385.17,257.87,386Z"/><path class="cls-45" d="M158.87,596.33s-.69,4.74-.77,5.45-7.6-.42-7.6-.42l-.61-5.64S157.93,595.66,158.87,596.33Z"/><path class="cls-46" d="M158.18,601.18a20.18,20.18,0,0,0,4.68,4.1c2.31,1.25,5.93,1.74,7.29,3,1,.93,3.58,4.94-6,4.86s-14.17.56-15.2-1,1.48-11.34,1.48-11.34S152.71,601.67,158.18,601.18Z"/><path class="cls-45" d="M212.72,596.33s-.69,4.74-.77,5.45-7.6-.42-7.6-.42l-.61-5.64S211.78,595.66,212.72,596.33Z"/><path class="cls-46" d="M212,601.18a20.18,20.18,0,0,0,4.68,4.1c2.31,1.25,10.78,2.27,12.14,3.56,1,.93,2.62,4.68-10.84,4.33-9.56-.25-14.18.56-15.2-1s1.48-11.34,1.48-11.34S206.43,601.73,212,601.18Z"/><path class="cls-46" d="M165.09,474.46s-7.06,11.22-6.53,21.37S156,517,154.93,527.63c-1.18,11.81-6,39.77-6.19,46.09s.75,26.49.75,26.49l9.69.23s8.13-48.88,10.24-53.87S182,506,182.33,502,165.09,474.46,165.09,474.46Z"/><path class="cls-46" d="M202.27,476s5.32,27.8,6,34,1.17,30,1.52,33.92,3.28,50.65,4.22,56.53H201.64s-9.51-34.09-9.51-50.22-7.34-35.05-12.08-45.7-15.6-10.89-18.51-30.63C161.54,473.89,198.32,469.72,202.27,476Z"/><path class="cls-15" d="M176.88,380.14s9.47-3.54,13.84,3.67,3.95,21.66-.82,23.44-12,.85-14.4-3.67-4.66-11-4.55-15.4S174.39,381.4,176.88,380.14Z"/><path class="cls-15" d="M188.87,407.58s-.4,2.56.25,3.82-12.28,1.29-12.28,1.29a83.71,83.71,0,0,0-3-12.65C171.81,394.25,188.87,407.58,188.87,407.58Z"/><path class="cls-46" d="M173.8,400s.9,1.47,4.54.9,8.09-5.42,9.61-5.95,1.54-1.43,1.54-1.43l.95,1.4,1.61.1s-1.47-4.34.75-6.11-2.3-14-14-9.95c0,0-9,2.48-8.65,7.58S171.8,397.5,173.8,400Z"/><path class="cls-47" d="M189.89,411.25s0-2.41-1.13-2.64-12-1.29-13.39-.76v2.8S178,412.24,189.89,411.25Z"/><path class="cls-15" d="M189.24,391.71c-.2-.86-2.38-3.3-3.21-.68s1.26,6.14,2.43,5.84S189.76,393.88,189.24,391.71Z"/><path class="cls-27" d="M208,414.89c-7.52-1-18.13-3.64-18.13-3.64l-14.52-.6S162,413.59,156.79,416c-.5.22-.5,11.89-1.87,15l4.35,9.18s2.52,18.19,3,26.28c.24,3.71-5.19,34.82-5.19,34.82A101,101,0,0,0,172.85,504c9.91,1.09,34.68-.4,34.83-1.57s-4.79-43.59-5-45.79c-.34-3.37,1.16-21.29,1.16-21.29,2.29-1.78,22.39-11.11,27.87-16,1.46-1.31,7.65-7.34,9.41-9.42,6.24-7.37,11.35-13.69,12-15.05.71-.78-7-5-7.68-5.19s-8.79,10.84-12,14.35a90.76,90.76,0,0,1-7.46,5.94S212.72,415.16,208,414.89Z"/><path class="cls-46" d="M174.18,381s-12.09.94-.38,19.05Z"/><polygon class="cls-48" points="256.04 380.8 257.03 379.29 255.2 379.53 256.04 380.8"/><polygon class="cls-27" points="843.47 349.22 786.96 349.22 786.96 390.17 786.96 398.8 795.58 390.17 843.47 390.17 843.47 349.22"/><path class="cls-49" d="M63.54,601.33a34.39,34.39,0,0,1-2.89,4.56c-1.14,1.29-5.51,3.6-5.53,7.44,0,4.16,7.36,3,10.25,2.86s3.11-2.38,4.33-4.74,2.44-2,2.67-3.86-1.18-6.26-1.18-6.26Z"/><path class="cls-50" d="M107.31,490.32s-8.14-19-9.12-23.64c-.44-2.11-1.67-7.37-2.44-11.69-.26-1.43-.47-2.89-.65-4.33h0c-.73-5.73-.91-11-.91-11S89.86,424.88,99.13,424a22.79,22.79,0,0,1,3.41,1.4c1.56,3.64,2.17,12.93,2.23,14.94,0,1.64,2.44,18.11,2.47,18.69.07,1.13,2.53,7.07,3.85,11.48,2.89,9.59,4.4,17.16,4.4,17.16Z"/><rect class="cls-51" x="88.86" y="457.4" width="41.75" height="36.52"/><rect class="cls-52" x="115.95" y="476.22" width="2.32" height="11.23"/><rect class="cls-52" x="119.18" y="479.18" width="2.32" height="8.28"/><rect class="cls-52" x="122.39" y="474.82" width="2.32" height="12.63"/><path class="cls-15" d="M121,491.67s-.24,4.92-2.88,5.77a9,9,0,0,1-6.75-.65c-1.21-.75-4.28-2.92-3.14-4.28C111.92,488.14,121,491.67,121,491.67Z"/><path class="cls-15" d="M119.67,496.22s3.3.24,3.12-1.16-2.56-.85-2.56-.85Z"/><rect class="cls-52" x="105.86" y="478.9" width="2.32" height="8.55"/><rect class="cls-52" x="109.16" y="478.04" width="2.32" height="9.41"/><rect class="cls-52" x="112.51" y="479.83" width="2.32" height="7.62"/><rect class="cls-52" x="102.43" y="479.83" width="2.33" height="7.62"/><path class="cls-52" d="M94.24,474.2l.07.09-.1.07L91.72,476l-.06-.1,2.49-1.68Z"/><path class="cls-52" d="M103.22,474.68s0,.07,0,.11h-.11L96,473.93h-.11s0-.07,0-.11H96l7.13.85Z"/><path class="cls-52" d="M110.23,469.35l-.09.07-5.29,4.8-.08.08-.08-.09.09-.07,5.29-4.8.08-.07Z"/><path class="cls-52" d="M118.87,468.72v.06h-7.16v-.12h7.16Z"/><path class="cls-52" d="M125,463l-4.59,5-.08.09a.3.3,0,0,0-.08-.08l.08-.08,4.58-5Z"/><path class="cls-52" d="M95,472.77a1,1,0,0,0-1,1,.94.94,0,0,0,.14.5l.06.1a1,1,0,0,0,.79.39,1,1,0,0,0,1-.82.41.41,0,0,0,0-.11s0,0,0-.06A1,1,0,0,0,95,472.77Zm.86,1.15a.87.87,0,0,1-1.55.37l-.07-.09a.93.93,0,0,1-.12-.44.88.88,0,1,1,1.75,0v.05S95.86,473.88,95.86,473.92Z"/><path class="cls-52" d="M104.85,474.22l-.07-.08a1,1,0,0,0-1.67.53s0,.07,0,.11v.06a1,1,0,1,0,2,0A1,1,0,0,0,104.85,474.22Zm-.77,1.5a.88.88,0,0,1-.87-.88v0s0-.07,0-.11a.88.88,0,0,1,1.47-.47l.08.09a.83.83,0,0,1,.19.54A.88.88,0,0,1,104.08,475.72Z"/><path class="cls-52" d="M111.82,468.66a1,1,0,0,0-2,.06,1,1,0,0,0,.22.62l.07.08a1,1,0,0,0,1.68-.64v-.12Zm-1,.94a.89.89,0,0,1-.61-.25l-.08-.08a.88.88,0,1,1,1.56-.61v.12A.88.88,0,0,1,110.84,469.6Z"/><path class="cls-52" d="M120.45,468l-.08-.07a1,1,0,0,0-1.61.7v.12a1,1,0,0,0,2-.06A1,1,0,0,0,120.45,468Zm-.71,1.57a.88.88,0,0,1-.87-.82v-.12a.88.88,0,0,1,1.42-.62.3.3,0,0,1,.08.08.82.82,0,0,1,.25.6A.88.88,0,0,1,119.74,469.6Z"/><path class="cls-15" d="M41.37,491s-1.43,2.5-3.13,2.45a10.17,10.17,0,0,0-4,1.18c-.8.38-3.69.7-3.21,1.64s4.77-.33,5.72-.42-1.52,3.24-1.48,4.17,6.05,4.31,7.48,1.84,1.24-5.94,1.58-6.33a17.55,17.55,0,0,0,1.11-1.76Z"/><path class="cls-15" d="M35.48,499.4s-3.84,7.82-3.64,8.53.66.86,1.06.15,3.94-7.47,3.94-7.47-2.92,9.93-2.89,10.55c0,.36.88.72,1.13.35s3.73-10.07,3.73-10.07-2.71,9.27-2.52,9.78a.72.72,0,0,0,1.3-.1c.26-.67,3.28-9.16,3.28-9.16s-1.52,6.85-1.09,7.18c.26.21,1,.54,1.33-1.23S42.69,502,42.69,502Z"/><path class="cls-49" d="M107.54,601s3.56,4,7.18,4.81,6.14,1.9,6.17,4.18-10.41,3.79-14.55,1.49c-6.17-3.43-6.8-2.4-7.48-4.11s.82-6.31.77-6.86S107.54,601,107.54,601Z"/><path class="cls-53" d="M107.14,599.05a16.84,16.84,0,0,1,.4,1.9c-.07,0-8.15,1-7.91-.49.2-1.21.49-2.53.49-2.53Z"/><path class="cls-53" d="M71.09,600.08a14.75,14.75,0,0,1,.27,1.82c-.06,0-8.19,1.49-8.14,0a6.93,6.93,0,0,1,.75-2.54Z"/><path class="cls-46" d="M99.79,487.53s2.94,28.53,4.47,38.3c1.79,11.42,2.39,20.86,2.89,26.77.63,7.43.75,44,1.19,46.18s-9.74.6-9.74.6-5-47.79-6.87-55.7C90,536.3,83.55,504.56,82,506.58s-3.55,37-4.73,42.85-4.74,51.34-4.74,51.34-8.1,1.61-10.25-.21c0,0-1-39.23-.23-50.14.28-4.15-4.87-49.81,1.74-68.19C67.24,472.52,99.79,487.53,99.79,487.53Z"/><path class="cls-54" d="M42.45,491.55s2.21,2.55,4.28,2.17,10.76-26.85,10.84-32.15c.07-4.29,2.42-15.64,2.42-15.64V446c.23.84,3.4,12.62,3.51,18.27.12,5.87-.35,26.06-.35,26.06L71,492.43l25.11.23,5.74-2.34s-.63-6.49-.86-11.05c-.15-2.9-.71-8.09-.57-13.14a46.6,46.6,0,0,1,.44-7.63c.06-10.12.67-20.15.67-20.15.34-4.6.58-8.89.71-12.9-1.11-.58-2.44-1.27-3.5-1.77-3.3-1.58-7.9-3.69-10.85-5-1.72-.8-3.41-1.38-3.41-1.38s-11.79-1.12-12.75-1.07a31.73,31.73,0,0,0-3.7,1.27c-4.19,1.59-12.24,4.82-13.53,5.74-1.88,1.35-5.86,33.36-6,35.6C48.16,462.84,42.45,491.55,42.45,491.55Z"/><path class="cls-55" d="M101.11,488.18s-17.25,1.47-32.36,0v5s22.5,2.14,33.12-.95Z"/><path class="cls-50" d="M86.4,418s2.8,6.59,4.91,21.32c.81,5.66,2.31,15.18,3.4,24.91h0c.86,7.66,2.82,15.53,3.44,21.39.64,6.08,2.59,24,2.59,24l4.72-3c.67-.62,1.61-1.43,1.34-2.3-1.3-4.19-3.78-18-5.25-30.11v0c-.07-.58-.14-1.15-.2-1.73a.28.28,0,0,1,0-.09c-.28-2.41-.51-4.73-.67-6.84a21,21,0,0,1,.21-4.77c.65-10.83,1-22.25,1-22.25.35-4.68.55-9.05.68-13.12C102.54,425.38,87.74,418.39,86.4,418Z"/><path class="cls-50" d="M57.93,461.82c-.36,4.91-9.35,33.61-10.55,33.48a88.57,88.57,0,0,1-9.15-2.44s8.68-29.18,9-32.25c.22-2.24,3.79-35.81,5.67-37.16C54,422.68,62,419.82,66,418.26l3.75-1.42c.84.93,6.69,7.27,8.73,31.36.35,4.06-.74,12.65-1.46,19.67-.78,7.48-1.63,13.32-2.26,19.58-1.24,12.34-2.1,22.15-2.1,22.15l-12.28-5.46c-2-1-4.73-5.08-4-7.17,2.84-7.94,6.42-21.52,6.42-28.5,0,0-1.37-17.07-2.46-20.82A105.85,105.85,0,0,0,57.93,461.82Z"/><path class="cls-15" d="M79.05,386.24s12.3-4.55,11.54,11.8-3.66,18-11.75,15.73S70.07,401.16,69,396.2,75,387,79.05,386.24Z"/><path class="cls-56" d="M70.72,404.31s0-4.37,1.78-4.77,2.76,2.12,2.76,2.12l1.46-.08s-1.31-4.42.42-5.44,12.09-.12,13.39-1.61-.58-10.34-3.41-11.21-10.54-2.63-15.45,1.73c0,0-4.26.09-4.43,3.56S69.24,401.94,70.72,404.31Z"/><path class="cls-15" d="M74.56,397.68c-.54-1.44-3.61-1.26-3.3,1s2.85,5.8,3.87,5.14S75.31,399.67,74.56,397.68Z"/><path class="cls-57" d="M72.84,417.45s1.09-.9-.47-9.08C72,406.18,83.92,411,83.92,411s-.1,1.8-.08,3.6c0,.8,0,1.61.09,2.26a7.91,7.91,0,0,0,.44,1.58C84.91,419.67,77.27,420.62,72.84,417.45Z"/><path class="cls-23" d="M83.93,416.84c-7.18-.1-9.49-5.56-9.56-5.73,3.78,3.84,9.47,3.47,9.47,3.47C83.84,415.38,83.87,416.19,83.93,416.84Z"/><path class="cls-58" d="M81,421.69l2.18,2.92a2.64,2.64,0,0,1-3.54.45Z"/><path class="cls-58" d="M82.6,424.73s8.08,31.1,6.41,55.32l-2.72,4.78-2.54-5s-.7-43.31-2.91-55.17Z"/><path class="cls-57" d="M83.37,419,81,421.69S77.3,421,76.2,419,83.37,419,83.37,419Z"/><path class="cls-59" d="M83.91,416.57s-.27,2.08-2.87,5.12l2.83,3.81,1.54-7.9Z"/><path class="cls-59" d="M73.19,414.45s4.07,5.74,7.85,7.24L79.28,426l-8-9.72Z"/><polygon class="cls-60" points="667.56 602.44 657.62 536.3 659.53 536.01 669.48 602.15 667.56 602.44"/><polygon class="cls-60" points="655.42 602.44 645.47 536.3 647.39 536.01 657.33 602.15 655.42 602.44"/><polygon class="cls-60" points="595.6 602.44 593.68 602.15 603.63 536.01 605.55 536.3 595.6 602.44"/><path class="cls-61" d="M660.73,537l7.79-82s-13.62-1.78-21.86-1.34L634.29,537Z"/><rect class="cls-61" x="634.29" y="532.81" width="26.44" height="4.16"/><path class="cls-61" d="M617,533.64l-4.14-78.11s34.49-3.74,55.67-.52Z"/><path class="cls-62" d="M644.52,430.24s5.33-15.62-4.83-20.46-18.79,2.16-20.42,6-1.2,10.67.19,15.47,1.19,12.11-1.83,14.55-6.77,6.51-6.58,14.77c.12,5.13,20.17-13.11,20.17-13.11Z"/><path class="cls-63" d="M631,598.27s-.31,11,1.27,11.7,7.54-3.17,10.17-7-3.3-12.63-4.27-17.5c-.41-2-5-5.71-7.3-4.66a11,11,0,0,0-3.91,3.75S632.67,588.53,631,598.27Z"/><path class="cls-64" d="M626.92,584.59a61.35,61.35,0,0,1,3,6.69c1,2.92,1.2,11,1.83,11.57s5.63-2,6.3-5-1.37-9.08-3.29-12.26a19.76,19.76,0,0,0-3.89-4.77S627.42,581.51,626.92,584.59Z"/><polygon class="cls-63" points="638.13 585.5 643.5 593.34 642.48 594.03 638.33 587.98 638.13 585.5"/><path class="cls-64" d="M618.8,498.84s2.62,4.43,0,7.66-20.29,12.1-20.16,17.22,3.37,13.15,4.53,15.18,5.45,10.47,7.68,15.41,15.11,28.58,17.63,33.9,1-21.31,1-21.31l-12.89-37.77,30.1-29.32S643,491.7,618.8,498.84Z"/><path class="cls-27" d="M630.25,448.81s-8.36,1.86-11.67,3.79-10.68,10.85-10.68,14.68,32.2,7.42,32.2,7.42L646.2,497s16.27-4,18.21-7.26S658,463,656.84,458s-7.25-8.27-14-9.23A47,47,0,0,0,630.25,448.81Z"/><path class="cls-15" d="M650,499.57s-.59,3.81,1,5.43,8.68,11,4.9,20.27c-3.47,8.49-10.2,8.33-10.2,8.33H635.24s3,15.29,2,25.36-5.57,33.08-5.67,34.24-4.41,4.8-5.66,3c0,0-.12-13.86-.8-19.09s-3.56-26.15-4.43-29.25-6-12.49-6-13.46-5-16.13,5.93-20S635.47,499.65,650,499.57Z"/><path class="cls-65" d="M620.77,606.84s-7.18,8.38-6.38,9.89,7.86,2.27,12.29,1,5.38-11.89,7.69-16.28c1-1.85-.33-7.61-2.75-8.22a11.07,11.07,0,0,0-5.4.46S628.22,600.34,620.77,606.84Z"/><path class="cls-15" d="M626.22,593.66a60,60,0,0,1-1.9,7.06c-1.05,2.9-6,9.31-5.86,10.15s5.62,2,8,.08,4.65-7.91,5.14-11.59a19.87,19.87,0,0,0,0-6.16S628.55,591.57,626.22,593.66Z"/><polygon class="cls-65" points="634.37 601.41 633.62 610.89 632.38 610.79 632.97 603.47 634.37 601.41"/><path class="cls-27" d="M655.86,525.27c-3.28,8.61-10.2,8.33-10.2,8.33H635.24s-4.35-6.88-15-8.07a31.81,31.81,0,0,0-8,.19l-.11,0c-14.14,2.09-11.41,7.28-11.37,7.42-1.17-2.87-2.41-7.43-2.11-9.89,1.36-11.19,17.53-13.54,20.16-16.77s0-7.66,0-7.66c24.22-7.14,27.86,1,27.86,1,1.06-.15,3.78-1.72,4.94-1.72,0,0,1.21,2.64,2.06,5C654.42,505.23,659.42,515.94,655.86,525.27Z"/><polygon class="cls-66" points="645.81 463.65 649.4 496.97 602.23 496.97 598.64 463.65 645.81 463.65"/><rect class="cls-66" x="645.27" y="493.98" width="7.88" height="3"/><rect class="cls-67" x="569.72" y="496.97" width="150.23" height="4.54"/><path class="cls-15" d="M635.47,412.45s10.57,3.12,9,17.79-8.41,13.91-9,14-8.85.64-11.43-17.15S635.47,412.45,635.47,412.45Z"/><path class="cls-15" d="M640.5,441.56s-.56,4.86.38,7.88-12.31,3.1-12.31.62c0-2.83,1.36-5.18.09-10S640.5,441.56,640.5,441.56Z"/><path class="cls-62" d="M632.74,419s5.74,9.13,11.78,11.25c0,0,3.3-15.33-10.32-18.54s-11.5,15.48-10.48,20.47A40.27,40.27,0,0,1,632.74,419Z"/><path class="cls-23" d="M630.23,442.18a7.15,7.15,0,0,0,9.53.46s-.44,2.78-4.29,3.14S630.23,442.18,630.23,442.18Z"/><path class="cls-68" d="M625,417.61s3-5.85,8.13-6.12,8.15,4.17,8.15,4.17a8.69,8.69,0,0,0-8.14-5C627,410.68,625,417.61,625,417.61Z"/><path class="cls-15" d="M642.23,448.74S642,458.89,634,459.19s-6.37-9.74-6.37-9.74S633.51,447.07,642.23,448.74Z"/><rect class="cls-69" x="716.61" y="501.51" width="3.34" height="114.5"/><rect class="cls-69" x="569.72" y="501.51" width="3.34" height="114.5"/><path class="cls-28" d="M447.24,521.54a31.69,31.69,0,0,0-4.84,5.68c-2.29,3.44-8.38,3.62-8.64,8.31s8.27,4.84,12.75,3.31,5.16-6.11,7.87-7.26,4.12-2.07,3.91-4.31a27.46,27.46,0,0,0-1.71-5.87,18.36,18.36,0,0,1-2.67.65A22,22,0,0,1,447.24,521.54Z"/><path class="cls-27" d="M478,394.37s-1.72,10.21-3.11,16.95h0a39.4,39.4,0,0,1-1.38,5.59c-.39.86-3.62,4.32-7.56,8.38-6.92,7.13-16.07,16.1-16.07,16.1l-3.58-6.79s8.13-9.52,13.63-15.88c2.55-2.94,4.54-5.2,4.91-5.52,1.15-1,2.49-11.18,4.36-19.55a33.72,33.72,0,0,1,5.64-13Z"/><path class="cls-15" d="M465.91,425.29c-6.92,7.13-16.07,16.1-16.07,16.1l-3.58-6.79s8.13-9.52,13.63-15.88A11.59,11.59,0,0,1,465.91,425.29Z"/><path class="cls-28" d="M510.3,518.74s2.35,2.6,3.74,4.18,6.72,4.39,6.74,9.07c0,5.08-3.92,4.63-7.44,4.45a9.74,9.74,0,0,1-7.87-5.49c-1.49-2.88-5.43-3.63-5.71-6s1.83-6.49,1.83-6.49Z"/><path class="cls-70" d="M502,514.19l-.45,4.32s7.35,3.2,8.71.23L510,514.9Z"/><path class="cls-70" d="M447.64,518.42l-.4,3.12a15.42,15.42,0,0,0,9.34-.14l.1-2.78Z"/><path class="cls-27" d="M510.72,440c.25.9-47.07,0-47.07,0s13.09-9.53,13.94-12.07-3.33-17.82-3.88-22.79c-.43-4-1.53-21.76,1.09-24.48s12.61-5.82,12.61-5.82l14.38.54a23.22,23.22,0,0,1,4.07,1.28c1.7.79,11.4,4.24,13,9.09s-9.68,20.44-9.68,20.44,0,.7,0,1.85h0c-.05,1.53-.11,3.85-.17,6.38-.08,3.27-.14,6.86-.14,9.49A93.28,93.28,0,0,0,510.72,440Z"/><path class="cls-24" d="M510.72,440s6.43,9.45,6.52,15.9-2.38,24.35-2.56,27.89-3.52,33.09-3.52,33.09-2.57,2.39-10.3-.61c0,0-1.71-28-1.89-31s-.18-16.82-1.91-18.82-12.17-8.27-13.53-9.45-25.12,4.49-27.61,5.14c-6.44,1.67-3.51,12.88-2.08,17.91,2.39,8.41,4.47,38.78,4.47,38.78s-4.59,1.95-12.28.3c0,0-15.09-54.84-15.58-60.29s-.72-14.45,36.48-21.28Z"/><path class="cls-15" d="M491.36,343.61s-12.49-2.82-9.64,12.89,5.86,16.95,13.39,13.7S502,356.88,502.34,352,495.34,343.78,491.36,343.61Z"/><path class="cls-15" d="M488.05,378.89s5.53,5.86,14.27.53c0,0-2-12.7-.93-18.89s-11.4,9.59-11.4,9.59c.17.08.27.68.3,1.51a17.64,17.64,0,0,1-.13,2.52C489.9,376.21,489.26,378.38,488.05,378.89Z"/><path class="cls-15" d="M498.05,354.42c.17-1.39,2.9-1.89,3.13.18s-1.25,5.73-2.29,5.37S497.82,356.33,498.05,354.42Z"/><path class="cls-71" d="M501.73,360s-.32-4.95-2.13-5.11-2.08,1.84-2.08,1.84l-1.83.35s.58-4.34-1.23-5.1-11.69,2.39-13.14,1.11-.77-10.07,1.85-11.27,9.86-3.91,15.17-.32c0,0,4.13-.47,4.74,2.87S502.86,357.53,501.73,360Z"/><path class="cls-23" d="M490.16,374.15c9-2.78,9.69-8.2,9.7-8.29-3,5.1-9.57,5.77-9.57,5.77A17.64,17.64,0,0,1,490.16,374.15Z"/><path class="cls-15" d="M506,376.74s-6.6,13.14-17.27,12.29-1.82-14-1.33-14.18S498.35,372.13,506,376.74Z"/><path class="cls-27" d="M458.24,439.34s32.68,4,52.48.67l-37.83-4.73S472.66,436.25,458.24,439.34Z"/><path class="cls-15" d="M482.68,433.79,480.25,435s.55,3.86,1.88,5l2.74-.69S484.3,435.13,482.68,433.79Z"/><path class="cls-27" d="M520.49,425.88c-.48.56-6.91,3.14-14.17,5.94h0c-9.91,3.82-21.09,7.43-21.09,7.43l-2.55-5.46s11.71-6.36,19.63-10.82c3.73-2.11,6.63-3.8,7-4.18,1.28-1.22,1.6-3.16.67-6.55s-3.09-19-3.33-20.78.6-6.67,5.15-6.91,6.86,1,6.86,1,1.14.47,2,11.5S521.64,424.54,520.49,425.88Z"/><path class="cls-72" d="M509.1,408.05h0c-.05,1.53-.11,3.85-.17,6.38-4.44-10.87-1.87-19.55-1.83-19.7C506.62,397.68,509.06,407.9,509.1,408.05Z"/><path class="cls-73" d="M474.85,411.32h0a39.4,39.4,0,0,1-1.38,5.59c-1.51-7.33-.15-16.72-.15-16.72A95.43,95.43,0,0,0,474.85,411.32Z"/><path class="cls-15" d="M506.32,431.82h0c-9.91,3.82-21.45,7.55-21.45,7.55l-2.19-5.58s11.71-6.36,19.63-10.82C502.31,423,505.19,424.37,506.32,431.82Z"/><polygon class="cls-74" points="481.98 439.69 435.54 439 458.98 450.91 481.98 439.69"/><polygon class="cls-75" points="458.98 450.91 481.98 442.01 481.98 439.69 457.16 448.64 458.98 450.91"/><path class="cls-15" d="M480.78,435.11s-2.91-.45-4.91-.92c-1.55-.36-5.41.14-6.4,1.13s-4.1,7.94-4.69,8.36.3,1.41,1.34.91c0,0,.95,3,3.3,1.9s3.95-3.62,5.18-4.05S483,439.8,483,439.8,482.62,434.37,480.78,435.11Z"/><path class="cls-15" d="M470.18,434.87a20.69,20.69,0,0,0-2.35,1.3c-.48.4-2.45,1.88-2.93,2.23s.72,1.33,4.24-.2S470.18,434.87,470.18,434.87Z"/><polygon class="cls-76" points="458.98 450.91 445.17 413.2 400.63 413.92 413.8 448.68 458.98 450.91"/><path class="cls-69" d="M430.92,429.88c1.36,2.72.95,5.68-.92,6.61s-4.48-.51-5.84-3.23-.94-5.68.92-6.61S429.56,427.17,430.92,429.88Z"/></g></g></svg>