<svg xmlns="http://www.w3.org/2000/svg" width="32.214" height="23.012" viewBox="0 0 32.214 23.012"><path id="discord" fill="#fff" d="M29.821,10.877A15.538,15.538,0,0,0,22.5,8l-.357.7a14.22,14.22,0,0,1,6.947,3.612A21.833,21.833,0,0,0,18.107,9.438,21.833,21.833,0,0,0,7.125,12.315,14.528,14.528,0,0,1,14.072,8.7L13.714,8a15.437,15.437,0,0,0-7.321,2.877S2.644,16.217,2,26.7a13.963,13.963,0,0,0,9.518,4.315l1.2-1.571a14.69,14.69,0,0,1-6.326-4.182,18.682,18.682,0,0,0,11.714,3.6,18.682,18.682,0,0,0,11.714-3.6A14.682,14.682,0,0,1,23.5,29.442l1.2,1.571A13.963,13.963,0,0,0,34.214,26.7C33.571,16.217,29.821,10.877,29.821,10.877ZM13.348,23.821a2.732,2.732,0,0,1-2.562-2.877,2.732,2.732,0,0,1,2.562-2.877,2.732,2.732,0,0,1,2.562,2.877A2.732,2.732,0,0,1,13.348,23.821Zm9.518,0A2.732,2.732,0,0,1,20.3,20.944a2.732,2.732,0,0,1,2.562-2.877,2.732,2.732,0,0,1,2.562,2.877A2.732,2.732,0,0,1,22.866,23.821Z" transform="translate(-2 -8)"/></svg>