<svg xmlns="http://www.w3.org/2000/svg" viewBox="0 0 374.61 248.65"><defs><style>.cls-1{fill:#eb6209}.cls-2{fill:#343334}.cls-3{fill:#fab943}</style></defs><g id="Layer_2" data-name="Layer 2"><g id="Layer_1-2" data-name="Layer 1"><path d="M139.46,62.1A24.47,24.47,0,0,0,142,64.42l1.51,1.14c.46.36.89.76,1.33,1.14s1,.81,1.47,1.19.92.69,1.38,1c.82.62,1.63,1.24,2.51,1.78.45.27.91.52,1.37.78l1.24.75-.24-.15,1.11.66a6.1,6.1,0,0,0,.71.39l1.51.61c.53.22,1,.49,1.56.72s1,.32,1.48.49,1.11.43,1.66.64.95.35,1.43.51a34.54,34.54,0,0,0,3.45,1c.4.08.79.18,1.18.29l.13,0h0l.09,0,.11,0h-.06l.34.09c.45.13.91.27,1.37.36s.85.16,1.27.27a15.73,15.73,0,0,1,1.58.57c.58.24,1.14.52,1.71.79s1.14.47,1.7.74,1.12.55,1.66.86c.91.58,1.81,1.16,2.67,1.83.47.36.9.77,1.35,1.16s.67.58,1,.9a7.49,7.49,0,0,1,.59.66.94.94,0,0,0,.34.29c0,.16.09.33.14.49h0c.3,1.3.54,2.61.72,3.94a.91.91,0,0,0-.11-.16c-.37-.48-.78-.94-1.18-1.4a32.79,32.79,0,0,0-2.42-2.7c-.42-.39-.84-.78-1.28-1.14a12,12,0,0,0-1.6-1.11c-1.11-.65-2.28-1.22-3.43-1.81a19.65,19.65,0,0,0-3.7-1.39c-1.14-.32-2.29-.6-3.43-.91l-.48-.13-1.33-.41c-.52-.15-1-.27-1.56-.41-.74-.24-1.45-.54-2.19-.8a13.28,13.28,0,0,1-2-1l-.9-.55a1,1,0,0,0-.87,0,1.08,1.08,0,0,0-.65,1.12,1.05,1.05,0,0,0,.41.74c.62.39,1.24.79,1.89,1.15a15.84,15.84,0,0,0,1.64.7c.55.2,1.09.45,1.65.64s1.12.32,1.68.47,1.41.45,2.12.65,1.56.41,2.33.61l-.19-.05.24.06,0,0h0l.12,0,.71.19.45.13c.6.18,1.17.39,1.74.62s1.1.45,1.63.71c1.08.54,2.19,1.05,3.25,1.64a16.06,16.06,0,0,1,2.83,2.31c.73.81,1.42,1.64,2.14,2.44.33.38.65.78.95,1.18s.61.79.88,1.21.33.7.47,1a16.4,16.4,0,0,1,.62,1.65c0,.27,0,.55,0,.83a6.31,6.31,0,0,1-.1.76,1.1,1.1,0,0,0,.91,1.26,1.12,1.12,0,0,0,1.26-.91c0-.24,0-.47.08-.7a1.65,1.65,0,0,0,.11-.36s0-.07.06-.11c.22-.6.44-1.2.7-1.79s.48-1.08.74-1.62c.11-.2.21-.41.33-.61s.36-.56.56-.83c.31-.44.64-.86,1-1.28s.61-.64.93-1,.61-.65.9-1v0l.78-.89-.18.21a28.12,28.12,0,0,1,2.42-2.34c.88-.78,1.75-1.56,2.64-2.32.43-.37.86-.74,1.28-1.13s.8-.78,1.21-1.17c.78-.74,1.56-1.49,2.31-2.27.57-.58,1.11-1.19,1.64-1.81l.69-.81c.26-.32.53-.62.77-.94.45-.58.86-1.18,1.26-1.79.21-.31.43-.61.63-.92s.36-.61.53-.93l0-.08,0,.07a20.81,20.81,0,0,0,1.22-2.83,27.31,27.31,0,0,0,.73-2.83v.06c0-.14.07-.28.1-.43a1,1,0,0,0-.62-1.3,1,1,0,0,0-.76,0,1,1,0,0,0-.55.58c-.14.48-.22,1-.34,1.44s-.24,1-.4,1.44a18.64,18.64,0,0,1-1.08,2.67,25.68,25.68,0,0,1-1.72,2.66,34.36,34.36,0,0,1-2.22,2.76l0-.06c-.07.08-.14.17-.22.25l.06-.06-.1.11-.08.09,0,0c-.68.74-1.39,1.44-2.11,2.15L198,79.15c-.42.39-.82.79-1.23,1.17-.83.77-1.72,1.47-2.56,2.22s-1.77,1.55-2.63,2.36c-.61.58-1.17,1.21-1.72,1.84l.18-.2c-.23.25-.45.5-.67.76-.49.52-1,1-1.48,1.56a22.56,22.56,0,0,0-1.6,2,5.51,5.51,0,0,0-.46.78c-.05-.55-.11-1.11-.19-1.67-.22-1.58-.54-3.13-.91-4.68.2-.49.4-1,.62-1.48a4.56,4.56,0,0,1,.38-.59c.22-.23.47-.43.71-.64l.77-.67c.47-.39,1-.75,1.46-1.1l1.14-.74a17.6,17.6,0,0,0,1.51-1.1c.37-.31.74-.61,1.13-.91.84-.64,1.66-1.3,2.45-2a21.66,21.66,0,0,0,2.41-2.38c.37-.43.69-.87,1-1.31s.72-.88,1.07-1.32a28.19,28.19,0,0,0,2-2.65,19.85,19.85,0,0,0,1.58-3c.23-.55.43-1.11.61-1.68s.29-1.07.43-1.61.31-1,.44-1.57.22-1,.33-1.44a35.48,35.48,0,0,0,.61-4.24l.18-1.89c.08-.73.16-1.47.2-2.21a1,1,0,0,0-.95-1.11.91.91,0,0,0-.49.08,1.05,1.05,0,0,0-.63.87c-.05.7-.14,1.4-.22,2.09s-.12,1.31-.18,2-.16,1.39-.24,2.09-.16,1.2-.27,1.79l-.12.55c-.1.44-.19.88-.33,1.31s-.31,1.09-.46,1.64-.3,1.13-.5,1.68a16.08,16.08,0,0,1-.64,1.54c-.31.6-.62,1.18-1,1.76a21.45,21.45,0,0,1-1.33,1.84c-.48.61-1,1.21-1.48,1.81s-.91,1.2-1.39,1.76A20.08,20.08,0,0,1,194,74l-1.78,1.51c-.57.48-1.17.92-1.76,1.38-.31.24-.6.49-.9.74s-.56.43-.85.63l0,0-.07,0-.16.11.1-.06c-.64.42-1.3.83-1.92,1.28s-1,.76-1.43,1.16a9.46,9.46,0,0,0-1.44,1.46c-.21-.73-.46-1.45-.72-2.16.2-.59.42-1.16.67-1.72a7.77,7.77,0,0,1,.63-1A24,24,0,0,1,187,75.16c.45-.35.91-.68,1.36-1l1.37-1.1c.85-.68,1.64-1.44,2.46-2.15.44-.39.89-.77,1.3-1.2l1.27-1.34A16.38,16.38,0,0,0,196.54,66,18.49,18.49,0,0,0,198,63.31c.36-.84.64-1.71.92-2.58a26.25,26.25,0,0,0,.71-2.74c.13-.61.26-1.22.37-1.84s.21-1.4.31-2.09.22-1.35.34-2,.21-1.24.34-1.85.29-1.2.44-1.79.36-1.2.53-1.8.35-1.22.56-1.81a13,13,0,0,1,.58-1.38q.41-.77.84-1.53a1.08,1.08,0,0,0,.15-.76,1,1,0,0,0-.42-.65,1.07,1.07,0,0,0-1-.08.87.87,0,0,0-.41.35c-.31.52-.62,1-.91,1.59a11,11,0,0,0-.68,1.43c-.38,1-.67,2.09-1,3.13-.17.52-.29,1-.42,1.58s-.31,1.24-.43,1.87c-.21,1.14-.41,2.29-.58,3.43-.11.65-.17,1.31-.27,2s-.22,1.2-.34,1.8l.06-.26c0,.21-.09.43-.14.64l.06-.26c-.22,1-.51,2-.82,2.93a21.51,21.51,0,0,1-1.16,2.91l.06-.12s0,.08-.07.13l-.06.12.06-.12a15.24,15.24,0,0,1-2,2.91c-.38.42-.78.81-1.17,1.22s-.87.88-1.34,1.29c-.81.7-1.58,1.44-2.4,2.12s-1.77,1.46-2.68,2.15a28.92,28.92,0,0,0-2.65,2.3,7.44,7.44,0,0,0-.83.94,5.76,5.76,0,0,0-.48.83l-.66-1.55c-.3-.72-.64-1.43-1-2.13a2,2,0,0,0,.12-.19c.17-.36.32-.73.49-1.09s.56-.92.87-1.38A17.61,17.61,0,0,1,183,69.44c.87-.94,1.88-1.75,2.81-2.63a41.22,41.22,0,0,0,3.08-3.12l.1-.12-.08.1c.74-.84,1.47-1.69,2.18-2.54a16.36,16.36,0,0,0,1.67-2.4,18.46,18.46,0,0,0,1.32-2.94c.36-1,.69-2.07,1-3.12s.67-2.07,1-3.11.63-2.3.95-3.44.62-2.3.94-3.45c.16-.56.27-1.13.43-1.68s.35-1.16.53-1.73a15,15,0,0,1,.59-1.63c.3-.57.6-1.15.91-1.72a1.16,1.16,0,0,0,.17-.79,1.14,1.14,0,0,0-.44-.67,1.12,1.12,0,0,0-1-.08.8.8,0,0,0-.41.36c-.39.7-.78,1.41-1.13,2.13a18.63,18.63,0,0,0-.82,2.31c-.36,1.1-.65,2.22-.95,3.34-.61,2.27-1.26,4.54-1.92,6.8-.39,1.36-.84,2.7-1.28,4-.21.64-.44,1.28-.66,1.92a16,16,0,0,1-.75,1.76l-.11.2a12.06,12.06,0,0,1-.69,1.15c-.27.42-.58.8-.88,1.19-.63.8-1.31,1.57-2,2.35-.19.22-.39.44-.58.67-.7.77-1.42,1.52-2.18,2.24s-1.52,1.42-2.29,2.11a14.44,14.44,0,0,0-2.23,2.64,15.71,15.71,0,0,0-.85,1.33c0,.09-.08.18-.13.26-.32-.69-.64-1.37-1-2s-.59-1.07-.89-1.6l0,.07-.09-.16-.07-.12,0,0c-.05-.1-.12-.2-.17-.3a1.13,1.13,0,0,0-.19-.32l0,0c.25-.59.5-1.19.78-1.77a6.27,6.27,0,0,1,.65-.94l.75-1,1.08-1.1a13.84,13.84,0,0,1,1.35-1.19,15.6,15.6,0,0,0,1.22-1.22c.18-.19.38-.37.56-.57l.87-1-.18.21c.41-.46.85-.88,1.27-1.32s.86-.94,1.28-1.43c.14-.17.28-.33.43-.49.78-.89,1.53-1.8,2.24-2.74.32-.43.64-.85.93-1.29s.5-.87.73-1.31.54-1,.78-1.51.38-.85.55-1.27a28.17,28.17,0,0,0,.85-2.7c.18-.62.32-1.26.46-1.89s.29-1.38.43-2.07c.24-1.07.52-2.14.72-3.22s.35-2.08.54-3.12c.36-2.06.74-4.1,1.17-6.15.42-1.85,1-3.67,1.57-5.49.28-.92.62-1.83.94-2.74A23.39,23.39,0,0,1,200,16.82l-.06.11c.17-.33.33-.66.47-1a1,1,0,0,0-.63-1.32,1,1,0,0,0-.74,0,1.14,1.14,0,0,0-.58.6c-.09.22-.19.42-.29.63l0,0c-.25.49-.5,1-.72,1.49s-.43,1.07-.62,1.62-.39,1-.56,1.52-.32,1-.46,1.48-.34,1.08-.51,1.62-.31,1.11-.46,1.66-.29,1-.42,1.56-.26,1.21-.38,1.82-.31,1.47-.45,2.21-.26,1.45-.39,2.18c-.25,1.41-.46,2.84-.75,4.25s-.59,2.51-.84,3.78a2.56,2.56,0,0,0,.05-.27c-.28,1.23-.56,2.47-.91,3.68a19.73,19.73,0,0,1-1.23,3.18,22.25,22.25,0,0,1-1.44,2.57c-.34.49-.72,1-1.08,1.45s-.79,1-1.2,1.47-.85.94-1.27,1.41-.81.87-1.23,1.29-.95,1-1.39,1.51l-.8.84c-.32.32-.63.66-1,1s-.78.63-1.15,1-.58.6-.87.9A11.85,11.85,0,0,0,177,62.3c-.27.35-.58.68-.82,1.05a7.05,7.05,0,0,0-.59,1.12c-.44-.74-.9-1.47-1.36-2.2l.48-.55c.36-.41.73-.82,1.09-1.25s.66-.82,1-1.22a23.39,23.39,0,0,0,1.87-2.68c.3-.46.6-.92.87-1.4l.78-1.42c.52-.91,1-1.84,1.53-2.75s1.18-2.12,1.72-3.2c.23-.47.46-.94.65-1.43s.39-1.1.59-1.64c.4-1.07.75-2.15,1.06-3.24s.65-2.23.89-3.37.44-2.39.62-3.59.3-2.14.4-3.22.16-2.28.27-3.43.27-2.27.41-3.4c.09-.75.17-1.5.26-2.25s.25-1.41.4-2.1.31-1.31.48-2,.32-1.29.55-1.93q.82-2.31,1.7-4.64a1.05,1.05,0,0,0-.64-1.33,1,1,0,0,0-.75,0,1.06,1.06,0,0,0-.58.61c-.46,1.24-.92,2.48-1.37,3.72-.21.57-.44,1.14-.61,1.73s-.26,1-.39,1.56c-.31,1.23-.58,2.47-.82,3.71-.1.56-.16,1.12-.22,1.67s-.13,1.19-.21,1.79c-.13,1-.28,2.09-.37,3.13s-.16,2.18-.26,3.26-.25,2-.4,3.05-.31,2-.51,3.06c-.18.83-.4,1.65-.63,2.47s-.49,1.74-.77,2.59-.56,1.58-.84,2.37c-.15.39-.28.78-.44,1.17s-.36.75-.54,1.12l0,0-.11.21c-.51,1-1,2-1.59,2.94s-1,1.84-1.49,2.75c-.26.47-.51,1-.79,1.41s-.59.92-.88,1.38-.59.88-.9,1.31-.7.92-1.08,1.36l-.57.7-.3.34.07-.08-.21.24-.56.64c-.54-.85-1.06-1.71-1.57-2.58.2-.23.42-.46.61-.71.32-.42.61-.85.92-1.27a30,30,0,0,0,1.8-2.78c.27-.47.53-.93.82-1.39a16.11,16.11,0,0,0,.86-1.65c.42-.94.8-1.89,1.13-2.86s.6-2,.89-3.09.5-2.29.73-3.44q.16-.84.3-1.68c.08-.54.12-1.09.17-1.63.09-1.13.2-2.27.3-3.4s.18-2.36.26-3.54.11-2.29.18-3.43.21-2.26.28-3.4.16-2.33.3-3.49c.11-.88.29-1.76.46-2.64s.38-1.56.57-2.35.38-1.65.57-2.47a13.49,13.49,0,0,1,.9-2.36q.57-1.28,1.17-2.52a1.06,1.06,0,0,0,0-.82,1.08,1.08,0,0,0-.6-.53,1,1,0,0,0-.77,0l-.05,0a1.15,1.15,0,0,0-.52.59c-.56,1.17-1.11,2.35-1.61,3.55a11.32,11.32,0,0,0-.54,1.71c-.14.61-.27,1.21-.41,1.82-.28,1.25-.61,2.5-.85,3.76a29.62,29.62,0,0,0-.5,3.49l-.27,3.42c-.1,1.18-.21,2.35-.27,3.53s-.11,2.23-.19,3.34-.18,2.32-.28,3.48c0,.61-.1,1.23-.16,1.84s-.09,1.28-.19,1.91c-.19,1.23-.44,2.45-.7,3.67-.14.61-.3,1.21-.47,1.82s-.35,1.3-.56,2a24.77,24.77,0,0,1-1.37,3.43c-.32.59-.68,1.16-1,1.74s-.72,1.23-1.11,1.83-.7,1.07-1.09,1.58l-.78,1c-.21-.35-.41-.71-.63-1.06s-.25-.42-.37-.63c.2-.23.4-.45.58-.69a7.9,7.9,0,0,0,.66-1.07c.24-.47.48-.93.69-1.4s.5-1.15.77-1.72c.41-.89.78-1.82,1.16-2.73.21-.51.41-1,.58-1.54s.29-.94.44-1.41.29-1.09.44-1.64.32-1.25.45-1.87.23-1.18.35-1.77.24-1.11.32-1.68c.15-1.08.18-2.18.25-3.27s.24-2.28.36-3.42c.06-.59.11-1.17.14-1.76s0-1.12.08-1.68c.06-1.14.15-2.29.24-3.43s.22-2.26.33-3.39.2-2.29.34-3.43.31-2.13.47-3.19q.09-.6.21-1.2c.3-1.34.56-2.68.84-4a16,16,0,0,1,.74-2.11c.34-.82.69-1.64,1.06-2.44a1,1,0,0,0,0-.82,1,1,0,0,0-.59-.53,1.05,1.05,0,0,0-.78,0l-.05,0a1.12,1.12,0,0,0-.53.6c-.57,1.21-1.11,2.45-1.57,3.72a12.67,12.67,0,0,0-.45,1.84c-.11.59-.24,1.17-.35,1.75a2.56,2.56,0,0,1,.05-.27c-.27,1.21-.53,2.42-.72,3.64-.16,1-.34,2.09-.45,3.14s-.23,2.25-.36,3.38-.26,2.29-.36,3.44-.2,2.29-.26,3.44-.12,2.28-.24,3.42L174,31.9c-.07.57-.1,1.15-.14,1.73a31.09,31.09,0,0,1-.28,3.35c-.09.51-.21,1-.3,1.53s-.21,1.09-.32,1.63-.22.92-.34,1.37-.25,1-.4,1.47-.24.88-.37,1.3-.35,1-.55,1.48c-.33.84-.67,1.68-1,2.52-.22.53-.47,1-.69,1.57s-.36.84-.56,1.25c-.1.21-.21.42-.32.63a6.29,6.29,0,0,1-.41.64c-.32-.55-.64-1.1-.95-1.65-.76-1.36-1.56-2.7-2.33-4.07l-.53-1a7.1,7.1,0,0,0,.56-.67l.49-.62c.18-.24.34-.49.51-.74a26.41,26.41,0,0,0,1.57-2.8,20,20,0,0,0,1.22-3c.29-.94.59-1.88.87-2.82a56.47,56.47,0,0,0,1.57-6.81c.1-.55.21-1.1.31-1.66s.17-1.12.24-1.68c.16-1.12.26-2.25.39-3.38.08-.79.19-1.59.29-2.38s.17-1.58.28-2.37.26-1.58.38-2.38.22-1.54.37-2.31c.14-.58.31-1.16.47-1.73s.34-1.22.52-1.82c.42-1.35.85-2.7,1.31-4a1,1,0,0,0-1.95-.68C173.41,5,173,6.31,172.6,7.59c-.34,1.07-.65,2.15-.94,3.24-.33,1.25-.47,2.53-.68,3.8-.1.59-.21,1.18-.3,1.77s-.14,1.1-.2,1.65c-.11,1.05-.27,2.1-.38,3.15s-.22,2.08-.35,3.12c-.06.49-.13,1-.2,1.47s-.19.95-.26,1.43c-.17,1-.34,2-.53,2.92s-.41,1.71-.63,2.56-.53,1.8-.81,2.69c-.23.73-.43,1.47-.67,2.19-.15.47-.35.91-.53,1.36s-.3.7-.47,1c-.35.67-.68,1.36-1.09,2-.22.34-.45.67-.68,1s-.27.35-.41.52l0,0c0-.1-.09-.19-.13-.28-.52-1.16-.94-2.36-1.4-3.54,0-.1-.07-.21-.11-.31l0,0a8.85,8.85,0,0,0,1.43-2.31c.43-.79.77-1.63,1.16-2.43l-.05.11a21,21,0,0,0,1.37-3.42c.14-.48.27-1,.41-1.47s.31-1.12.43-1.68c.28-1.22.48-2.46.68-3.69.09-.6.2-1.2.29-1.79s.15-1.17.22-1.75.12-1.14.19-1.71.16-1.2.2-1.81c.08-1.12.16-2.24.21-3.37s.1-2.26.15-3.39.08-2.29.14-3.42c.05-1,.17-1.89.29-2.83.14-1.1.3-2.18.37-3.29a1.06,1.06,0,0,0-1-1.12,1,1,0,0,0-.49.09,1,1,0,0,0-.63.87c-.1,1.34-.29,2.65-.47,4-.07.56-.15,1.11-.19,1.67s-.06,1.11-.09,1.67q-.18,3.42-.37,6.85c0,1-.12,2-.23,3s-.26,2-.37,3-.3,2.1-.46,3.15-.31,2-.51,2.94-.52,2.07-.8,3.09a20.33,20.33,0,0,1-1.26,3.31l0-.09c-.32.65-.61,1.31-.93,2L161,36.63a2.15,2.15,0,0,0-.14.26q-.62-1.7-1.14-3.42a1.08,1.08,0,0,0,.18-.29c.43-1,.75-2,1.1-3s.64-2,.91-3a58.43,58.43,0,0,0,1.49-6.7c.17-1.15.27-2.3.34-3.46s.17-2.21.26-3.31.08-2.28.11-3.43,0-2.38,0-3.57A39.52,39.52,0,0,0,163.28,1a1.05,1.05,0,0,0-1.23-.82.83.83,0,0,0-.21.06,1,1,0,0,0-.61,1.15c.3,1.64.63,3.27.77,4.92.06,1.13.08,2.26.06,3.4s0,2.25-.1,3.37-.21,2.25-.26,3.37-.15,2.25-.29,3.37c-.11.87-.26,1.74-.43,2.6-.38,1.67-.8,3.34-1.29,5-.28.93-.57,1.85-.88,2.77-.21-.79-.41-1.59-.61-2.38l0,.05c-.28-1.19-.55-2.39-.77-3.6s-.42-2.45-.61-3.68c-.37-2.47-.74-5-.87-7.46,0-.68,0-1.37,0-2.06.07-1.95.18-3.89.4-5.82a1.16,1.16,0,0,0-.93-1.29,1.1,1.1,0,0,0-.62.09,1.06,1.06,0,0,0-.66.84c-.15,1.3-.26,2.59-.32,3.89s-.15,2.72-.14,4.08a34.86,34.86,0,0,0,.29,3.68c.13,1.2.3,2.39.47,3.59.37,2.48.77,5,1.33,7.41.29,1.25.61,2.49.93,3.73,0,.13.07.25.1.38-.07-.09-.15-.18-.22-.28-.28-.36-.56-.72-.83-1.1a22.41,22.41,0,0,1-1.44-2.4c-.22-.41-.42-.84-.61-1.26s-.38-.82-.55-1.24-.38-1-.58-1.51-.34-.9-.47-1.36c-.15-.68-.3-1.37-.5-2s-.34-1.2-.49-1.81-.2-1.06-.3-1.59-.21-1.08-.3-1.62c-.19-1.1-.32-2.21-.49-3.31-.09-.58-.17-1.15-.24-1.73s-.16-1-.23-1.57c-.13-1.12-.34-2.22-.54-3.33-.08-.4-.15-.81-.22-1.21a1.1,1.1,0,0,0-1.18-.95,1.11,1.11,0,0,0-.3.08,1,1,0,0,0-.64,1.1c.22,1.26.48,2.52.67,3.79.16,1.08.31,2.16.47,3.23s.3,2.24.48,3.34.39,2.13.55,3.2c.2,1.23.6,2.42.9,3.63v0l0,.06v0l0,.09v0c0,.16.07.31.11.46.12.54.24,1.08.41,1.6s.44,1.14.66,1.71a27.94,27.94,0,0,0,1.23,2.8c.27.53.58,1,.88,1.56s.57,1,.91,1.45.61.81.92,1.21l.48.63a8.39,8.39,0,0,0,.7.77c.5.51,1.07.93,1.59,1.43a.94.94,0,0,0,.28.15c.71,2.15,1.49,4.28,2.3,6.4.26.66.51,1.32.77,2l.06.13c-.35-.18-.69-.35-1-.54a24.53,24.53,0,0,1-2.71-2c-.48-.4-1-.8-1.4-1.22s-.77-.78-1.15-1.18c-.85-.92-1.62-1.92-2.39-2.91a21.34,21.34,0,0,1-1.8-3c-.77-1.45-1.41-3-2-4.48A33.22,33.22,0,0,1,147,24.17c-.26-1.13-.48-2.28-.79-3.4s-.69-2.21-1-3.31c-.16-.51-.32-1-.45-1.55s-.28-1.08-.47-1.6l-.57-1.58c-.18-.53-.37-1-.6-1.55a20.56,20.56,0,0,0-2.12-3.55,1.06,1.06,0,0,0-1.29-.34.72.72,0,0,0-.19.11,1.08,1.08,0,0,0-.24,1.48,27.37,27.37,0,0,1,1.52,2.33c.2.39.39.78.55,1.18s.35.9.51,1.35.32.88.48,1.31.29.92.42,1.39.21.84.35,1.25.29.87.44,1.3c.3.94.61,1.86.86,2.81.26,1.11.49,2.23.77,3.34a28.87,28.87,0,0,0,1.17,3.39c.42,1.09.89,2.16,1.37,3.22l.69,1.48c.28.59.6,1.16.92,1.73s.53,1,.82,1.44a13.35,13.35,0,0,0,.94,1.33c.7.88,1.38,1.78,2.14,2.61a31.19,31.19,0,0,0,2.69,2.58A26.08,26.08,0,0,0,158.54,45a16.79,16.79,0,0,0,2.27,1.26c.54.24,1.08.49,1.63.7.35.69.72,1.36,1.1,2s.59,1,.87,1.54l-.15-.29c.36.65.72,1.31,1.09,2l-.16-.29c.94,1.72,1.94,3.41,2.95,5.1-.48-.22-1-.44-1.43-.68-.71-.36-1.43-.72-2.12-1.1s-1.48-.78-2.2-1.21-1.34-.84-2-1.29-1.45-1-2.16-1.58-1.44-1.17-2.12-1.8-1.37-1.21-2-1.86l-1.2-1.25c-1.13-1.2-2.24-2.43-3.25-3.74A29.9,29.9,0,0,1,147,38.35a.47.47,0,0,1,0,.1c-.09-.18-.19-.36-.29-.54h0c-.53-1-1.06-2-1.54-3.08s-.83-2.08-1.28-3.1A58,58,0,0,1,141.58,25c-.5-1.6-1-3.21-1.42-4.84-.13-.62-.24-1.24-.37-1.86s-.29-1.3-.46-1.95c-.2-.9-.38-1.8-.58-2.69a1.1,1.1,0,0,0-.39-.72,1.13,1.13,0,0,0-.78-.23,1.11,1.11,0,0,0-.3.08,1.07,1.07,0,0,0-.41.32,1,1,0,0,0-.23.77c.17.73.33,1.45.47,2.18.12.54.26,1.06.39,1.6.25,1.07.41,2.17.69,3.25s.58,2.12.89,3.17.66,2.26,1,3.38.71,2.26,1.14,3.38l.44,1.08c.13.35.3.68.44,1,.28.69.54,1.38.83,2.07s.65,1.41,1,2.11.74,1.46,1.13,2.17.88,1.6,1.35,2.37a24.55,24.55,0,0,0,1.43,2.07c.54.73,1.13,1.41,1.72,2.1s1.24,1.41,1.89,2.09h0c.2.22.41.43.61.64l0,0,.05.06.08.08.13.14,0,0-.07-.08.09.1.06.06c.3.32.6.64.92.93l1,.89c.65.6,1.31,1.21,2,1.77s1.43,1.1,2.16,1.63,1.68,1.13,2.55,1.65c.34.21.69.42,1.05.62l1.13.59c.78.41,1.55.82,2.34,1.21s1.53.73,2.31,1.07,1.44.54,2.15.84c.28.47.56,1,.85,1.42.41.66.83,1.31,1.24,2l-.4-.21a32.9,32.9,0,0,0-5.71-2,33.35,33.35,0,0,1-3.38-1.25l-1.91-.86a16.2,16.2,0,0,1-1.77-.88l0,0-.85-.51c-1.06-.67-2.08-1.41-3.07-2.18a24.3,24.3,0,0,1-2.67-2.5c-.77-.83-1.49-1.7-2.19-2.59s-1.38-1.74-2-2.65c-.31-.43-.61-.86-.89-1.31s-.54-1-.81-1.45c-.53-.95-1.1-1.88-1.68-2.8-.18-.28-.35-.57-.52-.87s-.44-.89-.69-1.32-.56-.89-.85-1.34c-.64-1-1.19-2-1.88-3-1.27-1.75-2.42-3.58-3.69-5.34-.42-.6-.93-1.13-1.39-1.7s-.9-1.13-1.38-1.66-1.07-1.15-1.63-1.7a20.43,20.43,0,0,0-2-1.78,1.14,1.14,0,0,0-1.11-.14,1.07,1.07,0,0,0-.23,1.82c.56.43,1.1.89,1.63,1.37s.78.77,1.16,1.17l0,0c.36.38.72.76,1.06,1.17s.74.92,1.11,1.38.74.88,1.1,1.33.65.94,1,1.41c.63.91,1.22,1.84,1.85,2.74s1.25,1.77,1.8,2.71c.32.52.63,1,1,1.57s.59.93.87,1.41l.64,1.25c.24.42.49.84.76,1.25.55.86,1.06,1.75,1.55,2.65a1.14,1.14,0,0,0-.1-.19c.3.55.6,1.1.93,1.63s.62.91.93,1.35c.64.89,1.32,1.75,2,2.61S150.14,54,151,54.94a33.43,33.43,0,0,0,2.52,2.39c.6.51,1.26,1,1.9,1.43a21.85,21.85,0,0,0,2.1,1.33l-.19-.11a19.08,19.08,0,0,0,2.23,1.19c.8.35,1.6.71,2.4,1s1.44.57,2.17.82,1.62.5,2.44.72a25.77,25.77,0,0,1,5.72,2.37c.53.33,1,.67,1.57,1,.3.2.6.42.89.64.3.51.59,1,.88,1.55l-.7-.43c-.72-.44-1.45-.86-2.2-1.24s-1.4-.68-2.11-1a33.48,33.48,0,0,0-4.49-1.54,20.11,20.11,0,0,0-2-.47,19.09,19.09,0,0,1-2-.44l-.71-.21.26.08c-.69-.21-1.41-.37-2.11-.56h0a21.27,21.27,0,0,1-2.13-.71,21.89,21.89,0,0,1-2.26-1.16l.25.15-.83-.5c-.41-.26-.82-.53-1.22-.82s-.81-.64-1.2-1a32,32,0,0,1-2.53-2.27h0l-.36-.38c-.77-.81-1.5-1.66-2.2-2.54a32.84,32.84,0,0,1-1.91-2.75c-.61-1-1.19-1.93-1.79-2.89-.31-.49-.61-1-.92-1.46s-.62-.92-.92-1.38c-.67-1-1.36-2-2.06-3s-1.33-1.89-2.07-2.77A33,33,0,0,0,135,37.42a15.57,15.57,0,0,0-1.27-1.17c-.47-.38-1-.73-1.46-1.07-.87-.58-1.75-1.12-2.64-1.66a1,1,0,0,0-.8,0l-.05,0a1.06,1.06,0,0,0-.55.55,1.08,1.08,0,0,0,0,.81,1.17,1.17,0,0,0,.57.59l.13.08c.93.57,1.85,1.16,2.75,1.79a15.33,15.33,0,0,1,2.14,1.88c.77.81,1.5,1.65,2.21,2.52.36.44.68.93,1,1.4s.67.94,1,1.4c.7,1,1.33,2,2,2.92s1.28,1.94,1.89,2.93c.87,1.38,1.71,2.77,2.65,4.11a33.07,33.07,0,0,0,3.51,4.15l-.2-.21c.47.5.95,1,1.46,1.46s1,.84,1.46,1.25.95.81,1.45,1.16,1.14.77,1.73,1.12a19.41,19.41,0,0,0,3.22,1.62c1.22.44,2.49.72,3.74,1l.39.11a21.42,21.42,0,0,0,2.66.62,21.5,21.5,0,0,1,2.25.5h0a32,32,0,0,1,7.44,3.24l.66.4a19.4,19.4,0,0,1,1.82,1.3,19.88,19.88,0,0,1,1.65,1.39l.05.07c.5,1,1,2,1.44,3-.55-.4-1.11-.79-1.67-1.18s-.95-.63-1.44-.93-1.07-.65-1.6-1a23.64,23.64,0,0,0-2.74-1.3c-.5-.2-1-.35-1.53-.52l-1.69-.59c-1.07-.38-2.15-.73-3.22-1.14-.52-.2-1-.4-1.58-.58s-1-.33-1.54-.51c-1.11-.38-2.22-.76-3.31-1.18-.53-.21-1-.47-1.55-.71s-1.1-.55-1.64-.83l-1.47-.78c-.4-.2-.78-.44-1.17-.67-.77-.47-1.52-1-2.26-1.48l-1.11-.84c-.37-.28-.74-.57-1.09-.89-.68-.62-1.34-1.27-2-1.91s-1.27-1.12-1.86-1.73c-.76-.79-1.49-1.6-2.21-2.42s-1.47-1.76-2.18-2.66c-.32-.4-.64-.8-.94-1.22s-.64-.94-1-1.41-.6-.93-.88-1.4-.57-1-.86-1.53c-.06-.11-.12-.22-.19-.33a1,1,0,0,0-.69-.42,1,1,0,0,0-.56.08.72.72,0,0,0-.19.11,1,1,0,0,0-.42.68,1.14,1.14,0,0,0,.19.76c.34.59.67,1.19,1,1.8s.55.9.83,1.35.62,1,1,1.45.63.85,1,1.26c.69.89,1.39,1.78,2.11,2.64s1.51,1.71,2.29,2.54a16.56,16.56,0,0,0,1.41,1.37c.43.38.83.79,1.24,1.18L147,63.13a14,14,0,0,0,1.31,1.13c1,.76,2,1.49,3,2.15q.84.53,1.71,1c.49.29,1,.55,1.5.81,1.08.57,2.16,1.13,3.27,1.62s2.16.79,3.24,1.18c.51.18,1,.34,1.55.5s1.09.37,1.63.58c1.07.4,2.15.75,3.23,1.11l2,.68c.64.21,1.28.39,1.9.65s1.15.5,1.71.77,1.08.58,1.62.89c1.21.74,2.37,1.55,3.52,2.38.59.43,1.15.89,1.71,1.37l.78.72.26.25c.15.39.3.79.43,1.19l-.06-.06A20.8,20.8,0,0,0,178.63,80c-.52-.34-1-.68-1.58-1s-1-.52-1.51-.77-1-.4-1.45-.63l-1.54-.74a15.13,15.13,0,0,0-2-.75c-.84-.24-1.7-.38-2.54-.62l.27.08c-.73-.21-1.45-.43-2.18-.61s-1.34-.31-2-.49c-1-.29-1.95-.6-2.89-1a16.09,16.09,0,0,0-1.64-.6,11.91,11.91,0,0,1-1.42-.49c-.53-.24-1.05-.5-1.59-.72a16.06,16.06,0,0,1-1.49-.61c-1.06-.54-2-1.24-3.07-1.79l-.59-.32c-1-.66-2-1.4-2.93-2.13L147,65.78c-.45-.35-.87-.73-1.3-1.1s-1-.82-1.5-1.21-1-.68-1.41-1.06-.9-.79-1.33-1.21L140.21,60c-.81-.76-1.65-1.49-2.48-2.23a1,1,0,0,0-1-.14,1,1,0,0,0-.38.3,1,1,0,0,0,.15,1.43C137.47,60.25,138.49,61.15,139.46,62.1Zm12.63-13.52h0l0,0Zm14.27,18.8h0l-.08,0,.15,0Z" class="cls-1"/><path d="M212.29,112.67a52.28,52.28,0,0,1,.11,5.31.86.86,0,0,1,0-.16c0,.93-.08,1.86-.11,2.79v-.08l-.06,1.16a33.16,33.16,0,0,1-.36,3.31c-.22,1.33-.51,2.63-.83,3.93a1,1,0,0,0,0,.39l-.39,1.3c0-.73,0-1.47,0-2.2,0-1.19-.12-2.37-.22-3.55s-.18-2.3-.29-3.44c-.05-.62-.12-1.25-.2-1.88s-.18-1.18-.26-1.77-.14-1.12-.25-1.67-.22-1.13-.34-1.7a21.15,21.15,0,0,0-1-3.48,6.08,6.08,0,0,0-1.68-2.44,4.7,4.7,0,0,0-.73-.46,3.3,3.3,0,0,0-1.38-.3,2.8,2.8,0,0,0-1,.17,1.73,1.73,0,0,0-.31.14,4,4,0,0,0-.53.33,3.07,3.07,0,0,0-.88,1.25,7,7,0,0,0-.44,2.94,18.17,18.17,0,0,0,.49,2.73c.11.48.21,1,.32,1.44s.25,1.18.38,1.77c.22,1,.46,2,.74,3s.54,1.68.8,2.51.55,1.72.81,2.59.45,1.69.65,2.54l.24,1.05c.23,1.15.42,2.31.6,3.47s.38,2.43.49,3.66c.21,2.51.4,5,.54,7.55,0,.11,0,.23,0,.34a1,1,0,0,0,.13.43q-.22,1.71-.39,3.42a1,1,0,0,0,.82,1.21,1,1,0,0,0,1.21-.83c.14-1.45.32-2.89.54-4.33.16-.45.32-.9.49-1.35s.31-.73.46-1.09l-.11.26c.15-.32.3-.64.46-1l.18-.24a15.84,15.84,0,0,1,2.05-2c.75-.62,1.48-1.28,2.26-1.87s1.88-1.22,2.83-1.81,2-1.19,3-1.71,2.13-1,3.2-1.53,2.08-.95,3.12-1.39l1.05-.44,3.5-1.27c1.25-.45,2.52-.86,3.77-1.33l-.1,0a24.43,24.43,0,0,0,6.26-3,14.11,14.11,0,0,0,2.43-2.33,6.14,6.14,0,0,0,.72-1,3,3,0,0,0,.35-2.21,2.89,2.89,0,0,0-1.18-1.53,4.89,4.89,0,0,0-.67-.39,6.36,6.36,0,0,0-.86-.33,4.88,4.88,0,0,0-1.21-.12,12.39,12.39,0,0,0-1.6.16,15.39,15.39,0,0,0-1.63.38l-1.65.49c-1.17.37-2.31.89-3.45,1.37s-2.14,1-3.2,1.61-2.05,1-3.05,1.62-2,1.24-3,1.89c-.54.34-1.08.68-1.61,1.05s-1.13.82-1.68,1.25a31.73,31.73,0,0,0-2.86,2.44c-.87.85-1.74,1.72-2.55,2.64s-1.7,1.87-2.52,2.84c-.62.76-1.22,1.54-1.79,2.34.25-1.12.51-2.23.81-3.33.45-1.6.91-3.19,1.4-4.78.28-.83.56-1.65.85-2.47l.38-.37c.36-.32.73-.63,1.11-.92l-.11.07.12-.08.1-.07-.1.07,1.18-.83-.22.16a26.24,26.24,0,0,1,2.8-1.64c.95-.51,1.91-1,2.88-1.49s2.17-.9,3.26-1.34c.54-.23,1.1-.43,1.64-.65s1.08-.45,1.63-.66l.44-.17c.82-.31,1.62-.64,2.43-1s1.43-.49,2.15-.72,1.58-.54,2.38-.8c1.58-.52,3.17-1,4.73-1.63h0c1.49-.55,3-1,4.49-1.62,1.16-.43,2.31-.89,3.47-1.33l-.26.09c1.19-.44,2.36-.93,3.51-1.45a11,11,0,0,0,3-1.9,9.3,9.3,0,0,0,1.29-1.45,6.71,6.71,0,0,0,.47-.71,4.45,4.45,0,0,0,.48-1.15,6,6,0,0,0,.12-.85,3.54,3.54,0,0,0,0-.73,2.14,2.14,0,0,0-.18-.54,2.75,2.75,0,0,0-.43-.6,3.08,3.08,0,0,0-.9-.7,3.43,3.43,0,0,0-1.43-.39,16.8,16.8,0,0,0-3.09.06,27.4,27.4,0,0,0-3.71.64c-.59.13-1.18.28-1.76.45l-.31.09c-.46.14-.91.3-1.37.47-1.23.43-2.45.89-3.66,1.39s-2.3,1-3.42,1.57-2.26,1.22-3.37,1.85L230.46,110c-1.09.61-2.15,1.27-3.21,1.93a71.08,71.08,0,0,0-6.29,4.35,31.45,31.45,0,0,0-2.64,2.39c-.64.63-1.26,1.29-1.87,2,.69-1.74,1.43-3.47,2.19-5.18.51-1.17,1.05-2.32,1.55-3.49.31-.7.61-1.4.91-2.1a1,1,0,0,0,.53-.24q.57-.51,1.17-1c1.08-.77,2.21-1.48,3.35-2.15.6-.36,1.21-.7,1.84-1s1.18-.55,1.79-.78l-.25.09c1.31-.48,2.58-1,3.88-1.56,1.06-.4,2.12-.77,3.2-1.11a29.81,29.81,0,0,1,3.46-.9c1.17-.24,2.35-.47,3.51-.75l3.27-.83c1.08-.28,2.14-.59,3.19-.92.57-.17,1.14-.37,1.7-.56s1.13-.34,1.7-.51a28.22,28.22,0,0,0,6.69-2.44A6.34,6.34,0,0,0,261.61,94a8.4,8.4,0,0,0,1.2-1.59,3.53,3.53,0,0,0,.47-1.67,2.79,2.79,0,0,0-.23-1.18,3,3,0,0,0-.66-1,4.32,4.32,0,0,0-1.73-1,5.9,5.9,0,0,0-1.86-.31,10.82,10.82,0,0,0-1.8.12c-.57.06-1.13.12-1.69.21s-1.19.22-1.78.35-1.05.26-1.57.43-.88.28-1.32.43c-1,.36-2,.73-3,1.13l.26-.1c-.62.22-1.25.45-1.86.71l-1.62.71c-1.14.5-2.26,1-3.39,1.53s-2.31,1-3.44,1.58-2.27,1.18-3.4,1.81-2.3,1.32-3.45,2-2,1.26-2.94,1.94a37.15,37.15,0,0,0-3,2.3c.13-.25.26-.51.4-.76q1.75-3.21,3.52-6.42c.21-.38.43-.74.64-1.11a16.92,16.92,0,0,1,1.37-1.17l1.67-1.28a23.36,23.36,0,0,1,2.14-1.29l2.41-1.3c.73-.37,1.48-.68,2.24-1s1.72-.72,2.59-1.06,1.83-.58,2.77-.83,2.13-.55,3.21-.79,2.08-.31,3.13-.5,2.16-.43,3.23-.69,2.24-.62,3.36-.92,2.29-.56,3.43-.87a25.41,25.41,0,0,0,3.59-1.15,7.21,7.21,0,0,0,2.95-2,10.25,10.25,0,0,0,.68-.91,5.67,5.67,0,0,0,.28-.61,3.6,3.6,0,0,0,.2-.58,2.24,2.24,0,0,0-.06-1.15,3.32,3.32,0,0,0-.64-1.11,3.49,3.49,0,0,0-1.35-1,7.22,7.22,0,0,0-.91-.37c-.3-.09-.6-.16-.9-.22a18.13,18.13,0,0,0-1.93-.34,15.08,15.08,0,0,0-3.67.28c-1.19.19-2.35.48-3.52.74-.53.11-1.05.26-1.58.42l-1.72.58c-.64.21-1.28.44-1.91.69s-1,.45-1.49.68l-1.71.79c-.55.24-1.11.47-1.66.73a32.14,32.14,0,0,0-3.08,1.72c-1,.62-2.05,1.26-3.08,1.9a39,39,0,0,0-3.39,2.32l-.09.07c.18-.25.34-.51.53-.77,1.41-2,2.79-4,4.19-6,.68-1,1.36-2,2.12-2.88l.74-.88.18-.08,1.06-.67c.33-.22.65-.44,1-.64a12,12,0,0,1,1.83-.9l.41-.16-.26.1c.54-.19,1.08-.35,1.63-.5s1.16-.26,1.75-.39a35.06,35.06,0,0,1,3.81-.59l-.27,0,.32,0c.61-.06,1.23-.1,1.84-.17l2-.23h0l.61-.06-.27,0c1-.1,1.91-.24,2.86-.34h-.07c1.14-.11,2.28-.23,3.41-.39a11.72,11.72,0,0,0,1.67-.32,9.87,9.87,0,0,0,1.73-.68,6.62,6.62,0,0,0,2.78-2.46,2.72,2.72,0,0,0,.37-1.18,2.36,2.36,0,0,0-.17-1.17,3.35,3.35,0,0,0-.78-1.06,5.06,5.06,0,0,0-1.74-1,6.69,6.69,0,0,0-3.19-.41,34,34,0,0,0-3.62.55L260.5,61c-.55.13-1.09.28-1.64.44l-.75.22c-.36.12-.72.24-1.07.38l-1.73.67c-1.13.45-2.23,1-3.32,1.52-.61.31-1.19.64-1.77,1,1.37-1.59,2.81-3.11,4.27-4.62,1.65-1.72,3.22-3.5,4.93-5.16.49-.47,1-1,1.46-1.44L262,53h0l0,0c.22-.2.45-.4.66-.62a1.06,1.06,0,0,0-.13-1.5,1,1,0,0,0-.77-.26l-.21,0a1.16,1.16,0,0,0-.43.25h0l-.78.7,0,0c-.48.43-1,.85-1.44,1.3s-.81.81-1.23,1.21c-.84.82-1.67,1.66-2.48,2.51s-1.65,1.78-2.49,2.65c-.27.27-.53.55-.8.83.23-.4.45-.79.65-1.21s.47-1.06.74-1.58.51-1,.76-1.44.44-1,.64-1.46a9.74,9.74,0,0,0,.68-3.1,6,6,0,0,0-.18-2.1,5.37,5.37,0,0,0-.21-.56,2.53,2.53,0,0,0-.73-1,2.66,2.66,0,0,0-2.39-.47l-.09,0a4,4,0,0,0-1.28.72,4.85,4.85,0,0,0-.77.73c-.18.22-.33.45-.49.68-.33.49-.67,1-1,1.5a12.7,12.7,0,0,0-.67,1.45c-.46,1.13-.81,2.32-1.16,3.48-.2.7-.38,1.42-.6,2.12l-.64,2,0-.06,0,.07-.07.2a1.18,1.18,0,0,1,.07-.2c-.55,1.59-1.12,3.17-1.61,4.78-.24.73-.5,1.45-.74,2.18l0,.06a.7.7,0,0,0-.06.19c-.21.64-.41,1.27-.61,1.91-.39,1.08-.78,2.17-1.26,3.22A14.28,14.28,0,0,1,240,73.9c-.28.45-.57.9-.86,1.35-.14.2-.28.39-.41.59-.7,1-1.4,2-2.08,3l-1.32,1.88c.44-1.14.9-2.27,1.29-3.42s.79-2.46,1.1-3.71.51-2.22.74-3.33.51-2.25.7-3.38c.09-.54.15-1.09.22-1.64s.18-1.14.25-1.72c.13-1.21.19-2.43.22-3.65a18.82,18.82,0,0,0-.32-3.52,9.82,9.82,0,0,0-.5-1.86,6,6,0,0,0-.8-1.5c-.13-.17-.28-.33-.42-.48a2.31,2.31,0,0,0-1-.54,2.9,2.9,0,0,0-1.6,0l-.09,0a3.88,3.88,0,0,0-1.58,1,7.79,7.79,0,0,0-1.71,3.3A11.93,11.93,0,0,0,231.5,58a15.44,15.44,0,0,0-.19,1.65c-.05.67-.12,1.33-.13,2s0,1.22,0,1.83c0,1.22,0,2.44,0,3.67,0,.82.05,1.64,0,2.46,0,.27,0,.54,0,.81a1.48,1.48,0,0,0,0,.21h0v.09h0c0,.49-.05,1-.07,1.45,0-.1,0-.2,0-.31-.07,1.21-.2,2.4-.3,3.6-.05.59-.12,1.18-.18,1.77s-.09,1.22-.16,1.83c-.15,1.2-.32,2.4-.54,3.58-.12.61-.25,1.22-.4,1.82s-.23,1.07-.4,1.59l-.06.19c-.39,1.17-.83,2.33-1.29,3.48s-.86,2.46-1.23,3.7c-.16.48-.37.95-.58,1.42.19-1,.3-2.08.42-3.13s.24-2.26.33-3.39c0-.57.11-1.13.14-1.69s.05-1.27.09-1.9,0-1.21.05-1.82,0-1.13,0-1.7,0-1.19,0-1.8-.07-1.21-.13-1.82c-.09-1.2-.19-2.41-.3-3.61s-.22-2.46-.42-3.67a24.23,24.23,0,0,0-.9-3.57,14.19,14.19,0,0,0-1.55-3.09c-.13-.2-.27-.39-.41-.57s-.27-.3-.41-.45a3.66,3.66,0,0,0-.71-.51,4,4,0,0,0-1-.36,3.15,3.15,0,0,0-1.72.06l-.14.05a4.61,4.61,0,0,0-.86.43,4.79,4.79,0,0,0-.53.48,3.18,3.18,0,0,0-.44.53,5.34,5.34,0,0,0-.51.82,7.22,7.22,0,0,0-.38,1,11,11,0,0,0-.39,3.61c0,.56.08,1.13.13,1.7s.13,1.23.21,1.85.18,1.22.27,1.83.16,1.16.26,1.74c.24,1.39.53,2.77.8,4.15s.54,2.72.83,4.07a70.44,70.44,0,0,1,1.08,7.21c.11,1.19.18,2.39.21,3.59,0,.62,0,1.23,0,1.86s0,1.18,0,1.78c0,.4,0,.8,0,1.21a50.21,50.21,0,0,1-.47,5c-.14.94-.3,1.87-.5,2.8s-.46,1.87-.67,2.81c0,0,0,0,0,0-.23.54-.45,1.07-.69,1.6l-.38.87.09-.77c.13-1.25.18-2.52.19-3.79s-.08-2.41-.17-3.62-.21-2.52-.34-3.78-.32-2.33-.5-3.5-.38-2.37-.63-3.53a34,34,0,0,0-1.07-4c-.21-.57-.41-1.14-.64-1.69s-.59-1.25-.91-1.86l.14.27a16.58,16.58,0,0,0-1.68-2.81,4.69,4.69,0,0,0-3.22-2.06,4.12,4.12,0,0,0-1.48.17,3.43,3.43,0,0,0-1.13.6,3.88,3.88,0,0,0-1.2,2.3,5.89,5.89,0,0,0-.09,1c0,.3,0,.59,0,.9,0,.6.13,1.2.22,1.79a23.07,23.07,0,0,0,.87,3.58c.36,1.1.85,2.14,1.31,3.19s.93,2.17,1.37,3.25c.22.53.42,1.07.63,1.61s.39,1,.57,1.56c.62,1.9,1.3,3.8,1.75,5.75A39.68,39.68,0,0,1,212.29,112.67Zm3.44,22.42c.76-.84,1.5-1.68,2.29-2.48s1.68-1.69,2.58-2.47,1.71-1.39,2.59-2,2-1.33,3-2,2-1.21,3-1.75l3.24-1.71c1.05-.54,2.12-1,3.21-1.46l1.26-.5c.65-.23,1.31-.41,2-.59a15.26,15.26,0,0,1,2-.42,6.74,6.74,0,0,1,1.27,0,3.06,3.06,0,0,1,.43.13,3.76,3.76,0,0,1,.61.36l.19.2.06.11h0v0c0,.14-.08.28-.13.42a4.41,4.41,0,0,1-.47.74c-.34.4-.68.79-1.05,1.16s-.72.64-1.1.94a21.55,21.55,0,0,1-4.26,2.15l-1.58.58c-1.06.39-2.14.74-3.2,1.13s-2.25.81-3.37,1.23-2.25.92-3.36,1.42-2.16,1-3.24,1.52-2.11,1-3.12,1.62-2,1.21-3,1.84l-.12.07C215.58,135.26,215.66,135.18,215.73,135.09Zm-7.31-1.49c-.19-1.21-.38-2.42-.61-3.63-.06-.34-.14-.67-.21-1l.06.29c-.21-1-.44-2-.7-3s-.54-1.8-.81-2.7c-.52-1.73-1.09-3.44-1.48-5.21,0-.18-.09-.37-.13-.56-.18-.85-.36-1.71-.55-2.56-.1-.46-.2-.91-.31-1.37a10.24,10.24,0,0,1-.21-2.07,7.22,7.22,0,0,1,.22-1.2,3.09,3.09,0,0,1,.14-.32l.12-.14.05,0,.19-.07h.22l.18,0,.29.14c.13.1.26.22.38.33a5.1,5.1,0,0,1,.53.78,15.27,15.27,0,0,1,1,3.09c.23,1.1.45,2.2.6,3.31.09.59.2,1.18.28,1.77s.15,1.16.21,1.74c.12,1.19.23,2.38.34,3.57s.25,2.37.29,3.56c0,1,.06,1.93.08,2.89s0,1.82,0,2.74l0,.53C208.5,134.19,208.46,133.9,208.42,133.6Zm17.79-29.75c.5-.44,1-.84,1.56-1.24l-.12.09.16-.12.06,0-.05,0c.92-.66,1.84-1.32,2.8-1.93s2.16-1.3,3.26-1.92,2.28-1.3,3.44-1.92,2.28-1.11,3.44-1.63,2.45-1.12,3.69-1.67,2.39-1.07,3.61-1.53l1.63-.62c1.23-.44,2.47-.87,3.73-1.21a18.34,18.34,0,0,1,2-.44c.63-.11,1.26-.18,1.89-.25a10.43,10.43,0,0,1,2.09,0,4.15,4.15,0,0,1,.85.25,3.82,3.82,0,0,1,.48.29,2.37,2.37,0,0,1,.28.27,2,2,0,0,1,.1.21c0,.06,0,.12.05.18s0,.16,0,.24a3.37,3.37,0,0,1-.1.34,4.49,4.49,0,0,1-.47.75l-.51.59a4.53,4.53,0,0,1-.61.54,14.08,14.08,0,0,1-2.76,1.34c-1,.36-2.06.64-3.09.93s-2.23.69-3.34,1.06c-2.13.71-4.31,1.29-6.49,1.83-1.16.29-2.32.56-3.49.79a33,33,0,0,0-3.4.81,69,69,0,0,0-6.78,2.51l-.77.32a23.74,23.74,0,0,0-2.38,1c-.47.23-.92.49-1.38.75Zm43.45-40.5v0h0Zm0,0h0l0,0S269.64,63.31,269.65,63.32Zm-16.9,2.9c.84-.44,1.7-.84,2.57-1.23s1.69-.69,2.53-1c.67-.23,1.34-.43,2-.63s1.4-.34,2.1-.5,1.41-.3,2.12-.43,1.33-.2,2-.27a7.22,7.22,0,0,1,1.23,0,7.33,7.33,0,0,1,1.29.38,4.24,4.24,0,0,1,.65.38c.11.1.22.21.32.32l.11.2a.62.62,0,0,0,0,.13l-.06.2a3.21,3.21,0,0,1-.29.46,7.33,7.33,0,0,1-.91.85,7.54,7.54,0,0,1-1.41.73,16.75,16.75,0,0,1-3.91.72h.1l-.28,0H263l-.61.07.27,0-.93.1c-.75.07-1.5.18-2.25.26h.05l-.44,0-2.87.3c-.82.08-1.65.15-2.47.24s-1.56.21-2.33.35-1.58.3-2.36.49h0c.4-.22.79-.45,1.17-.68C251.06,67.17,251.89,66.67,252.75,66.22ZM246,64.29c.56-1.69,1.15-3.37,1.71-5.06s1-3.31,1.51-5a14.5,14.5,0,0,1,1.25-2.82l.5-.72a5.49,5.49,0,0,1,.7-.89,4.67,4.67,0,0,1,.58-.41,2.13,2.13,0,0,1,.35-.14h0l.09,0,.14.06.1.09a3.86,3.86,0,0,1,.19.54,5.92,5.92,0,0,1,.07,1.11,11.25,11.25,0,0,1-.42,2.14c-.15.39-.31.78-.48,1.16s-.49,1-.74,1.42-.42.79-.61,1.19-.43,1-.69,1.46c-.45.83-.9,1.67-1.39,2.49s-1,1.69-1.59,2.52-1.31,1.88-2,2.81C245.54,65.63,245.77,65,246,64.29Zm-1,3.11.06-.21-.06.21Zm-.07.19,0,0v0l0,.06Zm20.9,10.15-.15.19.16-.2Zm-27.72,7.19,1.38-.94c.5-.32,1-.61,1.51-.92,1.07-.67,2.14-1.33,3.23-2,.5-.3,1-.6,1.53-.88s1-.49,1.49-.71c1.11-.48,2.19-1,3.29-1.51.4-.18.81-.36,1.22-.52a36.59,36.59,0,0,1,4.54-1.4c.8-.18,1.59-.37,2.39-.52s1.55-.27,2.33-.36a8.8,8.8,0,0,1,1.92,0c.42.07.85.17,1.27.25a7.46,7.46,0,0,1,1.22.37,5,5,0,0,1,.64.36c.09.08.16.16.24.24a2.12,2.12,0,0,1,.11.21v0c0,.1-.07.2-.1.3a6.52,6.52,0,0,1-.48.76,5.93,5.93,0,0,1-.77.73,9.92,9.92,0,0,1-1.93,1c-2.21.79-4.51,1.27-6.77,1.88-1.11.31-2.21.65-3.33.92s-2.13.5-3.2.66c-.5.08-1,.13-1.5.21s-1.11.21-1.66.34c-1,.24-2.08.51-3.1.79-.49.13-1,.26-1.46.41s-1.22.43-1.83.68-1.11.47-1.66.7-1,.4-1.48.62c-.81.36-1.59.76-2.36,1.19l-.27.14C235.63,86.89,236.81,85.87,238.06,84.93Zm-5.79-2.66c.2-1.21.4-2.42.51-3.64.18-2.18.48-4.36.6-6.55,0-.23,0-.47,0-.7,0,.1,0,.2,0,.31.06-.92.15-1.86.15-2.78s0-1.86-.07-2.79,0-1.7,0-2.55,0-1.75,0-2.63c0-.71.1-1.42.19-2.12a12.11,12.11,0,0,1,.49-2.08,8,8,0,0,1,.67-1.56,4.62,4.62,0,0,1,.53-.64,2.35,2.35,0,0,1,.32-.23l.35-.14h.25l.1.09a3.46,3.46,0,0,1,.32.46,8.43,8.43,0,0,1,.59,1.66,21,21,0,0,1,.3,2.25,19.28,19.28,0,0,1,0,2.15c-.07,1.1-.17,2.18-.32,3.27s-.3,2.25-.53,3.37-.46,2.22-.67,3.33-.47,2.27-.77,3.39c-.19.7-.4,1.39-.62,2.08-.37,1.11-.79,2.19-1.2,3.29s-.84,2.25-1.32,3.35C232.21,82.66,232.24,82.46,232.27,82.27Zm-10,17.32c0-1.25,0-2.49.06-3.74a61.22,61.22,0,0,0-.44-7.29c-.14-1.22-.33-2.42-.55-3.63s-.47-2.31-.71-3.46L219.94,78c-.24-1.21-.46-2.42-.63-3.63-.09-.59-.19-1.18-.28-1.76s-.17-1.26-.23-1.89a22.68,22.68,0,0,1-.2-3.39,8.72,8.72,0,0,1,.34-1.82,4.26,4.26,0,0,1,.35-.75,3.73,3.73,0,0,1,.47-.58l.22-.16.34-.12.25,0,.3.06a2.76,2.76,0,0,1,.39.18l.25.22a9.07,9.07,0,0,1,1,1.58,14,14,0,0,1,.78,1.92c.2.66.38,1.33.54,2a71,71,0,0,1,.76,7.12,34,34,0,0,1,.2,3.63c0,1.18-.05,2.37-.07,3.55,0,.75,0,1.51-.07,2.26-.17,2.24-.35,4.49-.6,6.73-.13,1.06-.33,2.12-.54,3.17a30.74,30.74,0,0,1-.76,3.32c-.1.33-.21.66-.31,1a.36.36,0,0,1,0-.11l-.06.16,0,.1s0,0,0-.06-.09.26-.13.39v0l-.18.52C222.19,101,222.24,100.27,222.27,99.59Zm-3.17,21.25c.75-.76,1.52-1.49,2.32-2.2s1.48-1.24,2.26-1.82q3.06-2.13,6.25-4.07c1.06-.64,2.15-1.24,3.24-1.84s2.21-1.25,3.32-1.86,2-1.07,3-1.55,1.94-.88,2.93-1.27l-.26.1c1.5-.57,3-1.14,4.53-1.6.74-.22,1.52-.37,2.28-.52s1.39-.29,2.09-.38a17.05,17.05,0,0,1,3.35-.06l.27.07a3.28,3.28,0,0,1,.31.2l.19.18,0,.08c0,.14,0,.27,0,.41a3.9,3.9,0,0,1-.12.46,7.53,7.53,0,0,1-.61,1,9.35,9.35,0,0,1-1.49,1.46c-.34.23-.69.46-1,.66s-.85.4-1.27.6c-.84.37-1.67.73-2.52,1.07l.05,0-.1,0-.16.06.06,0c-1,.37-2,.77-2.94,1.14l.26-.09q-.8.28-1.59.6c-1.4.5-2.81,1-4.19,1.51-1.75.63-3.52,1.17-5.26,1.81-.93.34-1.89.61-2.82.94s-1.9.75-2.86,1.13l.25-.1c-1.13.43-2.25.89-3.37,1.34s-2.24.88-3.35,1.34-1.92.92-2.87,1.41l-.84.44Zm-4.53-5.7c0-.64,0-1.28-.07-1.91s0-1.17-.11-1.75c-.13-1.18-.36-2.35-.57-3.53-.12-.66-.24-1.34-.41-2s-.32-1.13-.5-1.7c-.68-2.17-1.37-4.36-2.24-6.47-.45-1.09-.91-2.17-1.37-3.25s-1-2.11-1.31-3.19c-.23-.71-.42-1.43-.6-2.15a15.67,15.67,0,0,1-.38-3.54,4.9,4.9,0,0,1,.16-.85,3,3,0,0,1,.18-.41l.08-.1.22-.15L208,84a2.73,2.73,0,0,1,.41,0l.37.06.34.17a5.48,5.48,0,0,1,.71.65,13.22,13.22,0,0,1,1.49,2.31,27.71,27.71,0,0,1,1.33,3,33.9,33.9,0,0,1,1.08,3.73c.07.3.13.59.19.88,0-.09,0-.2-.06-.3.24,1.16.44,2.33.62,3.5.09.62.21,1.23.3,1.84s.17,1.22.24,1.83c.14,1.23.26,2.46.37,3.7.05.61.11,1.21.13,1.82s0,1.16,0,1.74c0,.35,0,.69,0,1-.06.94-.12,1.88-.23,2.81s-.28,2-.48,2.91c-.08.38-.16.75-.25,1.13C214.57,116.25,214.57,115.7,214.57,115.14Z" class="cls-2"/><path d="M374,154.87s-.08,0-.12-.06a1.56,1.56,0,0,0-.28-.23s0-.06,0-.09a1.39,1.39,0,0,0-.83-.8l-3-.83c-.84-.25-1.66-.54-2.49-.85a42.91,42.91,0,0,0-4.85-1.45c-1.56-.39-3.14-.7-4.72-1a28.09,28.09,0,0,0-4.18-.52,35.18,35.18,0,0,0-9.69,1,24.47,24.47,0,0,0-4.08,1.29l-.42.18a37.91,37.91,0,0,0-4.4,2.36,42.73,42.73,0,0,0-3.84,2.7c-.64.49-1.29,1-1.9,1.5s-1.28,1.17-1.89,1.79l.06-.07-1,1c-.25.25-.49.52-.74.78l-.19.17,0,0q-1.15,0-2.31-.06c-1.78,0-3.55.11-5.32.24-3.41.25-6.81.4-10.23.6-1.26.08-2.53.21-3.8.34l-1.25.14.23-.16c1.77-1.14,3.62-2.16,5.38-3.3s3.65-2.39,5.38-3.71c.73-.54,1.44-1.09,2.18-1.61s1.62-1.12,2.4-1.72l2.15-1.7c.82-.63,1.61-1.3,2.42-2s1.55-1.19,2.32-1.79,1.4-1.12,2.08-1.7,1.45-1.28,2.17-1.92,1.56-1.37,2.34-2a25.36,25.36,0,0,0,1.9-1.84c.62-.66,1.21-1.35,1.85-2s1.49-1.57,2.19-2.39,1.25-1.53,1.88-2.29c.05-.06.1-.13.16-.19.43-.5.89-1,1.33-1.46s.93-1.11,1.4-1.66c.66-.72,1.37-1.39,2-2.13s1.14-1.44,1.68-2.17,1.16-1.52,1.7-2.31c.24-.36.5-.7.72-1.07a11.17,11.17,0,0,0,.73-1.47c.2-.39.41-.77.63-1.16a15.56,15.56,0,0,0,.91-1.94c.23-.54.45-1.1.66-1.66s.37-1.08.61-1.6c.44-1,.76-1.94,1.12-2.94a14.12,14.12,0,0,0,.49-1.6c.07-.29.13-.58.22-.87s.18-.55.26-.83a1.4,1.4,0,0,0-1.89-1.74,1.28,1.28,0,0,0-.77.82c-.12.42-.28.82-.37,1.25s-.26,1-.42,1.52c-.26.77-.54,1.54-.83,2.29-.16.43-.36.83-.55,1.24s-.34.85-.5,1.28q-.53,1.41-1.14,2.79c-.22.41-.45.81-.68,1.22s-.52,1-.76,1.53-.57.87-.87,1.3-.78,1.14-1.22,1.67c-.71.9-1.37,1.86-2.12,2.74-.51.55-1.05,1.06-1.55,1.62s-.91,1.07-1.36,1.61c-.69.75-1.39,1.49-2,2.27s-1.35,1.68-2.05,2.5c-.59.65-1.19,1.29-1.82,1.92s-1.2,1.34-1.83,2a27,27,0,0,1-2,1.86c-.78.67-1.55,1.35-2.32,2-.34.3-.67.64-1,.94l-1.11.94c-.7.58-1.41,1.14-2.12,1.71s-1.59,1.19-2.35,1.82-1.59,1.3-2.4,1.93-1.39,1.11-2.11,1.63-1.69,1.21-2.55,1.81-1.53,1.15-2.3,1.71-1.63,1.16-2.46,1.73c-1,.66-2,1.28-3,1.9l.13-.3c.27-.74.52-1.49.76-2.25.43-1.4.82-2.82,1.21-4.23s.82-3,1.15-4.46c.12-.56.23-1.12.35-1.68.24-.24.49-.48.75-.7s.38-.27.56-.42l.6-.49c.41-.33.84-.64,1.22-1s.78-.71,1.19-1,1-.86,1.56-1.29.94-.83,1.42-1.24a33.82,33.82,0,0,0,2.56-2.52,29.52,29.52,0,0,0,2.81-3.58,37.19,37.19,0,0,0,2.43-4.08,33.31,33.31,0,0,0,1.66-4.11c.23-.64.44-1.29.61-1.94.21-.85.38-1.72.53-2.58a41.48,41.48,0,0,0,.48-4.85,41.68,41.68,0,0,0,0-5.36c-.05-.77-.09-1.55-.17-2.31s-.18-1.53-.29-2.29a45.6,45.6,0,0,0-.82-4.62c-.53-2.09-1.07-4.18-1.7-6.25a1.24,1.24,0,0,0,.06-.64,1.45,1.45,0,0,0-.56-.87,1.4,1.4,0,0,0-1.05-.23l-.15,0a1.27,1.27,0,0,0-.62.09,2.73,2.73,0,0,0-.4.23c-.76.54-1.51,1.1-2.24,1.66s-1.27.93-1.88,1.42a22.48,22.48,0,0,0-1.85,1.67c-.63.63-1.21,1.31-1.8,2a32.82,32.82,0,0,0-6,7.86c-.33.66-.65,1.32-1,2s-.59,1.44-.88,2.17c-.54,1.37-1.05,2.75-1.48,4.17-.24.79-.51,1.58-.7,2.39s-.42,1.86-.62,2.79a41.91,41.91,0,0,0-.73,4.88c-.09.85-.16,1.7-.23,2.55s-.07,1.6-.06,2.4,0,1.59.05,2.38a14.38,14.38,0,0,0,.24,2.54c.09.45.21.88.3,1.33s.16.87.25,1.31.22.87.32,1.31a14.93,14.93,0,0,0,.45,1.62l0,.07a19,19,0,0,1,.53,2.49c.13.78.33,1.55.41,2.33a1.08,1.08,0,0,0,.23.55l0,.68c0-.12,0-.24,0-.36a6.82,6.82,0,0,1-.06,1.28,4.06,4.06,0,0,0-.13,1.25c-.3,1.15-.58,2.31-.91,3.45a35.35,35.35,0,0,1-2.24,6.18,8,8,0,0,1-.89,1.34c0,.05,0,.11-.07.16l-.58.37-1.6,1.1a45.39,45.39,0,0,1-5.2,2.87l-1.93.94-.27.08-.09,0a.81.81,0,0,0-.24.17c-1.06.51-2.12,1-3.16,1.53-1.89,1-3.71,2-5.56,3s-3.7,2-5.59,2.93c-.92.44-1.85.83-2.77,1.26s-1.84.88-2.78,1.31l-2.82,1.29-3,1.45-5.71,2.77c-.69.33-1.37.68-2.05,1l.2-.25c.33-.44.71-.84,1-1.28a13.07,13.07,0,0,1,.81-1c.46-.5.93-1,1.38-1.49s.89-1.12,1.36-1.65a19.41,19.41,0,0,0,1.35-1.65c.42-.58.83-1.18,1.24-1.78s.85-1.19,1.26-1.8.88-1.22,1.33-1.82.85-1.18,1.29-1.76.73-1.11,1.1-1.65.9-1.35,1.33-2,.81-1.39,1.19-2.1.85-1.36,1.21-2.09.59-1.23.9-1.84c.78-1.39,1.66-2.73,2.38-4.15.37-.71.69-1.45,1-2.17s.63-1.36,1-2l.17-.36a4.66,4.66,0,0,0,.47-.3c.15-.13.28-.28.43-.41a12.11,12.11,0,0,0,.93-.82,11,11,0,0,1,.88-.79c.36-.3.72-.6,1.07-.91A12.27,12.27,0,0,0,284,145.5c.33-.38.63-.79.95-1.16s.59-.74.86-1.12.63-.75.9-1.15c.59-.89,1.19-1.77,1.71-2.69.29-.5.56-1,.88-1.49s.67-1.09,1-1.64a15.61,15.61,0,0,0,1-2c.28-.69.6-1.37.88-2.06s.55-1.34.81-2,.48-1.43.69-2.17.39-1.62.53-2.44.19-1.62.25-2.42.13-1.56.16-2.34,0-1.59,0-2.39a42,42,0,0,0-.33-4.88,30.9,30.9,0,0,0-.85-4.57c-.18-.69-.38-1.36-.6-2-.4-1.21-.86-2.4-1.25-3.61-.2-.61-.42-1.23-.67-1.82s-.59-1.2-.87-1.81-.53-1.17-.85-1.74-.73-1.2-1.09-1.81a14.61,14.61,0,0,0-1.17-1.66A14.07,14.07,0,0,1,285.84,93c-.17-.26-.33-.52-.52-.77a9.38,9.38,0,0,0-.73-.91c-.53-.61-1.07-1.2-1.64-1.76a1.5,1.5,0,0,0-.95-.5c-.07,0-.13,0-.2,0a1.33,1.33,0,0,0-1.09,0l-.07,0a3.41,3.41,0,0,0-1.14,1.61,19.63,19.63,0,0,1-.19,2,28.12,28.12,0,0,1-2,5.24c-.87,1.87-1.7,3.75-2.61,5.59-.32.61-.64,1.22-.95,1.83-.71,1.33-1.42,2.65-2.18,4-.41.72-.82,1.44-1.25,2.16-.19.32-.37.65-.55,1h0l0,.07-.05.1h0c-.19.36-.38.73-.55,1.09a17.92,17.92,0,0,0-.86,2c-.25.71-.5,1.42-.74,2.14s-.46,1.59-.66,2.39-.29,1.56-.43,2.34-.21,1.32-.29,2a25.32,25.32,0,0,0-.16,4c0,.83.11,1.65.18,2.48a20.7,20.7,0,0,0,.31,2.35c.15.75.32,1.5.53,2.25s.52,1.57.79,2.35.5,1.33.78,2a15.93,15.93,0,0,0,.84,1.58,13.67,13.67,0,0,0,1.27,1.9c.34.44.69.86,1,1.31s.69,1,1,1.44a12.31,12.31,0,0,0,1.11,1.47c.39.39.74.8,1.12,1.18.18.17.32.36.48.54a5.82,5.82,0,0,1,.46.53c-.09.17-.17.35-.26.53-.48,1-.91,2-1.41,3.05s-1.12,1.87-1.66,2.81-1,1.92-1.5,2.9c-.29.52-.62,1-.92,1.54s-.71,1.33-1.11,2-.77,1.26-1.19,1.86-.79,1.14-1.16,1.73c-.17.24-.36.48-.54.72s-.47.66-.71,1c-.43.6-.9,1.18-1.34,1.78-.84,1.2-1.67,2.42-2.51,3.63a20.35,20.35,0,0,1-1.54,1.93c-.54.62-1,1.28-1.57,1.9a19.31,19.31,0,0,0-1.5,1.63c-.41.53-.8,1.08-1.24,1.6s-.8,1-1.21,1.51-.74.89-1.12,1.32a27.1,27.1,0,0,1-2.27,2.15c-.36.31-.69.63-1,.95s-.6.53-.88.82l-.18.23-.7.39-.14.05-.06,0a1.51,1.51,0,0,0-.26.18c-1.82,1-3.68,2-5.56,2.91s-3.84,2-5.69,3.18-3.93,2.47-5.88,3.74-3.72,2.41-5.56,3.64c-1.35.91-2.66,1.86-4,2.81v0c.58-1,1.1-2,1.63-3l-.17.32c.83-1.57,1.74-3.09,2.47-4.7s1.38-3.19,2.07-4.78c.21-.49.42-1,.64-1.45.6-.11,1.2-.2,1.8-.32a10.27,10.27,0,0,0,2.41-.93c.64-.3,1.3-.58,1.95-.88a17.57,17.57,0,0,0,1.91-1c.72-.42,1.42-.85,2.1-1.32l1.86-1.3c1.16-.8,2.26-1.7,3.35-2.6a28.81,28.81,0,0,0,2.66-2.64l.43-.47.11-.13-.06.07a56.73,56.73,0,0,0,3.66-4.39c.49-.64,1-1.3,1.39-2s.84-1.43,1.23-2.16c.77-1.47,1.44-3,2.06-4.54.56-1.37,1-2.79,1.5-4.18s.89-2.89,1.27-4.36.72-3,1-4.56c.22-1.25.34-2.53.44-3.8.1-1.09.26-2.19.47-3.28a16.5,16.5,0,0,1,.51-1.65,1.42,1.42,0,0,0,.09-.57,1.44,1.44,0,0,0-.15-1.59,1.36,1.36,0,0,0-.61-.4,1.31,1.31,0,0,0-1-.17c-1.6.48-3.26.82-4.81,1.45l-.11,0c-.58.25-1.15.53-1.71.8s-1.37.65-2,1-1.35.7-2,1.07-1.47.87-2.18,1.33-1.48,1-2.2,1.5a22.65,22.65,0,0,0-1.88,1.38c-.63.53-1.22,1.1-1.83,1.66s-1.22,1.09-1.81,1.65c-1.15,1.06-2.24,2.17-3.32,3.3a39.1,39.1,0,0,0-3.15,3.87c-.89,1.23-1.78,2.48-2.62,3.75a27.18,27.18,0,0,0-2.38,4.65,18.71,18.71,0,0,0-.86,2.52c-.24.89-.43,1.78-.62,2.67a29.42,29.42,0,0,0-.69,7.6,36.43,36.43,0,0,0,.32,3.76c.15,1.09.34,2.18.42,3.28,0,.33,0,.65.07,1s0,.53,0,.79c-.28.64-.57,1.26-.83,1.9-.64,1.54-1.28,3.08-2,4.57l.05-.08c-.76,1.43-1.54,2.87-2.29,4.31-.4.74-.8,1.47-1.25,2.18s-.89,1.37-1.34,2c-.91,1.36-1.86,2.69-2.82,4l-.29.22c-1.74,1.32-3.46,2.68-5.13,4.08-3.49,2.92-6.75,6.11-10,9.32l-.25.27c.22-.71.45-1.41.66-2.12.32-1.11.58-2.22.82-3.34v0c.11-.5.23-1,.34-1.5s.22-1.14.34-1.71a.53.53,0,0,0,.1-.06c.24-.24.47-.5.7-.75l0,0,0,0,.06-.06c.88-.95,1.79-1.86,2.63-2.84s1.62-1.86,2.37-2.83,1.67-2.11,2.43-3.21c.43-.59.83-1.19,1.2-1.82s.78-1.44,1.15-2.17a22.55,22.55,0,0,0,1-2.06c.31-.73.63-1.46.89-2.21a29.48,29.48,0,0,0,1.18-4.82,22.93,22.93,0,0,0,.27-2.48,23.43,23.43,0,0,0,.06-2.51c-.08-1.63-.18-3.27-.4-4.87-.08-.59-.17-1.18-.25-1.77s-.18-1.25-.33-1.86-.27-1.28-.41-1.92a23.61,23.61,0,0,0-.75-2.48l0,0h0a1.43,1.43,0,0,0-.43-.75,2,2,0,0,0-.16-.28,1.48,1.48,0,0,0-1-.5,1.27,1.27,0,0,0-.62.1,3.55,3.55,0,0,0-.42.23l-1.2.79.15-.1-.53.35-.05,0h0l-.11.07.06,0-.48.31.31-.19a19.12,19.12,0,0,0-2,1.44,25,25,0,0,0-1.83,1.88c-.5.54-1,1.09-1.43,1.66s-1.11,1.34-1.66,2-1,1.33-1.51,2-.93,1.29-1.32,2a29.39,29.39,0,0,0-1.9,4.39c-.35.93-.64,1.87-.9,2.83a28.09,28.09,0,0,0-.66,3.13c-.14,1-.24,2-.34,3a20.75,20.75,0,0,0,0,3,27.68,27.68,0,0,0,.35,3.85c.1.56.22,1.12.33,1.69a13.25,13.25,0,0,0,.46,1.75l.06.17,0,0,.09.26,0-.08.06.17,0-.06.1.29v0s0,.1.05.15v0c0,.08.05.16.07.24v-.05c.34,1.05.74,2.08,1.1,3.12a11.48,11.48,0,0,1,.53,2.23,1,1,0,0,0,.17.48l-.18.94-.06.28-.27,1.22h0l-.12.55c-.46,1.9-1,3.78-1.65,5.65-.34,1.07-.72,2.13-1.12,3.18-.23.6-.48,1.2-.75,1.78-1.19,1.46-2.36,2.93-3.42,4.48l-1.89,2.8c-.6.92-1.16,1.86-1.73,2.79-.48.78-.94,1.61-1.36,2.42-.66,1.24-1.32,2.48-2,3.72a1.58,1.58,0,0,0-.22,1.08,1.45,1.45,0,0,0,.6.89,1.41,1.41,0,0,0,1.08.2,1.32,1.32,0,0,0,.88-.59c1-1.92,2-3.82,3.08-5.7.87-1.53,1.84-3,2.81-4.45a81.41,81.41,0,0,1,6.42-8.28c.77-.85,1.55-1.69,2.35-2.52s1.43-1.45,2.16-2.16c1.65-1.62,3.31-3.22,5-4.76s3.44-3,5.24-4.45l.63-.19c.33-.06.68-.08,1-.15a14.52,14.52,0,0,1,1.63-.21c.65-.07,1.31-.1,2-.11l1.7-.07h.66c1.17,0,2.34.09,3.51.17a18.7,18.7,0,0,1,3.24.52l1.27.34h0l-.15,0c1.05.27,2.09.57,3.12.88a2,2,0,0,0,.08.76c.2.67.45,1.35.69,2s.42,1.25.68,1.86c.56,1.34,1.23,2.64,1.91,3.92a18.35,18.35,0,0,0,1.38,2.23,21.18,21.18,0,0,0,1.55,1.74c.69.69,1.37,1.37,2.09,2a19,19,0,0,0,1.73,1.38,13.13,13.13,0,0,0,2.13,1.34c.58.28,1.2.52,1.8.75a18.41,18.41,0,0,0,2,.62c.74.19,1.48.35,2.23.49,1.45.27,2.92.5,4.38.68a21.38,21.38,0,0,0,4.73.12c1-.1,2.06-.28,3.08-.47s1.83-.32,2.73-.51c2.07-.43,4.13-.87,6.16-1.43.7-.19,1.39-.39,2.07-.63l2.31-.84c1.44-.53,2.88-1,4.27-1.66a25,25,0,0,0,4.48-2.53c.67-.5,1.29-1.05,1.93-1.58l2.16-1.83.35-.31c.05,0,.07-.1.12-.14a1.41,1.41,0,0,0,.75-.5,1.36,1.36,0,0,0,.27-1,1.45,1.45,0,0,0-.56-1,1.53,1.53,0,0,0-1-.26,1.23,1.23,0,0,0-.49-.34c-.55-.2-1.1-.47-1.63-.72s-.89-.46-1.32-.69c-1.24-.68-2.49-1.35-3.78-1.92-.67-.31-1.35-.58-2-.87s-1.28-.57-1.94-.81c-1.45-.52-2.91-1.05-4.35-1.62-.68-.27-1.37-.57-2.07-.8s-1.5-.51-2.26-.75c-2.1-.68-4.16-1.42-6.29-1.95l.35.08c-.79-.2-1.59-.43-2.39-.55s-1.61-.2-2.41-.25c-1.48-.08-3-.19-4.44-.29-.77-.06-1.54-.11-2.32-.15a21.94,21.94,0,0,0-2.43,0c-.78.05-1.57.14-2.34.21s-1.53.16-2.28.27a23.65,23.65,0,0,0-3.11.69l-2.58.81c-1.82.59-3.67,1.1-5.51,1.6l-.07,0c-1.11-.34-2.24-.63-3.36-.91a24.91,24.91,0,0,0-4.26-.85c-.75-.07-1.51-.08-2.26-.15s-1.67-.07-2.51-.06-1.67,0-2.5.07l.59-.46c1.53-1.18,3.08-2.33,4.64-3.48,1.28-.95,2.59-1.84,3.9-2.74,1.83-1.22,3.67-2.4,5.52-3.61s3.84-2.48,5.79-3.68,3.78-2.24,5.75-3.22,3.91-2,5.82-3.05l.56-.31c1.28-.44,2.57-.86,3.88-1.23.45-.11.9-.24,1.35-.31s1.18-.17,1.77-.24c1-.11,2-.19,3.09-.22,1.73.05,3.45.15,5.17.26s3.22.23,4.82.4c1.76.2,3.5.45,5.24.79s3.41.66,5.11,1c.54.11,1.07.23,1.6.36,1.6.41,3.19.87,4.78,1.36l.46.16a1.77,1.77,0,0,0,.64.57l.45.23c.63.37,1.24.75,1.88,1.1l-.33-.18c.46.28.93.56,1.41.82l-.33-.18a15,15,0,0,1,2.69,1.93c.84.78,1.71,1.53,2.54,2.33a33.65,33.65,0,0,0,3.3,3c1.17.88,2.34,1.75,3.56,2.55s2.34,1.52,3.55,2.19a32.64,32.64,0,0,0,4.24,2,32,32,0,0,0,4.17,1.2,37.93,37.93,0,0,0,4.47.87c.74.08,1.49.11,2.24.17a20,20,0,0,0,2.45,0,32.22,32.22,0,0,0,4.4-.52,41.8,41.8,0,0,0,4.59-1.2c.72-.23,1.42-.49,2.14-.72a17.21,17.21,0,0,0,2.18-.79c.72-.32,1.45-.65,2.15-1s1.63-1,2.42-1.47a17.47,17.47,0,0,0,2.06-1.67q1-.89,1.95-1.8l.64-.62a1.59,1.59,0,0,0,.56-1,1.51,1.51,0,0,0-.3-1.11l-.09-.07a1.26,1.26,0,0,0-.29-.76c-.66-.74-1.33-1.48-2-2.21s-1.13-1.16-1.69-1.74L339.35,191a32.67,32.67,0,0,0-3.73-3.42c-.62-.46-1.27-.87-1.89-1.32s-1.4-1-2.11-1.47a24.71,24.71,0,0,0-2.42-1.33c-.7-.35-1.43-.66-2.16-.94-.36-.13-.74-.22-1.11-.32s-.95-.23-1.43-.33c-.72-.14-1.44-.27-2.16-.35-1.57-.18-3.13-.37-4.7-.43-.86,0-1.72-.05-2.59,0s-1.54.16-2.29.27a25.93,25.93,0,0,0-4.76,1.28l-.82.32a33.53,33.53,0,0,0-3.39,1.7c-.76.43-1.5.91-2.24,1.4s-1.33.85-2,1.29c-1.28.87-2.54,1.79-3.85,2.63-.79.51-1.56,1.05-2.36,1.54l-.22.12c-1.13-.36-2.26-.74-3.39-1.12-1.53-.52-3.07-1-4.62-1.43q-2.65-.76-5.38-1.3c-1.64-.33-3.28-.66-4.94-1a95.86,95.86,0,0,0-10.13-1.08,50.72,50.72,0,0,0-5.51-.18l-.57.05c.72-.38,1.44-.74,2.17-1.1l5.76-2.77c2-1,3.91-1.91,5.9-2.78.91-.41,1.8-.84,2.7-1.27s1.88-.85,2.81-1.28c1.92-.9,3.77-1.95,5.63-3s3.66-2.07,5.52-3c1.23-.62,2.47-1.21,3.71-1.79,2.4-.75,4.8-1.49,7.22-2.15l-.37.11a29.68,29.68,0,0,1,4.68-.69c1.66-.17,3.33-.31,5-.41s3.3-.19,5-.27,3.47-.23,5.2-.35c1-.07,2.06-.12,3.08-.14.67,0,1.34,0,2,.06a1.88,1.88,0,0,0,.5.36l.71.37.36.19c.64.37,1.29.75,1.94,1.11l-.17-.09.19.11.14.08-.12-.07c1.27.69,2.58,1.34,3.89,2a31.28,31.28,0,0,0,4.12,1.79c.81.26,1.65.48,2.49.66s1.38.22,2.07.29,1.42.14,2.13.2,1.48.16,2.23.2,1.38,0,2.05,0c.87,0,1.73,0,2.59-.08a43.73,43.73,0,0,0,4.39-.62c.77-.13,1.55-.3,2.32-.47s1.48-.36,2.19-.59a22,22,0,0,0,4-1.86,26.71,26.71,0,0,0,3.37-2.3c1-.8,2-1.63,3-2.5.53-.49,1-1,1.54-1.53s.92-1,1.32-1.49c.87-1.19,1.69-2.41,2.5-3.63A1.48,1.48,0,0,0,374,154.87Zm-50.19-52.61c.23,1.31.43,2.61.62,3.92s.28,2.58.36,3.87c0,.88.05,1.75,0,2.62s-.09,2-.15,3-.14,1.89-.26,2.83-.29,1.79-.47,2.67a27.83,27.83,0,0,1-1,3.1,26,26,0,0,1-1.32,3.18,34.51,34.51,0,0,1-2.12,3.49,30.69,30.69,0,0,1-2.34,3.1,34.69,34.69,0,0,1-2.51,2.49c-.46.39-.9.8-1.36,1.19s-1.08.87-1.61,1.32-.81.68-1.18,1a8,8,0,0,1-.63.55c.27-1.37.52-2.74.77-4.12.14-.83.3-1.65.43-2.48s.25-1.67.37-2.5c.23-1.7.64-3.37,1-5.06.06-.29.12-.59.19-.88,0,.06,0,.11,0,.17.26-1.12.51-2.23.76-3.35.74-3.25,1.6-6.49,2.61-9.67.53-1.65,1-3.31,1.6-5,.28-.78.62-1.54.94-2.31s.66-1.58,1-2.35c.48-1,1-1.91,1.44-2.86l1.63-2.76c.09.35.2.69.29,1C323.27,99.76,323.62,101,323.84,102.26ZM306.43,139.5c-.11-.5-.22-1-.34-1.48s-.18-1-.28-1.52-.21-1-.32-1.48a11.39,11.39,0,0,1-.17-1.29v.11s0-.08,0-.12,0-.17,0-.26a1,1,0,0,0,0,.17c-.05-1-.06-1.92-.07-2.89,0-1.13.07-2.25.17-3.38s.22-2.26.36-3.38.35-2.11.57-3.17.49-2.16.82-3.23.68-2.2,1.08-3.28.77-2,1.16-3,.84-1.92,1.31-2.86a30.56,30.56,0,0,1,4.15-5.7c.47-.5.95-1,1.41-1.49l1.24-1.4c.41-.42.84-.83,1.28-1.22-.28.49-.57,1-.82,1.48-.39.78-.81,1.55-1.16,2.33-.75,1.63-1.47,3.28-2.08,5-.27.76-.5,1.55-.74,2.33s-.51,1.53-.75,2.3c-1,3.28-1.93,6.58-2.68,9.93-.4,1.8-.81,3.59-1.19,5.39-.17.82-.36,1.65-.51,2.47s-.26,1.62-.38,2.43c-.32,2.2-.71,4.39-1.11,6.58-.16.81-.33,1.61-.48,2.42,0-.11,0-.22-.07-.33C306.71,140.46,306.53,140,306.43,139.5Zm-1.33,9.33h0a2.82,2.82,0,0,0-.07.31Zm-17.8-48.22c.28.64.64,1.25.91,1.9s.49,1.25.7,1.88c0-.12-.08-.24-.11-.35.41,1.27.89,2.53,1.31,3.81.07.21.15.42.21.63,0-.11-.07-.24-.11-.35.21.7.4,1.42.59,2.14s.34,1.67.48,2.51.21,1.56.29,2.35.15,1.41.2,2.11c.05,1.45.05,2.91,0,4.36a33,33,0,0,1-.54,4.86,27.29,27.29,0,0,1-1.31,4c-.31.75-.61,1.5-.93,2.24s-.51,1.24-.81,1.85c-.5.9-1.11,1.74-1.63,2.64a28.54,28.54,0,0,1-1.58,2.51c-.29.4-.54.84-.87,1.22s-.56.69-.83,1-.54.67-.82,1-.5.6-.75.89h0c.22-.62.44-1.24.69-1.85.58-1.47,1.14-3,1.63-4.47s.79-3.15,1.21-4.71a77,77,0,0,0,1.81-9.86c.21-1.64.2-3.3.3-4.94s.13-3.3.1-5,0-3.36-.12-5-.18-3.25-.39-4.86c-.14-1.05-.36-2.08-.58-3.12-.14-.7-.31-1.4-.49-2.09A24.31,24.31,0,0,1,287.3,100.61Zm-17.32,35a22.84,22.84,0,0,1-.84-3.66c-.15-1.15-.25-2.32-.32-3.48a24.26,24.26,0,0,1,.17-3.62c.15-1.22.34-2.44.58-3.64.15-.62.31-1.24.5-1.86s.41-1.23.62-1.85.39-1.13.63-1.67.51-1.08.78-1.61l0-.06a.94.94,0,0,0,.12-.22c.73-1.35,1.55-2.65,2.29-4,.83-1.52,1.65-3,2.45-4.58,1.2-2.28,2.2-4.66,3.3-7,.24-.49.44-1,.65-1.52s.46-1.19.65-1.8c.05-.14.07-.28.12-.42.41,1,.82,2.08,1.19,3.14.48,1.74.82,3.53,1.14,5.32a26,26,0,0,1,.29,2.8c0,.79.1,1.58.15,2.38a96.67,96.67,0,0,1,0,9.78c-.06.84-.08,1.66-.11,2.49s-.12,1.63-.22,2.44c-.2,1.63-.47,3.25-.74,4.86-.1.64-.22,1.28-.35,1.92-.33,1.53-.76,3-1.12,4.56a34.23,34.23,0,0,1-1.35,4.46c-.54,1.43-1.1,2.84-1.59,4.28s-1.09,2.78-1.7,4.14l-.43-.48c-.25-.28-.5-.55-.76-.81a7.45,7.45,0,0,1-.75-.95c-.49-.69-1-1.39-1.48-2.08s-1.06-1.31-1.55-2a20.93,20.93,0,0,1-1.22-2.35C270.66,137.54,270.31,136.56,270,135.58Zm-14.06,14c-.1,1.08-.2,2.16-.39,3.23s-.37,1.93-.57,2.89c-.26,1.13-.56,2.25-.88,3.36s-.78,2.36-1.18,3.54a48.25,48.25,0,0,1-2.8,6.83,31.29,31.29,0,0,1-2.39,3.75c-1,1.38-2.14,2.69-3.28,4l.25-.27-.57.62.06-.07-.14.16-.1.12,0,0c-.22.23-.43.47-.65.71l.08-.09c-.56.58-1.12,1.16-1.72,1.7s-1.12.89-1.66,1.34-1.41,1.1-2.15,1.6-1.38,1-2.08,1.45c-.47.29-.95.57-1.43.85s-1,.61-1.61.86-1.1.49-1.65.76-1.07.52-1.62.74l-.19,0c.64-1.59,1.22-3.2,1.83-4.8.33-.88.67-1.75,1-2.62s.69-1.6,1-2.4.7-1.63,1.06-2.45.7-1.42,1.06-2.12l0,.06.67-1.26,0,0L236,172c.82-1.49,1.69-2.95,2.55-4.43s1.56-2.93,2.48-4.33c.51-.77,1-1.54,1.56-2.29s1-1.31,1.48-2c1-1.35,2.15-2.62,3.25-3.92.26-.3.52-.61.79-.91.83-.88,1.67-1.72,2.56-2.53s1.94-1.71,2.91-2.57,1.75-1.57,2.69-2.28C256.11,147.68,256,148.63,255.92,149.58ZM227,179c0-.65.13-1.3.21-1.94s.19-1.33.33-2l-.09.38c.1-.41.19-.82.27-1.24a23.68,23.68,0,0,1,1-3.53c.42-1.06.87-2.11,1.38-3.13a36.69,36.69,0,0,1,2.75-4.14c.51-.71,1-1.44,1.55-2.12s1-1.34,1.55-2c.76-.79,1.53-1.56,2.29-2.34.92-.95,1.94-1.82,2.92-2.72l1.5-1.4c.47-.43,1-.81,1.48-1.2,1-.75,2-1.45,3.1-2.13.65-.42,1.32-.83,2-1.2l1.9-1-1.12,1-2,1.81c-.62.56-1.18,1.19-1.76,1.79s-1.2,1.35-1.79,2-1.08,1.24-1.6,1.87a53.66,53.66,0,0,0-5.86,8.57c-.83,1.52-1.7,3-2.57,4.5-.46.78-.87,1.6-1.3,2.41s-.8,1.51-1.18,2.29c-.75,1.56-1.4,3.17-2.09,4.75s-1.32,3.27-1.94,4.91c-.21.57-.42,1.14-.64,1.71-.1-.79-.21-1.58-.26-2.39C227,181.41,226.93,180.22,227,179Zm-15.68.62c.08.48.15,1,.22,1.44.28,1.92.48,3.84.58,5.77a29,29,0,0,1-.61,6.51,24,24,0,0,1-1.13,3.52c-.5,1.18-1,2.37-1.58,3.5v0l-.12.23.09-.18-.1.2-.07.12.06-.1a29.61,29.61,0,0,1-1.62,2.64c-.6.85-1.22,1.69-1.86,2.5-1.06,1.36-2.19,2.66-3.34,3.93.1-.57.2-1.13.29-1.7.23-1.47.5-2.93.71-4.4.11-.77.19-1.54.32-2.3s.3-1.52.46-2.28a1.16,1.16,0,0,0,0,.18l.54-2.44c0,.12-.05.24-.08.37l.33-1.48c0,.12-.05.24-.08.37.33-1.43.7-2.82,1.12-4.22l.6-2.05c.22-.73.41-1.48.64-2.21s.49-1.52.75-2.27.52-1.31.8-2c.59-1.37,1.22-2.73,1.9-4.06.27-.49.55-1,.83-1.43,0,.13,0,.26.07.38C211.09,178.69,211.23,179.16,211.31,179.64Zm-12.59,28.83,0-.11c0-.08-.05-.16-.08-.24a.88.88,0,0,1,0,.15c-.1-.33-.22-.67-.33-1l.12.35a27.09,27.09,0,0,1-.94-5.64c0-.5,0-1-.08-1.52,0,.13,0,.26,0,.38a20.7,20.7,0,0,1,.16-2.94c.11-1.1.24-2.19.45-3.28a28.92,28.92,0,0,1,1.17-4.06,36.83,36.83,0,0,1,1.5-3.68c.39-.67.84-1.31,1.28-1.95s1-1.43,1.57-2.12,1.18-1.42,1.77-2.14c.45-.56.91-1.11,1.39-1.64.22-.24.46-.46.69-.7l-.05.1c-.81,1.56-1.52,3.18-2.21,4.81A39.56,39.56,0,0,0,203.6,188c-.45,1.61-1,3.21-1.4,4.82-.26.95-.48,1.91-.69,2.88,0,.06,0,.13,0,.19h0l0,.1,0-.09-.21.91,0-.06,0,.16a1.6,1.6,0,0,1,0,.21l0-.12c-.38,1.62-.75,3.24-1,4.9s-.47,3.32-.76,5c-.15.85-.29,1.71-.43,2.56-.07-.22-.16-.44-.23-.66,0,.12.08.23.11.35-.07-.23-.15-.47-.23-.71ZM281,226a36.7,36.7,0,0,1-5.76,2.58c-1.05.37-2.09.77-3.14,1.14s-1.85.6-2.8.87c-1.95.5-3.93.93-5.91,1.33-1,.21-2,.38-3,.55a21.49,21.49,0,0,1-3.09.35,33,33,0,0,1-4.44-.43c-1.44-.23-2.89-.45-4.31-.78l.08,0-.1,0-.25-.06.24.06a20.07,20.07,0,0,1-3.82-1.39,19.09,19.09,0,0,1-1.66-1.17c-.58-.45-1.15-.91-1.68-1.41-.66-.66-1.31-1.32-1.94-2a13.62,13.62,0,0,1-1.55-2.07c-.75-1.36-1.44-2.78-2.08-4.19a20.06,20.06,0,0,1-.73-2c-.09-.26-.17-.52-.25-.78l1.8.44h0c1.76.5,3.49,1.1,5.21,1.73,1,.35,1.91.68,2.89,1s2.09.61,3.14.87l-.36-.09c1.5.39,3,.84,4.5,1.22s3.16.71,4.74,1c.78.16,1.55.3,2.33.41s1.51.17,2.27.24c1.59.15,3.17.37,4.75.55s3.18.37,4.78.47a43.61,43.61,0,0,0,5.24,0c1.75-.09,3.49-.19,5.23-.31l2.42-.15-.1.09A25.74,25.74,0,0,1,281,226ZM241.88,213a29.69,29.69,0,0,1,4.07-.64l2-.19c.62-.05,1.24-.07,1.86-.08.88,0,1.74.08,2.61.14l2.67.2c1.05.08,2.11.12,3.16.21a18.59,18.59,0,0,1,2.87.53l-.36-.09.75.2-.12,0c1.51.39,3,.9,4.47,1.39s3,1,4.46,1.52,2.83,1.11,4.27,1.62c.68.25,1.38.48,2.05.76l2,.85c1.33.54,2.62,1.16,3.9,1.82l-2.09.12-3.52.2c-1.12.07-2.26.14-3.39.15h-.54a80.16,80.16,0,0,1-9.53-.87c-1.53-.2-3.07-.31-4.59-.53-.81-.13-1.61-.3-2.4-.46l-2.32-.49-1.72-.4c-1.53-.41-3-.86-4.58-1.24l.36.09c-1.14-.32-2.29-.63-3.43-1s-2.15-.76-3.23-1.14-2-.71-3-1c-.39-.12-.77-.2-1.16-.3l.5-.14C239.24,213.77,240.55,213.33,241.88,213Zm98.34-9.77c-.41.29-.85.56-1.29.82-.64.37-1.29.68-1.95,1a16.19,16.19,0,0,1-2,.84c-.66.22-1.32.43-2,.66s-1.36.48-2,.68l-.4.11c-1.22.31-2.46.62-3.71.81a34.74,34.74,0,0,1-3.82.34c-.71,0-1.41-.06-2.11-.12a20.17,20.17,0,0,1-2.21-.22c-1.37-.23-2.74-.55-4.1-.88a28.6,28.6,0,0,1-3.28-1.08,29,29,0,0,1-3.2-1.48c-.73-.41-1.43-.87-2.14-1.3-.89-.55-1.75-1.13-2.61-1.73s-1.54-1.12-2.31-1.7a24.62,24.62,0,0,1-2.34-2.11l.2.2c-.8-.81-1.64-1.57-2.49-2.33,1.58.5,3.13,1.06,4.69,1.63s3.37,1.15,5.08,1.68,3.23,1,4.86,1.43,3.26.84,4.91,1.22c1.47.34,2.95.55,4.44.77s3,.46,4.52.56,2.84.19,4.26.26c.84,0,1.69.1,2.54.1.68,0,1.34-.1,2-.16l2.07-.17c.64-.05,1.28-.08,1.92-.19s1.19-.2,1.79-.27,1.12-.12,1.68-.17C340.91,202.65,340.58,202.92,340.22,203.18Zm-43-10.63c.88-.54,1.74-1.12,2.6-1.7s1.79-1.24,2.7-1.84,1.64-1.07,2.48-1.58c1.06-.59,2.13-1.15,3.24-1.65a24.43,24.43,0,0,1,3.11-1.1,23,23,0,0,1,4.89-.66c1.5,0,3,.14,4.46.31a37.45,37.45,0,0,1,4.2.67,9.67,9.67,0,0,1,1,.27c.39.13.78.3,1.16.46.76.32,1.49.69,2.22,1.08,1.19.73,2.31,1.57,3.46,2.35a26.18,26.18,0,0,1,3.09,2.45c1.36,1.35,2.68,2.73,4,4.1.65.66,1.32,1.31,1.95,2s1,1.07,1.45,1.6c-.59.1-1.19.18-1.79.24-1.2.11-2.41.19-3.6.4a31.75,31.75,0,0,1-3.24.34c-.51,0-1,.08-1.51.14s-1.05.12-1.58.13c-1.37,0-2.73-.15-4.09-.22a42.86,42.86,0,0,1-4.39-.39c-1.59-.23-3.19-.43-4.77-.71s-2.86-.61-4.28-1l-.2-.06c-1.48-.39-2.95-.84-4.41-1.28-1.7-.5-3.38-1-5.07-1.57s-3.14-1.18-4.72-1.72c-.9-.3-1.8-.57-2.7-.85Zm35.19-33.19a50.65,50.65,0,0,1,4.72-3.25l1.41-.79c.57-.32,1.17-.59,1.76-.86a25.46,25.46,0,0,1,3.27-1.17c1.37-.35,2.77-.64,4.16-.86a39.47,39.47,0,0,1,4.47-.4,30.57,30.57,0,0,1,4.37.38c.86.14,1.7.32,2.56.49s1.78.35,2.66.57l-.16,0,.25.06,1.46.38,1.68.48c.68.22,1.35.48,2,.73s1.5.5,2.26.72c-1,.47-2,1-3,1.42a45.71,45.71,0,0,1-5.68,1.92l.27-.07-.3.08-.08,0,.08,0c-1.44.38-2.9.67-4.36,1s-3.05.52-4.57.8a58.31,58.31,0,0,1-9.69.81h-.62c-1,0-2,0-3-.06l-1.69-.05c-.64,0-1.29,0-1.93,0-1.74,0-3.47.11-5.21.17.23-.23.46-.46.7-.67C330.89,160.54,331.63,159.94,332.4,159.36Zm35.64,1c-1,1-2.15,1.94-3.27,2.84a35.9,35.9,0,0,1-3.44,2.46,21.85,21.85,0,0,1-4.45,2c-1.51.38-3,.66-4.57.93a31.47,31.47,0,0,1-4.74.48h-.3c-.7,0-1.42,0-2.12,0s-1.61-.13-2.42-.21a36.33,36.33,0,0,1-4.17-.56,18.83,18.83,0,0,1-2.57-.84c-.82-.34-1.61-.72-2.4-1.11l-2.94-1.5c1.89-.07,3.77-.14,5.66-.17,1.59,0,3.19.11,4.78.12,1.77,0,3.53-.07,5.28-.17,1.58-.09,3.15-.26,4.71-.49.79-.11,1.57-.26,2.34-.39s1.5-.23,2.24-.38a74.27,74.27,0,0,0,9.09-2.32,39.56,39.56,0,0,0,4.22-1.7l.13-.06-.12.14C368.67,159.72,368.36,160.06,368,160.39Z" class="cls-3"/><path d="M5.45,81.26l.12-.05A1.56,1.56,0,0,1,5.85,81s0-.06,0-.09a1.41,1.41,0,0,1,.83-.81c1-.27,2-.54,3-.83.84-.25,1.66-.53,2.49-.85A42.86,42.86,0,0,1,17,77c1.56-.39,3.14-.7,4.72-1a28.09,28.09,0,0,1,4.18-.52,35.17,35.17,0,0,1,9.69,1,25.47,25.47,0,0,1,4.08,1.3l.42.18a37.91,37.91,0,0,1,4.4,2.36A42.73,42.73,0,0,1,48.34,83c.64.48,1.29,1,1.9,1.49s1.28,1.17,1.89,1.8l-.06-.07c.33.34.68.68,1,1l.74.79.19.17,0,0,2.31,0c1.78,0,3.55.1,5.32.24,3.4.25,6.81.4,10.22.6,1.27.08,2.54.21,3.81.34L77,89.5l-.23-.16C75,88.2,73.11,87.18,71.35,86S67.7,83.65,66,82.33c-.73-.55-1.44-1.09-2.18-1.61S62.17,79.6,61.39,79l-2.15-1.7c-.82-.63-1.61-1.3-2.42-2s-1.55-1.19-2.32-1.79-1.4-1.13-2.08-1.7S51,70.58,50.25,69.94s-1.56-1.37-2.34-2A25.36,25.36,0,0,1,46,66.05c-.62-.66-1.21-1.35-1.85-2S42.67,62.49,42,61.67s-1.25-1.54-1.88-2.29l-.16-.2L38.6,57.72c-.49-.53-.93-1.1-1.4-1.65-.66-.72-1.37-1.4-2-2.13s-1.14-1.44-1.68-2.18-1.16-1.51-1.7-2.31c-.24-.35-.5-.7-.72-1.07a10.47,10.47,0,0,1-.73-1.46c-.2-.39-.41-.78-.63-1.16a15.56,15.56,0,0,1-.91-1.94c-.23-.55-.45-1.1-.66-1.66s-.37-1.08-.61-1.6c-.44-1-.76-2-1.12-2.94A12.34,12.34,0,0,1,26,36c-.08-.29-.13-.59-.22-.87s-.18-.55-.26-.83a1.43,1.43,0,0,1,.87-1.79,1.49,1.49,0,0,1,1,0,1.3,1.3,0,0,1,.77.83c.12.42.28.82.37,1.24s.26,1,.42,1.53c.26.77.54,1.53.83,2.29.16.42.36.83.55,1.24A13.07,13.07,0,0,1,30.8,41q.52,1.41,1.14,2.79c.22.41.45.81.68,1.22s.52,1,.76,1.53.57.87.87,1.3S35,49,35.47,49.49c.71.9,1.37,1.86,2.12,2.74.51.55,1,1.06,1.55,1.62s.91,1.07,1.36,1.61c.69.74,1.39,1.49,2,2.27s1.35,1.68,2.05,2.5c.58.65,1.19,1.29,1.82,1.91s1.2,1.35,1.83,2a25,25,0,0,0,2,1.86l2.32,2c.34.31.67.65,1,.94l1.11.94c.7.59,1.41,1.15,2.12,1.72s1.59,1.19,2.35,1.82,1.59,1.29,2.4,1.93S62.94,76.5,63.66,77s1.69,1.21,2.55,1.81,1.53,1.15,2.3,1.71S70.14,81.7,71,82.27c1,.66,2,1.28,3,1.9l-.13-.3c-.27-.75-.52-1.5-.76-2.25-.43-1.41-.82-2.82-1.21-4.23s-.82-3-1.15-4.46c-.12-.56-.23-1.13-.35-1.69a9.73,9.73,0,0,0-.75-.69c-.18-.15-.38-.28-.56-.43l-.6-.49c-.41-.33-.84-.63-1.23-1s-.77-.71-1.18-1.05-1-.86-1.56-1.28-.94-.83-1.42-1.24a33.82,33.82,0,0,1-2.56-2.52A29.52,29.52,0,0,1,57.73,59a38.15,38.15,0,0,1-2.43-4.08,33.31,33.31,0,0,1-1.66-4.11c-.23-.64-.44-1.29-.61-1.95-.21-.85-.38-1.71-.53-2.57A43.77,43.77,0,0,1,52,41.39,43.57,43.57,0,0,1,52,36c0-.78.09-1.55.17-2.32s.18-1.52.29-2.28a45.12,45.12,0,0,1,.82-4.62c.53-2.1,1.07-4.18,1.7-6.25a1.25,1.25,0,0,1-.06-.64,1.38,1.38,0,0,1,1.61-1.1l.15,0a1.4,1.4,0,0,1,.62.1,2.73,2.73,0,0,1,.4.23c.76.54,1.51,1.1,2.24,1.66s1.27.92,1.88,1.42,1.26,1.07,1.85,1.66,1.21,1.32,1.8,2a32.62,32.62,0,0,1,6,7.86c.33.65.65,1.32,1,2s.59,1.45.88,2.18c.54,1.37,1,2.75,1.48,4.17.24.79.51,1.58.7,2.39s.42,1.85.62,2.78a42.4,42.4,0,0,1,.73,4.89c.09.85.16,1.7.23,2.54s.07,1.61.06,2.4,0,1.6,0,2.39A14.47,14.47,0,0,1,76.79,62c-.09.44-.21.88-.3,1.33s-.16.87-.25,1.3-.22.88-.32,1.32a15.59,15.59,0,0,1-.45,1.62l0,.06a19.15,19.15,0,0,0-.53,2.5c-.13.78-.33,1.55-.41,2.33a1.08,1.08,0,0,1-.23.55l0,.68c0-.12,0-.24,0-.36a6.82,6.82,0,0,0,.06,1.28,4,4,0,0,1,.13,1.24c.3,1.16.58,2.32.91,3.46a35.25,35.25,0,0,0,2.24,6.17,8.08,8.08,0,0,0,.89,1.35s0,.11.07.15c.19.13.39.25.57.38.54.36,1.08.72,1.61,1.1A47,47,0,0,0,86,91.37l1.93.94.27.08.09,0a1.08,1.08,0,0,1,.24.18c1.06.5,2.12,1,3.16,1.53,1.89.94,3.71,2,5.56,3s3.7,2,5.59,2.94c.91.44,1.85.83,2.77,1.25s1.84.89,2.78,1.31,1.88.85,2.82,1.3l3,1.45c1.9.93,3.81,1.84,5.71,2.76l2.05,1-.2-.24c-.33-.44-.71-.85-1-1.28a11.46,11.46,0,0,0-.81-1c-.46-.5-.93-1-1.38-1.49s-.89-1.12-1.36-1.66a17.82,17.82,0,0,1-1.35-1.64c-.42-.59-.83-1.19-1.24-1.78s-.85-1.19-1.26-1.81-.88-1.22-1.33-1.81-.85-1.18-1.29-1.76-.73-1.11-1.1-1.65-.9-1.35-1.33-2-.81-1.4-1.19-2.11-.85-1.36-1.21-2.08-.59-1.23-.9-1.84c-.78-1.4-1.66-2.73-2.38-4.15-.37-.71-.69-1.45-1-2.18s-.64-1.35-1-2l-.17-.36c-.16-.1-.32-.19-.47-.3s-.28-.28-.43-.41c-.31-.28-.65-.52-.93-.82s-.58-.53-.88-.8-.72-.6-1.07-.91a11.15,11.15,0,0,1-1.14-1.14c-.33-.37-.63-.78-1-1.15S94,70,93.69,69.62s-.63-.75-.9-1.16c-.59-.88-1.19-1.76-1.71-2.68-.29-.51-.56-1-.88-1.5s-.67-1.09-1-1.64a14.86,14.86,0,0,1-.95-2c-.28-.7-.6-1.38-.88-2.07s-.55-1.33-.81-2-.49-1.44-.69-2.17-.39-1.62-.53-2.44-.19-1.62-.25-2.42S85,48,84.94,47.22s0-1.6,0-2.39A42,42,0,0,1,85.23,40a31,31,0,0,1,.85-4.58c.18-.68.38-1.35.6-2,.4-1.22.86-2.4,1.25-3.61.2-.61.42-1.23.67-1.82s.59-1.2.87-1.81.53-1.17.85-1.75.73-1.2,1.09-1.8a13.45,13.45,0,0,1,1.17-1.66,15.21,15.21,0,0,0,1.06-1.47c.17-.27.33-.53.52-.78s.48-.61.73-.91c.53-.6,1.07-1.19,1.64-1.75a1.42,1.42,0,0,1,1-.5c.07,0,.13,0,.2,0a1.33,1.33,0,0,1,1.09,0l.07,0a1.33,1.33,0,0,1,.62.64,1.4,1.4,0,0,1,.52,1,19.63,19.63,0,0,0,.19,2,28.39,28.39,0,0,0,2,5.24c.87,1.86,1.7,3.74,2.61,5.59.32.61.64,1.22,1,1.83.71,1.32,1.42,2.65,2.18,4,.41.71.82,1.43,1.25,2.15.19.33.37.66.55,1h0l0,.07.05.1h0c.19.36.38.72.55,1.08a18.07,18.07,0,0,1,.86,2c.25.71.5,1.42.74,2.14s.46,1.59.66,2.39.29,1.55.43,2.34.21,1.32.29,2a25.32,25.32,0,0,1,.16,4c0,.83-.11,1.65-.18,2.47a20.41,20.41,0,0,1-.31,2.35c-.15.76-.32,1.51-.53,2.26s-.52,1.57-.79,2.35-.5,1.33-.78,2a15.93,15.93,0,0,1-.84,1.58,14.29,14.29,0,0,1-1.27,1.9c-.34.44-.69.86-1,1.3l-1,1.45a12.31,12.31,0,0,1-1.11,1.47c-.39.38-.74.8-1.13,1.18-.17.17-.31.36-.47.53s-.32.35-.46.54c.09.17.17.35.26.52.48,1,.91,2,1.41,3s1.12,1.87,1.66,2.81,1,1.93,1.5,2.91c.29.52.62,1,.92,1.54s.71,1.33,1.11,2,.77,1.25,1.19,1.85.78,1.15,1.16,1.73c.17.25.36.49.54.73l.71,1c.43.6.9,1.18,1.34,1.78.84,1.2,1.67,2.42,2.51,3.62a19.28,19.28,0,0,0,1.54,1.94c.54.62,1,1.28,1.57,1.89s1,1,1.5,1.63.8,1.09,1.24,1.6.8,1,1.21,1.52.74.88,1.12,1.31a29,29,0,0,0,2.27,2.16c.36.3.69.63,1,1s.6.53.88.82c.07.07.12.15.18.22l.7.4.14,0,.06,0a1.51,1.51,0,0,1,.26.18c1.82,1,3.68,2,5.56,2.91s3.84,2,5.69,3.18,3.93,2.47,5.88,3.74,3.72,2.4,5.56,3.64c1.35.9,2.66,1.86,4,2.81v0c-.58-1-1.1-2-1.63-3l.17.32c-.83-1.57-1.74-3.1-2.47-4.7s-1.38-3.19-2.07-4.78c-.21-.49-.42-1-.64-1.46-.6-.1-1.2-.19-1.8-.31a10.1,10.1,0,0,1-2.41-.93c-.64-.31-1.3-.59-2-.88a17.65,17.65,0,0,1-1.91-1c-.72-.41-1.42-.84-2.1-1.31l-1.86-1.3c-1.16-.81-2.26-1.7-3.35-2.6a28.81,28.81,0,0,1-2.66-2.64l-.43-.48-.11-.12.06.06c-1.29-1.41-2.52-2.86-3.66-4.38-.49-.65-1-1.3-1.39-2s-.84-1.43-1.23-2.16a49,49,0,0,1-2.06-4.55c-.56-1.36-1-2.78-1.5-4.18S122.33,85.49,122,84s-.72-3-1-4.56c-.22-1.26-.34-2.53-.44-3.8-.1-1.09-.26-2.2-.47-3.28a15.74,15.74,0,0,0-.51-1.65,1.47,1.47,0,0,1-.09-.58,1.43,1.43,0,0,1,.15-1.58,1.36,1.36,0,0,1,.61-.4,1.32,1.32,0,0,1,1-.18c1.6.49,3.26.83,4.81,1.46l.11,0c.58.24,1.15.53,1.71.8s1.37.64,2,1,1.35.69,2,1.06,1.47.88,2.18,1.34,1.48,1,2.2,1.49,1.28.89,1.88,1.39,1.22,1.1,1.83,1.66l1.81,1.64c1.15,1.06,2.24,2.18,3.32,3.31a37.63,37.63,0,0,1,3.14,3.87c.9,1.23,1.79,2.48,2.63,3.74a27.18,27.18,0,0,1,2.38,4.65A19.33,19.33,0,0,1,154.1,98c.24.88.43,1.78.62,2.67a29.42,29.42,0,0,1,.69,7.6,36.67,36.67,0,0,1-.32,3.76c-.15,1.09-.34,2.18-.42,3.28,0,.32,0,.64-.07,1s0,.53,0,.79c.28.63.57,1.26.83,1.9.64,1.54,1.28,3.07,2,4.56l-.05-.08c.76,1.44,1.54,2.87,2.29,4.32.4.74.8,1.46,1.25,2.17s.89,1.37,1.34,2.05c.91,1.36,1.86,2.68,2.82,4l.29.21c1.74,1.33,3.46,2.69,5.13,4.09,3.49,2.92,6.75,6.11,10,9.31l.25.28c-.22-.71-.45-1.42-.66-2.13-.32-1.1-.58-2.21-.83-3.33h0c-.11-.5-.23-1-.34-1.49s-.22-1.14-.34-1.71c0,0-.07,0-.1-.06-.24-.24-.47-.5-.7-.75l0,0,0,0-.06-.06c-.88-1-1.79-1.86-2.63-2.84s-1.62-1.86-2.37-2.84-1.67-2.1-2.43-3.2c-.43-.59-.83-1.19-1.2-1.82s-.78-1.44-1.15-2.17a22.55,22.55,0,0,1-.95-2.06c-.31-.73-.63-1.46-.89-2.21a29.48,29.48,0,0,1-1.18-4.82,29.82,29.82,0,0,1-.33-5c.08-1.62.18-3.26.4-4.87.08-.59.17-1.17.25-1.76s.18-1.25.33-1.86.27-1.28.41-1.92a22.92,22.92,0,0,1,.75-2.48l0,0h0a1.39,1.39,0,0,1,.43-.75,1.56,1.56,0,0,1,.16-.28,1.44,1.44,0,0,1,1-.5,1.21,1.21,0,0,1,.61.1,3,3,0,0,1,.43.23q.6.4,1.2.78l-.15-.09.53.34,0,0,0,0,.12.08-.06,0,.48.31-.31-.2a17.87,17.87,0,0,1,2,1.45,23.2,23.2,0,0,1,1.83,1.88c.5.54,1,1.09,1.43,1.66s1.11,1.33,1.66,2,1,1.33,1.51,2,.93,1.29,1.32,2a29.39,29.39,0,0,1,1.9,4.39c.35.93.64,1.87.9,2.83a27.45,27.45,0,0,1,.66,3.12c.13,1,.24,2,.34,3a20.87,20.87,0,0,1,0,3,27.54,27.54,0,0,1-.35,3.84c-.1.57-.22,1.13-.33,1.69a12.86,12.86,0,0,1-.46,1.75l-.06.18,0,0-.09.26,0-.09-.06.18,0-.07-.1.3v0c0,.06,0,.11,0,.16v0c0,.08,0,.16-.07.23v0c-.34,1.06-.74,2.09-1.1,3.13a11.48,11.48,0,0,0-.53,2.23,1,1,0,0,1-.17.47l.18.94.06.29.27,1.22h0l.12.55c.46,1.9,1,3.78,1.65,5.65.34,1.06.72,2.12,1.12,3.17.23.6.48,1.2.75,1.79,1.19,1.46,2.36,2.92,3.42,4.47l1.89,2.81c.6.92,1.16,1.85,1.73,2.79.48.78.94,1.6,1.36,2.42.66,1.24,1.32,2.47,2,3.72a1.57,1.57,0,0,1,.22,1.08,1.4,1.4,0,0,1-.6.88,1.38,1.38,0,0,1-1.08.21,1.35,1.35,0,0,1-.88-.59c-1-1.92-2-3.82-3.08-5.7-.87-1.53-1.84-3-2.81-4.45a79.26,79.26,0,0,0-6.42-8.28c-.77-.86-1.55-1.7-2.35-2.52s-1.43-1.45-2.16-2.16c-1.65-1.62-3.31-3.22-5-4.77s-3.44-3-5.24-4.44l-.63-.19c-.33-.07-.68-.09-1-.16-.53-.1-1.08-.15-1.63-.2s-1.31-.11-2-.12-1.13,0-1.7-.06H159c-1.17,0-2.34.09-3.51.16a20.64,20.64,0,0,0-3.24.52c-.42.12-.84.24-1.27.34h0l.14,0c-1,.28-2.08.58-3.11.89a2,2,0,0,1-.08.75c-.2.68-.45,1.35-.69,2s-.42,1.25-.68,1.86c-.56,1.34-1.23,2.63-1.91,3.92a18.35,18.35,0,0,1-1.38,2.23,19.53,19.53,0,0,1-1.55,1.73c-.69.7-1.38,1.38-2.09,2a19,19,0,0,1-1.73,1.38,13.86,13.86,0,0,1-2.13,1.34c-.58.28-1.2.52-1.8.75a18.36,18.36,0,0,1-2,.61c-.74.2-1.48.35-2.23.49-1.45.27-2.92.5-4.38.69a21.38,21.38,0,0,1-4.73.12c-1-.11-2.06-.29-3.08-.47s-1.83-.32-2.73-.51c-2.07-.43-4.13-.87-6.16-1.43-.7-.19-1.39-.4-2.07-.64l-2.31-.83c-1.44-.53-2.88-1-4.27-1.66a24.81,24.81,0,0,1-4.49-2.54c-.66-.49-1.28-1-1.92-1.57l-2.16-1.83-.35-.32S91,150.05,91,150a1.44,1.44,0,0,1-.76-.51,1.39,1.39,0,0,1-.26-1,1.42,1.42,0,0,1,.56-.94,1.47,1.47,0,0,1,1-.26,1.17,1.17,0,0,1,.48-.34,16,16,0,0,0,1.64-.73c.45-.21.88-.45,1.32-.69,1.24-.68,2.48-1.34,3.78-1.92.67-.3,1.35-.57,2-.87s1.28-.56,1.94-.8c1.45-.53,2.91-1.06,4.35-1.62.68-.27,1.37-.57,2.07-.8l2.26-.76c2.1-.67,4.16-1.41,6.29-2l-.35.09c.79-.2,1.58-.43,2.39-.56s1.61-.19,2.41-.24l4.44-.3,2.32-.14a21.72,21.72,0,0,1,2.42,0c.79,0,1.57.14,2.35.21s1.53.16,2.28.27a23.65,23.65,0,0,1,3.11.69l2.58.81c1.82.58,3.67,1.09,5.51,1.6l.07,0c1.11-.34,2.24-.63,3.36-.91a24.72,24.72,0,0,1,4.26-.85c.75-.08,1.51-.09,2.26-.15s1.67-.07,2.51-.06,1.67,0,2.5.07l-.59-.46q-2.3-1.77-4.64-3.48c-1.28-1-2.59-1.84-3.9-2.74-1.83-1.23-3.68-2.41-5.52-3.61s-3.84-2.48-5.79-3.68-3.78-2.24-5.75-3.23-3.91-2-5.82-3l-.56-.31c-1.28-.44-2.57-.86-3.88-1.23-.45-.11-.9-.24-1.35-.31s-1.18-.17-1.77-.24c-1-.11-2.05-.19-3.09-.22-1.73,0-3.45.15-5.17.26s-3.22.23-4.82.4c-1.76.19-3.5.45-5.24.79s-3.41.66-5.11,1c-.54.11-1.07.24-1.6.37-1.6.41-3.19.87-4.78,1.36l-.46.15a1.71,1.71,0,0,1-.64.58l-.45.23c-.63.37-1.24.75-1.88,1.1l.33-.18c-.46.28-.93.56-1.41.82l.33-.19a15.58,15.58,0,0,0-2.69,1.94c-.84.78-1.71,1.53-2.54,2.32a32.55,32.55,0,0,1-3.3,3c-1.17.88-2.34,1.75-3.56,2.55s-2.34,1.51-3.55,2.19a31.31,31.31,0,0,1-4.24,2,30.54,30.54,0,0,1-4.17,1.21,36,36,0,0,1-4.47.86c-.74.09-1.49.12-2.24.17a18.21,18.21,0,0,1-2.45,0,30.74,30.74,0,0,1-4.4-.53A39.63,39.63,0,0,1,46.32,136c-.72-.23-1.42-.5-2.14-.72a21,21,0,0,1-2.18-.79c-.72-.32-1.45-.66-2.15-1s-1.63-1-2.42-1.48a16.44,16.44,0,0,1-2.06-1.66c-.66-.59-1.31-1.2-1.95-1.81l-.64-.62a1.54,1.54,0,0,1-.56-1,1.51,1.51,0,0,1,.3-1.11l.09-.08a1.23,1.23,0,0,1,.29-.75c.66-.74,1.33-1.49,2-2.22S36,121.57,36.59,121c1.17-1.21,2.36-2.41,3.54-3.62A31.78,31.78,0,0,1,43.86,114c.62-.46,1.27-.88,1.89-1.33s1.4-1,2.11-1.46a24.71,24.71,0,0,1,2.42-1.33c.7-.35,1.43-.66,2.16-.94a10.8,10.8,0,0,1,1.11-.32c.47-.12,1-.23,1.43-.33.72-.15,1.44-.27,2.16-.35,1.57-.18,3.13-.37,4.7-.44.86,0,1.72,0,2.59,0a22,22,0,0,1,2.29.27A26.14,26.14,0,0,1,71.48,109l.82.31A35.84,35.84,0,0,1,75.69,111c.76.43,1.5.91,2.24,1.39s1.33.85,2,1.3c1.28.87,2.54,1.78,3.85,2.62.79.52,1.56,1.06,2.36,1.55l.22.12c1.13-.36,2.26-.74,3.39-1.13,1.53-.51,3.07-1,4.62-1.43,1.77-.51,3.56-.93,5.38-1.3,1.64-.32,3.28-.66,4.94-1a93,93,0,0,1,10.13-1.08,48.31,48.31,0,0,1,5.51-.18l.57,0c-.72-.37-1.44-.74-2.17-1.09L113,108.11c-1.95-1-3.91-1.9-5.9-2.78-.91-.4-1.8-.83-2.7-1.26s-1.88-.85-2.81-1.29c-1.92-.89-3.77-1.94-5.63-3s-3.66-2.07-5.52-3c-1.23-.62-2.47-1.21-3.71-1.79-2.4-.76-4.8-1.49-7.22-2.15l.37.1a30.87,30.87,0,0,0-4.68-.68c-1.66-.18-3.33-.31-5-.41s-3.3-.19-5-.27-3.47-.23-5.2-.35c-1-.08-2.06-.13-3.08-.14l-2,0a1.91,1.91,0,0,1-.5.37l-.71.37-.36.19-1.94,1.11.17-.09-.19.1-.14.09.12-.08c-1.27.7-2.58,1.35-3.89,2A31.28,31.28,0,0,1,43.34,97c-.81.26-1.65.48-2.49.66s-1.38.22-2.07.29-1.42.13-2.13.2-1.48.15-2.23.2-1.38,0-2.05,0c-.87,0-1.73,0-2.59-.08a41,41,0,0,1-4.39-.61c-.77-.13-1.55-.31-2.32-.48a20.18,20.18,0,0,1-2.19-.59,21.93,21.93,0,0,1-4-1.85,26,26,0,0,1-3.37-2.3c-1-.81-2-1.63-3-2.5-.53-.49-1-1-1.54-1.53s-.92-1-1.32-1.49c-.87-1.19-1.69-2.41-2.5-3.64A1.48,1.48,0,0,1,5.45,81.26Zm50.19-52.6c-.23,1.31-.43,2.61-.62,3.92s-.28,2.57-.36,3.87c0,.87,0,1.75,0,2.62s.09,2,.15,3,.14,1.89.26,2.83.28,1.79.46,2.67a30.15,30.15,0,0,0,1,3.1,25.83,25.83,0,0,0,1.32,3.17,34.66,34.66,0,0,0,2.12,3.5,31.86,31.86,0,0,0,2.34,3.1c.8.85,1.62,1.71,2.51,2.49.46.39.9.8,1.36,1.19s1.08.87,1.61,1.32.81.68,1.18,1a8,8,0,0,0,.63.55c-.27-1.37-.52-2.75-.77-4.12-.14-.83-.3-1.66-.44-2.48s-.24-1.67-.36-2.5c-.23-1.7-.64-3.37-1-5.06-.06-.3-.12-.59-.19-.88l0,.16c-.26-1.11-.51-2.22-.76-3.34-.74-3.25-1.6-6.49-2.61-9.67-.53-1.65-1-3.32-1.6-4.95-.28-.78-.62-1.54-.94-2.31s-.66-1.58-1-2.35c-.48-1-1-1.91-1.44-2.86s-1.09-1.84-1.63-2.76c-.09.34-.2.69-.29,1C56.21,26.16,55.86,27.4,55.64,28.66ZM73.05,65.9c.11-.5.22-1,.34-1.48s.18-1,.28-1.52.21-1,.32-1.49.13-.85.17-1.28v.11s0-.08,0-.13,0-.17,0-.25,0,.11,0,.17c0-1,.06-1.92.07-2.89,0-1.13-.07-2.25-.17-3.38s-.22-2.26-.36-3.38-.35-2.12-.57-3.17S72.64,45,72.31,44s-.68-2.2-1.08-3.28-.78-2-1.16-3-.84-1.91-1.31-2.85a30.56,30.56,0,0,0-4.15-5.7c-.47-.5-1-1-1.41-1.49s-.82-.94-1.24-1.4-.84-.83-1.28-1.22c.28.49.57,1,.82,1.48.39.77.81,1.54,1.16,2.33.75,1.63,1.47,3.27,2.08,5,.27.76.5,1.55.74,2.33s.51,1.52.75,2.3c1,3.28,1.93,6.58,2.68,9.93.4,1.8.81,3.59,1.19,5.38.17.83.36,1.65.51,2.48s.26,1.62.38,2.43c.32,2.2.71,4.39,1.11,6.57.16.81.33,1.62.48,2.43,0-.11,0-.23.07-.34C72.77,66.86,73,66.39,73.05,65.9Zm1.33,9.33h0c0,.1,0,.2.07.3ZM92.18,27c-.28.64-.64,1.25-.91,1.9s-.49,1.24-.7,1.87c0-.11.08-.23.11-.35-.41,1.28-.89,2.54-1.32,3.82-.06.21-.14.42-.2.63,0-.12.07-.24.11-.35-.21.7-.4,1.42-.59,2.13s-.34,1.68-.48,2.51-.21,1.57-.29,2.36-.15,1.4-.2,2.11c0,1.45,0,2.91,0,4.36a33,33,0,0,0,.54,4.86,27.7,27.7,0,0,0,1.31,4c.31.75.61,1.49.93,2.24s.51,1.24.81,1.84c.5.91,1.11,1.75,1.63,2.64a27.29,27.29,0,0,0,1.58,2.52c.29.4.54.83.87,1.22s.56.68.83,1,.53.67.82,1,.49.61.74.9h0c-.22-.62-.44-1.24-.69-1.85-.58-1.47-1.14-3-1.63-4.48s-.79-3.14-1.21-4.7a77,77,0,0,1-1.81-9.86c-.21-1.64-.2-3.3-.3-5s-.13-3.29-.1-4.94,0-3.37.12-5,.18-3.25.39-4.86c.14-1.05.36-2.09.58-3.12.14-.7.31-1.4.49-2.1A25.39,25.39,0,0,0,92.18,27ZM109.5,62a22.84,22.84,0,0,0,.84-3.66c.15-1.15.25-2.32.32-3.48a24.45,24.45,0,0,0-.17-3.63c-.15-1.21-.34-2.43-.58-3.63-.15-.62-.31-1.25-.5-1.86s-.41-1.24-.62-1.85-.39-1.13-.63-1.68-.51-1.07-.78-1.61l0,0a1.19,1.19,0,0,1-.12-.22c-.73-1.35-1.55-2.65-2.29-4-.83-1.52-1.65-3-2.45-4.58-1.2-2.28-2.2-4.66-3.3-7-.24-.5-.44-1-.65-1.53s-.46-1.18-.65-1.79c0-.14-.07-.28-.12-.42-.41,1-.82,2.08-1.19,3.13-.48,1.75-.82,3.54-1.14,5.33a26.12,26.12,0,0,0-.29,2.79c0,.8-.1,1.59-.15,2.39a96.67,96.67,0,0,0,0,9.78c.06.83.08,1.66.11,2.49s.12,1.62.22,2.44c.2,1.62.47,3.24.74,4.85.1.65.22,1.29.35,1.93.33,1.52.76,3,1.12,4.56a35.19,35.19,0,0,0,1.35,4.46c.54,1.42,1.1,2.84,1.59,4.28s1.09,2.78,1.7,4.14l.43-.48c.25-.28.5-.55.76-.82a6.72,6.72,0,0,0,.75-.94c.49-.7,1-1.4,1.48-2.08s1.06-1.32,1.55-2a19.34,19.34,0,0,0,1.22-2.35C108.82,63.94,109.17,63,109.5,62Zm14.06,14c.1,1.09.2,2.16.39,3.24s.37,1.93.57,2.89c.26,1.13.56,2.24.88,3.36s.78,2.36,1.18,3.54a48.13,48.13,0,0,0,2.8,6.82,30.63,30.63,0,0,0,2.39,3.76c1,1.38,2.14,2.69,3.28,4l-.25-.27.57.62-.06-.07.14.16.1.11,0,0,.65.7-.08-.09c.56.59,1.12,1.17,1.72,1.7s1.12.9,1.66,1.34a25.6,25.6,0,0,0,2.15,1.61c.7.48,1.38,1,2.08,1.45.47.29,1,.57,1.43.84a16.66,16.66,0,0,0,1.61.87c.55.25,1.1.48,1.65.75A16.83,16.83,0,0,0,150,114l.19,0c-.65-1.58-1.22-3.19-1.83-4.79-.33-.88-.67-1.75-1-2.62s-.7-1.6-1.05-2.4-.7-1.64-1.06-2.45-.7-1.42-1.07-2.12l0,.06-.67-1.26,0,0-.06-.11c-.82-1.49-1.69-3-2.55-4.43s-1.56-2.93-2.49-4.34c-.5-.76-1-1.53-1.55-2.28s-1-1.31-1.48-2c-1-1.35-2.15-2.62-3.25-3.92-.26-.3-.52-.61-.79-.91-.83-.88-1.67-1.72-2.56-2.53s-1.94-1.71-2.91-2.57-1.75-1.58-2.69-2.29C123.37,74.08,123.48,75,123.56,76Zm28.92,29.44c0-.64-.12-1.3-.2-1.94s-.19-1.32-.33-2l.09.39c-.1-.42-.19-.83-.27-1.24a24.14,24.14,0,0,0-1-3.54c-.42-1-.87-2.1-1.38-3.12a36.69,36.69,0,0,0-2.75-4.14c-.51-.71-1-1.44-1.55-2.13s-1-1.34-1.56-2c-.75-.79-1.52-1.56-2.28-2.34-.92-1-1.94-1.82-2.92-2.72l-1.5-1.4c-.47-.43-1-.81-1.48-1.2-1-.76-2.05-1.45-3.1-2.14-.66-.41-1.32-.82-2-1.19s-1.26-.68-1.9-1l1.12,1,2,1.81c.62.56,1.18,1.18,1.75,1.79s1.21,1.35,1.8,2,1.08,1.24,1.6,1.87a53.22,53.22,0,0,1,5.86,8.57c.83,1.51,1.7,3,2.57,4.49.46.79.87,1.61,1.3,2.41s.8,1.52,1.18,2.29c.75,1.56,1.4,3.18,2.09,4.76s1.32,3.26,1.94,4.91l.63,1.7c.11-.79.22-1.58.27-2.38C152.53,107.8,152.55,106.61,152.48,105.41Zm15.69.63c-.08.48-.15.95-.22,1.44-.28,1.91-.48,3.84-.59,5.77a29.63,29.63,0,0,0,.62,6.51,25.28,25.28,0,0,0,1.12,3.52c.5,1.18,1,2.37,1.59,3.5v0l.12.23-.09-.18c0,.07.07.13.1.2l.07.12-.06-.1a29.61,29.61,0,0,0,1.62,2.64c.6.85,1.22,1.68,1.86,2.5,1.06,1.35,2.19,2.65,3.34,3.93-.1-.57-.2-1.14-.29-1.7-.23-1.48-.5-2.94-.71-4.4-.11-.77-.19-1.54-.32-2.3s-.3-1.52-.46-2.28a1.36,1.36,0,0,1,0,.17l-.54-2.44c0,.12,0,.25.08.37l-.33-1.47c0,.12,0,.24.08.36-.33-1.42-.7-2.81-1.12-4.21l-.6-2c-.22-.74-.41-1.49-.64-2.21s-.49-1.52-.75-2.27-.52-1.31-.8-2c-.59-1.37-1.22-2.73-1.9-4.07-.27-.48-.55-1-.83-1.43,0,.13,0,.26-.07.39C168.39,105.08,168.25,105.56,168.17,106Zm12.59,28.83,0-.11.08-.24a.88.88,0,0,0-.05.15c.1-.34.22-.67.33-1L181,134a27.09,27.09,0,0,0,.94-5.64c0-.51.05-1,.08-1.52,0,.13,0,.25,0,.38a20.62,20.62,0,0,0-.16-2.94c-.11-1.1-.24-2.2-.45-3.28a28.67,28.67,0,0,0-1.17-4.07,36.66,36.66,0,0,0-1.5-3.67c-.39-.68-.84-1.31-1.28-2s-1-1.43-1.57-2.11-1.18-1.42-1.77-2.14c-.45-.57-.91-1.11-1.39-1.64-.22-.24-.46-.47-.69-.7a.41.41,0,0,0,0,.09c.81,1.57,1.52,3.19,2.21,4.82a39,39,0,0,1,1.57,4.72c.45,1.61,1,3.2,1.4,4.82.26.95.48,1.91.69,2.87,0,.07,0,.13.05.2h0l0,.1,0-.1c.07.31.14.61.2.92v-.06l0,.16c0,.07,0,.14,0,.21l0-.13c.38,1.63.75,3.25,1,4.91s.47,3.31.76,5c.15.85.29,1.7.43,2.56.07-.22.16-.44.23-.66,0,.12-.08.23-.11.35.07-.24.15-.47.23-.71ZM98.53,152.41a36.65,36.65,0,0,0,5.76,2.57c1,.37,2.09.77,3.14,1.14s1.85.6,2.8.87c2,.51,3.93.93,5.91,1.34,1,.2,2,.38,3,.55a21.48,21.48,0,0,0,3.09.34,31.47,31.47,0,0,0,4.44-.42c1.44-.24,2.89-.45,4.31-.78l-.08,0,.1,0,.25-.06L131,158a20.11,20.11,0,0,0,3.82-1.4,17,17,0,0,0,1.66-1.16,20.67,20.67,0,0,0,1.68-1.42c.66-.66,1.31-1.32,1.94-2a14.14,14.14,0,0,0,1.55-2.07c.75-1.37,1.44-2.78,2.08-4.2a19.88,19.88,0,0,0,.73-2c.09-.26.17-.52.25-.79l-1.8.45h0c-1.76.49-3.49,1.09-5.21,1.73-1,.35-1.91.68-2.89,1s-2.09.61-3.14.87l.36-.09c-1.5.39-3,.84-4.5,1.21s-3.16.72-4.74,1c-.78.15-1.55.3-2.33.41s-1.51.17-2.27.24c-1.59.15-3.17.37-4.76.55s-3.17.37-4.77.47a43.61,43.61,0,0,1-5.24-.05c-1.75-.1-3.49-.19-5.23-.32l-2.42-.14.1.09A27.24,27.24,0,0,0,98.53,152.41Zm39.07-13.06a29.69,29.69,0,0,0-4.07-.64c-.68-.06-1.36-.14-2-.19s-1.24-.07-1.86-.08c-.88,0-1.74.08-2.61.14l-2.67.2c-1,.08-2.11.12-3.16.21a17.47,17.47,0,0,0-2.87.53l.36-.09-.75.19.12,0c-1.51.39-3,.91-4.47,1.4s-3,.95-4.46,1.52-2.83,1.11-4.27,1.62c-.68.24-1.38.48-2,.76s-1.35.57-2,.84c-1.33.55-2.62,1.16-3.9,1.83.7,0,1.39.06,2.09.11,1.17.08,2.35.14,3.52.21s2.26.14,3.38.15h.55a84.57,84.57,0,0,0,9.53-.87c1.53-.2,3.07-.31,4.59-.54.81-.12,1.61-.29,2.4-.45l2.32-.49,1.72-.4c1.53-.41,3-.87,4.58-1.24l-.36.09c1.14-.33,2.29-.63,3.43-1s2.15-.76,3.23-1.14,2-.71,3-1c.39-.12.77-.2,1.16-.3l-.5-.15C140.24,140.16,138.93,139.73,137.6,139.35Zm-98.34-9.78c.41.3.85.56,1.29.83.64.36,1.29.68,2,1a17.93,17.93,0,0,0,2,.84l2,.66c.68.25,1.36.48,2,.68l.39.1a37.3,37.3,0,0,0,3.71.82,37.82,37.82,0,0,0,3.83.34c.71,0,1.41-.06,2.11-.12a20.17,20.17,0,0,0,2.21-.22c1.37-.24,2.74-.55,4.1-.88a30.33,30.33,0,0,0,6.48-2.56c.73-.42,1.43-.87,2.14-1.31.89-.54,1.75-1.12,2.61-1.73s1.54-1.11,2.31-1.69a24.62,24.62,0,0,0,2.34-2.11l-.21.2c.81-.81,1.65-1.57,2.5-2.34-1.58.51-3.13,1.07-4.69,1.64s-3.37,1.15-5.08,1.67-3.23,1-4.86,1.43-3.26.85-4.91,1.23c-1.47.33-2.95.55-4.44.77s-3,.46-4.52.56-2.84.19-4.26.26c-.84,0-1.69.1-2.54.09-.68,0-1.34-.1-2-.15l-2.07-.17c-.64-.05-1.28-.09-1.92-.19s-1.19-.2-1.79-.28-1.12-.11-1.69-.16C38.57,129,38.9,129.32,39.26,129.57Zm43-10.62c-.88-.54-1.74-1.13-2.61-1.7S77.88,116,77,115.41s-1.64-1.07-2.48-1.58c-1.06-.59-2.13-1.16-3.24-1.65a20,20,0,0,0-8-1.76c-1.5,0-3,.14-4.46.31a39.85,39.85,0,0,0-4.2.66q-.5.12-1,.27c-.39.14-.78.3-1.16.47-.76.32-1.49.69-2.22,1.08-1.19.73-2.31,1.57-3.46,2.35A25.18,25.18,0,0,0,43.7,118c-1.36,1.35-2.68,2.73-4,4.09-.65.66-1.32,1.31-2,2-.49.53-1,1.07-1.45,1.6.59.1,1.19.18,1.79.24,1.2.11,2.41.18,3.6.4s2.15.24,3.24.34c.51,0,1,.08,1.51.14s1,.12,1.58.13c1.37,0,2.73-.15,4.09-.22s2.94-.17,4.39-.39,3.19-.44,4.77-.72,2.86-.6,4.28-1l.2-.05c1.48-.39,3-.84,4.41-1.28,1.7-.5,3.38-1,5.07-1.58s3.14-1.18,4.72-1.71c.9-.3,1.8-.57,2.7-.85Zm-35.2-33.2a51.11,51.11,0,0,0-4.71-3.25L41,81.71c-.57-.31-1.17-.58-1.77-.85a23.44,23.44,0,0,0-3.26-1.17c-1.37-.35-2.77-.64-4.16-.86a39.68,39.68,0,0,0-4.47-.4,29.19,29.19,0,0,0-4.37.38c-.86.14-1.7.32-2.56.49s-1.78.34-2.66.57l.16-.05-.25.07-1.46.38q-.84.23-1.68.48c-.68.21-1.36.48-2,.73s-1.5.5-2.26.71c1,.48,2,1,3,1.43a47.41,47.41,0,0,0,5.68,1.92l-.27-.07.3.08.08,0-.08,0c1.44.38,2.9.67,4.36,1s3,.53,4.57.81a58.3,58.3,0,0,0,9.69.8h.62c1,0,2,0,3-.06.56,0,1.12,0,1.69,0s1.29,0,1.93,0c1.74.05,3.47.12,5.21.18-.23-.23-.46-.46-.7-.67C48.59,86.93,47.85,86.33,47.07,85.75Zm-35.63,1c1,1,2.15,1.93,3.27,2.84a36.4,36.4,0,0,0,3.44,2.46,21.81,21.81,0,0,0,4.45,2c1.51.39,3,.67,4.57.94a32.82,32.82,0,0,0,4.74.48h.3c.7,0,1.42,0,2.12,0s1.61-.13,2.42-.21a36.33,36.33,0,0,0,4.17-.56,20.31,20.31,0,0,0,2.57-.84c.82-.34,1.61-.72,2.4-1.11l2.94-1.5c-1.89-.07-3.77-.15-5.66-.17-1.59,0-3.19.11-4.78.12-1.77,0-3.53-.07-5.28-.17-1.58-.09-3.15-.26-4.71-.49-.79-.11-1.57-.26-2.35-.4s-1.49-.22-2.24-.37a75.21,75.21,0,0,1-9.09-2.32,40.26,40.26,0,0,1-4.21-1.7l-.13-.06.12.14Z" class="cls-3"/><path d="M10,232.44a4,4,0,0,0,1.47-1.18l.09,0c.52.23,1.06.44,1.58.66s1,.45,1.53.64a63.41,63.41,0,0,0,6.63,2c1.6.43,3.22.85,4.84,1.22.83.19,1.66.37,2.51.51s1.84.3,2.76.45c.64.11,1.28.21,1.93.26s1.21.07,1.82.09l3.8.13a68.54,68.54,0,0,0,7.31-.13c1.35-.1,2.69-.25,4-.43l1.77-.24,1.67-.22a49.12,49.12,0,0,0,7.09-1.6c1.33-.42,2.65-.9,4-1.41s2.53-1,3.78-1.58c.89-.38,1.77-.79,2.64-1.21l.59.52c.93.8,1.87,1.58,2.81,2.35a28.1,28.1,0,0,0,2.86,2.11c1.07.66,2.13,1.35,3.17,2.05s2,1.4,3,2.1c.58.4,1.19.76,1.79,1.14s1.31.82,2,1.22c1.31.79,2.57,1.63,3.92,2.35l0,0,.07,0-.06,0c.75.42,1.49.84,2.24,1.24h0l.39.21,0,0c.75.41,1.5.81,2.27,1.18a1.07,1.07,0,0,0,1.39-.6,1.06,1.06,0,0,0,0-.82A1.08,1.08,0,0,0,97,245l-1.94-1h0l-.4-.22.14.07-.56-.3h0l-.07,0-.18-.09,0,0-.42-.23c-.6-.34-1.21-.69-1.82-1l.24.13c-1-.56-2-1.23-3-1.84S87,239.13,86,238.48s-1.93-1.33-2.88-2-2-1.42-3-2.07c-.54-.34-1.09-.67-1.63-1s-1-.72-1.49-1.09c-1-.76-1.91-1.56-2.86-2.35-.4-.33-.79-.69-1.18-1a.2.2,0,0,0,0-.07l.21-.58c.11-.31.19-.64.3-.95.27-.73.51-1.48.73-2.22s.49-1.47.69-2.22.44-1.63.65-2.45.42-1.68.58-2.53.34-1.7.46-2.55.17-1.72.24-2.58a25.37,25.37,0,0,0,.09-2.89c0,.1,0,.19,0,.29,0-1.18,0-2.35.07-3.53s0-2.4,0-3.61c0-1.06-.1-2.12-.19-3.18s-.18-2.2-.31-3.29-.29-2.3-.43-3.44-.33-2.27-.55-3.4-.41-2.24-.61-3.36-.53-2.36-.81-3.55-.48-2.28-.76-3.41-.62-2.52-1-3.76c-.73-2.39-1.53-4.75-2.37-7.1-.6-1.68-1.14-3.37-1.88-5l-.85-1.86A5,5,0,0,0,69,159.15a4.86,4.86,0,0,0-3.17-6.1,5.18,5.18,0,0,0-3.75.35,4.75,4.75,0,0,0-2.34,2.82,4.86,4.86,0,0,0,3.17,6.09,4.52,4.52,0,0,0,2.3.1l.12.24c.51,1.11,1,2.22,1.45,3.38.82,2.22,1.59,4.47,2.35,6.73.43,1.28.83,2.56,1.22,3.85.31,1.1.6,2.21.86,3.32s.51,2.36.78,3.54.56,2.31.77,3.47l.6,3.3c.2,1.1.39,2.2.52,3.31l.39,3.33c.14,1.09.22,2.17.29,3.26s.14,2.08.17,3.13v-.14c0,.23,0,.45,0,.68v-.29c0,.21,0,.42,0,.63a.62.62,0,0,1,0-.13c0,1.16,0,2.31-.08,3.47,0,.56,0,1.12,0,1.68s0,1.15,0,1.72c0,1.2-.16,2.39-.28,3.58s-.35,2.24-.57,3.34c-.13.64-.28,1.27-.44,1.9,0-.1,0-.19.07-.28l-.15.6c-.19.73-.39,1.47-.59,2.2-.13.45-.28.88-.42,1.32,0-1.05.06-2.09.07-3.13,0-1.27,0-2.54,0-3.8-.15-2.34-.29-4.69-.6-7-.08-.58-.19-1.16-.29-1.74s-.19-1.17-.29-1.75c-.2-1.13-.38-2.27-.6-3.4a71.13,71.13,0,0,0-2.1-7.32c-.37-1.19-.78-2.37-1.16-3.56s-.76-2.35-1.2-3.51c-.19-.54-.38-1.08-.6-1.61s-.48-1.13-.72-1.7c-.51-1.14-1-2.28-1.51-3.43-1-2.24-2-4.49-3.15-6.64-.59-1.07-1.22-2.12-1.83-3.18s-1.24-2.28-1.92-3.38c-1-1.56-2-3.06-3.15-4.52-.21-.29-.43-.56-.65-.84a5.18,5.18,0,0,0,.78-1.51,4.86,4.86,0,0,0-3.16-6.09,5.11,5.11,0,0,0-3.76.35A4.68,4.68,0,0,0,44,158.59a4.87,4.87,0,0,0,3.16,6.1,5,5,0,0,0,3.59-.3l.63.8c1.07,1.42,2.11,2.85,3,4.36.6,1,1.18,2.11,1.78,3.16s1.25,2.14,1.85,3.22c1.16,2.12,2.12,4.36,3.09,6.57l1.53,3.5c.23.54.47,1.09.7,1.64s.42,1.12.63,1.68c.43,1.16.8,2.35,1.19,3.52s.79,2.35,1.16,3.54c.5,1.58,1,3.16,1.47,4.75.3,1.12.52,2.24.72,3.38s.4,2.28.59,3.42.4,2.34.49,3.52.22,2.37.3,3.55c.08,1,.15,2.05.18,3.08s0,2.15,0,3.22v0s0-.08,0-.12c-.33-1.12-.7-2.24-1.13-3.34s-1-2.2-1.43-3.29c-1-2.24-2-4.48-3.08-6.66-.57-1.1-1.08-2.22-1.62-3.33s-1.11-2.21-1.73-3.29-1.29-2.28-2-3.4-1.29-2-1.93-3.08-1.33-2.09-2-3.14-1.41-2.06-2.12-3.08c-1.39-2-2.61-4.05-4.09-6-.75-1-1.53-1.89-2.29-2.84S45.1,178,44.37,177c-.54-.68-1.06-1.37-1.6-2s-1.08-1.25-1.61-1.88-1.07-1.23-1.64-1.82l-.4-.38a5.17,5.17,0,0,0,.38-.89,4.85,4.85,0,0,0-3.16-6.09,5.12,5.12,0,0,0-3.76.35,4.69,4.69,0,0,0-2.33,2.81,4.83,4.83,0,0,0,.35,3.76,4.88,4.88,0,0,0,2.81,2.33,5.08,5.08,0,0,0,3.75-.35,3,3,0,0,0,.58-.34c.72.74,1.4,1.51,2.08,2.29.4.47.81.94,1.2,1.41s.7.9,1,1.35c1.5,1.92,3.08,3.77,4.6,5.68s2.8,3.9,4.14,5.89c.68,1,1.41,2,2.12,3,.35.51.67,1,1,1.57s.69,1.08,1,1.62q1.2,1.88,2.38,3.77c.64,1.08,1.26,2.17,1.89,3.27s1.18,2.21,1.73,3.33,1,2.2,1.61,3.28,1,2.13,1.53,3.2q1.16,2.56,2.28,5.15c.19.44.39.88.56,1.32s.32.85.47,1.27c.29.79.54,1.6.77,2.41.27,1,.48,1.94.69,2.92v.05l-.1-.09-1.16-1.07c-1.83-1.78-3.6-3.62-5.45-5.37s-3.38-3.53-5-5.32c-.81-.88-1.62-1.76-2.41-2.66s-1.61-1.89-2.4-2.85-1.57-2-2.33-3-1.6-2.05-2.39-3.09-1.49-1.88-2.18-2.85S44,197,43.28,196q-2.16-3.19-4.3-6.41c-.68-1-1.35-2.07-2-3.11s-1.33-2-2-3.08l-.16-.26A5,5,0,0,0,36.17,181,4.85,4.85,0,0,0,33,174.89a5.08,5.08,0,0,0-3.75.35,4.67,4.67,0,0,0-2.34,2.81,4.86,4.86,0,0,0,3.16,6.09,4.66,4.66,0,0,0,2.79,0c.59.94,1.18,1.88,1.78,2.81s1.33,2.11,2,3.16c1.38,2.12,2.79,4.22,4.2,6.32.7,1,1.4,2.08,2.12,3.11s1.43,2,2.18,3,1.55,2,2.34,3,1.6,2.09,2.42,3.12,1.5,1.88,2.28,2.79,1.71,1.93,2.58,2.87l3.27,3.56c1,1.12,2.11,2.17,3.22,3.21,1.51,1.47,3,3,4.51,4.45-1.29-.38-2.57-.8-3.84-1.27-2.3-.85-4.53-1.9-6.8-2.81-1.11-.44-2.2-.93-3.29-1.43l-3.17-1.51c-1.07-.51-2.1-1.09-3.13-1.65-2.19-1.2-4.32-2.5-6.45-3.79-1-.62-2-1.27-3.05-1.91s-2.17-1.39-3.25-2.1-2-1.41-3-2.13-1.89-1.37-2.78-2.1-1.87-1.48-2.79-2.24c-.35-.29-.69-.57-1-.84a56.92,56.92,0,0,1-4.36-4c-.7-.73-1.43-1.44-2.16-2.13l-.17-.15a5.09,5.09,0,0,0,.62-1.29,4.83,4.83,0,0,0-.35-3.76A4.9,4.9,0,0,0,14,188a5.19,5.19,0,0,0-3.77.35,4.71,4.71,0,0,0-2.34,2.83A4.87,4.87,0,0,0,11,197.33a5.14,5.14,0,0,0,3.77-.35l.16-.09c.46.43.93.84,1.38,1.28s.78.79,1.17,1.18.81.79,1.21,1.19c.86.83,1.79,1.6,2.7,2.37s1.94,1.6,2.92,2.38,1.85,1.49,2.8,2.21L30,209.62c2,1.45,4.11,2.74,6.19,4.07s4.19,2.61,6.33,3.84c1.1.63,2.2,1.23,3.3,1.84S47.92,220.44,49,221s2.4,1.16,3.62,1.7,2.16.91,3.23,1.37c2.27,1,4.52,2,6.86,2.74l3.08,1c.54.17,1.09.32,1.64.46l-.38.07c-.7.1-1.4.17-2.09.24-1.24.1-2.47.19-3.71.24s-2.46,0-3.68,0c-2.47-.07-5-.14-7.42-.41-1.26-.14-2.53-.31-3.79-.52s-2.41-.36-3.62-.54-2.23-.44-3.34-.7l-3.54-.84c-1.1-.28-2.18-.61-3.25-1s-2.18-.75-3.26-1.17c-1.63-.65-3.24-1.35-4.84-2.07s-3.09-1.36-4.62-2.07c-1.05-.49-2.08-1-3.08-1.62s-2-1.23-3-1.85-1.89-1.21-2.81-1.85c-.48-.33-1-.66-1.43-1l-.15-.11s0-.07,0-.11a4.86,4.86,0,0,0-3.16-6.09,5.11,5.11,0,0,0-3.76.35A4.68,4.68,0,0,0,.23,209.9,4.87,4.87,0,0,0,3.39,216a5.18,5.18,0,0,0,3.75-.35,3.73,3.73,0,0,0,1.13-.81l.13.09c.91.71,1.89,1.31,2.85,1.95s1.95,1.27,2.93,1.88,2,1.2,3,1.72,2.15,1.05,3.24,1.52,2,.89,3,1.33,2,.91,3.08,1.35,1.93.83,2.93,1.19,2.17.79,3.27,1.17,2.28.66,3.43,1c.58.15,1.17.27,1.74.4l1.69.4c1.25.28,2.49.53,3.76.71s2.41.35,3.61.55,2.35.35,3.53.44,2.59.22,3.89.27l3.78.11c1,0,2,0,3,0s1.92-.09,2.87-.17c.58,0,1.15-.13,1.72-.19l-1.4.59.26-.1-1.37.53c-1.19.44-2.39.85-3.6,1.22s-2.25.6-3.38.83-2.46.47-3.7.64-2.32.34-3.49.48l-1.79.21c-1.24.1-2.47.17-3.71.22s-2.43,0-3.65,0L36,235.05a34.41,34.41,0,0,1-3.65-.24c-.19,0-.37-.06-.56-.09l.28.05-2.92-.49q-1.65-.3-3.27-.72c-1-.27-2.11-.52-3.16-.82s-2.27-.6-3.39-1-2.22-.7-3.32-1.08-2.28-.94-3.42-1.43l-.16-.07a4.88,4.88,0,0,0-3.28-5.81,5.21,5.21,0,0,0-3.82.35A4.79,4.79,0,0,0,3,226.61a4.94,4.94,0,0,0,3.21,6.18A5.19,5.19,0,0,0,10,232.44Z" class="cls-1"/><path d="M140.85,244.89c.73,0,1.46-.08,2.18-.15a25.35,25.35,0,0,0,3.36-.57c.54-.13,1.07-.29,1.6-.41s1-.26,1.48-.34a.86.86,0,0,0,.57-.36l.14.06a33.12,33.12,0,0,0,3.37,1.24c1.13.37,2.28.72,3.41,1.07a31.78,31.78,0,0,0,3.56.86c1.22.21,2.45.43,3.68.54,1.4.13,2.79.17,4.19.19.84,0,1.68,0,2.52,0,.38,0,.77,0,1.15,0s.77-.06,1.15-.11a1.13,1.13,0,0,0,.67-.27,1,1,0,0,0,.12-.17,1.2,1.2,0,0,0,.28-.35,1.17,1.17,0,0,0,.09-.9,1.12,1.12,0,0,0-.56-.68l-.44-.18,0,0c-1.06-.68-2.11-1.39-3.11-2.15l-2.68-2.08c-.78-.66-1.56-1.32-2.27-2.05s-1.54-1.64-2.26-2.5-1.46-1.73-2.15-2.63-1.4-1.87-2.08-2.82c-.32-.47-.64-.94-1-1.43s-.71-1.16-1-1.75-.55-1-.81-1.52l-.89-1.68c-.3-.58-.62-1.16-.93-1.73s-.59-1.18-.87-1.78-.43-1-.63-1.47c.09-.12.17-.25.27-.37a8.79,8.79,0,0,0,.79-1c.27-.43.55-.87.86-1.28a13.84,13.84,0,0,0,.94-1.33,7.1,7.1,0,0,0,.61-1.48c.31-1,.62-2.1.88-3.17a13,13,0,0,0,.31-1.87c0-.48,0-1,0-1.47a16.61,16.61,0,0,0-.08-1.87,19.72,19.72,0,0,0-.24-2,16.44,16.44,0,0,0-.47-1.93c-.21-.66-.41-1.33-.66-2s-.6-1.56-1-2.31a20.09,20.09,0,0,0-1.18-2.07c-.43-.7-.86-1.41-1.3-2.1s-.87-1.24-1.32-1.85-.7-1-1.09-1.51-.7-.81-1-1.22c-.65-.79-1.35-1.53-2.06-2.27-.4-.42-.79-.84-1.21-1.25a13.88,13.88,0,0,0-1.44-1.2,35,35,0,0,0-2.91-2l-1.49-.89a1,1,0,0,1-.1-.17,1.14,1.14,0,0,0-.63-.51,1,1,0,0,0-.81.08,1.14,1.14,0,0,0-.54.69,1,1,0,0,0,.1.74l.08.15c.06.74.08,1.49.09,2.24,0,.4,0,.79,0,1.19s0,1,0,1.42c0,.93,0,1.86.07,2.78,0,.43,0,.84,0,1.26s.12.94.18,1.42c.06.7.13,1.4.2,2.1l0-.27c0,.25.05.51.08.76a28.8,28.8,0,0,0,.44,3.21c.12.57.28,1.12.41,1.68s.23,1.14.34,1.71.18,1.07.32,1.58.3,1.06.48,1.59c.34,1,.74,2,1.09,3,.06.17.12.34.19.51.39,1,.83,2.07,1.27,3.09a11.6,11.6,0,0,0,.63,1.33,13.47,13.47,0,0,0,1,1.45,18.46,18.46,0,0,0,2,2.48c.42.4.8.83,1.2,1.25a14.94,14.94,0,0,0,1.25,1.14c.37.3.74.57,1.11.86l.36.86c.21.52.43,1,.67,1.54.54,1.17,1.17,2.29,1.79,3.42s1.1,2.18,1.72,3.23,1.39,2.28,2.16,3.38,1.56,2.15,2.38,3.21,1.52,1.87,2.3,2.78q.6.69,1.2,1.35c-1.93-1.45-3.83-3-5.67-4.51-2-1.71-4-3.45-5.94-5.28-1-.93-2-1.88-2.94-2.81s-1.93-1.83-2.9-2.74-1.86-1.82-2.74-2.77c-.55-.58-1.12-1.14-1.69-1.7a.78.78,0,0,0,0-.43,11.4,11.4,0,0,1-.32-1.28c-.1-.43-.16-.87-.26-1.3s-.27-1.11-.4-1.66-.22-1.1-.35-1.64-.26-1.08-.37-1.63a15,15,0,0,0-.41-1.6c-.18-.58-.3-1.18-.43-1.77s-.29-1.13-.45-1.69a33.65,33.65,0,0,0-1.05-3.37c-.37-.92-.84-1.8-1.29-2.69a28.13,28.13,0,0,0-1.56-2.72,21.55,21.55,0,0,0-2.26-3c-.78-.8-1.58-1.59-2.4-2.36s-1.42-1.36-2.15-2a34,34,0,0,0-2.81-2.27c-.91-.66-1.82-1.3-2.79-1.87a36.52,36.52,0,0,0-3.3-1.68c-.56-.25-1.12-.48-1.7-.7s-1.14-.48-1.71-.69c-1.08-.41-2.17-.73-3.27-1a26.77,26.77,0,0,0-3.86-.82,24.94,24.94,0,0,0-3.46-.24,26.25,26.25,0,0,0-3.43.37c-.45.07-.91.13-1.36.22s-1,.25-1.49.36-1,.18-1.44.3-1,.27-1.55.41a11.91,11.91,0,0,0-1.73.72c-.58.25-1.15.51-1.72.78a1,1,0,0,0-.55.68,1.17,1.17,0,0,0,.09.82,1.22,1.22,0,0,0,.2.25,1.05,1.05,0,0,0,.48.75,37.61,37.61,0,0,1,3.43,2.33c.23.2.46.41.7.6l0,0a25.87,25.87,0,0,1,2.41,2.5,29.06,29.06,0,0,1,2.12,2.71l.65.93c.24.37.46.75.69,1.12l1.45,2.36c1,1.59,1.93,3.2,3,4.71l.36.51c.4.59.79,1.2,1.22,1.78l-.07-.09.19.27,0,0,0-.05.15.22h0l1.69,2.33a20.06,20.06,0,0,0,2,2.22c.32.33.65.67,1,1s.8.71,1.21,1.06c1,.8,1.9,1.61,2.92,2.34a28.61,28.61,0,0,0,3.06,1.93,34.39,34.39,0,0,0,3.32,1.54,30,30,0,0,0,3.35,1.14,27.11,27.11,0,0,0,3.58.64,31,31,0,0,0,4.62.24c.73,0,1.46,0,2.19,0,.35,0,.7,0,1,0a7,7,0,0,1,1,0h0l.85.84c.91.89,1.76,1.85,2.67,2.74s1.92,1.83,2.88,2.74c1.94,1.85,3.86,3.72,5.83,5.52s4,3.46,6,5.13c1,.82,2,1.61,3,2.4a30.62,30.62,0,0,0,3.34,2.32c1.09.64,2.23,1.21,3.35,1.8.56.29,1.13.59,1.7.87-.56,0-1.12,0-1.68,0a40.87,40.87,0,0,1-5.42-.48c-.55-.1-1.11-.19-1.65-.31s-1.21-.28-1.8-.43-1.19-.34-1.78-.52l-1.71-.52c-1.16-.37-2.32-.74-3.45-1.18l-.93-.38s0-.08,0-.12a8,8,0,0,0-.48-.66c-.12-.18-.26-.35-.39-.52-.28-.39-.58-.77-.86-1.16l0,.05c-.45-.62-.91-1.21-1.39-1.81s-1-1.25-1.6-1.86a31.4,31.4,0,0,0-3.14-3,54.93,54.93,0,0,0-4.72-3.6,20.42,20.42,0,0,0-3-1.61,25.45,25.45,0,0,0-3.15-1.08,37.49,37.49,0,0,0-6.28-1.23,25.08,25.08,0,0,0-3-.12c-1,0-2,0-3,.06s-1.8.11-2.7.21-2.07.22-3.1.37a19.18,19.18,0,0,0-3,.85c-.55.18-1.09.36-1.62.58s-1,.48-1.48.7c-1,.41-1.9.89-2.84,1.36-.56.28-1.13.57-1.68.87a1.06,1.06,0,0,0-.38.38,1.15,1.15,0,0,0-.57.71,1.1,1.1,0,0,0,0,.54,1.12,1.12,0,0,0,.46.64,1,1,0,0,0,.85.49c.78,0,1.56-.06,2.34,0s1.29.09,1.94.17a41.24,41.24,0,0,1,4.23,1.14l2.1.66a21.47,21.47,0,0,1,2,.79,59.23,59.23,0,0,1,5.71,3.08c1.85,1.12,3.65,2.34,5.56,3.39a24.22,24.22,0,0,0,3.29,1.57c1.06.38,2.12.72,3.2,1,.52.16,1.05.34,1.58.47a17.91,17.91,0,0,0,2,.35A23.51,23.51,0,0,0,140.85,244.89Zm2.92-59.43c.52.46,1,1,1.46,1.48s.91.95,1.37,1.44.78.93,1.17,1.39.93,1.12,1.35,1.71l-.16-.23c.43.62.87,1.22,1.31,1.83.65,1,1.26,2,1.86,2.95a12.75,12.75,0,0,1,.86,1.53c.25.52.49,1.06.7,1.59h0l.22.6c.13.36.24.73.36,1.09s.31.91.43,1.37a19.77,19.77,0,0,1,.36,2c.07.76.14,1.51.14,2.28a18.87,18.87,0,0,1-.09,2.13,24.18,24.18,0,0,1-.6,2.37c-.23.74-.41,1.49-.7,2.2a6.29,6.29,0,0,1-.66,1l.18-.22c-.37.45-.73.91-1.06,1.4-.19.28-.37.59-.57.87-.4-1.08-.8-2.16-1.14-3.27-.4-1.27-.77-2.54-1.15-3.82-.32-1.13-.69-2.26-1-3.4s-.67-2.41-1-3.64-.51-2.25-.79-3.37-.67-2.45-1-3.67c-.63-2.3-1.23-4.6-2-6.85a33.07,33.07,0,0,0-1.56-4.13C142.64,184.58,143.21,185,143.77,185.46ZM148,213.89c-.42-.47-.8-1-1.18-1.49l-.88-1.17a11.49,11.49,0,0,1-1-2c-.31-.75-.63-1.49-.93-2.24-.35-1-.68-1.92-1-2.88a19.71,19.71,0,0,1-.9-3.08l-.33-1.75c-.1-.55-.24-1.09-.37-1.63s-.27-1.08-.36-1.64-.14-1-.19-1.46c0-.17-.05-.34-.07-.51s0-.25,0-.38l0,.27c0-.14,0-.29-.05-.43,0-.32-.07-.64-.11-1s-.06-.72-.1-1.08-.12-.92-.17-1.38c0-.74,0-1.48-.06-2.23s-.06-1.62-.08-2.44c0-.1,0-.21,0-.32.19.41.38.83.55,1.25s.32,1,.48,1.46.38,1.1.55,1.65c.35,1.12.66,2.25,1,3.38.62,2.39,1.33,4.76,1.91,7.17.28,1.13.51,2.27.8,3.4s.65,2.42,1,3.62.71,2.33,1.06,3.5.7,2.4,1.1,3.59c.07.21.15.41.23.62C148.5,214.46,148.22,214.18,148,213.89ZM99.22,183.62a18.28,18.28,0,0,1,1.93-.38c.62-.09,1.23-.18,1.85-.25a17.25,17.25,0,0,1,2.69,0c.9.06,1.8.17,2.7.3a47.09,47.09,0,0,1,5.09,1.35c.84.27,1.66.63,2.49.95s1.63.64,2.43,1a24.05,24.05,0,0,1,3.63,2.06c1.13.78,2.23,1.58,3.29,2.43s2.12,1.92,3.15,2.9a26.83,26.83,0,0,1,3.16,3.41c.34.5.68,1,1,1.5s.65,1.12.95,1.69.53,1,.8,1.56.49,1,.7,1.5c.35,1,.61,2,.91,3,.18.56.32,1.12.46,1.69s.27,1.18.45,1.75a15.42,15.42,0,0,1,.42,1.62c.11.54.26,1.07.37,1.61s.22,1.11.34,1.66c.08.35.17.7.25,1-.17-.19-.33-.38-.5-.56-.86-.94-1.71-1.89-2.6-2.81s-1.74-1.81-2.56-2.76-1.66-1.88-2.51-2.8-1.74-1.86-2.65-2.75-1.91-1.82-2.88-2.72c-1.83-1.73-3.79-3.33-5.72-4.93s-3.66-3-5.56-4.32h0c-1-.76-2.12-1.49-3.19-2.22s-2.12-1.31-3.2-1.9a37.15,37.15,0,0,0-7.06-3.14c-1.09-.34-2.21-.61-3.32-.88h0l.85-.2C98,183.85,98.6,183.77,99.22,183.62Zm29.72,34.25a29.43,29.43,0,0,1-6.66-2.21,36.21,36.21,0,0,1-3.19-1.85,29.57,29.57,0,0,1-2.78-2.08c-.6-.52-1.22-1-1.81-1.56s-1.09-1.08-1.63-1.64a15.29,15.29,0,0,1-1.35-1.55l-1.21-1.64-.55-.77.07.09-.15-.21h0l0-.07h0c-.44-.62-.85-1.25-1.28-1.86l0,0-.06-.08a1.3,1.3,0,0,0-.1-.15l0,0-.45-.62c-.61-.89-1.17-1.83-1.74-2.75s-1.2-1.92-1.77-2.89-1.19-2-1.85-2.9-1.4-1.93-2.18-2.84a24.07,24.07,0,0,0-2.87-2.93c-.19-.16-.38-.32-.58-.47l.12,0c1.29.33,2.56.7,3.8,1.15a52,52,0,0,1,5.36,2.61,48.68,48.68,0,0,1,5.13,3.24l-.27-.2,1.11.79-.19-.13.19.14.08.05-.07-.05.88.64c2,1.49,4,3.07,5.88,4.67,1,.84,2,1.68,3,2.55s1.9,1.69,2.83,2.56,1.89,1.8,2.79,2.74,1.74,1.86,2.58,2.8,1.6,1.83,2.44,2.7,1.83,1.87,2.71,2.84l2,2.27H137c-.87,0-1.75,0-2.63,0s-1.69,0-2.54-.12S129.89,218,128.94,217.87Zm-17.79,10,1.13-.37a12,12,0,0,1,1.76-.45c.57-.1,1.14-.15,1.7-.23s1.1-.14,1.65-.2a44.41,44.41,0,0,1,4.9-.22c.82,0,1.64,0,2.47,0a10.93,10.93,0,0,1,1.27.13l1.19.15,1.64.32a16.32,16.32,0,0,1,1.83.46c.68.19,1.37.38,2,.62s1.16.43,1.72.68a28.72,28.72,0,0,1,5.45,3.63l0,0,0,0,.06.05h0l.51.43-.21-.18.68.57-.07-.07c.68.59,1.35,1.18,2,1.8s1.47,1.52,2.18,2.32c.5.57,1,1.17,1.45,1.79l-1.25-.6c-1-.49-2-1-3-1.49s-2.05-1-3.09-1.48-2.21-1-3.32-1.49-2-.86-3.07-1.27c-.52-.21-1.06-.4-1.59-.59s-1.13-.42-1.71-.61c-1.13-.37-2.28-.68-3.43-1-.59-.14-1.17-.27-1.75-.45l-1.71-.48c-1.18-.29-2.37-.53-3.57-.75a35.65,35.65,0,0,0-3.71-.54,30.54,30.54,0,0,0-3.45,0l-1.83.05h-.39l.78-.35Zm22.28,13.6a31,31,0,0,1-3.23-1.15,48.29,48.29,0,0,1-5.54-3.17c-1.92-1.23-3.9-2.36-5.92-3.41a33.42,33.42,0,0,0-3.1-1.44c-1-.42-2.14-.74-3.22-1.07l-1.8-.56,2-.06a23.62,23.62,0,0,1,2.38,0c.77,0,1.54.15,2.3.26l1.12.19c1.18.21,2.35.44,3.52.72.57.13,1.14.3,1.71.46s1.17.3,1.76.44a55.61,55.61,0,0,1,6.75,2.13c1.78.69,3.52,1.46,5.27,2.23l-.07,0,.11,0,.14.06-.1,0,.21.1c2,.93,4,1.89,5.93,2.87,1.05.52,2.11,1,3.17,1.53l.28.13-1,.26a27.39,27.39,0,0,1-3.11.56h0a25.8,25.8,0,0,1-6.27-.13A29.38,29.38,0,0,1,133.43,241.52Z" class="cls-1"/><path d="M302.33,225.16c-1,.36-2,.84-3,1.28l.26-.11c-2.11.88-4.13,2-6.14,3-.49.27-1,.51-1.49.77s-1.06.61-1.58.93c-1,.61-2,1.24-2.89,1.92a20.25,20.25,0,0,1-3.48,2c-.73.13-1.46.26-2.19.41s-1.24.29-1.85.45c-.3,0-.6.07-.9.12a.8.8,0,0,0-.42.23,1.08,1.08,0,0,0-.71,1.3,1.1,1.1,0,0,0,1.32.76l2.32-.56c.64-.08,1.29-.17,1.93-.2a.62.62,0,0,0,.19,0h0c.3,0,.6,0,.9,0l1,.1a24.81,24.81,0,0,1,2.91.74c1,.29,1.94.57,2.89.91s1.83.69,2.73,1l2.58,1,.83.35-.07,0,.4.17-.15-.06,1.72.75a4.71,4.71,0,0,0,.52.21h0l.26.11.4.16.82.34c.56.21,1.1.43,1.66.63,2.24.79,4.43,1.71,6.7,2.43.57.18,1.13.37,1.7.54s1.15.32,1.73.47l1.68.4c.64.14,1.29.2,1.94.28,1.22.16,2.45.26,3.68.31s2.33.16,3.5.21a21.38,21.38,0,0,0,2.53-.07c.88,0,1.77-.17,2.65-.29l-.29,0c1.19-.16,2.38-.35,3.54-.61s2.24-.48,3.34-.77,2.14-.57,3.19-.9,2.17-.65,3.27-.95c.93-.25,1.84-.53,2.77-.74l1.58-.32c.39-.08.77-.16,1.15-.22l.75-.08a8.85,8.85,0,0,0,1-.17h0a1,1,0,0,0,.6-.3.71.71,0,0,0,.12-.18.92.92,0,0,0,.3-.32,1,1,0,0,0,.15-.53,1.45,1.45,0,0,0,0-.29,1.35,1.35,0,0,0-.14-.3,1.17,1.17,0,0,0-.3-.68c-1.05-1.13-2.12-2.24-3.26-3.28-.5-.46-1-.92-1.54-1.35s-1.06-.81-1.6-1.21c-.93-.74-1.84-1.52-2.81-2.23s-1.88-1.29-2.84-1.91-2-1.21-3.05-1.8c-.5-.28-1-.57-1.52-.84s-1-.5-1.5-.76a32.43,32.43,0,0,0-3.17-1.45,29.07,29.07,0,0,0-3.05-.94c-1-.26-1.94-.51-2.92-.73-1.19-.27-2.39-.47-3.6-.63h.06c-1.16-.17-2.31-.38-3.48-.44s-2.41-.07-3.61-.07a29.13,29.13,0,0,0-7.25,1C304.13,224.56,303.22,224.84,302.33,225.16Zm-2.27,15.38.21.08.12,0Zm38.48,3.38c-.5.15-1,.32-1.52.46l-1.6.43c-1.09.28-2.19.51-3.28.75s-2.15.43-3.23.6l.16,0-.9.12c-.94.1-1.88.17-2.83.2-.49,0-1,0-1.45,0s-1.07-.06-1.6-.1c-1-.08-2-.09-3-.14s-2-.18-3-.3a29.47,29.47,0,0,1-3.35-.75c-1.15-.31-2.28-.67-3.4-1.06s-2.26-.82-3.39-1.25-2.21-.79-3.31-1.22l-1.85-.73h0l-.06,0h0l-.05,0,0,0a.72.72,0,0,0-.2-.09,1.45,1.45,0,0,0-.22-.09l-.24-.1.05,0-2.05-.88.25.11-.68-.29.26.11c-1.08-.47-2.17-.9-3.26-1.34s-2.1-.83-3.17-1.2c-.87-.31-1.76-.57-2.65-.82l1.61-.27,2.84-.35c1.14-.14,2.28-.26,3.42-.38s2.49-.23,3.74-.29l1.75-.09c.62,0,1.25,0,1.88,0,1.2,0,2.39,0,3.59.11.61,0,1.23.07,1.85.09s1.22,0,1.83,0c1.28,0,2.55,0,3.82.1s2.38.18,3.56.29,2.5.25,3.74.4h0c2.31.35,4.61.81,6.92,1.16.63.09,1.27.17,1.89.3s1.16.24,1.73.39c1.21.32,2.42.66,3.62,1,2,.55,4,1.2,5.93,1.91l2.88,1.06.42.17-.87.17c-.58.12-1.17.24-1.74.4l-1.61.46-1.7.46C339.6,243.58,339.08,243.75,338.54,243.92Zm-25.31-18.33a34.9,34.9,0,0,1,4.09.2l1.61.24.14,0h.06a45.09,45.09,0,0,1,5,1,35,35,0,0,1,4.8,1.48c.44.2.89.4,1.32.62l1.41.71c1,.47,1.9,1,2.84,1.53s1.93,1.13,2.88,1.73c.46.28.91.6,1.37.91s.74.49,1.1.76l-.1-.08.17.13,0,0v0l0,0,0,0h0l0,0,.17.13-.09-.07,1.56,1.24c.62.5,1.26,1,1.89,1.44s1.46,1.22,2.15,1.87c-1-.38-2.06-.77-3.1-1.13s-2.36-.82-3.56-1.17-2.44-.71-3.66-1a34,34,0,0,0-3.45-.85c-1.25-.21-2.51-.4-3.76-.62s-2.39-.42-3.59-.61c-.64-.1-1.28-.21-1.92-.28s-1.28-.14-1.92-.21c-2.43-.26-4.86-.48-7.31-.54-1.24,0-2.48,0-3.72,0s-2.47-.13-3.7-.17-2.42-.08-3.62,0l-1.75.09c-.63,0-1.26.05-1.89.1-1.18.09-2.35.22-3.52.35l-3.73.44c-.55.06-1.1.15-1.65.23l.44-.3c.51-.34,1.05-.65,1.57-1s1-.62,1.58-.9l1.49-.77c.56-.29,1.1-.6,1.66-.88,1.1-.55,2.2-1.12,3.33-1.62.66-.27,1.32-.58,2-.87a32.64,32.64,0,0,1,3.58-1.19,31.41,31.41,0,0,1,3.72-.75c.64-.07,1.28-.13,1.92-.17S312.52,225.58,313.23,225.59Z" class="cls-3"/><path d="M182.66,193.9c-.07,1.09-.25,2.18-.4,3.27l0-.29a67.26,67.26,0,0,1-1.23,6.75c-.13.55-.22,1.09-.34,1.64s-.29,1.19-.45,1.78c-.31,1.12-.65,2.21-1.05,3.3a19.57,19.57,0,0,0-1,3.91q.12,1.11.21,2.22c.05.63.07,1.27.08,1.9,0,.3.09.6.13.9a.77.77,0,0,1-.11.46,1.07,1.07,0,0,1-1,1,1.09,1.09,0,0,1-1.09-1.06c-.05-.8-.07-1.59-.11-2.39-.1-.64-.19-1.28-.33-1.91a1.21,1.21,0,0,1-.05-.18v0a6.42,6.42,0,0,0-.23-.86c-.11-.31-.23-.61-.35-.91a28.25,28.25,0,0,0-1.52-2.59c-.54-.85-1.09-1.71-1.67-2.53s-1.16-1.57-1.76-2.34-1.14-1.47-1.71-2.19l-.57-.71.05.07-.27-.34.1.12c-.4-.48-.8-1-1.19-1.45a3.65,3.65,0,0,1-.35-.43h0l-.18-.22-.27-.34c-.18-.24-.37-.47-.55-.7-.35-.47-.72-.94-1.06-1.42-1.37-1.94-2.86-3.79-4.18-5.77l-1-1.49c-.33-.5-.62-1-.92-1.54s-.57-1-.84-1.5a17.88,17.88,0,0,1-.81-1.79c-.49-1.13-.93-2.28-1.31-3.45s-.79-2.2-1.16-3.3a23.22,23.22,0,0,1-.64-2.45c-.18-.87-.32-1.76-.45-2.64,0,.1,0,.2.05.29-.18-1.18-.32-2.38-.39-3.57s-.15-2.28-.18-3.42,0-2.21,0-3.32,0-2.26,0-3.4c0-1,0-1.91-.06-2.87,0-.54-.08-1.07-.12-1.6s-.06-.78-.11-1.17-.08-.49-.13-.74a8.94,8.94,0,0,1-.11-1h0a1,1,0,0,1,.12-.66.75.75,0,0,1,.14-.17,1.07,1.07,0,0,1,.22-.37,1,1,0,0,1,.48-.29.9.9,0,0,1,.28,0,1.32,1.32,0,0,1,.33,0,1.19,1.19,0,0,1,.74.1c1.37.7,2.73,1.43,4.05,2.24.58.35,1.16.71,1.72,1.1s1.07.8,1.6,1.2c1,.7,2,1.36,2.91,2.1s1.77,1.45,2.62,2.2,1.72,1.62,2.57,2.44c.41.4.83.8,1.23,1.23s.75.83,1.14,1.23a33.73,33.73,0,0,1,2.27,2.65,30,30,0,0,1,1.74,2.68c.52.85,1,1.72,1.5,2.6.59,1.07,1.11,2.17,1.6,3.29l0,0a33.81,33.81,0,0,1,1.37,3.22c.39,1.14.73,2.3,1.07,3.45a29.58,29.58,0,0,1,1,7.24C182.74,192,182.72,193,182.66,193.9Zm-14.16,6.41-.14-.18-.09-.1Zm-13.83-36.07c0,.53,0,1.06,0,1.59s0,1.11,0,1.66c0,1.13.11,2.25.17,3.37s.18,2.18.32,3.26a.78.78,0,0,1,0-.16c0,.3.08.6.13.9.15.93.35,1.86.58,2.77a13.34,13.34,0,0,0,.39,1.41c.16.5.35,1,.53,1.5.36,1,.65,1.93,1,2.89s.72,1.86,1.1,2.78a31.53,31.53,0,0,0,1.65,3c.61,1,1.27,2,1.95,3s1.41,2,2.13,2.91S166,197,166.66,198c.41.54.81,1.07,1.22,1.58l0,0,0,0h0l0,0,0,0a1.15,1.15,0,0,1,.14.17,1.33,1.33,0,0,1,.14.19l.16.2,0,0c.47.58.94,1.15,1.4,1.73a1.73,1.73,0,0,0-.17-.21l.46.57-.17-.21c.75.91,1.46,1.84,2.18,2.76s1.38,1.79,2,2.72c.54.75,1,1.54,1.52,2.32-.06-.54-.12-1.08-.19-1.62-.14-.94-.3-1.88-.44-2.83-.18-1.13-.38-2.26-.57-3.39s-.47-2.46-.76-3.68c-.13-.56-.25-1.14-.39-1.7s-.33-1.21-.52-1.81c-.34-1.15-.7-2.29-1.09-3.42-.2-.58-.41-1.17-.6-1.75s-.35-1.18-.52-1.76c-.36-1.22-.74-2.44-1.15-3.64s-.82-2.24-1.25-3.35-.93-2.33-1.42-3.49h0c-1-2.13-2.05-4.21-3-6.34-.27-.58-.52-1.17-.81-1.74s-.56-1-.86-1.55c-.63-1.08-1.29-2.14-1.94-3.21-1.08-1.77-2.25-3.49-3.47-5.17-.6-.83-1.2-1.66-1.81-2.48l-.28-.36c0,.3.05.6.07.89.05.59.1,1.18.1,1.78s0,1.11,0,1.67,0,1.17,0,1.76S154.68,163.69,154.67,164.24Zm24.58,19.3a37.69,37.69,0,0,0-1.32-3.88c-.22-.49-.45-1-.67-1.48l-.06-.13,0-.06,0,0,0,0a46.52,46.52,0,0,0-2.36-4.54,35,35,0,0,0-2.75-4.21c-.31-.37-.62-.74-.95-1.1L170,167c-.71-.8-1.49-1.55-2.24-2.31s-1.62-1.54-2.45-2.29c-.41-.37-.84-.72-1.26-1.06s-.68-.58-1-.85l.1.06-.17-.12,0,0h0l0,0h0l0,0a1.09,1.09,0,0,0-.17-.13l.09.07-1.62-1.16c-.65-.46-1.28-.94-1.91-1.43s-1.57-1.06-2.39-1.54c.66.88,1.31,1.77,2,2.66s1.43,2,2.1,3.1,1.35,2.15,2,3.24,1.27,2,1.78,3.08,1.07,2.3,1.62,3.45,1.07,2.18,1.58,3.28c.26.59.55,1.17.8,1.77s.48,1.19.73,1.78c.91,2.27,1.79,4.55,2.52,6.89.37,1.18.68,2.38,1.07,3.56s.8,2.34,1.18,3.51.74,2.31,1,3.48c.14.56.26,1.13.39,1.7s.3,1.23.42,1.85c.24,1.15.44,2.32.63,3.48s.41,2.46.61,3.7c.09.55.15,1.1.23,1.65.06-.16.12-.33.17-.5.19-.58.34-1.19.51-1.78s.3-1.17.42-1.77.22-1.1.33-1.64.28-1.22.39-1.83c.23-1.22.48-2.43.64-3.65.09-.72.2-1.43.3-2.15a31.81,31.81,0,0,0-.15-7.55q-.15-.94-.36-1.89C179.64,184.9,179.45,184.22,179.25,183.54Z" class="cls-2"/><path d="M216.68,223.62a1.09,1.09,0,0,0,0,2.17A1.09,1.09,0,0,0,216.68,223.62Z" class="cls-2"/><path d="M95.91,214.89a1.09,1.09,0,0,0,0,2.17A1.09,1.09,0,0,0,95.91,214.89Z" class="cls-2"/><path d="M198.17,241.2a1.52,1.52,0,0,0,0,3A1.52,1.52,0,0,0,198.17,241.2Z" class="cls-2"/><path d="M81.06,172.3a1.52,1.52,0,0,0,0,3A1.52,1.52,0,0,0,81.06,172.3Z" class="cls-2"/><path d="M242.35,199c-4.77,0-4.78,7.41,0,7.41S247.13,199,242.35,199Z" class="cls-2"/><path d="M194.59,132.39c-4.77,0-4.78,7.42,0,7.42S199.37,132.39,194.59,132.39Z" class="cls-2"/><path d="M168.27,220.89c-4.9,0-4.9,7.62,0,7.62S173.18,220.89,168.27,220.89Z" class="cls-2"/></g></g></svg>