<svg xmlns="http://www.w3.org/2000/svg" width="42.571" height="49.696" viewBox="0 0 42.571 49.696"><g id="Globe" transform="translate(-2.825 -1.825)"><path id="Path_3274" fill="#ff5100" d="M41.133,2.347a1.782,1.782,0,0,1,0,2.519L39.826,6.173a23.158,23.158,0,0,1-15.8,38.155v3.631h4.156a1.781,1.781,0,1,1,0,3.563H16.3a1.781,1.781,0,0,1,0-3.563h4.156V44.328a23.059,23.059,0,0,1-13.285-5.5L5.866,40.133a1.781,1.781,0,0,1-2.519-2.519l1.679-1.679a3.021,3.021,0,0,1,4.151-.09,19.528,19.528,0,0,0,13.056,4.989h.015a19.594,19.594,0,0,0,14.6-32.657,3.021,3.021,0,0,1,.09-4.151l1.679-1.679A1.781,1.781,0,0,1,41.133,2.347Z" data-name="Path 3274" transform="translate(0 0)"/><path id="Path_3275" fill="#ff5100" fill-rule="evenodd" d="M4.25,19.281A16.031,16.031,0,1,1,20.281,35.313,16.031,16.031,0,0,1,4.25,19.281ZM20.281,6.813a12.48,12.48,0,0,0-12.252,14.8,5.344,5.344,0,1,1,6.079,8.509,12.475,12.475,0,0,0,18.4-8.365A8.907,8.907,0,1,1,25.031,8q.308,0,.611.021A12.42,12.42,0,0,0,20.281,6.813Zm-.594,10.094a5.344,5.344,0,1,1,5.344,5.344A5.344,5.344,0,0,1,19.688,16.906Zm-7.719,6.531a1.781,1.781,0,1,0,1.781,1.781A1.781,1.781,0,0,0,11.969,23.438Z" data-name="Path 3275" transform="translate(1.959 1.959)"/></g></svg>