<svg xmlns="http://www.w3.org/2000/svg" viewBox="0 0 783.03 481.31"><defs><style>.cls-1{fill:#fff}.cls-2{fill:#e1e1e1}.cls-11,.cls-3{opacity:.3}.cls-4{fill:#ececec}.cls-5{fill:#f5f5f5}.cls-6{fill:#375a64}.cls-7{fill:#1a2e35}.cls-8{fill:#df4b26}.cls-9{fill:#fafafa}.cls-10{fill:#ff735d}.cls-12{fill:#ffbf9d}.cls-13{fill:#ff9a6c}</style></defs><g id="Layer_2" data-name="Layer 2"><g id="Layer_1-2" data-name="Layer 1"><rect width="169.95" height="113.79" x=".3" y="55.53" class="cls-1"/><path d="M170.25,169.32s0-.71,0-2.07,0-3.38,0-6c0-5.26,0-13-.06-22.88,0-19.77-.08-48.19-.13-82.83l.24.24L.32,55.83h0l.31-.3c0,40.54,0,79.08,0,113.79L.3,169l122.44.14,35,.07,9.31,0h2.4l.82,0h-.79l-2.37,0-9.25,0-34.92.08L.3,169.6H0v-.28C0,134.61,0,96.07,0,55.53v-.31H.32l169.93.06h.25v.25c-.06,34.7-.1,63.17-.13,83,0,9.87-.05,17.58-.06,22.83,0,2.61,0,4.6,0,6S170.25,169.32,170.25,169.32Z" class="cls-2"/><path d="M.3,65.68c0-.17,38-.3,84.9-.3s84.91.13,84.91.3S132.1,66,85.2,66,.3,65.85.3,65.68Z" class="cls-2"/><g class="cls-3"><path d="M7,60.56A1.36,1.36,0,1,1,5.65,59.2,1.36,1.36,0,0,1,7,60.56Z" class="cls-2"/></g><g class="cls-3"><path d="M11.68,60.56a1.37,1.37,0,1,1-1.37-1.36A1.36,1.36,0,0,1,11.68,60.56Z" class="cls-2"/></g><g class="cls-3"><path d="M16.28,60.56a1.37,1.37,0,1,1-1.36-1.36A1.36,1.36,0,0,1,16.28,60.56Z" class="cls-2"/></g><rect width="45.33" height="45.33" x="14.92" y="77.55" class="cls-2"/><path d="M147,90.36c0,.17-17.68.31-39.49.31S68,90.53,68,90.36s17.68-.3,39.49-.3S147,90.19,147,90.36Z" class="cls-2"/><path d="M147,98.79c0,.16-17.68.3-39.49.3S68,99,68,98.79s17.68-.31,39.49-.31S147,98.62,147,98.79Z" class="cls-2"/><path d="M147,107.21c0,.17-17.68.31-39.49.31S68,107.38,68,107.21s17.68-.3,39.49-.3S147,107,147,107.21Z" class="cls-2"/><path d="M114.65,115.63a9.06,9.06,0,0,1-1.84.12l-5,.1c-4.22.06-10.06.09-16.5.09s-12.28,0-16.5-.09l-5-.1a9,9,0,0,1-1.84-.12,10.74,10.74,0,0,1,1.84-.11l5-.1c4.22-.06,10.06-.09,16.5-.09s12.28,0,16.5.09l5,.1A10.88,10.88,0,0,1,114.65,115.63Z" class="cls-2"/><rect width="21.3" height="21.3" x="17.75" y="138.17" class="cls-2"/><rect width="21.3" height="21.3" x="56.39" y="138.17" class="cls-2"/><rect width="21.3" height="21.3" x="95.03" y="138.17" class="cls-2"/><rect width="21.3" height="21.3" x="133.66" y="138.17" class="cls-2"/><rect width="146.39" height="59.46" x="195.33" y=".23" class="cls-1"/><path d="M341.73,59.7s0-.37,0-1.07,0-1.73,0-3.08c0-2.72,0-6.7,0-11.84,0-10.26,0-25.1-.09-43.48l.17.16L195.34.46h0l.23-.23c0,20.83,0,40.93,0,59.46l-.22-.22,105,.11,30.45.06,8.15,0H341l.73,0h-2.79l-8.1,0-30.4.06-105.11.11h-.22v-.23c0-18.53,0-38.63,0-59.46V0h.24L341.73.07h.16V.23c0,18.42-.07,33.3-.09,43.58,0,5.12,0,9.1,0,11.8,0,1.34,0,2.36,0,3.06S341.73,59.7,341.73,59.7Z" class="cls-2"/><path d="M195.48,8.25c0-.13,32.72-.23,73.07-.23s73.09.1,73.09.23-32.72.23-73.09.23S195.48,8.38,195.48,8.25Z" class="cls-2"/><g class="cls-3"><path d="M201.61,4.66a1.07,1.07,0,1,1-1.07-1.06A1.07,1.07,0,0,1,201.61,4.66Z" class="cls-4"/></g><g class="cls-3"><path d="M205.25,4.66a1.07,1.07,0,1,1-1.07-1.06A1.07,1.07,0,0,1,205.25,4.66Z" class="cls-4"/></g><g class="cls-3"><circle cx="207.77" cy="4.66" r="1.06" class="cls-4"/></g><rect width="35.36" height="35.36" x="207.77" y="17.92" class="cls-2"/><path d="M331.6,27.39c0,.13-18.2.23-40.64.23s-40.64-.1-40.64-.23,18.19-.23,40.64-.23S331.6,27.26,331.6,27.39Z" class="cls-2"/><path d="M331.6,34.6c0,.12-18.2.23-40.64.23s-40.64-.11-40.64-.23,18.19-.24,40.64-.24S331.6,34.47,331.6,34.6Z" class="cls-2"/><path d="M302.64,41.8a3.13,3.13,0,0,1-.53.05l-1.52,0L295,42l-18.5.07L258,42l-5.6-.07-1.53,0a3.13,3.13,0,0,1-.53-.05,2.19,2.19,0,0,1,.53,0l1.53,0,5.6-.08,18.5-.06,18.5.06,5.61.08,1.52,0A2.19,2.19,0,0,1,302.64,41.8Z" class="cls-2"/><path d="M736.72,79.59a5.32,5.32,0,0,1,.82-.94L740,76.23c2-2,4.91-4.79,8.08-7.82l.08-.07v.41c-3.2-3-6.08-5.69-8.14-7.67l-2.42-2.37a5.63,5.63,0,0,1-.83-.92,5.38,5.38,0,0,1,1,.76l2.54,2.24c2.13,1.91,5,4.57,8.25,7.55l.22.2-.22.21-.07.06c-3.18,3-6.08,5.76-8.2,7.71l-2.53,2.29A5.44,5.44,0,0,1,736.72,79.59Z" class="cls-2"/><path d="M712,57.79a5.62,5.62,0,0,1-.83.94l-2.41,2.41c-2,2-4.9,4.8-8.08,7.83l-.07.07v-.41c3.2,3,6.07,5.68,8.13,7.67,1,.93,1.77,1.72,2.42,2.37a5.14,5.14,0,0,1,.84.92,5,5,0,0,1-1-.77l-2.54-2.23c-2.13-1.91-5.05-4.58-8.25-7.55l-.22-.2.21-.21.08-.07c3.17-3,6.07-5.75,8.19-7.7L711,58.57A4.89,4.89,0,0,1,712,57.79Z" class="cls-2"/><path d="M718.34,84.73c-.14-.06,2.45-7.35,5.8-16.29s6.17-16.15,6.31-16.09-2.45,7.34-5.79,16.29S718.49,84.78,718.34,84.73Z" class="cls-2"/><path d="M764.8,100.33s0-.42,0-1.22,0-2,0-3.51c0-3.08,0-7.57-.06-13.29,0-11.43-.07-27.78-.12-47.49l.23.23-80.39.05h0l.28-.28c0,23.68,0,46.05,0,65.51l-.25-.25,58.06.12,16.45.07,4.37,0h1.13l.39,0h-.36l-1.1,0-4.32,0-16.4.06-58.22.13h-.25v-.25c0-19.46,0-41.83,0-65.51v-.28h.29l80.39,0H765v.23c0,19.77-.1,36.17-.12,47.64,0,5.7,0,10.17-.06,13.24,0,1.5,0,2.66,0,3.46S764.8,100.33,764.8,100.33Z" class="cls-2"/><path d="M765.43,44.54c0,.15-18.15.28-40.53.28s-40.53-.13-40.53-.28,18.14-.28,40.53-.28S765.43,44.38,765.43,44.54Z" class="cls-2"/><path d="M691,39.76a1.08,1.08,0,1,1-1.08-1.09A1.08,1.08,0,0,1,691,39.76Z" class="cls-2"/><path d="M694.91,39.76a1.08,1.08,0,1,1-1.08-1.09A1.08,1.08,0,0,1,694.91,39.76Z" class="cls-2"/><path d="M698.86,39.76a1.09,1.09,0,1,1-1.09-1.09A1.08,1.08,0,0,1,698.86,39.76Z" class="cls-2"/><path d="M746.28,388.41c4.64-2.4,10.12-2.71,15.27-1.86,2.77.46,5.66,1.29,7.55,3.37s2.24,5.74.08,7.53a7.21,7.21,0,0,1-4.76,1.21c-4-.05-8.52-.76-11.74,1.67-1.84,1.39-3.07,3.69-5.27,4.37a5.19,5.19,0,0,1-5.72-2.54,8.89,8.89,0,0,1-.65-6.57A10,10,0,0,1,746.28,388.41Z" class="cls-4"/><path d="M735.63,367.86c2.85,4.06,8.37,2.71,10.93.24s3.64-6.07,4.62-9.49c2.25-7.82,4.52-16,2.85-24A13.32,13.32,0,0,0,751,328.1a7,7,0,0,0-6.6-2.2c-2.79.74-4.52,3.46-5.77,6.06A57.25,57.25,0,0,0,733,356.5c0,3.95.46,8.1,2.68,11.36" class="cls-4"/><path d="M727.83,373.68c3.09-3.66,3.67-9,2.3-13.58s-4.47-8.49-8-11.68a43.31,43.31,0,0,0-14.41-8.5,15.39,15.39,0,0,0-6.48-1.1,6.78,6.78,0,0,0-5.43,3.29c-1.52,2.89-.07,6.4,1.51,9.26a109,109,0,0,0,9.46,14.41c2.84,3.66,6.09,7.27,10.41,8.92s8.81,1.46,11.11-1.54" class="cls-4"/><path d="M735.44,429.07a8.5,8.5,0,0,0,.26-1.85c.13-1.34.29-3,.49-5a70.64,70.64,0,0,1,1.13-7.38A58.3,58.3,0,0,1,740,406.1a32,32,0,0,1,4.45-7.88,16.56,16.56,0,0,1,5.63-4.68,15.68,15.68,0,0,1,4.73-1.47,8.78,8.78,0,0,0,1.84-.27,9,9,0,0,0-1.87,0,14.4,14.4,0,0,0-4.94,1.29,16.6,16.6,0,0,0-5.93,4.71,31.27,31.27,0,0,0-4.61,8,53.11,53.11,0,0,0-2.67,8.86,64.77,64.77,0,0,0-1,7.47c-.16,2.14-.22,3.87-.25,5.06A9.47,9.47,0,0,0,735.44,429.07Z" class="cls-2"/><path d="M735.79,425.19a3.48,3.48,0,0,0,.05-.85c0-.64,0-1.45,0-2.45,0-2.12,0-5.19.11-9,.19-7.59.84-15.75,2.1-27.26,1.2-10.83,2.8-23.43,4.5-31.62.36-1.86.72-3.54,1.07-5s.61-2.74.88-3.76l.57-2.38a4.34,4.34,0,0,0,.15-.85,3.41,3.41,0,0,0-.3.81c-.19.61-.42,1.39-.71,2.34s-.64,2.28-1,3.74-.78,3.14-1.18,5a275.05,275.05,0,0,0-4.72,29.33c-1.27,11.54-1.84,22.05-1.89,29.65,0,3.81,0,6.88.14,9,.06,1,.11,1.8.15,2.44A3.37,3.37,0,0,0,735.79,425.19Z" class="cls-2"/><path d="M735.84,404.93a17.15,17.15,0,0,0,0-2.55c-.09-1.65-.32-4-.78-6.93a92.45,92.45,0,0,0-2.25-10.08,82.84,82.84,0,0,0-4.22-11.94,63.48,63.48,0,0,0-12.39-19.29,31.58,31.58,0,0,0-2.91-2.71c-.45-.38-.84-.75-1.25-1.05l-1.13-.78a17.08,17.08,0,0,0-2.15-1.38c-.12.17,3,2,7,6.29a66.94,66.94,0,0,1,12.08,19.22,92.8,92.8,0,0,1,4.24,11.83,102.11,102.11,0,0,1,2.4,10c.53,2.87.83,5.22,1,6.85A16.88,16.88,0,0,0,735.84,404.93Z" class="cls-2"/><polygon points="716.26 440.67 718.29 468.49 754.02 468.49 756.05 440.67 716.26 440.67" class="cls-2"/><rect width="47.51" height="10.96" x="712.81" y="429.71" class="cls-2"/><polygon points="712.81 467.42 712.81 470.46 715.04 470.46 759.53 470.46 759.53 467.42 712.81 467.42" class="cls-4"/><polygon points="717.23 475.81 715.04 470.46 757.83 470.46 755.27 475.81 717.23 475.81" class="cls-2"/><path d="M755.39,449.76a1.38,1.38,0,0,1-.17.26l-.53.71-2.09,2.66-.09.12-.09-.13c-1.31-1.8-3-4.22-5.11-7.07h.29l-5,7.13-.16.22-.18-.21-6-7.1h.35l-.33.41-5.34,6.69-.18.23-.16-.24c-1.82-2.56-3.51-5-5-7.12h.29l-6.2,7.07-.11.12-.09-.14-1.94-3.26c-.2-.36-.37-.64-.5-.87a1.2,1.2,0,0,1-.15-.31s.08.09.21.28l.55.83,2,3.21-.19,0,6.1-7.15.15-.19.14.2,5.08,7.09h-.34l5.33-6.71.33-.41.17-.21.17.2c2.09,2.5,4.1,4.91,6,7.12l-.34,0,5.09-7.1.15-.21.14.21,5,7.15h-.18l2.16-2.6.58-.67A1.2,1.2,0,0,1,755.39,449.76Z" class="cls-5"/><path d="M756.55,440.49c0,.12-9,.22-20,.22s-20-.1-20-.22,9-.22,20-.22S756.55,440.37,756.55,440.49Z" class="cls-5"/><path d="M758.35,470.76c0,.12-9.73.22-21.73.22s-21.73-.1-21.73-.22,9.73-.22,21.73-.22S758.35,470.64,758.35,470.76Z" class="cls-5"/><path d="M94.31,82.87H666.09a6.74,6.74,0,0,1,6.74,6.74V456a14.57,14.57,0,0,1-14.57,14.57H101.13A14.57,14.57,0,0,1,86.56,456V90.62A7.75,7.75,0,0,1,94.31,82.87Z" class="cls-6"/><path d="M62,441.89H697.22a0,0,0,0,1,0,0v20.2a13.72,13.72,0,0,1-13.72,13.72H75.76A13.72,13.72,0,0,1,62,462.09v-20.2a0,0,0,0,1,0,0Z" class="cls-6"/><rect width="553.16" height="327.4" x="102.3" y="98.27" class="cls-2"/><polygon points="321.9 441.89 329.78 454.42 440.69 454.42 448.01 441.89 321.9 441.89" class="cls-7"/><rect width="521.67" height="308.43" x="118.71" y="117.24" class="cls-7"/><path d="M158.73,416.62c-.27,0-.49-65.69-.49-146.71s.22-146.71.49-146.71.49,65.67.49,146.71S159,416.62,158.73,416.62Z" class="cls-2"/><path d="M148.21,149.79c0,.27-3.79.49-8.47.49s-8.48-.22-8.48-.49,3.8-.49,8.48-.49S148.21,149.52,148.21,149.79Z" class="cls-2"/><path d="M148.86,133.14c0,.27-3.79.49-8.47.49s-8.48-.22-8.48-.49,3.8-.49,8.48-.49S148.86,132.87,148.86,133.14Z" class="cls-2"/><path d="M148.21,167.74c0,.27-3.79.49-8.47.49s-8.48-.22-8.48-.49,3.8-.49,8.48-.49S148.21,167.47,148.21,167.74Z" class="cls-2"/><path d="M148.21,185.68c0,.28-3.79.49-8.47.49s-8.48-.21-8.48-.49,3.8-.48,8.48-.48S148.21,185.41,148.21,185.68Z" class="cls-2"/><path d="M148.21,203.63c0,.27-3.79.49-8.47.49s-8.48-.22-8.48-.49,3.8-.49,8.48-.49S148.21,203.36,148.21,203.63Z" class="cls-2"/><path d="M148.21,221.58c0,.27-3.79.49-8.47.49s-8.48-.22-8.48-.49,3.8-.49,8.48-.49S148.21,221.31,148.21,221.58Z" class="cls-2"/><path d="M148.21,239.52c0,.27-3.79.49-8.47.49s-8.48-.22-8.48-.49,3.8-.48,8.48-.48S148.21,239.25,148.21,239.52Z" class="cls-2"/><path d="M148.21,257.47c0,.27-3.79.49-8.47.49s-8.48-.22-8.48-.49,3.8-.49,8.48-.49S148.21,257.2,148.21,257.47Z" class="cls-2"/><path d="M148.21,275.42c0,.27-3.79.49-8.47.49s-8.48-.22-8.48-.49,3.8-.49,8.48-.49S148.21,275.15,148.21,275.42Z" class="cls-2"/><path d="M148.21,293.36c0,.27-3.79.49-8.47.49s-8.48-.22-8.48-.49,3.8-.49,8.48-.49S148.21,293.09,148.21,293.36Z" class="cls-2"/><path d="M148.21,311.31c0,.27-3.79.49-8.47.49s-8.48-.22-8.48-.49,3.8-.49,8.48-.49S148.21,311,148.21,311.31Z" class="cls-2"/><path d="M148.21,329.26c0,.27-3.79.49-8.47.49s-8.48-.22-8.48-.49,3.8-.49,8.48-.49S148.21,329,148.21,329.26Z" class="cls-2"/><path d="M148.21,347.2c0,.27-3.79.49-8.47.49s-8.48-.22-8.48-.49,3.8-.49,8.48-.49S148.21,346.93,148.21,347.2Z" class="cls-2"/><path d="M148.21,365.15c0,.27-3.79.49-8.47.49s-8.48-.22-8.48-.49,3.8-.49,8.48-.49S148.21,364.88,148.21,365.15Z" class="cls-2"/><path d="M148.21,383.1c0,.27-3.79.49-8.47.49s-8.48-.22-8.48-.49,3.8-.49,8.48-.49S148.21,382.83,148.21,383.1Z" class="cls-2"/><path d="M148.21,401c0,.27-3.79.49-8.47.49s-8.48-.22-8.48-.49,3.8-.49,8.48-.49S148.21,400.77,148.21,401Z" class="cls-2"/><path d="M216.14,148.73c0,.27-9.85.49-22,.49s-22-.22-22-.49,9.84-.49,22-.49S216.14,148.46,216.14,148.73Z" class="cls-8"/><path d="M216.14,401c0,.27-9.85.49-22,.49s-22-.22-22-.49,9.84-.49,22-.49S216.14,400.77,216.14,401Z" class="cls-8"/><path d="M277.39,185.68c0,.28-18.42.49-41.14.49s-41.15-.21-41.15-.49,18.42-.48,41.15-.48S277.39,185.41,277.39,185.68Z" class="cls-8"/><path d="M372.55,185.68c0,.28-18.43.49-41.15.49s-41.15-.21-41.15-.49,18.42-.48,41.15-.48S372.55,185.41,372.55,185.68Z" class="cls-2"/><path d="M336.18,203.63c0,.27-27.15.49-60.64.49s-60.64-.22-60.64-.49,27.15-.49,60.64-.49S336.18,203.36,336.18,203.63Z" class="cls-2"/><path d="M336.18,221.58c0,.27-27.15.49-60.64.49s-60.64-.22-60.64-.49,27.15-.49,60.64-.49S336.18,221.31,336.18,221.58Z" class="cls-2"/><path d="M419.66,275.42c0,.27-27.15.49-60.64.49s-60.64-.22-60.64-.49,27.15-.49,60.64-.49S419.66,275.15,419.66,275.42Z" class="cls-2"/><path d="M383.64,239.52c0,.27-27.15.49-60.64.49s-60.64-.22-60.64-.49S289.5,239,323,239,383.64,239.25,383.64,239.52Z" class="cls-2"/><path d="M531.84,239.52c0,.27-27.15.49-60.64.49s-60.64-.22-60.64-.49,27.15-.48,60.64-.48S531.84,239.25,531.84,239.52Z" class="cls-2"/><path d="M480.3,203.63c0,.27-27.15.49-60.64.49S359,203.9,359,203.63s27.15-.49,60.64-.49S480.3,203.36,480.3,203.63Z" class="cls-9"/><path d="M564.07,275.42c0,.27-27.15.49-60.63.49s-60.64-.22-60.64-.49,27.14-.49,60.64-.49S564.07,275.15,564.07,275.42Z" class="cls-9"/><path d="M547.34,221.58c0,.27-42.16.49-94.15.49s-94.17-.22-94.17-.49,42.15-.49,94.17-.49S547.34,221.31,547.34,221.58Z" class="cls-6"/><path d="M216.14,167.74c0,.27-9.85.49-22,.49s-22-.22-22-.49,9.84-.49,22-.49S216.14,167.47,216.14,167.74Z" class="cls-9"/><path d="M216.14,383.1c0,.27-9.85.49-22,.49s-22-.22-22-.49,9.84-.49,22-.49S216.14,382.83,216.14,383.1Z" class="cls-9"/><path d="M237.93,239.52c0,.27-9.85.49-22,.49s-22-.22-22-.49,9.84-.48,22-.48S237.93,239.25,237.93,239.52Z" class="cls-9"/><path d="M590.44,239.52c0,.27-9.85.49-22,.49s-22-.22-22-.49,9.85-.48,22-.48S590.44,239.25,590.44,239.52Z" class="cls-8"/><path d="M277.39,311.2c0,.27-18.42.49-41.14.49s-41.15-.22-41.15-.49,18.42-.48,41.15-.48S277.39,310.93,277.39,311.2Z" class="cls-8"/><path d="M372.55,311.2c0,.27-18.43.49-41.15.49s-41.15-.22-41.15-.49,18.42-.48,41.15-.48S372.55,310.93,372.55,311.2Z" class="cls-2"/><path d="M336.18,329.15c0,.27-27.15.49-60.64.49s-60.64-.22-60.64-.49,27.15-.49,60.64-.49S336.18,328.88,336.18,329.15Z" class="cls-2"/><path d="M336.18,347.1c0,.27-27.15.49-60.64.49s-60.64-.22-60.64-.49,27.15-.49,60.64-.49S336.18,346.83,336.18,347.1Z" class="cls-2"/><path d="M383.64,365c0,.27-27.15.49-60.64.49s-60.64-.22-60.64-.49,27.14-.49,60.64-.49S383.64,364.77,383.64,365Z" class="cls-2"/><path d="M531.84,365c0,.27-27.15.49-60.64.49s-60.64-.22-60.64-.49,27.15-.49,60.64-.49S531.84,364.77,531.84,365Z" class="cls-2"/><path d="M480.3,329.15c0,.27-27.15.49-60.64.49s-60.64-.22-60.64-.49,27.15-.49,60.64-.49S480.3,328.88,480.3,329.15Z" class="cls-9"/><path d="M547.34,347.1c0,.27-42.16.49-94.15.49S359,347.37,359,347.1s42.15-.49,94.17-.49S547.34,346.83,547.34,347.1Z" class="cls-6"/><path d="M237.93,365c0,.27-9.85.49-22,.49s-22-.22-22-.49,9.84-.49,22-.49S237.93,364.77,237.93,365Z" class="cls-9"/><path d="M590.44,365c0,.27-9.85.49-22,.49s-22-.22-22-.49,9.85-.49,22-.49S590.44,364.77,590.44,365Z" class="cls-8"/><path d="M602.16,453.22c0,.16-112.31.29-250.81.29s-250.83-.13-250.83-.29,112.28-.29,250.83-.29S602.16,453.06,602.16,453.22Z" class="cls-7"/><path d="M81.74,354.85A63.69,63.69,0,0,0,21,338.17a110.59,110.59,0,0,0,61.48,19.21" class="cls-8"/><path d="M61.13,281.87C63.66,264,56.7,243.82,43.3,230.81c-.44,17.74,7.05,37.71,17.83,51.06" class="cls-8"/><path d="M71.85,315.69a95.54,95.54,0,0,0-43.91-42c5.6,20.61,23.23,37.48,44.07,42.15" class="cls-8"/><path d="M74.07,322.22c-10.81.3-21.76-.08-32.22-2.85S21.38,311.29,14.42,303a107.72,107.72,0,0,1,59.49,18.16" class="cls-8"/><path d="M68.58,300.72c5.49-20.57,14.55-34.8,30.72-46.33a42.79,42.79,0,0,1-30.72,46.33" class="cls-8"/><path d="M109.4,336.2A30.46,30.46,0,0,0,90.9,308c.9,10.63,9.25,22.92,18.5,28.21" class="cls-8"/><path d="M114.57,318.85c1.23-17.18,13.44-33.08,29.73-38.7-3.74,17.19-13.68,31.5-29.73,38.7" class="cls-8"/><path d="M106.78,349.64c3.82-5.46,10-8.85,16.48-10.54s13.17-1.83,19.82-2A46.36,46.36,0,0,1,107.29,352" class="cls-8"/><path d="M99.05,393.49a50.78,50.78,0,0,1,62,29.37c-22.53-4.27-44.75-14.28-62-29.37" class="cls-8"/><path d="M74.33,378.25c3.74,11.06,3,24.43-5.29,34a40.55,40.55,0,0,1,5.29-34" class="cls-8"/><path d="M59.72,372.11a41.61,41.61,0,0,1-23,33.76,2.6,2.6,0,0,1-2,.33c-1-.41-1.11-1.79-1-2.88,1.63-14.17,12.13-27.88,26-31.21" class="cls-8"/><path d="M50.18,370.67a34.57,34.57,0,0,1-24.87,10.94,34.58,34.58,0,0,1-25-10.69c15.85-1.73,34.13-2.89,49.85-.25" class="cls-8"/><path d="M47.81,244a3.09,3.09,0,0,0,.14.47c.12.32.28.77.48,1.34l1.92,5.13c.85,2.22,1.83,4.95,3,8.13q.87,2.39,1.84,5.09t2,5.73c2.8,8,5.92,17.65,9.29,28.38s6.77,22.6,10.18,35.11,6.36,24.52,8.9,35.47,4.59,20.86,6.13,29.22c.39,2.08.76,4.07,1.12,5.95s.62,3.67.91,5.33c.57,3.33,1.06,6.2,1.39,8.55s.64,4.14.83,5.41c.1.6.18,1.06.23,1.41a3.25,3.25,0,0,0,.1.47,2.49,2.49,0,0,0,0-.48c0-.35-.09-.81-.17-1.41l-.72-5.43c-.29-2.36-.75-5.24-1.29-8.57q-.41-2.51-.86-5.34t-1.08-6c-1.48-8.38-3.57-18.29-6-29.27s-5.48-23-8.85-35.5S70.29,308.84,67,298.1s-6.56-20.34-9.42-28.35l-2-5.72q-1-2.7-1.88-5.07c-1.17-3.17-2.19-5.9-3.07-8.11s-1.55-3.89-2-5.09c-.23-.56-.41-1-.54-1.32S47.82,244,47.81,244Z" class="cls-7"/><path d="M134.84,289.32a2.3,2.3,0,0,0-.28.26l-.75.8c-.66.7-1.62,1.76-2.82,3.15A110.81,110.81,0,0,0,121.66,306a83.52,83.52,0,0,0-9.75,20.87c-2.62,8.31-4.24,17.75-5.85,27.62-3.23,19.75-7.18,37.45-10,50.25l-3.43,15.15L91.67,424c-.09.44-.16.8-.22,1.07a1.29,1.29,0,0,0,0,.37,2.93,2.93,0,0,0,.11-.35c.07-.28.17-.63.28-1.07.25-1,.59-2.35,1-4.1.86-3.6,2.1-8.75,3.62-15.11,3-12.77,7-30.47,10.21-50.24,1.62-9.87,3.22-19.29,5.79-27.56A84.56,84.56,0,0,1,122,306.2a120.24,120.24,0,0,1,9.15-12.52c1.17-1.41,2.1-2.49,2.73-3.22l.71-.84A1.44,1.44,0,0,0,134.84,289.32Z" class="cls-7"/><path d="M45.44,370a2.54,2.54,0,0,0,.58.1l1.64.18,1.18.12,1.4.21c1,.15,2.15.29,3.4.57l2,.39,2.11.54c1.46.33,3,.87,4.6,1.35a69,69,0,0,1,10,4.42,57.51,57.51,0,0,1,9,6.25,44.09,44.09,0,0,1,3.45,3.31,35.38,35.38,0,0,1,2.74,3.16c.84,1,1.42,2,2,2.78a20.19,20.19,0,0,1,1.38,2.21c.34.56.61,1,.84,1.41a2,2,0,0,0,.33.48,2.12,2.12,0,0,0-.22-.53l-.74-1.48a17.48,17.48,0,0,0-1.31-2.27,29.82,29.82,0,0,0-2-2.87,34.74,34.74,0,0,0-2.7-3.23,44.53,44.53,0,0,0-3.45-3.39,55.39,55.39,0,0,0-9.07-6.36,65.16,65.16,0,0,0-10.15-4.42c-1.63-.47-3.17-1-4.65-1.31l-2.13-.5-2-.36c-1.26-.25-2.42-.37-3.44-.49l-1.41-.16-1.19-.06L46,370C45.64,370,45.45,370,45.44,370Z" class="cls-7"/><path d="M40.93,289.7a7.39,7.39,0,0,0,1.14,1.1l3.26,2.83c2.78,2.37,6.63,5.61,10.91,9.16s8.18,6.74,11,9l3.38,2.68a6.94,6.94,0,0,0,1.29.92,8,8,0,0,0-1.14-1.1l-3.27-2.83c-2.77-2.37-6.62-5.61-10.9-9.16s-8.18-6.73-11-9l-3.38-2.69A8.19,8.19,0,0,0,40.93,289.7Z" class="cls-7"/><path d="M37,310.66c0,.16,8.27,2.76,18.58,5.81s18.7,5.38,18.75,5.22-8.27-2.76-18.58-5.8S37.08,310.5,37,310.66Z" class="cls-7"/><path d="M67.76,302.32a7.63,7.63,0,0,0,.86-1.2l2.19-3.34c1.86-2.81,4.5-6.65,7.62-10.74s6.14-7.64,8.36-10.19l2.63-3a6.77,6.77,0,0,0,.92-1.15,6.35,6.35,0,0,0-1.09,1c-.68.66-1.63,1.64-2.78,2.88-2.31,2.47-5.38,6-8.52,10.1s-5.73,8-7.5,10.88c-.89,1.44-1.58,2.62-2,3.45A6.81,6.81,0,0,0,67.76,302.32Z" class="cls-7"/><path d="M96.65,314a27.88,27.88,0,0,0,1.95,3.21c1.24,2,2.93,4.67,4.68,7.74s3.22,5.91,4.26,8a26.71,26.71,0,0,0,1.76,3.31,19.74,19.74,0,0,0-1.37-3.5c-1-2.12-2.37-5-4.13-8.09s-3.5-5.78-4.84-7.68A20.6,20.6,0,0,0,96.65,314Z" class="cls-7"/><path d="M106.53,350.21c0,.08,1.63-.69,4.23-1.86s6.23-2.7,10.32-4.14,7.89-2.5,10.65-3.2,4.49-1.09,4.47-1.18A4.12,4.12,0,0,0,135,340c-.79.11-1.93.33-3.32.63a92.73,92.73,0,0,0-10.76,3.05,94.18,94.18,0,0,0-10.3,4.32c-1.28.64-2.3,1.18-3,1.58A5.12,5.12,0,0,0,106.53,350.21Z" class="cls-7"/><path d="M98.75,393.56a1.81,1.81,0,0,0,.51.17l1.5.38,5.54,1.28a181.82,181.82,0,0,1,18.07,4.77,79.94,79.94,0,0,1,16.86,7.92c2,1.28,3.59,2.42,4.64,3.23a16.86,16.86,0,0,0,1.68,1.24,2.45,2.45,0,0,0-.37-.39c-.26-.24-.64-.61-1.16-1a48.54,48.54,0,0,0-4.56-3.41,73.62,73.62,0,0,0-16.89-8.13A151.63,151.63,0,0,0,106.39,395l-5.58-1.09A11.69,11.69,0,0,0,98.75,393.56Z" class="cls-7"/><path d="M70.61,404.24c.17,0,1.16-5.81,2.21-13s1.78-13.1,1.62-13.12-1.16,5.81-2.22,13S70.44,404.22,70.61,404.24Z" class="cls-8"/><path d="M41.31,393.6A29.75,29.75,0,0,0,44,390.47c1.59-2,3.78-4.69,6.26-7.64s4.78-5.58,6.45-7.48a28.87,28.87,0,0,0,2.63-3.14s-.33.22-.84.71-1.23,1.22-2.11,2.14c-1.75,1.83-4.11,4.42-6.59,7.38s-4.64,5.72-6.14,7.76c-.75,1-1.34,1.86-1.73,2.45A4.19,4.19,0,0,0,41.31,393.6Z" class="cls-7"/><polygon points="118.85 420.77 118.85 435.25 115.23 435.25 102.36 475.87 73.82 475.87 61.36 435.65 56.53 435.25 56.53 420.77 118.85 420.77" class="cls-10"/><g class="cls-3"><polygon points="118.85 420.77 118.85 435.25 115.23 435.25 102.36 475.87 73.82 475.87 61.36 435.65 56.53 435.25 56.53 420.77 118.85 420.77"/></g><path d="M58.94,435.65c0,.17,12.6.31,28.14.31s28.15-.14,28.15-.31-12.6-.3-28.15-.3S58.94,435.49,58.94,435.65Z" class="cls-7"/><path d="M38.42,342.53a10.88,10.88,0,0,0,1.83.5l5,1.2c4.22,1,10,2.64,16.3,4.75s11.87,4.36,15.87,6.07l4.72,2.07a11.27,11.27,0,0,0,1.75.71,10.17,10.17,0,0,0-1.65-.92c-1.08-.57-2.67-1.34-4.65-2.25a163.77,163.77,0,0,0-32.24-10.84c-2.13-.48-3.86-.82-5.06-1A12,12,0,0,0,38.42,342.53Z" class="cls-7"/><path d="M68.42,458.21c0,.17,8.84.3,19.74.3s19.75-.13,19.75-.3-8.84-.3-19.75-.3S68.42,458,68.42,458.21Z" class="cls-9"/><path d="M67.31,454.85c0,.17,9.37.3,20.92.3s20.93-.13,20.93-.3-9.37-.3-20.93-.3S67.31,454.68,67.31,454.85Z" class="cls-9"/><path d="M765.1,476.1c0,.16-170.11.29-379.9.29S5.27,476.26,5.27,476.1s170.07-.29,379.93-.29S765.1,475.94,765.1,476.1Z" class="cls-7"/><polygon points="660.85 51.66 361.81 51.66 361.81 236.86 613.55 236.86 629.14 272.71 642.96 236.86 660.85 236.86 660.85 51.66" class="cls-9"/><path d="M660.85,51.66c0,1.79.09,71.37.23,185.2v.22H643l.21-.15c-4.32,11.24-9,23.36-13.8,35.86l-.22.57-.24-.56L613.32,237l.23.16-227.66,0H361.52v-.29c0-66,0-128.65,0-185.2v-.27h.27l299,.27-299,.26.26-.26c0,56.55,0,119.19,0,185.2l-.29-.29h24.08l227.66,0h.17l.07.15,15.58,35.87h-.46c4.82-12.51,9.5-24.62,13.83-35.86l.06-.14h18.05l-.22.23C660.77,123,660.85,53.45,660.85,51.66Z" class="cls-7"/><path d="M660.7,69.73c0,.22-66.82.41-149.22.41S362.26,70,362.26,69.73s66.8-.41,149.22-.41S660.7,69.5,660.7,69.73Z" class="cls-7"/><path d="M377.7,61.55a2.45,2.45,0,1,1-2.45-2.45A2.45,2.45,0,0,1,377.7,61.55Z" class="cls-7"/><path d="M386.57,61.55a2.45,2.45,0,1,1-2.45-2.45A2.45,2.45,0,0,1,386.57,61.55Z" class="cls-7"/><path d="M395.44,61.55A2.45,2.45,0,1,1,393,59.1,2.45,2.45,0,0,1,395.44,61.55Z" class="cls-7"/><path d="M394.42,102.86l-7.1,2.74,7.1,2.74V110l-9-3.54v-1.72l9-3.54Z" class="cls-7"/><path d="M401.81,95.76h1.74L397,114.6h-1.74Z" class="cls-7"/><path d="M413.12,104.74v1.72l-9,3.54v-1.66l7.12-2.74-7.12-2.74V101.2Z" class="cls-7"/><path d="M415.38,111.34a1.34,1.34,0,0,1,1.36-1.36,1.32,1.32,0,0,1,1.33,1.36,1.34,1.34,0,0,1-1.33,1.38A1.36,1.36,0,0,1,415.38,111.34Z" class="cls-7"/><path d="M419.93,111.34a1.34,1.34,0,0,1,1.36-1.36,1.32,1.32,0,0,1,1.32,1.36,1.33,1.33,0,0,1-1.32,1.38A1.35,1.35,0,0,1,419.93,111.34Z" class="cls-7"/><path d="M424.47,111.34a1.34,1.34,0,0,1,1.36-1.36,1.32,1.32,0,0,1,1.32,1.36,1.33,1.33,0,0,1-1.32,1.38A1.35,1.35,0,0,1,424.47,111.34Z" class="cls-7"/><path d="M583.26,129.3c0,.23-44.21.41-98.72.41s-98.74-.18-98.74-.41,44.2-.41,98.74-.41S583.26,129.08,583.26,129.3Z" class="cls-6"/><path d="M615.51,129.89c0,.22-4.25.4-9.49.4s-9.48-.18-9.48-.4,4.24-.41,9.48-.41S615.51,129.66,615.51,129.89Z" class="cls-7"/><path d="M643.24,129.89c0,.22-4.64.4-10.36.4s-10.37-.18-10.37-.4,4.64-.41,10.37-.41S643.24,129.66,643.24,129.89Z" class="cls-7"/><path d="M511.54,145.94c0,.22-28.1.41-62.76.41s-62.75-.19-62.75-.41,28.09-.41,62.75-.41S511.54,145.71,511.54,145.94Z" class="cls-6"/><path d="M510.64,208c0,.23-28.1.41-62.75.41s-62.76-.18-62.76-.41,28.09-.41,62.76-.41S510.64,207.79,510.64,208Z" class="cls-6"/><path d="M557.13,145.94c0,.22-7.64.41-17.07.41s-17.08-.19-17.08-.41,7.65-.41,17.08-.41S557.13,145.71,557.13,145.94Z" class="cls-7"/><path d="M556.78,208c0,.23-7.65.41-17.08.41s-17.07-.18-17.07-.41,7.64-.41,17.07-.41S556.78,207.79,556.78,208Z" class="cls-7"/><path d="M394.26,154.4c0,.23-1.89.41-4.23.41s-4.23-.18-4.23-.41,1.89-.4,4.23-.4S394.26,154.18,394.26,154.4Z" class="cls-10"/><path d="M423.45,154.58c0,.22-4.12.41-9.19.41s-9.2-.19-9.2-.41,4.12-.41,9.2-.41S423.45,154.35,423.45,154.58Z" class="cls-7"/><path d="M442.13,154.58c0,.22-3.53.41-7.88.41s-7.88-.19-7.88-.41,3.53-.41,7.88-.41S442.13,154.35,442.13,154.58Z" class="cls-7"/><path d="M465.77,154.58c0,.22-3.59.41-8,.41s-8-.19-8-.41,3.59-.41,8-.41S465.77,154.35,465.77,154.58Z" class="cls-7"/><path d="M486.5,154.58c0,.22-3.27.41-7.3.41s-7.3-.19-7.3-.41,3.27-.41,7.3-.41S486.5,154.35,486.5,154.58Z" class="cls-7"/><path d="M555.09,154.58c0,.22-14.38.41-32.11.41s-32.1-.19-32.1-.41,14.37-.41,32.1-.41S555.09,154.35,555.09,154.58Z" class="cls-7"/><path d="M393.1,165.2c0,.23-1.64.41-3.65.41s-3.65-.18-3.65-.41,1.63-.4,3.65-.4S393.1,165,393.1,165.2Z" class="cls-10"/><path d="M393.39,176.3c0,.22-1.7.4-3.8.4s-3.79-.18-3.79-.4,1.7-.41,3.79-.41S393.39,176.07,393.39,176.3Z" class="cls-10"/><path d="M393.39,188.85c0,.22-1.7.4-3.8.4s-3.79-.18-3.79-.4,1.7-.41,3.79-.41S393.39,188.62,393.39,188.85Z" class="cls-10"/><path d="M462.56,188.26c0,.23-12.67.41-28.31.41s-28.31-.18-28.31-.41,12.67-.41,28.31-.41S462.56,188,462.56,188.26Z" class="cls-7"/><path d="M457.6,176.3c0,.22-12.09.4-27,.4s-27-.18-27-.4,12.09-.41,27-.41S457.6,176.07,457.6,176.3Z" class="cls-7"/><path d="M588.07,164.62c0,.23-41.16.41-91.94.41s-91.94-.18-91.94-.41,41.16-.41,91.94-.41S588.07,164.39,588.07,164.62Z" class="cls-7"/><polygon points="679.23 127.39 679.23 284.78 654.76 305.2 679.23 305.2 681.63 305.2 782.74 305.2 782.74 127.39 679.23 127.39" class="cls-9"/><path d="M679.23,127.39l1.81,0,5.35,0,20.61-.06,75.74-.12H783v.22c0,47.51,0,109.55.08,177.81v.29H764.79l-110,0H654l.57-.48,24.48-20.41-.09.2c.06-47,.1-86.43.13-114,0-13.77,0-24.61.07-32,0-3.69,0-6.52,0-8.44,0-.94,0-1.66,0-2.16s0-.72,0-.72,0,.26,0,.75,0,1.23,0,2.19c0,1.93,0,4.77,0,8.48,0,7.43,0,18.29.06,32.09,0,27.58.08,66.89.13,113.88v.12l-.09.08-24.46,20.43-.17-.48,110,0h18l-.29.29c0-68.26,0-130.3.07-177.81l.22.22-75.61-.11-20.66-.06-5.39,0Z" class="cls-7"/><path d="M688.63,135.22a2.1,2.1,0,1,1-2.1-2.09A2.1,2.1,0,0,1,688.63,135.22Z" class="cls-7"/><path d="M696.22,135.22a2.1,2.1,0,1,1-2.1-2.09A2.1,2.1,0,0,1,696.22,135.22Z" class="cls-7"/><path d="M703.81,135.22a2.1,2.1,0,1,1-2.1-2.09A2.1,2.1,0,0,1,703.81,135.22Z" class="cls-7"/><path d="M754.28,183.72c0,.18-13.12.33-29.3.33s-29.31-.15-29.31-.33,13.12-.34,29.31-.34S754.28,183.53,754.28,183.72Z" class="cls-10"/><path d="M766.51,198c0,.19-16,.34-35.67.34s-35.67-.15-35.67-.34,16-.33,35.67-.33S766.51,197.77,766.51,198Z" class="cls-10"/><path d="M769.41,251.08c0,.18-17,.33-38,.33s-38-.15-38-.33,17-.34,38-.34S769.41,250.89,769.41,251.08Z" class="cls-10"/><path d="M701.17,205.2c0,.18-1.62.33-3.62.33s-3.63-.15-3.63-.33,1.63-.34,3.63-.34S701.17,205,701.17,205.2Z" class="cls-10"/><path d="M726.14,205.35c0,.18-3.52.33-7.86.33s-7.87-.15-7.87-.33,3.52-.34,7.87-.34S726.14,205.16,726.14,205.35Z" class="cls-10"/><path d="M742.13,205.35c0,.18-3,.33-6.74.33s-6.75-.15-6.75-.33,3-.34,6.75-.34S742.13,205.16,742.13,205.35Z" class="cls-10"/><path d="M700.17,214.44c0,.18-1.4.33-3.12.33s-3.13-.15-3.13-.33,1.4-.34,3.13-.34S700.17,214.25,700.17,214.44Z" class="cls-10"/><path d="M700.42,223.93c0,.18-1.46.33-3.25.33s-3.25-.15-3.25-.33,1.46-.34,3.25-.34S700.42,223.74,700.42,223.93Z" class="cls-10"/><path d="M700.42,234.67c0,.18-1.46.33-3.25.33s-3.25-.15-3.25-.33,1.46-.34,3.25-.34S700.42,234.48,700.42,234.67Z" class="cls-10"/><path d="M759.61,234.17c0,.18-10.85.33-24.22.33s-24.23-.15-24.23-.33,10.84-.34,24.23-.34S759.61,234,759.61,234.17Z" class="cls-10"/><path d="M755.37,223.93c0,.18-10.35.33-23.11.33s-23.1-.15-23.1-.33,10.34-.34,23.1-.34S755.37,223.74,755.37,223.93Z" class="cls-10"/><path d="M705.15,265.26c0,.18-1.46.33-3.25.33s-3.25-.15-3.25-.33,1.46-.34,3.25-.34S705.15,265.07,705.15,265.26Z" class="cls-10"/><path d="M705.15,276c0,.18-1.46.33-3.25.33s-3.25-.15-3.25-.33,1.46-.34,3.25-.34S705.15,275.81,705.15,276Z" class="cls-10"/><path d="M764.34,275.5c0,.18-10.85.33-24.22.33s-24.23-.15-24.23-.33,10.84-.34,24.23-.34S764.34,275.31,764.34,275.5Z" class="cls-10"/><path d="M760.1,265.26c0,.18-10.35.33-23.11.33s-23.1-.15-23.1-.33,10.34-.34,23.1-.34S760.1,265.07,760.1,265.26Z" class="cls-10"/><path d="M772.55,213.94c0,.18-14.08.33-31.45.33s-31.44-.15-31.44-.33,14.08-.34,31.44-.34S772.55,213.75,772.55,213.94Z" class="cls-10"/><path d="M781.76,143.44c0,.19-22.73.34-50.76.34s-50.76-.15-50.76-.34,22.72-.33,50.76-.33S781.76,143.26,781.76,143.44Z" class="cls-7"/><path d="M717.08,175.13c0,.19-4.8.34-10.72.34s-10.72-.15-10.72-.34,4.8-.33,10.72-.33S717.08,175,717.08,175.13Z" class="cls-10"/><path d="M705,155.71c0,.19-2.27.34-5.06.34s-5.06-.15-5.06-.34,2.27-.33,5.06-.33S705,155.53,705,155.71Z" class="cls-10"/><path d="M615.36,384.9l22.48-22.22L597.76,294a38.85,38.85,0,0,0-15.39-10.7L568.26,278l-35.09-6.44-24.92,9.81A14.89,14.89,0,0,0,498.92,297l6.52,54.86,3.83,71.43,90.54-15.7-9.11-26.42L591,340Z" class="cls-8"/><path d="M591.53,379.39c.21,0,.27-14.28.12-31.87s-.43-31.87-.64-31.87-.27,14.27-.12,31.87S591.32,379.39,591.53,379.39Z" class="cls-8"/><path d="M588.21,389.86l-54.7-22a12.54,12.54,0,0,1-7.8-10.65l-4-52.45s.47-22.3-13.46-23.39l-7.92,3.12c-10.25,5.44-12.79,20.36-11.39,31.87,2,16.37,2.81,39.52,5,53.72,1.82,11.62,8.79,20.81,19.84,24.83l67.38,14.58Z" class="cls-8"/><path d="M522.5,312.74a9.37,9.37,0,0,1,.17,1.21c.08.85.2,2,.35,3.45.28,3.08.67,7.4,1.16,12.72s1,11.78,1.62,18.87c.15,1.78.3,3.6.46,5.46a41.32,41.32,0,0,0,.69,5.61,9.42,9.42,0,0,0,2.72,4.91,18.44,18.44,0,0,0,5.05,3.14c15.09,6.53,29,11.92,39.08,15.7l12,4.41,3.26,1.2a6.3,6.3,0,0,1,1.12.47,8.05,8.05,0,0,1-1.17-.33l-3.3-1.07c-2.87-.95-7-2.37-12.07-4.2-10.15-3.66-24.07-9-39.2-15.51a19.31,19.31,0,0,1-5.25-3.28,10,10,0,0,1-2.91-5.28,41.36,41.36,0,0,1-.7-5.71c-.15-1.86-.29-3.68-.43-5.46-.55-7.09-1-13.49-1.47-18.89s-.7-9.66-.92-12.74c-.09-1.45-.17-2.61-.22-3.46A6.66,6.66,0,0,1,522.5,312.74Z" class="cls-7"/><path d="M491.15,341.26a2.5,2.5,0,0,1,.11.7c.05.55.11,1.22.18,2,.17,1.87.39,4.39.65,7.45s.68,6.87,1.23,11a103.75,103.75,0,0,0,2.47,13.29,19.71,19.71,0,0,0,2.67,6.33,36.09,36.09,0,0,0,4.08,5,35,35,0,0,0,8.76,6.57,32.44,32.44,0,0,0,9.61,3.14,2.5,2.5,0,0,1-.72,0,17.63,17.63,0,0,1-2-.26,27.12,27.12,0,0,1-7.11-2.41,34.51,34.51,0,0,1-9-6.56,35.68,35.68,0,0,1-4.2-5.09,20.64,20.64,0,0,1-2.78-6.54,99.54,99.54,0,0,1-2.43-13.39c-.51-4.15-.84-7.9-1.07-11s-.36-5.7-.42-7.47c0-.81,0-1.48,0-2A2.57,2.57,0,0,1,491.15,341.26Z" class="cls-7"/><path d="M514.55,378a7.79,7.79,0,0,1,1-2.92,18.79,18.79,0,0,1,11.1-9.48,7.81,7.81,0,0,1,3-.52c0,.12-1.13.35-2.87,1A21.27,21.27,0,0,0,516,375.29C515.07,376.9,514.66,378,514.55,378Z" class="cls-7"/><g class="cls-3"><path d="M572.49,383.6c-5.85-3.3-11.57-5.84-17.69-8.62s-12.1-6.34-16.11-11.74c-7.54-10.18-6.68-24.86-14.41-34.9q.75,10.13,1.51,20.25c.46,6.19-.48,12.31,3.5,16.52,3.36,3.54,9.91,6.26,14.54,7.78,9.32,3.08,19.35,7.64,28.66,10.71"/></g><polygon points="591.02 319.51 595.75 348.7 591.27 340.43 591.02 319.51" class="cls-11"/><path d="M520.85,301.5a4.51,4.51,0,0,1-1.27.1l-3.45.09c-2.91.07-6.93.22-11.36.54s-8.44.74-11.33,1.09l-3.43.4a5.67,5.67,0,0,1-1.26.09,5.07,5.07,0,0,1,1.23-.31c.8-.17,2-.37,3.41-.59,2.88-.45,6.89-.94,11.33-1.26s8.49-.4,11.4-.37c1.46,0,2.65.05,3.46.1A5.44,5.44,0,0,1,520.85,301.5Z"/><path d="M522.4,329.44c0,.16-7.16.88-16,1.61s-16.05,1.2-16.06,1,7.15-.88,16-1.62S522.39,329.28,522.4,329.44Z"/><path d="M525,358.8a5.17,5.17,0,0,1-1.14.65c-.74.39-1.84.9-3.23,1.49a67.59,67.59,0,0,1-22.82,5.11c-1.51.06-2.72.07-3.56,0a5.87,5.87,0,0,1-1.3-.1,5.68,5.68,0,0,1,1.3-.12c.83,0,2-.11,3.53-.22a79.86,79.86,0,0,0,22.7-5.08c1.39-.54,2.52-1,3.29-1.31A6.28,6.28,0,0,1,525,358.8Z"/><path d="M544.49,373.86c.09.17-2.85,1.47-5.42,4.36s-3.61,5.91-3.78,5.84a5.27,5.27,0,0,1,.6-2,16,16,0,0,1,6.67-7.39A5.53,5.53,0,0,1,544.49,373.86Z"/><path d="M564.27,393.2a16.49,16.49,0,0,1,2.15-5.76c1.64-3,3.59-5,3.7-4.91s-1.59,2.24-3.19,5.19S564.44,393.25,564.27,393.2Z"/><path d="M533.09,285.08a54.3,54.3,0,0,1-7.73,1.69,53.17,53.17,0,0,1-7.84,1.12,55.94,55.94,0,0,1,7.74-1.69A53.32,53.32,0,0,1,533.09,285.08Z"/><path d="M585.46,287.46a198.92,198.92,0,0,1-21.38-2.54,198.92,198.92,0,0,1,21.38,2.54Z"/><path d="M589.93,311.82a3.22,3.22,0,0,1-.68,0l-2,0h-7.22c-6.1,0-14.51,0-23.81.28s-17.7.62-23.79.94l-7.2.38-2,.09a3.32,3.32,0,0,1-.69,0,2.86,2.86,0,0,1,.68-.11l2-.2c1.7-.15,4.16-.35,7.2-.56,6.08-.42,14.5-.87,23.8-1.11s17.73-.22,23.82-.11c3,.05,5.52.12,7.22.19l2,.09A2.79,2.79,0,0,1,589.93,311.82Z"/><path d="M590.58,342.66c0,.16-14.35,1.24-32.06,2.4s-32.08,2-32.09,1.82,14.34-1.23,32.06-2.4S590.56,342.5,590.58,342.66Z"/><path d="M589.05,369.83a5.82,5.82,0,0,1-1.21.52c-.79.3-1.94.7-3.37,1.16-2.87.94-6.87,2.12-11.34,3.19s-8.58,1.85-11.56,2.32c-1.49.23-2.7.4-3.54.49a5.3,5.3,0,0,1-1.3.09,5.3,5.3,0,0,1,1.27-.31l3.5-.68c3-.57,7-1.4,11.49-2.47s8.47-2.18,11.36-3l3.42-1A5.55,5.55,0,0,1,589.05,369.83Z"/><path d="M612,320.58a103.72,103.72,0,0,1-10.42,3c-5.79,1.5-10.52,2.59-10.56,2.43a103.72,103.72,0,0,1,10.42-3C607.23,321.51,612,320.42,612,320.58Z"/><path d="M601.06,299.73a39.72,39.72,0,0,1-9.34,1.68,38.4,38.4,0,0,1,9.34-1.68Z"/><path d="M522.66,306.2c-.11,0-.29-1.85-1.31-4.66a23.5,23.5,0,0,0-16.58-14.9c-2.9-.72-4.78-.69-4.77-.8a5.41,5.41,0,0,1,1.31,0,20.12,20.12,0,0,1,3.55.45,22.74,22.74,0,0,1,16.88,15.17,19.87,19.87,0,0,1,.83,3.48A5.38,5.38,0,0,1,522.66,306.2Z" class="cls-7"/><path d="M587.84,291.32a95,95,0,0,1,1.92,10.2,95.49,95.49,0,0,1,1.36,10.3,90.66,90.66,0,0,1-1.93-10.2A90.69,90.69,0,0,1,587.84,291.32Z" class="cls-7"/><path d="M648.81,455.79s42,11.64,43.73,12.23c2.53.89,2.11,10.17-1.84,10-1.86-.07-32.29,1.13-36.14.89s-15.44-4.81-15.44-4.81Z" class="cls-8"/><path d="M666.32,471.84c.21,0,.5-2.2,1.85-4.52s3.11-3.7,3-3.87-2.17,1-3.59,3.52S666.14,471.85,666.32,471.84Z" class="cls-7"/><path d="M661.94,469.85c.2,0,.63-2,1.75-4.15s2.44-3.73,2.29-3.88-1.76,1.24-2.92,3.56S661.76,469.84,661.94,469.85Z" class="cls-7"/><path d="M657.83,468.75c.21,0,0-2.12,1-4.45s2.44-3.77,2.29-3.93-2,1.14-3,3.68S657.65,468.81,657.83,468.75Z" class="cls-7"/><path d="M658.57,463.32a7.37,7.37,0,0,0,.45-3.13,14.53,14.53,0,0,0-.42-3.43,15.74,15.74,0,0,0-.63-1.95,2.34,2.34,0,0,0-.67-1,1.12,1.12,0,0,0-1.45.07,1.91,1.91,0,0,0-.56,1.19,8.32,8.32,0,0,0,0,1.11,9.15,9.15,0,0,0,.26,2.06,12.54,12.54,0,0,0,1.29,3.21,8.32,8.32,0,0,0,1.89,2.53c.1-.07-.61-1.05-1.45-2.76a14.05,14.05,0,0,1-1.1-3.13,9.12,9.12,0,0,1-.2-1.92c0-.64,0-1.45.39-1.76a.4.4,0,0,1,.55-.05,1.71,1.71,0,0,1,.46.74,16.28,16.28,0,0,1,.64,1.85,17.46,17.46,0,0,1,.56,3.28C658.65,462.11,658.46,463.3,658.57,463.32Z" class="cls-7"/><path d="M658.52,462.89a5.8,5.8,0,0,0-2.71-.44,12.23,12.23,0,0,0-3,.37,6.06,6.06,0,0,0-1.71.63,1.76,1.76,0,0,0-1,1.92,2.1,2.1,0,0,0,1.51,1.5,3.89,3.89,0,0,0,1.89,0,7.34,7.34,0,0,0,2.73-1.35,7.16,7.16,0,0,0,2-1.92,18.85,18.85,0,0,0-2.24,1.51,7.46,7.46,0,0,1-2.58,1.12,3.29,3.29,0,0,1-1.56,0,1.43,1.43,0,0,1-1-1,1.08,1.08,0,0,1,.63-1.17,6.51,6.51,0,0,1,1.52-.6,13.8,13.8,0,0,1,2.83-.49C657.47,462.83,658.5,463,658.52,462.89Z" class="cls-7"/><path d="M672.78,472.29c.21,0,0-1.83.83-3.8s2.19-3.13,2.06-3.29-1.83.83-2.71,3S672.61,472.36,672.78,472.29Z" class="cls-7"/><path d="M643.44,474.23a9.3,9.3,0,0,0,1.63.76,35.56,35.56,0,0,0,4.68,1.45,66.21,66.21,0,0,0,16,1.52c6.3-.07,12-.35,16.1-.52l4.87-.26a8,8,0,0,0,1.78-.19,9,9,0,0,0-1.79-.08l-4.88,0-16.08.32a75.44,75.44,0,0,1-15.94-1.3C645.84,475.13,643.49,474.1,643.44,474.23Z" class="cls-7"/><path d="M642.2,475.18a33.73,33.73,0,0,0,3.15-1.42,14.67,14.67,0,0,1,8-1.33c3.17.49,5.41,2.62,6.87,4.1a24.14,24.14,0,0,0,2.43,2.47,13.48,13.48,0,0,0-2.06-2.81,16.64,16.64,0,0,0-2.79-2.61,10.05,10.05,0,0,0-4.34-1.84,13.85,13.85,0,0,0-8.28,1.57A11.38,11.38,0,0,0,642.2,475.18Z" class="cls-7"/><path d="M599,446s-39.78,26.05-41.21,27.13c-2.14,1.62.31,9.33,4,8,1.76-.63,35.15-9.92,38.74-11.31s13.25-9.28,13.25-9.28Z" class="cls-8"/><path d="M587.23,466.64c.17,0-.54-2.34-2.67-4.26s-4.46-2.44-4.48-2.27,2,1,4,2.79S587,466.73,587.23,466.64Z" class="cls-7"/><path d="M590.8,463.41c.17-.06-.6-2.06-2.43-3.91s-3.79-2.68-3.86-2.51,1.64,1.23,3.36,3S590.61,463.51,590.8,463.41Z" class="cls-7"/><path d="M594.38,461.11c.18,0,0-2.27-1.74-4.37s-3.89-2.79-3.92-2.61,1.81,1.09,3.38,3.05S594.18,461.16,594.38,461.11Z" class="cls-7"/><path d="M592,456.17c.11-.06-.44-1.13-.9-3a18.16,18.16,0,0,1-.47-3.3,16.29,16.29,0,0,1,.05-2,1.79,1.79,0,0,1,.21-.84.42.42,0,0,1,.55-.13c.45.19.69,1,.9,1.57a8.59,8.59,0,0,1,.39,1.89,13.1,13.1,0,0,1-.1,3.31c-.28,1.89-.65,3-.54,3.07a8.32,8.32,0,0,0,1-3,12.69,12.69,0,0,0,.26-3.46,9.71,9.71,0,0,0-.38-2,7.81,7.81,0,0,0-.39-1,1.83,1.83,0,0,0-.89-1,1.13,1.13,0,0,0-1.4.37,2.36,2.36,0,0,0-.33,1.19,14,14,0,0,0,0,2.05,15.08,15.08,0,0,0,.63,3.39A7.76,7.76,0,0,0,592,456.17Z" class="cls-7"/><path d="M591.94,455.74c0,.1,1-.37,2.59-.76a14,14,0,0,1,2.85-.39,6.78,6.78,0,0,1,1.63.1c.52.13.93.45,1,.93a1.42,1.42,0,0,1-.67,1.27,3.33,3.33,0,0,1-1.48.49,7.46,7.46,0,0,1-2.79-.28,19.59,19.59,0,0,0-2.6-.77,7,7,0,0,0,2.45,1.24,7.18,7.18,0,0,0,3,.45,3.81,3.81,0,0,0,1.8-.56,2.09,2.09,0,0,0,1-1.89,1.78,1.78,0,0,0-1.48-1.55,6.79,6.79,0,0,0-1.83-.08,12.28,12.28,0,0,0-3,.56A5.84,5.84,0,0,0,591.94,455.74Z" class="cls-7"/><path d="M566.92,479.7c.05.06.67-.4,1-1.54a5.9,5.9,0,0,0-.75-4.32,15.28,15.28,0,0,0-1.33-2,7.62,7.62,0,0,0-1.35-1.45,2.4,2.4,0,0,0-1.27-.53c-.34,0-.5.07-.5.11a3.89,3.89,0,0,1,1.45.8,9.78,9.78,0,0,1,1.15,1.46c.4.59.85,1.23,1.24,1.94a6.18,6.18,0,0,1,.87,3.88A14.6,14.6,0,0,1,566.92,479.7Z" class="cls-7"/><path d="M581.21,469c.18,0,.13-2-1.4-3.81s-3.49-2.25-3.5-2.06,1.6.85,3,2.51S581,469.07,581.21,469Z" class="cls-7"/><path d="M609.75,462a14.06,14.06,0,0,0-1.75,1.2,49.76,49.76,0,0,1-4.9,3,65.08,65.08,0,0,1-7.8,3.47c-3,1.12-6.39,2.18-10,3.22-7.16,2.06-13.64,3.94-18.32,5.35l-5.52,1.7a12.41,12.41,0,0,0-2,.71,11.19,11.19,0,0,0,2.07-.45l5.59-1.48c4.71-1.28,11.21-3.09,18.38-5.15,3.58-1,7-2.13,10-3.29a58,58,0,0,0,7.81-3.64,40.28,40.28,0,0,0,4.82-3.22A10.93,10.93,0,0,0,609.75,462Z" class="cls-7"/><path d="M611.23,462.5a11.16,11.16,0,0,0-3.38-.89,13.85,13.85,0,0,0-8.36,1,10,10,0,0,0-3.58,3.07,16.83,16.83,0,0,0-1.86,3.33,13.27,13.27,0,0,0-1.11,3.31,25.17,25.17,0,0,0,1.56-3.1c.94-1.85,2.44-4.56,5.31-6a14.6,14.6,0,0,1,8-1.16C609.9,462.32,611.2,462.61,611.23,462.5Z" class="cls-7"/><path d="M681.75,380.88s11.94,4.26,12,17.65c.09,25.64-51.8,53.89-51.8,53.89l-69.06-45.75-4.33-1.76S661.78,369.9,681.75,380.88Z" class="cls-7"/><path d="M607.86,429.78a12.82,12.82,0,0,0,1.8-1.22c1.13-.82,2.75-2,4.72-3.57,4-3.06,9.34-7.39,15.13-12.35S640.39,403,644,399.56c1.81-1.73,3.26-3.14,4.24-4.13a13.66,13.66,0,0,0,1.48-1.6,13.16,13.16,0,0,0-1.67,1.4l-4.39,4c-3.7,3.35-8.84,7.95-14.62,12.91s-11.1,9.35-15,12.5l-4.59,3.74A13.35,13.35,0,0,0,607.86,429.78Z" class="cls-6"/><path d="M662.26,390.47c0-.18-3.06-.48-6.66.6s-6,3-5.91,3.11,2.63-1.43,6.11-2.44S662.26,390.68,662.26,390.47Z" class="cls-6"/><path d="M656.31,386.42c-.06-.16-2.28.81-4.1,3.08s-2.32,4.63-2.14,4.66.95-2.09,2.69-4.21S656.42,386.61,656.31,386.42Z" class="cls-6"/><path d="M685.55,467.6c0-.08-.82-.25-1.78.54a6.46,6.46,0,0,0-2,4,7.94,7.94,0,0,0,.63,4.42c.49,1.05,1,1.54,1.09,1.49s-.28-.65-.62-1.68a8.79,8.79,0,0,1-.4-4.13,7,7,0,0,1,1.63-3.74C684.84,467.74,685.57,467.71,685.55,467.6Z" class="cls-7"/><path d="M676.82,344.47l-19.65,52.92a7.63,7.63,0,0,1-7.25,5l-108.15-1.43v-8.22l40.13,1.47,17-52.83a4.33,4.33,0,0,1,4.12-3l69.76.21A4.31,4.31,0,0,1,676.82,344.47Z" class="cls-2"/><path d="M676.82,344.47s0-.06,0-.17a4.1,4.1,0,0,0,.14-.49,4.3,4.3,0,0,0-3.91-5.17c-.75,0-1.55,0-2.4,0l-29.11,0-20.39,0-11.45,0h-6a4.77,4.77,0,0,0-2.88.63,4.19,4.19,0,0,0-1.79,2.35l-17,52.74,0,.12h-.12l-40.13-1.46.18-.18v8.22l-.18-.17,68,.91,29.56.4,6.82.1,3.31.05a8.15,8.15,0,0,0,3.15-.46,7.49,7.49,0,0,0,4.33-4.18l2.11-5.64,13-34.78,3.53-9.43c.81-2.15,1.26-3.27,1.26-3.27s-.4,1.14-1.19,3.3l-3.48,9.45c-3,8.22-7.43,20.1-12.86,34.82l-2.11,5.65a7.71,7.71,0,0,1-4.47,4.32,8.3,8.3,0,0,1-3.24.49l-3.32-.05-6.81-.08L609.78,402l-68-.88h-.17v-8.57h.18L581.91,394l-.17.12,17-52.73a4.53,4.53,0,0,1,1.91-2.51,5.12,5.12,0,0,1,3-.67l6,0,11.45.05,20.39.08,29.11.13c.85,0,1.65,0,2.41,0a4.27,4.27,0,0,1,2,.65,4.37,4.37,0,0,1,1.91,2.62,4.22,4.22,0,0,1,0,2A5.54,5.54,0,0,1,676.82,344.47Z" class="cls-7"/><path d="M628.86,364.48a4.87,4.87,0,0,1,5.26.56,4.26,4.26,0,0,1,1,4.66,4.61,4.61,0,0,1-3.95,2.76A4.16,4.16,0,0,1,627,369.7c-.5-1.73.06-4.31,1.84-5.22" class="cls-1"/><path d="M653.58,455.31s-97.46-62.43-101.76-64.88c-3.66-2.09-13.45-8.11-23.11-5.45s-18.31,11.32-22.64,24c-2.47,7.23-3.64,19.56-4.19,28.81a42.76,42.76,0,0,0,10,30.47c3.29,3.82,7.35,7.14,12.17,8.64,1,.32,2.07.59,3.15.83,18.45,4,37.41-4.29,47.77-20.06l2.28-3.47s63.83,23.45,64.83,23.12Z" class="cls-7"/><path d="M556.85,393.89l-.24-.15-.69-.46c-.59-.42-1.47-1-2.63-1.77a51.72,51.72,0,0,0-10.35-5.26,27.92,27.92,0,0,0-7.8-1.64,22.38,22.38,0,0,0-9,1.46,28.88,28.88,0,0,0-8.62,5.23,39.87,39.87,0,0,0-3.83,3.76,28.53,28.53,0,0,0-3.16,4.5,46,46,0,0,0-4.2,10c-.92,3.4-1.66,6.76-2.36,9.93a90.56,90.56,0,0,0-2.24,17.1,61.83,61.83,0,0,0,.88,11.59c.22,1.36.46,2.4.61,3.11l.16.81a1,1,0,0,1,0,.28s0-.08-.09-.26l-.22-.8c-.18-.7-.46-1.74-.71-3.1a57.87,57.87,0,0,1-1.07-11.64,88.17,88.17,0,0,1,2.13-17.2c.69-3.2,1.4-6.53,2.33-10a45.48,45.48,0,0,1,4.25-10.17,28.32,28.32,0,0,1,3.23-4.6,41.05,41.05,0,0,1,3.89-3.81,29.33,29.33,0,0,1,8.8-5.29,22.69,22.69,0,0,1,9.18-1.44,27.6,27.6,0,0,1,7.91,1.74,48.61,48.61,0,0,1,10.33,5.45c1.15.78,2,1.42,2.58,1.86l.65.51C556.78,393.81,556.86,393.88,556.85,393.89Z" class="cls-6"/><path d="M532.87,437.69l.54.24,1.59.63,6.19,2.38,23,8.66c9.76,3.65,21.46,8,34.58,12.75s27.67,10,43.21,15.27l.28.1.14-.27L650,462.89l3.89-7.42.15-.29-.27-.17-74.43-47.25L557,393.66l-6.07-3.79-1.59-1-.55-.31s.17.14.52.37l1.55,1,6,3.9,22.24,14.28,74.3,47.43-.12-.46-3.88,7.43-7.62,14.56.42-.17c-15.53-5.25-30.08-10.46-43.21-15.19l-34.64-12.61-23.06-8.46-6.23-2.26-1.62-.58Z" class="cls-6"/><path d="M537.92,230.58a49.92,49.92,0,0,1-4.33-10.36,16.87,16.87,0,0,1,.57-11c.91-2,2.34-3.74,3.05-5.82,1-2.86.58-6.22,2.35-8.67,2.76-3.83,8.67-2.93,12.94-4.94,3.33-1.56,5.66-4.92,9.15-6,3.06-1,6.39,0,9.35,1.22s5.82,2.87,9,3.29a62.78,62.78,0,0,0,6.86,0c2.28.05,4.72.55,6.33,2.18s1.94,4.63.2,6.11c4-.68,7.77,3.32,7.72,7.38s-3.11,7.63-6.8,9.32-7.91,1.8-12,1.48c-11.46-.89-23-5.25-30.77-13.69" class="cls-10"/><path d="M540.39,216.24,532.58,273A17,17,0,0,0,548,292.28h0a17,17,0,0,0,18.37-14.68c.58-4.27,1.08-7.83,1.17-8.27,0,0,14.63.63,17.64-13.52,1.46-6.84,3.3-21.17,4.83-34.16a27,27,0,0,0-21.5-29.55l-1.37-.27C552.18,189.74,542.06,201.26,540.39,216.24Z" class="cls-12"/><path d="M567.57,269.13a33.61,33.61,0,0,1-17.44-8.95s2.33,11.09,16.74,12.64Z" class="cls-13"/><path d="M583.61,233.72a2.07,2.07,0,0,1-2.36,1.65,2,2,0,0,1-1.72-2.24,2.06,2.06,0,0,1,2.36-1.66A2,2,0,0,1,583.61,233.72Z" class="cls-7"/><path d="M585.54,228c-.31.21-1.61-1.23-3.8-1.66s-4,.34-4.18,0c-.09-.14.26-.57,1.06-.94a5.71,5.71,0,0,1,3.41-.35,5.5,5.5,0,0,1,3,1.65C585.55,227.39,585.69,227.92,585.54,228Z" class="cls-7"/><path d="M563.28,230.21a2.07,2.07,0,0,1-2.36,1.65,2,2,0,0,1-1.73-2.24,2.08,2.08,0,0,1,2.36-1.66A2,2,0,0,1,563.28,230.21Z" class="cls-7"/><path d="M564,224.13c-.3.22-1.61-1.23-3.79-1.66s-4,.35-4.18,0c-.09-.14.26-.57,1.06-.93a5.62,5.62,0,0,1,3.41-.35,5.4,5.4,0,0,1,3,1.65C564,223.52,564.17,224,564,224.13Z" class="cls-7"/><path d="M568.71,241.88a15,15,0,0,1,3.67.07c.56.06,1.11.05,1.28-.31a2.89,2.89,0,0,0,0-1.72c-.25-1.46-.52-3-.8-4.57-1.08-6.5-1.74-11.79-1.48-11.83s1.35,5.19,2.43,11.68c.25,1.6.5,3.12.72,4.58a3.25,3.25,0,0,1-.14,2.24,1.42,1.42,0,0,1-1.08.63,4.18,4.18,0,0,1-1-.05A14.23,14.23,0,0,1,568.71,241.88Z" class="cls-7"/><path d="M562,242.11c.36,0-.11,2.42,1.58,4.5s4.26,2.33,4.21,2.66c0,.16-.65.35-1.72.17a6,6,0,0,1-3.55-2.09,5.25,5.25,0,0,1-1.17-3.74C561.45,242.6,561.83,242.06,562,242.11Z" class="cls-7"/><path d="M566.29,215.7c-.33.55-2.45-.17-5.07-.37s-4.83.08-5.06-.52c-.1-.28.37-.77,1.32-1.17a8.8,8.8,0,0,1,7.72.67C566.06,214.88,566.44,215.44,566.29,215.7Z" class="cls-10"/><path d="M586,221.54c-.49.42-1.88-.4-3.69-.78s-3.4-.34-3.65-.92c-.1-.29.24-.73,1-1.07a5.13,5.13,0,0,1,3.16-.21,5.24,5.24,0,0,1,2.75,1.58C586.11,220.78,586.21,221.33,586,221.54Z" class="cls-10"/><path d="M539.45,227c-.22-.15-9.18-4.83-10.8,4.93s8.5,9.38,8.57,9.11S539.45,227,539.45,227Z" class="cls-12"/><path d="M534.85,236.82s-.19.09-.5.17a1.69,1.69,0,0,1-1.27-.18c-1-.55-1.57-2.33-1.32-4.1a5.71,5.71,0,0,1,.88-2.36,2,2,0,0,1,1.5-1.09.87.87,0,0,1,.92.64c.09.29,0,.47,0,.5s.24-.13.23-.55a1.07,1.07,0,0,0-.28-.67,1.29,1.29,0,0,0-.9-.41,2.43,2.43,0,0,0-2,1.22,5.84,5.84,0,0,0-1,2.62c-.27,2,.43,4,1.77,4.63a1.8,1.8,0,0,0,1.6,0C534.8,237.05,534.88,236.84,534.85,236.82Z" class="cls-13"/><path d="M592.79,208.48c-1.68,3.6-10.29,5-16.61,3.09-5.82-1.76-7.93-5.45-11.63-8.67-2.34-2-2.34-2-6.17-2.44-3.09-.31-5.57,2.76-7.91,4.81,1.31,7.76-2.14,15.44-5.51,22.55a3.87,3.87,0,0,1-1.57,2c-1.33.66-2.91-.38-3.7-1.62-1.26-2-1.41-4.49-1.37-6.85a40.86,40.86,0,0,1,3.24-15.72,27.74,27.74,0,0,1,10.21-12.22,26.26,26.26,0,0,1,19.41-3.21,32.19,32.19,0,0,1,17,10.21,18.89,18.89,0,0,1,4.59,8.06" class="cls-10"/><path d="M572.93,232.07c.08,0,.05-.84.44-2.27a9.45,9.45,0,0,1,3.46-5,9.17,9.17,0,0,1,8.64-1.25,9.09,9.09,0,0,1,0,17.06,9.2,9.2,0,0,1-8.64-1.24,9.47,9.47,0,0,1-3.46-5c-.39-1.42-.36-2.27-.44-2.27s0,.21,0,.61a7.63,7.63,0,0,0,.19,1.74,9.45,9.45,0,0,0,3.42,5.38,9.77,9.77,0,1,0,0-15.46,9.47,9.47,0,0,0-3.42,5.39,7.58,7.58,0,0,0-.19,1.74C572.88,231.87,572.9,232.07,572.93,232.07Z" class="cls-7"/><path d="M549.77,228c.09,0,.06-.84.45-2.27a9.38,9.38,0,0,1,3.45-5,9.2,9.2,0,0,1,8.64-1.24,9,9,0,0,1,4.2,3.18,9,9,0,0,1,0,10.7,9,9,0,0,1-4.2,3.18,9.2,9.2,0,0,1-8.64-1.24,9.38,9.38,0,0,1-3.45-5c-.39-1.43-.36-2.27-.45-2.27a2.25,2.25,0,0,0,0,.61,7.63,7.63,0,0,0,.2,1.73,9.44,9.44,0,0,0,3.41,5.39,9.74,9.74,0,0,0,13.81-1.92,9.75,9.75,0,0,0,0-11.62,9.74,9.74,0,0,0-13.81-1.92,9.44,9.44,0,0,0-3.41,5.39,7.63,7.63,0,0,0-.2,1.73A2.25,2.25,0,0,0,549.77,228Z" class="cls-7"/><path d="M568.85,228.36c.1.2,1.34-.38,2.78.06S573.8,230,574,229.9s0-.41-.28-.9a3.47,3.47,0,0,0-4.13-1.24C569,228,568.8,228.27,568.85,228.36Z" class="cls-7"/><path d="M536.65,225.53c0,.22,3.12.35,7,.3s6.94-.28,6.94-.5-3.12-.35-6.95-.29S536.65,225.31,536.65,225.53Z" class="cls-7"/><path d="M597.35,199.16a3,3,0,0,1-.16.93,4.58,4.58,0,0,1-1.46,2.1,6.48,6.48,0,0,1-3.51,1.44,17.8,17.8,0,0,1-4.66-.25,78.55,78.55,0,0,1-8.28-1.67c-1-.27-1.89-.51-2.47-.69l-.66-.21-.23-.09a1,1,0,0,1,.24,0l.68.17,2.48.62c2.1.51,5,1.12,8.28,1.6a17.42,17.42,0,0,0,4.6.26,6.36,6.36,0,0,0,3.43-1.35,4.59,4.59,0,0,0,1.48-2C597.31,199.5,597.32,199.15,597.35,199.16Z" class="cls-1"/><path d="M599.51,201.37a8.92,8.92,0,0,1-.84,2.67,11.6,11.6,0,0,1-4.49,5,11.75,11.75,0,0,1-6.51,1.6,8.86,8.86,0,0,1-2.75-.53,4.79,4.79,0,0,1,.73.14,13.42,13.42,0,0,0,2,.22A11.59,11.59,0,0,0,598.53,204a11.43,11.43,0,0,0,.75-1.88A5.78,5.78,0,0,1,599.51,201.37Z" class="cls-1"/></g></g></svg>