<svg xmlns="http://www.w3.org/2000/svg" width="40" height="40" viewBox="0 0 40 40"><g id="Info-circle" transform="translate(-3.25 -3.25)"><path id="Path_8047" fill="#e23e25" d="M12.964,10.75a1.714,1.714,0,0,1,1.714,1.714V23.893a1.714,1.714,0,1,1-3.429,0V12.464A1.714,1.714,0,0,1,12.964,10.75Z" data-name="Path 8047" transform="translate(10.286 9.643)"/><path id="Path_8048" fill="#e23e25" d="M13.286,11.571A2.286,2.286,0,1,0,11,9.286,2.286,2.286,0,0,0,13.286,11.571Z" data-name="Path 8048" transform="translate(9.964 4.821)"/><path id="Path_8049" fill="#e23e25" fill-rule="evenodd" d="M3.25,23.25a20,20,0,1,1,20,20A20,20,0,0,1,3.25,23.25Zm20-16.571A16.571,16.571,0,1,0,39.821,23.25,16.571,16.571,0,0,0,23.25,6.679Z" data-name="Path 8049" transform="translate(0 0)"/></g></svg>