<svg id="Layer_2" data-name="Layer 2" xmlns="http://www.w3.org/2000/svg" width="846.265" height="541.901" viewBox="0 0 846.265 541.901">
  <g id="Layer_1" data-name="Layer 1">
    <rect id="Rectangle_86" data-name="Rectangle 86" width="54.752" height="60.728" transform="translate(236.098 448.396)" fill="#ffcc38"/>
    <rect id="Rectangle_87" data-name="Rectangle 87" width="43.243" height="60.728" transform="translate(269.459 448.396)" fill="#ffb700"/>
    <rect id="Rectangle_88" data-name="Rectangle 88" width="6.663" height="21.824" transform="translate(241.264 459.98)" fill="#fff"/>
    <path id="Path_8412" data-name="Path 8412" d="M839.809,555.62H6.456C2.889,555.62,0,552.374,0,548.355H0c0-4.009,2.889-7.265,6.456-7.265H839.809c3.567,0,6.456,3.256,6.456,7.265h0C846.265,552.374,843.376,555.62,839.809,555.62Z" transform="translate(0 -31.882)" fill="#666"/>
    <path id="Path_8413" data-name="Path 8413" d="M547.526,446.487c-3.313-10.822-8.093-15.415-16.939-16-3.924-.245-36.834-.245-40.768,0-8.874.555-12.987,6.117-16.328,17.118l-7.529,30.322a11.622,11.622,0,0,0,2.823,9.411l10.135,11.293,4.705-39.93,8.714,47.656h39.017l6.465-47.609,6.39,39.638,9.872-11.189a11.575,11.575,0,0,0,2.767-9.411Z" transform="translate(-27.448 -25.354)" fill="#ed7d2b"/>
    <path id="Path_8414" data-name="Path 8414" d="M485.235,392.993c-.122-6.945,6.042-15.057,14.963-17.466a20.2,20.2,0,0,1,22.388,8.874l.772,1.252a20.169,20.169,0,0,1,2.164,16.488l-5.882,14.577-.056,10.352-8.234,6.268-8.47-6.286-.188-11.171h-7.811a10.013,10.013,0,0,1-9.881-10v-4.649Z" transform="translate(-28.577 -22.086)" fill="#ffbf9d"/>
    <path id="Path_8415" data-name="Path 8415" d="M494,407.09a4.414,4.414,0,0,0,8.818,0" transform="translate(-29.107 -23.986)" fill="#fff"/>
    <path id="Path_8416" data-name="Path 8416" d="M524.234,442.5h0a5.778,5.778,0,0,0,5.788-5.788c0-12.959-.141-43.29-.16-45.35-.075-9.411-5.788-18.351-15.142-21.447q-.866-.282-1.75-.508c-11.557-2.889-23.527,2.635-27.574,14.3a15.794,15.794,0,0,0-1.026,4.517l28.119,5.769,5.91,8.159.056,34.575a5.769,5.769,0,0,0,5.778,5.769Z" transform="translate(-28.54 -21.721)" fill="#666"/>
    <path id="Path_8417" data-name="Path 8417" d="M512.05,399.584a5.044,5.044,0,1,0,1.481-3.57A5.054,5.054,0,0,0,512.05,399.584Z" transform="translate(-30.171 -23.247)" fill="#ffbf9d"/>
    <path id="Path_8418" data-name="Path 8418" d="M570.309,510.644a11.857,11.857,0,0,0-12.742-5.373l-22.021,5.167H484.972L462.95,505.27a11.782,11.782,0,0,0-12.742,5.3,12.046,12.046,0,0,0,5.345,17.306l39.3,12.366h41.633l28.421-12.328a12.008,12.008,0,0,0,5.4-17.269Z" transform="translate(-26.422 -29.753)" fill="#fab943"/>
    <path id="Path_8419" data-name="Path 8419" d="M527.84,538.369l2.936,3.265,28.176.376h0a6.954,6.954,0,0,0-7.632-5.411l-3.444.414c-6.277,0-10.418-5.044-10.418-5.044Z" transform="translate(-31.101 -31.345)"/>
    <path id="Path_8420" data-name="Path 8420" d="M480.968,536.989a12.115,12.115,0,0,1-2.531.292l-3.444-.414a6.954,6.954,0,0,0-7.632,5.411l28.646-.329Z" transform="translate(-27.538 -31.63)"/>
    <path id="Path_8421" data-name="Path 8421" d="M538.6,523.26H485.149a5.185,5.185,0,0,1-5.157-4.705l-3.463-33.333a5.185,5.185,0,0,1,5.157-5.722H542.14a5.185,5.185,0,0,1,5.157,5.731l-3.51,33.38a5.186,5.186,0,0,1-5.185,4.649Z" transform="translate(-28.076 -28.253)" fill="#343334"/>
    <path id="Path_8422" data-name="Path 8422" d="M518.431,502.475a4.545,4.545,0,1,1-4.546-4.545A4.545,4.545,0,0,1,518.431,502.475Z" transform="translate(-30.011 -29.339)" fill="#eb6209"/>
    <path id="Path_8423" data-name="Path 8423" d="M482.482,389.452c.1-1.242.292-4.837.377-6.813.875-10.512,12.234-18.963,24.063-18.709A24.468,24.468,0,0,1,529.141,380.3a22.344,22.344,0,0,1,1.289,6.418l-.1,2.485-60.765,3.463-.141-2.475Z" transform="translate(-27.659 -21.443)" fill="#343334"/>
    <rect id="Rectangle_89" data-name="Rectangle 89" width="26.303" height="31.846" transform="translate(486.302 301.352)" fill="#ff735d"/>
    <rect id="Rectangle_90" data-name="Rectangle 90" width="26.303" height="52.531" transform="translate(512.154 280.677)" fill="#fab943"/>
    <rect id="Rectangle_91" data-name="Rectangle 91" width="26.303" height="90.174" transform="translate(538.015 243.034)" fill="#eb6209"/>
    <path id="Path_8424" data-name="Path 8424" d="M150.435,567l-4.075,8.31h25.616a6.221,6.221,0,0,0-6.964-4.621l-3.068.471A3.011,3.011,0,0,1,159.2,567h-8.733Z" transform="translate(-8.624 -33.408)"/>
    <path id="Path_8425" data-name="Path 8425" d="M211.24,550.61l2.353,8.95,19.367-16.77h0a6.211,6.211,0,0,0-8.291,1.064l-2.014,2.371a3,3,0,0,1-4.809-1.327h0Z" transform="translate(-12.447 -31.916)"/>
    <path id="Path_8426" data-name="Path 8426" d="M202.612,549.793l-38.895-39.732L91,492.7l27.442-4.828s45.887.593,47.572.819a10.766,10.766,0,0,1,5.439,2.372l42.631,48.795Z" transform="translate(-5.362 -28.746)" fill="#1a2e35"/>
    <path id="Path_8427" data-name="Path 8427" d="M150.177,490.548a9.411,9.411,0,0,1,10.06,8.15v.1l-1.214,64.464H144.87l-4.8-54.978s-26.35,6.456-44.494,6.456c-7.933,0-16.676-7.472-16.676-16.685v-2.974Z" transform="translate(-4.649 -28.902)" fill="#375a64"/>
    <path id="Path_8428" data-name="Path 8428" d="M117.438,425.11H90.495A19.508,19.508,0,0,0,73.556,435L53.529,465.115a8.658,8.658,0,0,0,3.633,12.676l27.894,12.657,5.336-12.234-18.407-8.037a3.105,3.105,0,0,1-1.242-4.705l6.588-8.818v38.123l47.355-10.625L121.5,446.171l19.349,18a8.846,8.846,0,0,0,14.173-2.127l9.5-32.307-9.5-3.7-6.522,22.275-17.2-17.429A19.509,19.509,0,0,0,117.438,425.11Z" transform="translate(-3.069 -25.048)" fill="#e58048"/>
    <path id="Path_8429" data-name="Path 8429" d="M125.74,388.963c.1-6.333-5.515-13.749-13.646-15.932a18.426,18.426,0,0,0-20.421,8.084l-.706,1.139A18.417,18.417,0,0,0,89,397.311l5.364,15.857.376,9.411,9.223,3.284,6.249-3.284-.348-10.126h7.115a9.119,9.119,0,0,0,9-9.129v-6.8Z" transform="translate(-5.197 -21.943)" fill="#ffbf9d"/>
    <path id="Path_8430" data-name="Path 8430" d="M119.636,404.48a4.028,4.028,0,0,1-8.046,0" transform="translate(-6.575 -23.833)" fill="#fff"/>
    <path id="Path_8431" data-name="Path 8431" d="M103.3,499.842h0a1.939,1.939,0,0,1-2.437,1.242l-8.074-2.607L91,493l11.067,4.395a1.929,1.929,0,0,1,1.233,2.447Z" transform="translate(-5.362 -29.048)" fill="#ffbf9d"/>
    <path id="Path_8432" data-name="Path 8432" d="M106.244,496.414h0a1.929,1.929,0,0,1-2.419,1.252L91.3,493.77l1.186-3.68,12.5,3.905A1.929,1.929,0,0,1,106.244,496.414Z" transform="translate(-5.38 -28.877)" fill="#ffbf9d"/>
    <path id="Path_8433" data-name="Path 8433" d="M105.773,492.069h0a1.939,1.939,0,0,1-2.437,1.242L92.56,489.839l1.2-3.689,10.766,3.482a1.929,1.929,0,0,1,1.252,2.437Z" transform="translate(-5.454 -28.645)" fill="#ffbf9d"/>
    <path id="Path_8434" data-name="Path 8434" d="M101.934,486.5h0a1.939,1.939,0,0,1-2.437,1.252L93.85,485.87l1.186-3.68,5.646,1.826a1.939,1.939,0,0,1,1.252,2.484Z" transform="translate(-5.53 -28.411)" fill="#ffbf9d"/>
    <path id="Path_8435" data-name="Path 8435" d="M96.709,482.926l-3.642-1.176-3.642.386L86,491.82l.094.2a11.632,11.632,0,0,0,7.237,6.089l-.056.282Z" transform="translate(-5.067 -28.385)" fill="#ffbf9d"/>
    <path id="Path_8436" data-name="Path 8436" d="M174.691,418.334A6.523,6.523,0,0,0,172.752,415l1.769-8.178a1.939,1.939,0,0,0-3.764-.819l-1.581,7.293H169l-1.581-7.275a1.939,1.939,0,0,0-2.306-1.487h0a1.939,1.939,0,0,0-1.477,2.306l1.553,7.124a6.527,6.527,0,0,0-3.614,5.242,16.336,16.336,0,0,0,.329,5.816L170,427.942l3.529-4.122h0A6.531,6.531,0,0,0,174.691,418.334Z" transform="translate(-9.513 -23.833)" fill="#ffbf9d"/>
    <path id="Path_8437" data-name="Path 8437" d="M98.372,420.758l-.066-27.583h0a25.757,25.757,0,0,0,21.09-4.47L125.654,384a14.437,14.437,0,0,0-.941-4.169c-3.764-10.775-14.775-15.867-25.409-13.175a21.937,21.937,0,0,0-16.7,20.7v33.408a7.9,7.9,0,0,0,7.905,7.914h0a7.905,7.905,0,0,0,7.867-7.924Z" transform="translate(-4.867 -21.562)"/>
    <path id="Path_8438" data-name="Path 8438" d="M100.116,395.632a3.689,3.689,0,1,1-5.223,0A3.689,3.689,0,0,1,100.116,395.632Z" transform="translate(-5.528 -23.248)" fill="#ffbf9d"/>
    <path id="Path_8439" data-name="Path 8439" d="M708.948,467.829a6.523,6.523,0,0,1,1.656-3.482l-2.418-8.009a1.939,1.939,0,0,1,3.708-1.12l2.155,7.143h.179l1-7.378a1.939,1.939,0,0,1,2.193-1.685h0a1.929,1.929,0,0,1,1.666,2.174l-.941,7.228c2.117.856,3.341,2.334,4.028,4.931a16.38,16.38,0,0,1,.132,5.825l-7.839,3.557-3.84-3.821h0A6.588,6.588,0,0,1,708.948,467.829Z" transform="translate(-41.724 -26.708)" fill="#ffbf9d"/>
    <path id="Path_8440" data-name="Path 8440" d="M621.346,547.792l-8.4,6.409L607.22,525.46h0a7.105,7.105,0,0,1,6.738,6.785l.16,3.548a3.435,3.435,0,0,0,5.279,2.183h0Z" transform="translate(-35.778 -30.961)"/>
    <path id="Path_8441" data-name="Path 8441" d="M829.216,562.427,815.58,555.2l-1.6,3.011,13.636,7.237a1.713,1.713,0,0,0,1.6-3.021Z" transform="translate(-47.961 -32.713)" fill="#ffbf9d"/>
    <path id="Path_8442" data-name="Path 8442" d="M815.638,549.59l1.882,1.572a29.559,29.559,0,0,0,19.7,2.823l.5-.1A2.739,2.739,0,0,1,841,556.5h0a2.729,2.729,0,0,1-1.779,2.644h0a29.522,29.522,0,0,1-21.184-.188L814,557.881Z" transform="translate(-47.962 -32.383)" fill="#ffbf9d"/>
    <path id="Path_8443" data-name="Path 8443" d="M616.4,558.239l-8.31,6.588L601.91,536.19h0a7.124,7.124,0,0,1,6.851,6.672l.216,3.548a3.444,3.444,0,0,0,5.317,2.1h0Z" transform="translate(-35.466 -31.593)" fill="#404040"/>
    <path id="Path_8444" data-name="Path 8444" d="M680.708,525.107l-60.878,12.1v14.643l65.226-9.336s42.433,8.385,61.885,8.385c8.564.019,17.975-8.046,17.975-17.918v-3.2l-75.71-5.119A35.883,35.883,0,0,0,680.708,525.107Z" transform="translate(-36.521 -30.909)" fill="#1a2e35"/>
    <path id="Path_8445" data-name="Path 8445" d="M691.038,535.026,613.22,548.145l1.722,13.646,80.443-9.335s42.433,8.394,61.885,8.394c8.545,0,17.937-8.037,17.937-17.937v-3.237l-75.71-5.119a35.392,35.392,0,0,0-8.46.471Z" transform="translate(-36.132 -31.493)" fill="#375a64"/>
    <path id="Path_8446" data-name="Path 8446" d="M754.526,495,741.351,523.86l4.131,3.473a37.5,37.5,0,0,0,15.951,7.877l19.1,4.254,27.621-52.324c5.289-9.411,2.55-18.031-4.451-21.438l-.2-.094-14.8-6.465a20.61,20.61,0,0,0-23.753,5.308L741.765,490.9l-18.078-18.342-9.957,5.2,19.763,23.442a10.352,10.352,0,0,0,15.161.075Z" transform="translate(-42.054 -26.952)" fill="#f9ddbf"/>
    <path id="Path_8447" data-name="Path 8447" d="M788.516,419.4c2.823-6.211,11.651-10.869,20.563-9.279a19.81,19.81,0,0,1,16.14,17.175l.169,1.44a19.81,19.81,0,0,1-4.95,15.537l-12.469,12.987-2.259,4.705-9.411.075-5.534-7.068,2.456-5.458-6.926-3.275a9.834,9.834,0,0,1-4.583-13.006v-.075l3.068-6.588Z" transform="translate(-46.005 -24.146)" fill="#ffbf9d"/>
    <path id="Path_8448" data-name="Path 8448" d="M790.034,437.76a4.324,4.324,0,0,0,7.83,3.67" transform="translate(-46.526 -25.793)" fill="#fff"/>
    <path id="Path_8449" data-name="Path 8449" d="M822.99,409.121h0c-8.827-7.19-21.334-7.18-29.672,1.186-3.482,13.006,20.224,12.742,20.986,26.416l-.762,15.151s7.67-6.127,10.888-9.223a22.426,22.426,0,0,0-1.44-33.531Z" transform="translate(-46.723 -23.797)" fill="#ff735d"/>
    <path id="Path_8450" data-name="Path 8450" d="M810.976,439.658a3.971,3.971,0,1,0,5.279-1.882A3.971,3.971,0,0,0,810.976,439.658Z" transform="translate(-47.761 -25.772)" fill="#ffbf9d"/>
    <path id="Path_8451" data-name="Path 8451" d="M800.96,489.626l12.074,63.523,8.253-4.348L815.9,476.47" transform="translate(-47.194 -28.074)" fill="#f9ddbf"/>
    <path id="Path_8452" data-name="Path 8452" d="M677.544,415.321l8.978-5.289-2.183-7.952a26.094,26.094,0,0,0,3.388-4.649l8.036-.292,2.569-10.051-6.973-4.037a25.928,25.928,0,0,0-.941-5.571l5.449-5.778-5.317-8.884-7.717,1.986a26.033,26.033,0,0,0-4.536-3.435l-.207-8.009L668,350.81l-4.047,6.908c-1.882.066-4.348-.565-6.221-.085l-6.418-6.409-9.006,5.289,2.6,8.658a27.762,27.762,0,0,0-3.171,5.007l-7.933.461-2.513,10.145,7,4.075a26.37,26.37,0,0,0,.715,5.731l-5.646,5.929,5.327,8.893,7.943-2.127a26.113,26.113,0,0,0,4.649,3.369l.254,7.98,10.126,2.532,4.084-6.889a27.551,27.551,0,0,0,5.806-.621Zm-23.856-24.76a12.817,12.817,0,0,1,4.545-17.636,13.025,13.025,0,0,1,17.777,4.48,12.808,12.808,0,0,1-4.527,17.626A13.034,13.034,0,0,1,653.688,390.561Z" transform="translate(-37.197 -20.67)" fill="#fab943"/>
    <path id="Path_8453" data-name="Path 8453" d="M723.366,351.153l4.705-5.449L724.862,341a18.026,18.026,0,0,0,1.167-3.764l5.195-1.957-.583-7.143-5.5-1.167a17.714,17.714,0,0,0-1.882-3.444l2.268-4.978-5.477-4.63-4.611,3a18.516,18.516,0,0,0-3.764-1.242l-1.939-5.195-7.18.565-1.1,5.421c-1.233.461-2.974.583-4.084,1.317l-5.646-2.776-4.705,5.449,3.642,5.082a19.219,19.219,0,0,0-.941,3.971l-5.082,2.061.631,7.18,5.505,1.12a18.319,18.319,0,0,0,1.75,3.585l-2.305,5.157,5.487,4.63,4.705-3.143a18.486,18.486,0,0,0,3.764,1.176l1.967,5.157,7.19-.574,1.12-5.43a19.115,19.115,0,0,0,3.651-1.685Zm-19.16-13.279a5.75,5.75,0,0,1-.64-8.169,5.872,5.872,0,0,1,8.234-.649,5.759,5.759,0,0,1,.649,8.169,5.891,5.891,0,0,1-8.244.649Z" transform="translate(-40.34 -18.294)" fill="#fab943"/>
    <path id="Path_8454" data-name="Path 8454" d="M147.473,329.719a27.562,27.562,0,0,0,5.806.621l4.075,6.917,10.126-2.532.254-7.98a26.106,26.106,0,0,0,4.649-3.369l7.943,2.127,5.326-8.893-5.646-5.929a26.351,26.351,0,0,0,.715-5.731l7-4.075-2.531-10.117-7.933-.471a27.765,27.765,0,0,0-3.171-5.007l2.6-8.658-8.968-5.289-6.418,6.409c-1.882-.48-4.32.151-6.221.085l-4.065-6.908-10.088,2.55-.207,8.009a26.038,26.038,0,0,0-4.536,3.435l-7.717-1.986-5.317,8.884,5.449,5.778a25.909,25.909,0,0,0-.941,5.581L120.68,307.2l2.569,10.051,8.037.292a26.083,26.083,0,0,0,3.388,4.649l-2.183,7.952,8.978,5.289Zm.085-14.6a12.808,12.808,0,0,1-4.545-17.626,13.025,13.025,0,0,1,17.777-4.48,12.818,12.818,0,0,1,4.545,17.636,13.025,13.025,0,0,1-17.777,4.47Z" transform="translate(-7.111 -15.963)" fill="#fab943"/>
    <path id="Path_8455" data-name="Path 8455" d="M102.172,268.849a18.945,18.945,0,0,0,3.661,1.685l1.045,5.43,7.19.574,1.967-5.157A17.921,17.921,0,0,0,119.8,270.2l4.705,3.143,5.486-4.63-2.372-5.129a18.894,18.894,0,0,0,1.76-3.586l5.5-1.12.631-7.18-5.082-2.061a19.227,19.227,0,0,0-.941-3.971l3.642-5.082-4.705-5.449-5.646,2.823c-1.12-.734-2.823-.856-4.094-1.317l-1.1-5.421-7.18-.565-1.939,5.195a18.521,18.521,0,0,0-3.764,1.242l-4.611-3-5.477,4.63,2.268,4.978a17.72,17.72,0,0,0-1.882,3.444l-5.468,1.092-.583,7.143,5.355,1.948a18.03,18.03,0,0,0,1.167,3.764L92.253,265.8l4.705,5.449Zm5.646-11.519a5.759,5.759,0,0,1,.649-8.169,5.891,5.891,0,0,1,8.244.649,5.759,5.759,0,0,1-.649,8.169A5.891,5.891,0,0,1,107.818,257.33Z" transform="translate(-5.24 -13.591)" fill="#fab943"/>
    <rect id="Rectangle_92" data-name="Rectangle 92" width="54.752" height="29.22" transform="translate(55.646 485.446)" fill="#ffcc38"/>
    <rect id="Rectangle_93" data-name="Rectangle 93" width="43.243" height="29.22" transform="translate(89.007 485.446)" fill="#ffb700"/>
    <rect id="Rectangle_94" data-name="Rectangle 94" width="6.663" height="10.502" transform="translate(60.822 491.017)" fill="#fff"/>
    <path id="Path_8456" data-name="Path 8456" d="M80.716,509.06h-23.1a6.2,6.2,0,0,0-6.192,6.192h29.3Z" transform="translate(-3.03 -29.995)"/>
    <path id="Path_8457" data-name="Path 8457" d="M126.293,512.525H72.163A5.072,5.072,0,0,1,67.2,506.4l7.444-34.82a5.082,5.082,0,0,1,4.96-4.009h54.216a5.072,5.072,0,0,1,4.96,6.126l-7.444,34.82A5.082,5.082,0,0,1,126.293,512.525Z" transform="translate(-3.953 -27.55)"/>
    <path id="Path_8458" data-name="Path 8458" d="M108.492,489.414a3.5,3.5,0,1,1-3.5-3.294A3.4,3.4,0,0,1,108.492,489.414Z" transform="translate(-5.98 -28.643)" fill="#009315"/>
    <path id="Path_8459" data-name="Path 8459" d="M314.322,402.86H260.37v-44.1a26.981,26.981,0,0,1,26.943-26.971h0a26.971,26.971,0,0,1,26.971,26.971Z" transform="translate(-15.341 -19.55)"/>
    <path id="Path_8460" data-name="Path 8460" d="M307.785,553.28l-4.235,8.639h26.642a6.456,6.456,0,0,0-7.246-4.809l-3.2.489a3.124,3.124,0,0,1-2.88-4.32Z" transform="translate(-17.886 -32.6)" fill="#1a2e35"/>
    <path id="Path_8461" data-name="Path 8461" d="M264.727,553.28l4.225,8.639H242.32a6.446,6.446,0,0,1,7.237-4.809l3.2.489a3.124,3.124,0,0,0,2.88-4.32Z" transform="translate(-14.278 -32.6)" fill="#1a2e35"/>
    <path id="Path_8462" data-name="Path 8462" d="M326.658,477.124l-21.786-5.844-20.93,1.186L263,471.28l-21.786,5.844a9.985,9.985,0,0,0-7.18,12.385l16.507,58.8h16.582l-11.359-55.345,28.176-7.4,28.167,7.34-11.312,55.4h16.582l16.507-58.8a9.985,9.985,0,0,0-7.227-12.385Z" transform="translate(-13.768 -27.769)" fill="#1a2e35"/>
    <path id="Path_8463" data-name="Path 8463" d="M326.706,445.714l-4.385-33.879a16.939,16.939,0,0,0-15.782-15.161c-3.651-.226-7.228-.4-9.684-.4H272.066c-2.447,0-6.032.179-9.684.4A16.939,16.939,0,0,0,246.6,411.835l-4.385,33.879a8.705,8.705,0,0,0,3.426,8.1l8.677,6.484,4.338-31.846v39.892h51.562V428.455l4.338,31.846,8.677-6.484a8.7,8.7,0,0,0,3.473-8.1Z" transform="translate(-14.267 -23.349)"/>
    <path id="Path_8464" data-name="Path 8464" d="M309.835,474.456H260.147a4.828,4.828,0,0,1-4.8-4.329l-3.219-30.99a4.828,4.828,0,0,1,4.8-5.317H313.12a4.818,4.818,0,0,1,4.8,5.327l-3.284,30.99A4.828,4.828,0,0,1,309.835,474.456Z" transform="translate(-14.854 -25.561)" fill="#fab943"/>
    <path id="Path_8465" data-name="Path 8465" d="M291.05,455.1a4.235,4.235,0,1,1-4.225-4.225,4.235,4.235,0,0,1,4.225,4.225Z" transform="translate(-16.65 -26.566)" fill="#fab943"/>
    <path id="Path_8466" data-name="Path 8466" d="M309.345,362.133c.113-6.456-5.646-14.013-13.909-16.234a18.765,18.765,0,0,0-20.807,8.234l-.725,1.158a18.822,18.822,0,0,0-2.014,15.33l5.477,13.551.358,9.081,8.178,5.251,7.6-5.251-.339-9.815h7.256a9.3,9.3,0,0,0,9.176-9.307v-4.319Z" transform="translate(-15.973 -20.343)" fill="#ffbf9d"/>
    <path id="Path_8467" data-name="Path 8467" d="M286.241,368.255a4.705,4.705,0,1,1-4.705-4.705A4.705,4.705,0,0,1,286.241,368.255Z" transform="translate(-16.311 -21.421)" fill="#ffbf9d"/>
    <path id="Path_8468" data-name="Path 8468" d="M303.127,375.23a4.1,4.1,0,1,1-8.2,0" transform="translate(-17.377 -22.109)" fill="#fff"/>
    <path id="Path_8469" data-name="Path 8469" d="M308.856,353.5c-3.764-10.86-14.888-16-25.626-13.3h0a22.1,22.1,0,0,0-16.836,20.854l-.4,46.113a8.234,8.234,0,0,0,8.225,8.394h0a8.234,8.234,0,0,0,8.234-8.234l-.188-47.892,27.555-1.741a14.56,14.56,0,0,0-.96-4.2Z" transform="translate(-15.672 -20.004)" fill="#ffd01f"/>
    <path id="Path_8470" data-name="Path 8470" d="M311.964,347.76a26.943,26.943,0,0,0-51.534,10.032l3.03,35.074,1.647,3.171,6-24.788a22.746,22.746,0,0,1,18.172-19.076Z" transform="translate(-15.345 -19.55)"/>
    <path id="Path_8471" data-name="Path 8471" d="M619.381,141.94a15.922,15.922,0,0,1,3.331,1.355c2.089.941,5.082,2.4,8.724,4.188l.245.122.057.282c.518,2.974,1.129,6.4,1.788,10.107l.056.339-.245.245-9.269,9.627h0l-.377.386-.546-.245-11.773-6.07-.311-.16v-.329c-.574-3.764-1.1-7.171-1.562-10.164v-.282l.188-.2c2.908-2.9,5.3-5.242,6.983-6.832a16.245,16.245,0,0,1,2.729-2.372,14.833,14.833,0,0,1-2.287,2.823c-1.553,1.741-3.764,4.188-6.588,7.18a1.968,1.968,0,0,1,.141-.48c.536,2.983,1.139,6.39,1.8,10.117l-.358-.489,11.81,5.976-.847.141h0l9.345-9.552c-.066.2-.132.4-.179.583-.574-3.764-1.1-7.162-1.553-10.154l.292.4c-3.586-1.882-6.493-3.491-8.47-4.621A15.243,15.243,0,0,1,619.381,141.94Z" transform="translate(-35.913 -8.363)" fill="#eb6209"/>
    <path id="Path_8472" data-name="Path 8472" d="M611.839,161.674c-.292-.282,3.162-4.31,7.7-8.987l1.092-1.11-.2.612c-.941-5.731-1.318-10.182-.941-10.248s1.393,4.3,2.381,10.013l.066.358-.264.263-1.073,1.12C616.046,158.381,612.121,161.957,611.839,161.674Z" transform="translate(-36.05 -8.363)" fill="#eb6209"/>
    <path id="Path_8473" data-name="Path 8473" d="M621.729,152.706c.179-.358,2.964.706,6.23,2.372s5.75,3.3,5.571,3.661-2.974-.706-6.239-2.372S621.541,153.063,621.729,152.706Z" transform="translate(-36.633 -8.994)" fill="#eb6209"/>
    <path id="Path_8474" data-name="Path 8474" d="M50.154,312a15.061,15.061,0,0,1,3.2,1.59c2,1.11,4.847,2.757,8.329,4.8l.235.141v.292c.292,2.983.64,6.418,1.007,10.145v.339l-.264.226-9.844,8.818h0l-.4.358-.461-.282-11.2-6.9-.3-.188v-.329c-.292-3.764-.546-7.18-.772-10.183v-.292l.207-.179c3.106-2.644,5.646-4.781,7.425-6.239A15.5,15.5,0,0,1,50.154,312a14.785,14.785,0,0,1-2.475,2.607c-1.656,1.59-4.084,3.858-7.1,6.588.056-.151.122-.3.188-.461.292,2.993.64,6.409,1.007,10.154l-.32-.518,11.293,6.813-.866.075h0l9.975-8.752c-.085.188-.16.386-.226.565-.282-3.764-.546-7.18-.772-10.173l.264.423c-3.407-2.155-6.173-3.943-8.074-5.214a15.931,15.931,0,0,1-2.9-2.108Z" transform="translate(-2.338 -18.383)" fill="#fab943"/>
    <path id="Path_8475" data-name="Path 8475" d="M41.189,330.923c-.263-.3,3.454-4.028,8.31-8.319l1.158-1.026c-.085.207-.16.4-.235.6-.461-5.741-.546-10.182-.179-10.22s1.063,4.357,1.609,10.1v.358l-.273.245-1.158,1.026C45.612,328,41.462,331.224,41.189,330.923Z" transform="translate(-2.426 -18.381)" fill="#fab943"/>
    <path id="Path_8476" data-name="Path 8476" d="M51.759,322.756c.207-.348,2.889.941,5.995,2.823s5.449,3.708,5.232,4.047-2.889-.941-5.995-2.823S51.552,323.1,51.759,322.756Z" transform="translate(-3.049 -19.014)" fill="#fab943"/>
    <path id="Path_8477" data-name="Path 8477" d="M179.46,125.28a15.566,15.566,0,0,1,3.2,1.59c2,1.11,4.847,2.748,8.319,4.8l.235.141v.282c.292,2.993.631,6.418,1.007,10.154v.329l-.254.235-9.919,8.837h0l-.4.358-.452-.282c-3.953-2.437-7.736-4.771-11.208-6.9l-.292-.188V144.3c-.282-3.764-.546-7.18-.772-10.173v-.292l.207-.179c3.1-2.654,5.646-4.79,7.425-6.239a15.5,15.5,0,0,1,2.889-2.136,15.7,15.7,0,0,1-2.475,2.607c-1.656,1.59-4.094,3.849-7.1,6.588l.179-.471c.3,2.993.64,6.418,1.016,10.164-.113-.169-.216-.348-.32-.518l11.293,6.813-.856.075h0l9.975-8.761c-.075.2-.151.4-.226.565-.282-3.764-.536-7.171-.762-10.164.085.151.179.292.263.423-3.407-2.164-6.173-3.953-8.074-5.223a15.254,15.254,0,0,1-2.9-2.1Z" transform="translate(-9.953 -7.382)" fill="#fab943"/>
    <path id="Path_8478" data-name="Path 8478" d="M170.5,144.243c-.263-.3,3.454-4.028,8.31-8.329l1.158-1.016c-.085.207-.16.4-.245.6-.452-5.75-.536-10.192-.169-10.22s1.054,4.357,1.609,10.1v.358l-.273.245-1.148,1.026C174.913,141.307,170.763,144.544,170.5,144.243Z" transform="translate(-10.045 -7.382)" fill="#fab943"/>
    <path id="Path_8479" data-name="Path 8479" d="M181.059,136.067c.216-.339,2.9.941,5.995,2.823s5.449,3.717,5.242,4.056-2.9-.941-5.995-2.823S180.852,136.415,181.059,136.067Z" transform="translate(-10.668 -8.014)" fill="#fab943"/>
    <path id="Path_8480" data-name="Path 8480" d="M8.179,207.053A36.562,36.562,0,0,1,11,202.46c1.882-2.889,4.705-7.02,8.178-12.065l.151-.226h.292l15.453-.48h.339l.216.264L48.024,205.83h0l.329.423-.311.442L36.562,222.976l-.2.282h-.339l-15.481.245h-.3l-.169-.216c-3.764-4.922-6.766-8.95-8.827-11.763a36.64,36.64,0,0,1-3.087-4.48,35.147,35.147,0,0,1,3.614,4.1c2.212,2.7,5.364,6.588,9.213,11.462l-.452-.216,15.471-.48-.546.282c3.529-5.054,7.369-10.568,11.415-16.356v.866h0l-12.29-15.932.555.263-15.471.235.452-.235c-3.576,4.969-6.512,9.006-8.583,11.782a34.465,34.465,0,0,1-3.36,4.235Z" transform="translate(-0.481 -11.177)" fill="#eb6209"/>
    <path id="Path_8481" data-name="Path 8481" d="M36.008,223.607c-.311.245-5.468-5.844-11.5-13.608-.489-.63-.941-1.261-1.43-1.882l.583.273c-8.743.16-15.471,0-15.481-.358s6.71-.828,15.453-1.082h.376l.226.282,1.44,1.882C31.688,216.869,36.328,223.362,36.008,223.607Z" transform="translate(-0.482 -12.194)" fill="#eb6209"/>
    <path id="Path_8482" data-name="Path 8482" d="M24.608,206.736c-.32-.235,1.976-4.084,5.148-8.592s6-7.98,6.333-7.745-1.976,4.075-5.148,8.583S24.975,206.962,24.608,206.736Z" transform="translate(-1.448 -11.218)" fill="#eb6209"/>
    <path id="Path_8483" data-name="Path 8483" d="M367.13,329.834a35.173,35.173,0,0,1,2.823-4.593c1.882-2.889,4.705-7.02,8.178-12.065l.169-.207h.292l15.453-.48h.339l.216.273L407,328.592h0l.329.423-.311.442-11.509,16.3-.2.282h-.339l-15.481.245h-.254l-.169-.226c-3.764-4.922-6.766-8.95-8.827-11.763a36.636,36.636,0,0,1-3.087-4.48,34.68,34.68,0,0,1,3.576,4.094c2.221,2.7,5.374,6.588,9.223,11.462l-.461-.217,15.471-.48-.536.282c3.538-5.054,7.4-10.578,11.425-16.356v.866h0l-12.319-15.932.555.263-15.471.235c.16-.075.311-.16.442-.235-3.567,4.969-6.5,9.006-8.573,11.782A33.528,33.528,0,0,1,367.13,329.834Z" transform="translate(-21.632 -18.412)" fill="#fab943"/>
    <path id="Path_8484" data-name="Path 8484" d="M394.958,346.387c-.311.245-5.468-5.844-11.5-13.608-.489-.631-.941-1.261-1.43-1.882l.584.273c-8.743.16-15.471,0-15.481-.358s6.71-.828,15.453-1.082h.358l.226.292,1.44,1.844C390.638,339.649,395.24,346.142,394.958,346.387Z" transform="translate(-21.632 -19.428)" fill="#fab943"/>
    <path id="Path_8485" data-name="Path 8485" d="M383.558,329.516c-.329-.235,1.976-4.075,5.148-8.592s6-7.98,6.333-7.745-1.976,4.075-5.148,8.583S383.887,329.742,383.558,329.516Z" transform="translate(-22.598 -18.452)" fill="#fab943"/>
    <path id="Path_8486" data-name="Path 8486" d="M775.152,309.051c-.151-.461,7.849-3.5,20.628-7.933l.565-.2.518.358,14.041,9.759.6.414v.753c.132,6.87.282,14.389.433,22.257h0v1.176l-1.11.348-21.014,6.7-.725.226-.593-.433L774.748,332.3l-.518-.376v-.593c.085-13.674.4-22.266.875-22.275s1.054,8.573,1.553,22.238c-.169-.311-.329-.621-.508-.941l14.06,9.75-1.318-.2,21-6.908-1.063,1.515h0c-.085-7.867-.16-15.387-.226-22.256l.612,1.176c-5.044-3.764-9.684-7.18-13.74-10.173l1.073.16C783.566,307.3,775.3,309.522,775.152,309.051Z" transform="translate(-45.619 -17.731)" fill="#eb6209"/>
    <path id="Path_8487" data-name="Path 8487" d="M789.459,341.787c-.875,0-1.722-8.79-1.882-19.659V319.55c.235.433.442.838.659,1.252-7.792-5.722-13.448-10.587-12.987-11.246s6.9,3.143,14.813,8.7l.63.442v.809c0,.828,0,1.694.057,2.579C790.9,332.951,790.324,341.768,789.459,341.787Z" transform="translate(-45.677 -18.235)" fill="#eb6209"/>
    <path id="Path_8488" data-name="Path 8488" d="M790,319.705c-.273-.828,4.216-3.021,10.013-4.894s10.719-2.729,10.982-1.882-4.206,3.021-10.013,4.894S790.244,320.505,790,319.705Z" transform="translate(-46.547 -18.419)" fill="#eb6209"/>
    <path id="Path_8489" data-name="Path 8489" d="M685.734,200.206c-.066-.216,3.614-1.619,9.486-3.661l.264-.085.235.169,6.465,4.48.273.2v.367c.057,3.153.132,6.588.2,10.23h0v.536l-.508.16-9.674,3.077-.329.113-.273-.207-6.324-4.705-.235-.179v-.273c0-6.286.179-10.239.4-10.239s.489,3.943.715,10.229l-.235-.452,6.465,4.489-.6-.094,9.637-3.171-.5.706h0c0-3.623-.075-7.077-.1-10.239l.282.536-6.324-4.705.5.075C689.6,199.4,685.809,200.413,685.734,200.206Z" transform="translate(-40.38 -11.576)" fill="#fab943"/>
    <path id="Path_8490" data-name="Path 8490" d="M692.31,215.26c-.4,0-.791-4.047-.866-9.044V205.03l.3.574c-3.586-2.626-6.192-4.865-5.976-5.167s3.171,1.44,6.813,4l.292.2V206.2C692.978,211.194,692.714,215.25,692.31,215.26Z" transform="translate(-40.406 -11.808)" fill="#fab943"/>
    <path id="Path_8491" data-name="Path 8491" d="M692.55,205.105c-.122-.386,1.939-1.393,4.611-2.259s4.931-1.252,5.054-.866-1.939,1.393-4.611,2.249S692.682,205.481,692.55,205.105Z" transform="translate(-40.806 -11.892)" fill="#fab943"/>
    <path id="Path_8492" data-name="Path 8492" d="M400,213.431a15.569,15.569,0,0,1,2.089-1.412c1.383-.885,3.444-2.155,6.1-3.764,5.3-3.247,12.968-7.877,22.4-13.523l.226-.132.254.1,25.607,10.728.311.132.075.32c2.616,10.822,5.5,22.708,8.47,35.13h0l.122.508-.452.264-30.848,18.2-.292.169-.3-.132-25.541-10.945-.254-.1-.057-.263c-2.541-10.813-4.574-19.621-5.948-25.729-.687-3.049-1.2-5.43-1.543-7.049a16.483,16.483,0,0,1-.442-2.494,14.829,14.829,0,0,1,.753,2.419c.433,1.59,1.054,3.953,1.826,6.983,1.553,6.07,3.764,14.831,6.409,25.616l-.32-.376,25.635,10.728-.593.047,30.8-18.285c-.1.254-.216.508-.329.772h0l-8.4-35.149.386.452L430.621,195.7h.48c-9.486,5.534-17.241,10.032-22.633,13.109-2.7,1.543-4.809,2.729-6.249,3.529A14.768,14.768,0,0,1,400,213.431Z" transform="translate(-23.567 -11.466)" fill="#343334"/>
    <path id="Path_8493" data-name="Path 8493" d="M434.061,260.59c-.188,0-1.2-3.388-2.673-8.987s-3.435-13.335-5.505-21.918c-.329-1.393-.659-2.767-.941-4.075l.414.48c-7.218-3.087-13.57-5.872-18.106-7.933s-7.256-3.388-7.19-3.548,2.917.866,7.529,2.691,11.058,4.461,18.295,7.529l.32.132.085.348c.32,1.308.649,2.682.941,4.075,2.07,8.583,3.868,16.365,5.1,22.012S434.259,260.543,434.061,260.59Z" transform="translate(-23.572 -12.644)" fill="#343334"/>
    <path id="Path_8494" data-name="Path 8494" d="M427.19,224.979c-.2-.329,6.587-4.705,15.057-9.721s15.584-8.846,15.782-8.47-6.588,4.705-15.057,9.721S427.387,225.318,427.19,224.979Z" transform="translate(-25.17 -12.183)" fill="#343334"/>
    <g id="Group_415" data-name="Group 415" transform="translate(334.149)" opacity="0.87">
      <g id="Group_414" data-name="Group 414">
        <path id="Path_8495" data-name="Path 8495" d="M414.435,11.39l9.1,35.507L392.15,65.7l-9.1-35.516Z" transform="translate(-356.719 -0.671)" fill="#fbb03b"/>
        <path id="Path_8496" data-name="Path 8496" d="M390.5,66.205,364.17,55.486l-9.1-35.516L381.4,30.689Z" transform="translate(-355.07 -1.177)" fill="#eb6209"/>
        <path id="Path_8497" data-name="Path 8497" d="M381.4,29.512,355.07,18.793,386.455,0l26.331,10.719Z" transform="translate(-355.07)" fill="#f7931e"/>
      </g>
    </g>
    <g id="Group_417" data-name="Group 417" transform="translate(282.521 144.239)" opacity="0.87">
      <g id="Group_416" data-name="Group 416">
        <path id="Path_8498" data-name="Path 8498" d="M359.574,164.66l9.1,35.516L337.29,218.97l-9.11-35.516Z" transform="translate(-301.858 -153.941)" fill="#fbb03b"/>
        <path id="Path_8499" data-name="Path 8499" d="M335.642,219.476,309.31,208.757l-9.1-35.507,26.322,10.709Z" transform="translate(-300.21 -154.447)" fill="#eb6209"/>
        <path id="Path_8500" data-name="Path 8500" d="M326.532,182.782,300.21,172.073l31.385-18.8,26.331,10.719Z" transform="translate(-300.21 -153.27)" fill="#f7931e"/>
      </g>
    </g>
    <g id="Group_419" data-name="Group 419" transform="translate(362.071 99.171)" opacity="0.87">
      <g id="Group_418" data-name="Group 418">
        <path id="Path_8501" data-name="Path 8501" d="M444.1,116.76l9.1,35.516L421.82,171.07l-9.1-35.516Z" transform="translate(-386.389 -106.051)" fill="#fbb03b"/>
        <path id="Path_8502" data-name="Path 8502" d="M420.172,171.576l-26.331-10.71-9.1-35.516,26.331,10.709Z" transform="translate(-384.74 -106.557)" fill="#eb6209"/>
        <path id="Path_8503" data-name="Path 8503" d="M411.071,134.883,384.74,124.173l31.385-18.793,26.331,10.709Z" transform="translate(-384.74 -105.38)" fill="#f7931e"/>
      </g>
    </g>
    <g id="Group_421" data-name="Group 421" transform="translate(455.717 141.237)" opacity="0.87">
      <g id="Group_420" data-name="Group 420">
        <path id="Path_8504" data-name="Path 8504" d="M543.615,161.47l9.1,35.516L521.33,215.78l-9.1-35.516Z" transform="translate(-485.899 -150.751)" fill="#fbb03b"/>
        <path id="Path_8505" data-name="Path 8505" d="M519.682,216.285,493.36,205.566l-9.11-35.516,26.331,10.719Z" transform="translate(-484.25 -151.257)" fill="#eb6209"/>
        <path id="Path_8506" data-name="Path 8506" d="M510.581,179.592,484.25,168.873l31.385-18.793L541.966,160.8Z" transform="translate(-484.25 -150.08)" fill="#f7931e"/>
      </g>
    </g>
    <path id="Path_8507" data-name="Path 8507" d="M374.175,46.469c.094.169-2.174,1.685-5.919,4s-8.959,5.421-14.766,8.78-11.133,6.343-14.991,8.423-6.315,3.3-6.409,3.143,2.164-1.685,5.91-4,8.969-5.43,14.775-8.79,11.114-6.352,14.991-8.423S374.071,46.3,374.175,46.469Z" transform="translate(-19.567 -2.737)" fill="#343334"/>
    <path id="Path_8508" data-name="Path 8508" d="M402.224,150.709c.094.169-1.882,1.534-5.214,3.595s-7.933,4.828-13.081,7.811-9.862,5.646-13.3,7.453-5.646,2.9-5.712,2.729,1.882-1.534,5.214-3.595,7.933-4.828,13.081-7.811,9.853-5.646,13.3-7.453S402.121,150.54,402.224,150.709Z" transform="translate(-21.501 -8.879)" fill="#343334"/>
    <path id="Path_8509" data-name="Path 8509" d="M501.083,195.739c.094.169-1.986,1.581-5.43,3.717s-8.225,5-13.6,8.1-10.23,5.835-13.806,7.754-5.825,3.021-5.919,2.823,1.976-1.572,5.421-3.717,8.253-5.007,13.6-8.1,10.239-5.835,13.806-7.754S500.98,195.57,501.083,195.739Z" transform="translate(-27.241 -11.532)" fill="#343334"/>
    <path id="Path_8510" data-name="Path 8510" d="M415.555,119.425c-.188,0-1.12-3.04-2.456-8.074s-3.1-12.008-4.96-19.763-3.463-14.737-4.555-19.829S401.91,63.5,402.1,63.45s1.12,3.04,2.456,8.074,3.1,12.046,4.978,19.734,3.463,14.728,4.555,19.819S415.743,119.388,415.555,119.425Z" transform="translate(-23.69 -3.739)" fill="#343334"/>
    <path id="Path_8511" data-name="Path 8511" d="M329.062,167.528c-.188.047-1.092-2.946-2.39-7.811s-3.011-11.632-4.809-19.113-3.35-14.267-4.4-19.207-1.609-8-1.421-8.046,1.092,2.946,2.39,7.82,3.011,11.622,4.809,19.1,3.35,14.276,4.4,19.207S329.251,167.481,329.062,167.528Z" transform="translate(-18.619 -6.679)" fill="#343334"/>
    <path id="Path_8512" data-name="Path 8512" d="M513.965,159.086c-.188,0-1.054-2.823-2.3-7.4s-2.823-11.02-4.564-18.1-3.171-13.523-4.16-18.2-1.515-7.585-1.327-7.632,1.054,2.823,2.3,7.4,2.823,11.011,4.564,18.106,3.171,13.514,4.16,18.191S514.153,159.039,513.965,159.086Z" transform="translate(-29.554 -6.349)" fill="#343334"/>
    <path id="Path_8513" data-name="Path 8513" d="M398.341,215.214c-.085.179-2.757-.875-7.011-2.72s-10.107-4.47-16.516-7.463-12.234-5.759-16.347-7.839-6.672-3.444-6.587-3.623,2.757.875,7.02,2.72,10.1,4.48,16.516,7.463,12.187,5.769,16.337,7.839S398.426,215.035,398.341,215.214Z" transform="translate(-20.733 -11.404)" fill="#343334"/>
    <path id="Path_8514" data-name="Path 8514" d="M482.078,165.281c-.075.179-2.757-.753-7.03-2.409s-10.135-4.037-16.572-6.738-12.234-5.232-16.422-7.124-6.719-3.143-6.644-3.331,2.757.762,7.03,2.409,10.135,4.037,16.582,6.738,12.234,5.232,16.412,7.124S482.078,165.1,482.078,165.281Z" transform="translate(-25.655 -8.582)" fill="#343334"/>
    <path id="Path_8515" data-name="Path 8515" d="M436.517,145.594a1.383,1.383,0,1,1-1.383-1.374A1.383,1.383,0,0,1,436.517,145.594Z" transform="translate(-25.557 -8.498)" fill="#343334"/>
    <path id="Path_8516" data-name="Path 8516" d="M417.687,122.844a1.383,1.383,0,1,1-1.374-1.374,1.383,1.383,0,0,1,1.374,1.374Z" transform="translate(-24.448 -7.157)" fill="#343334"/>
    <path id="Path_8517" data-name="Path 8517" d="M405.827,150.623a1.374,1.374,0,1,1-.4-.981A1.383,1.383,0,0,1,405.827,150.623Z" transform="translate(-23.749 -8.793)" fill="#343334"/>
    <path id="Path_8518" data-name="Path 8518" d="M353.937,193.484a1.383,1.383,0,1,1-1.374-1.374A1.383,1.383,0,0,1,353.937,193.484Z" transform="translate(-20.691 -11.319)" fill="#343334"/>
    <path id="Path_8519" data-name="Path 8519" d="M331.177,170.841a1.383,1.383,0,1,1-1.379-1.269A1.384,1.384,0,0,1,331.177,170.841Z" transform="translate(-19.351 -9.991)" fill="#343334"/>
    <path id="Path_8520" data-name="Path 8520" d="M516.027,162.206a1.383,1.383,0,1,1-.654-1.292A1.383,1.383,0,0,1,516.027,162.206Z" transform="translate(-30.242 -9.469)" fill="#343334"/>
    <path id="Path_8521" data-name="Path 8521" d="M378.1,46.914a1.383,1.383,0,1,1-1.374-1.374,1.383,1.383,0,0,1,1.374,1.374Z" transform="translate(-22.115 -2.683)" fill="#343334"/>
    <path id="Path_8522" data-name="Path 8522" d="M504.827,195.653a1.374,1.374,0,1,1-.4-.978,1.383,1.383,0,0,1,.4.978Z" transform="translate(-29.582 -11.447)" fill="#343334"/>
    <path id="Path_8523" data-name="Path 8523" d="M269.536,68.817a14.623,14.623,0,0,1,2.08-1.421c1.383-.875,3.444-2.146,6.1-3.764,5.3-3.284,12.959-7.924,22.369-13.57l.235-.141.254.113L326.18,60.761l.3.122.075.329c2.626,10.822,5.5,22.7,8.47,35.121h0l.122.508-.442.263-30.858,18.2-.282.169-.311-.132L277.714,104.4l-.254-.113-.056-.264c-2.531-10.813-4.574-19.612-5.948-25.72-.687-3.058-1.2-5.439-1.543-7.058a14.25,14.25,0,0,1-.433-2.484,16.6,16.6,0,0,1,.743,2.409c.433,1.6,1.054,3.962,1.826,6.992,1.553,6.061,3.764,14.831,6.409,25.607l-.32-.367,25.71,10.738h-.593l30.8-18.276c-.1.254-.216.508-.32.772h0c-2.964-12.441-5.806-24.327-8.4-35.149.141.151.273.311.386.452L300.178,51.03h.48c-9.486,5.5-17.241,9.985-22.633,13.081-2.7,1.543-4.809,2.729-6.249,3.52a14.658,14.658,0,0,1-2.24,1.186Z" transform="translate(-15.878 -2.941)" fill="#343334"/>
    <path id="Path_8524" data-name="Path 8524" d="M303.58,115.932c-.2,0-1.2-3.4-2.682-8.987s-3.435-13.344-5.515-21.889c-.339-1.393-.668-2.823-.941-4.075l.4.48c-7.218-3.087-13.57-5.872-18.106-7.933s-7.256-3.388-7.18-3.548,2.908.856,7.529,2.691,11.058,4.461,18.295,7.529l.32.132.085.348c.32,1.3.649,2.673.988,4.075,2.07,8.573,3.868,16.365,5.1,22.012S303.768,115.885,303.58,115.932Z" transform="translate(-15.883 -4.122)" fill="#343334"/>
    <path id="Path_8525" data-name="Path 8525" d="M296.7,80.319c-.2-.339,6.588-4.705,15.057-9.721s15.584-8.856,15.782-8.47-6.588,4.705-15.057,9.731S296.9,80.658,296.7,80.319Z" transform="translate(-17.482 -3.659)" fill="#343334"/>
    <path id="Path_8526" data-name="Path 8526" d="M460.37,59.751a15.243,15.243,0,0,1,2.08-1.412c1.383-.885,3.444-2.155,6.1-3.764,5.3-3.237,12.968-7.867,22.4-13.514l.226-.141.254.1,25.616,10.728.3.132.075.329c2.616,10.822,5.5,22.7,8.47,35.121h0l.122.508-.442.273L494.71,106.306l-.282.169-.311-.122L468.6,95.39l-.254-.1-.057-.264c-2.532-10.813-4.574-19.612-5.948-25.72-.687-3.059-1.2-5.439-1.543-7.058a14.122,14.122,0,0,1-.433-2.494,17.651,17.651,0,0,1,.743,2.419c.433,1.6,1.054,3.953,1.826,6.983,1.553,6.07,3.764,14.831,6.409,25.616l-.32-.376,25.635,10.738h-.593l30.8-18.285-.329.781h0l-8.4-35.149.386.452L491.012,42.012h.48c-9.486,5.505-17.241,9.994-22.633,13.1-2.7,1.543-4.809,2.739-6.249,3.529A15.055,15.055,0,0,1,460.37,59.751Z" transform="translate(-27.126 -2.411)" fill="#343334"/>
    <path id="Path_8527" data-name="Path 8527" d="M494.4,106.912c-.188,0-1.2-3.388-2.673-8.978s-3.473-13.344-5.505-21.88c-.329-1.4-.659-2.776-.941-4.084.132.169.273.32.4.48-7.218-3.087-13.57-5.872-18.106-7.924s-7.256-3.388-7.18-3.557,2.908.866,7.529,2.691,11.058,4.461,18.294,7.529l.32.141.085.339c.32,1.308.649,2.682.988,4.084,2.07,8.573,3.868,16.356,5.1,22.012S494.6,106.865,494.4,106.912Z" transform="translate(-27.127 -3.591)" fill="#343334"/>
    <path id="Path_8528" data-name="Path 8528" d="M487.53,71.309c-.2-.339,6.588-4.705,15.057-9.731s15.584-8.846,15.782-8.47-6.541,4.705-15.057,9.721S487.727,71.638,487.53,71.309Z" transform="translate(-28.726 -3.128)" fill="#343334"/>
  </g>
</svg>
