<svg xmlns="http://www.w3.org/2000/svg" width="36.564" height="46" viewBox="0 0 36.564 46">
  <g id="Document" transform="translate(-4.25 -2.25)">
    <path id="Path_3271" data-name="Path 3271" d="M25.942,14.019a1.769,1.769,0,0,0-1.769-1.769H10.019a1.769,1.769,0,0,0,0,3.538H24.173A1.769,1.769,0,0,0,25.942,14.019Z" transform="translate(5.436 13.59)" fill="#ff5100"/>
    <path id="Path_3272" data-name="Path 3272" d="M25.942,18.019a1.769,1.769,0,0,0-1.769-1.769H10.019a1.769,1.769,0,0,0,0,3.538H24.173A1.769,1.769,0,0,0,25.942,18.019Z" transform="translate(5.436 19.026)" fill="#ff5100"/>
    <path id="Path_3273" data-name="Path 3273" d="M10.737,2.25A6.487,6.487,0,0,0,4.25,8.737V41.763a6.487,6.487,0,0,0,6.487,6.487h23.59a6.487,6.487,0,0,0,6.487-6.487V15.738a4.129,4.129,0,0,0-.834-2.489L32.908,3.89a4.128,4.128,0,0,0-3.294-1.64ZM7.788,8.737a2.949,2.949,0,0,1,2.949-2.949h17.1V16.161a1.769,1.769,0,0,0,1.769,1.769h7.667V41.763a2.949,2.949,0,0,1-2.949,2.949H10.737a2.949,2.949,0,0,1-2.949-2.949Z" transform="translate(0 0)" fill="#ff5100" fill-rule="evenodd"/>
  </g>
</svg>
