<svg xmlns="http://www.w3.org/2000/svg" width="39.03" height="43.87" viewBox="0 0 39.03 43.87">
  <g id="Timer" transform="translate(-2.75 -1.518)">
    <path id="Path_3265" data-name="Path 3265" d="M10.876,4.77a1.626,1.626,0,0,1,0-3.253h7.666a1.626,1.626,0,1,1,0,3.253Z" transform="translate(7.594 0)" fill="#ff5100"/>
    <path id="Path_3266" data-name="Path 3266" d="M10.947,3.726a1.626,1.626,0,0,1,0,2.3L5.526,11.447a1.626,1.626,0,0,1-2.3-2.3L8.647,3.726A1.626,1.626,0,0,1,10.947,3.726Z" transform="translate(0 2.024)" fill="#ff5100"/>
    <path id="Path_3267" data-name="Path 3267" d="M22.223,7.5A15.721,15.721,0,1,0,37.944,23.223a1.626,1.626,0,1,1,3.253,0A18.973,18.973,0,1,1,22.223,4.25a1.626,1.626,0,1,1,0,3.253Z" transform="translate(0.584 3.192)" fill="#ff5100"/>
    <path id="Path_3268" data-name="Path 3268" d="M25.365,9.778A1.626,1.626,0,0,0,23.083,7.5L16.21,12.842l-4.492,3.208a3.651,3.651,0,1,0,5.093,5.093l3.208-4.492Z" transform="translate(8.692 6.585)" fill="#ff5100"/>
  </g>
</svg>
