<svg xmlns="http://www.w3.org/2000/svg" width="37.106" height="40.647" viewBox="0 0 37.106 40.647">
  <g id="User" transform="translate(-4.25 -3.25)">
    <path id="Path_3269" data-name="Path 3269" d="M7.75,13.424A10.174,10.174,0,1,1,17.924,23.6,10.174,10.174,0,0,1,7.75,13.424ZM17.924,6.841a6.583,6.583,0,1,0,6.583,6.583A6.583,6.583,0,0,0,17.924,6.841Z" transform="translate(4.879 0)" fill="#ff5100" fill-rule="evenodd"/>
    <path id="Path_3270" data-name="Path 3270" d="M13.227,16.841a5.386,5.386,0,0,0-5.386,5.386v2.845a.088.088,0,0,0,.074.087,92.39,92.39,0,0,0,29.776,0,.088.088,0,0,0,.074-.087V22.227a5.387,5.387,0,0,0-5.386-5.386h-.816a.605.605,0,0,0-.186.029l-2.072.677a20.949,20.949,0,0,1-13,0l-2.072-.677a.6.6,0,0,0-.186-.029ZM4.25,22.227a8.977,8.977,0,0,1,8.977-8.977h.816a4.194,4.194,0,0,1,1.3.207l2.072.677a17.359,17.359,0,0,0,10.775,0l2.072-.677a4.194,4.194,0,0,1,1.3-.207h.816a8.977,8.977,0,0,1,8.977,8.977v2.845A3.679,3.679,0,0,1,38.27,28.7a95.986,95.986,0,0,1-30.933,0A3.679,3.679,0,0,1,4.25,25.072Z" transform="translate(0 13.94)" fill="#ff5100" fill-rule="evenodd"/>
  </g>
</svg>
