<svg id="Download" xmlns="http://www.w3.org/2000/svg" width="15.5" height="17.5" viewBox="0 0 15.5 17.5">
  <path id="Path_8533" data-name="Path 8533" d="M10.738,3.25A1.492,1.492,0,0,0,9.251,4.612a37.118,37.118,0,0,0-.107,4.845l-.253.018L7.4,9.583a1.26,1.26,0,0,0-.97,1.935,16.055,16.055,0,0,0,4.162,4.395l.6.429a1.388,1.388,0,0,0,1.619,0l.6-.429a16.054,16.054,0,0,0,4.162-4.395,1.26,1.26,0,0,0-.97-1.935l-1.49-.109-.253-.018a37.118,37.118,0,0,0-.107-4.845A1.492,1.492,0,0,0,13.262,3.25Zm-.056,6.865a35.624,35.624,0,0,1,.064-5.365h2.51a35.611,35.611,0,0,1,.064,5.365.75.75,0,0,0,.712.8q.485.024.969.059l1.082.079a14.555,14.555,0,0,1-3.55,3.645L12,15.076l-.531-.382a14.554,14.554,0,0,1-3.55-3.645L9,10.971q.484-.035.97-.059a.75.75,0,0,0,.712-.8Z" transform="translate(-4.25 -3.25)" fill="#fff" fill-rule="evenodd"/>
  <path id="Path_8534" data-name="Path 8534" d="M5.75,17a.75.75,0,0,0-1.5,0v2A1.75,1.75,0,0,0,6,20.75H18A1.75,1.75,0,0,0,19.75,19V17a.75.75,0,0,0-1.5,0v2a.25.25,0,0,1-.25.25H6A.25.25,0,0,1,5.75,19Z" transform="translate(-4.25 -3.25)" fill="#fff"/>
</svg>
