<svg xmlns="http://www.w3.org/2000/svg" width="13.501" height="21.129" viewBox="0 0 13.501 21.129">
  <path id="Mobile-phone" d="M18.75,10.5l-.007.243L18.75,11l-.006.243.006.257-.006.245L18.75,12l-.162,7.1a3.359,3.359,0,0,1-3,3.262,33.365,33.365,0,0,1-7.183,0,3.359,3.359,0,0,1-3-3.262L5.25,12l.006-.257L5.25,11.5l.006-.256L5.25,11l.007-.256L5.25,10.5l.164-6.1q0-.128.018-.252l0-.035,0-.028a2.663,2.663,0,0,1,1.2-1.974q.074-.05.152-.094t.155-.085a2.872,2.872,0,0,1,1.079-.32,43.332,43.332,0,0,1,7.944,0,2.871,2.871,0,0,1,1.078.319q.079.04.155.085t.157.1a2.663,2.663,0,0,1,1.2,1.965l.008.074q.014.123.017.248ZM17.074,4.321l.157,6.867-.127,4.73A2.1,2.1,0,0,1,15.2,17.953a34.875,34.875,0,0,1-6.394,0A2.1,2.1,0,0,1,6.9,15.918l-.127-4.73.157-6.867q0-.022,0-.044a1.38,1.38,0,0,1,.623-.96,1.16,1.16,0,0,1,.412-.125,37.5,37.5,0,0,1,8.075,0,1.16,1.16,0,0,1,.412.124,1.38,1.38,0,0,1,.623.961Q17.074,4.3,17.074,4.321ZM12,21.7a1.5,1.5,0,1,0-1.5-1.5A1.5,1.5,0,0,0,12,21.7Z" transform="translate(-5.25 -1.43)" fill="#fff" fill-rule="evenodd"/>
</svg>
