<svg xmlns="http://www.w3.org/2000/svg" width="19.566" height="16.154" viewBox="0 0 19.566 16.154">
  <path id="_004-twitter" data-name="004-twitter" d="M7.444,16.153c-3.266,0-5.847-.571-7.081-1.565l-.024-.019-.022-.022a1,1,0,0,1-.263-1.056l.011-.031A1.023,1.023,0,0,1,1,12.818a8.431,8.431,0,0,0,2.229-.307A4.232,4.232,0,0,1,1,9.933a.914.914,0,0,1,.319-1.065.932.932,0,0,1,.278-.142A6.171,6.171,0,0,1,.329,6.459L.322,6.433.317,6.407A.951.951,0,0,1,.757,5.387a.947.947,0,0,1,.451-.127,4.771,4.771,0,0,1-.36-1.1,4.6,4.6,0,0,1,.49-3.065L1.459.851A.677.677,0,0,1,2.543.675L2.764.9A10.432,10.432,0,0,0,8.779,4.191a4.792,4.792,0,0,1,1.294-2.763A4.539,4.539,0,0,1,13.313,0h.008A6.492,6.492,0,0,1,16,.872c.577-.189,1.271-.481,1.992-.79A.91.91,0,0,1,19.01.262a.894.894,0,0,1,.194.983q-.079.219-.178.429a.911.911,0,0,1,.265.183.984.984,0,0,1,.245.92l-.009.031a3.753,3.753,0,0,1-1.508,2.07C17.9,11.117,13.2,16.153,7.444,16.153Zm-5.981-2.2a13.515,13.515,0,0,0,5.981,1.057,8.959,8.959,0,0,0,6.642-3.022,10.826,10.826,0,0,0,2.788-7.346V4.607a.676.676,0,0,1,.361-.6,2.436,2.436,0,0,0,1.054-1.167.677.677,0,0,1-.652-1.066,3.724,3.724,0,0,0,.256-.4c-.622.261-1.213.5-1.726.651a.734.734,0,0,1-.565-.061,5.59,5.59,0,0,0-2.277-.815A3.568,3.568,0,0,0,9.894,4.763a.677.677,0,0,1-.808.664A11.862,11.862,0,0,1,2.2,1.96a3.387,3.387,0,0,0-.223,1.981,4.187,4.187,0,0,0,.993,1.927.677.677,0,0,1-.683,1.1,3.1,3.1,0,0,1-.631-.242A5.716,5.716,0,0,0,3.614,9a.677.677,0,0,1-.433,1.233,3.042,3.042,0,0,1-.9-.194,3.086,3.086,0,0,0,2.462,1.745.677.677,0,0,1,.2,1.265,8.13,8.13,0,0,1-3.483.9Zm0,0" transform="translate(0 0)" fill="#fff"/>
</svg>
