<svg xmlns="http://www.w3.org/2000/svg" id="User" width="15.4" height="16.925" viewBox="0 0 15.4 16.925"><path id="Path_8529" fill="#fff" fill-rule="evenodd" d="M5,8.5a4.3,4.3,0,0,1,8.6,0A4.3,4.3,0,0,1,5,8.5ZM9.2,5.8A2.689,2.689,0,0,0,6.5,8.5a2.8,2.8,0,0,0,2.8,2.8A2.711,2.711,0,0,0,12,8.5,2.775,2.775,0,0,0,9.2,5.8Z" data-name="Path 8529" transform="translate(-1.5 -4.2)"/><path id="Path_8530" fill="#fff" fill-rule="evenodd" d="M5.2,15.8A2.22,2.22,0,0,0,3,18v1.2H3a36.872,36.872,0,0,0,12.4,0h0V18a2.242,2.242,0,0,0-2.3-2.2h-.4l-.9.3a8.324,8.324,0,0,1-5.4,0l-.9-.3H5.2ZM1.5,18a3.714,3.714,0,0,1,3.8-3.7h.3a.749.749,0,0,1,.5.1l.9.2a6.938,6.938,0,0,0,4.5,0l.9-.3a1.087,1.087,0,0,1,.5-.1h.3a3.691,3.691,0,0,1,3.7,3.7v1.2a1.435,1.435,0,0,1-1.3,1.5,39.884,39.884,0,0,1-12.9,0,1.272,1.272,0,0,1-1.2-1.4Z" data-name="Path 8530" transform="translate(-1.5 -4.2)"/></svg>