<svg xmlns="http://www.w3.org/2000/svg" width="18.829" height="15.094" viewBox="0 0 18.829 15.094">
  <g id="Image" transform="translate(-2.586 -4.453)">
    <path id="Path_8535" data-name="Path 8535" d="M14,9a1.5,1.5,0,1,1,1.5,1.5A1.5,1.5,0,0,1,14,9Z" fill="#fff"/>
    <path id="Path_8536" data-name="Path 8536" d="M7.268,4.659a54.647,54.647,0,0,1,9.465,0l1.51.131a3.138,3.138,0,0,1,2.831,2.66,30.6,30.6,0,0,1,0,9.1,3.138,3.138,0,0,1-2.831,2.66l-1.51.131a54.635,54.635,0,0,1-9.465,0l-1.51-.131a3.138,3.138,0,0,1-2.831-2.66,30.6,30.6,0,0,1,0-9.1A3.138,3.138,0,0,1,5.757,4.79ZM16.6,6.153a53.146,53.146,0,0,0-9.205,0l-1.51.131A1.638,1.638,0,0,0,4.409,7.673,29.1,29.1,0,0,0,4.1,12.842L7.97,8.97A.75.75,0,0,1,9.061,9l3.671,4.13,2.531-.844a.75.75,0,0,1,.795.21l3.519,3.91q.008-.04.014-.081a29.1,29.1,0,0,0,0-8.655,1.638,1.638,0,0,0-1.478-1.388ZM18.62,17.588l-3.349-3.721-2.534.845a.75.75,0,0,1-.8-.213L8.468,10.593,4.224,14.837q.073.747.185,1.491a1.638,1.638,0,0,0,1.478,1.388l1.51.131a53.152,53.152,0,0,0,9.205,0l1.51-.131A1.635,1.635,0,0,0,18.62,17.588Z" fill="#fff" fill-rule="evenodd"/>
  </g>
</svg>
